<svg id="icon-square-chat" xmlns="http://www.w3.org/2000/svg" width="24" height="21.348" viewBox="0 0 24 21.348">
  <path id="Caminho_408" data-name="Caminho 408" d="M21.2,4.133H2.8A2.881,2.881,0,0,0,0,7.082V19.509a2.881,2.881,0,0,0,2.8,2.949h.871a1.534,1.534,0,0,1,1.19.617l2.192,2.216a.641.641,0,0,0,.453.189h.022a.641.641,0,0,0,.46-.219l.038-.044c.193-.223,1.107-1.276,1.874-2.147a1.613,1.613,0,0,1,1.182-.612H21.2A2.881,2.881,0,0,0,24,19.509V7.082A2.881,2.881,0,0,0,21.2,4.133ZM1.275,7.082A1.607,1.607,0,0,1,2.8,5.408H21.2a1.607,1.607,0,0,1,1.526,1.674V19.509A1.607,1.607,0,0,1,21.2,21.184H11.083a2.859,2.859,0,0,0-2.139,1.045c-.508.576-1.081,1.234-1.467,1.678L5.812,22.227a2.744,2.744,0,0,0-2.139-1.043H2.8a1.607,1.607,0,0,1-1.526-1.675Z" transform="translate(0 -4.133)" fill="#fff"/>
  <g id="Grupo_379" data-name="Grupo 379" transform="translate(4.871 7.291)">
    <path id="Caminho_409" data-name="Caminho 409" d="M13.2,24.735a1.689,1.689,0,1,0-1.689-1.689A1.691,1.691,0,0,0,13.2,24.735Z" transform="translate(-11.507 -21.356)" fill="#fff"/>
    <path id="Caminho_410" data-name="Caminho 410" d="M26.046,24.735a1.689,1.689,0,1,0-1.689-1.689A1.691,1.691,0,0,0,26.046,24.735Z" transform="translate(-18.917 -21.356)" fill="#fff"/>
    <path id="Caminho_411" data-name="Caminho 411" d="M38.9,24.735a1.689,1.689,0,1,0-1.689-1.689A1.691,1.691,0,0,0,38.9,24.735Z" transform="translate(-26.327 -21.356)" fill="#fff"/>
  </g>
</svg>
