<svg xmlns="http://www.w3.org/2000/svg" width="24" height="18.281" viewBox="0 0 24 18.281">
  <g id="icon-square-email" transform="translate(-306.805 453.185)">
    <path id="Caminho_588" data-name="Caminho 588" d="M328.7-453.185H308.914a2.113,2.113,0,0,0-2.109,2.109v14.063a2.113,2.113,0,0,0,2.109,2.109H328.7a2.113,2.113,0,0,0,2.109-2.109v-14.063A2.113,2.113,0,0,0,328.7-453.185Zm-.292,1.406-9.554,9.555-9.637-9.555Zm.995,14.444v.031l0,0c-.052.5-.26,1-.992,1h-19.2l.022-.022a1.016,1.016,0,0,1-1.016-1.137v-13.323l6.135,6.082.009-.008,1.989,1.989h0l2.013,2a.7.7,0,0,0,.992,0l2.019-2.02,2.1-2.1,5.935-5.935v12.671A6.926,6.926,0,0,1,329.4-437.335Z" fill="#fff"/>
  </g>
</svg>
