<svg id="Camada_1" data-name="Camada 1" xmlns="http://www.w3.org/2000/svg" viewBox="0 0 63.21 63.09"><defs><style>.cls-1{fill:#fff;}</style></defs><path class="cls-1" d="M19.86,58.17V25.73A7.15,7.15,0,0,1,27,18.59h9.21a7.15,7.15,0,0,1,7.14,7.14V58.17Zm19.86-3.63V25.73a3.51,3.51,0,0,0-3.51-3.51H27a3.52,3.52,0,0,0-3.51,3.51V54.54Z"/><path class="cls-1" d="M0,58.17V32a7.14,7.14,0,0,1,7.14-7.14h9.21A7.14,7.14,0,0,1,23.49,32v26.2Zm19.86-3.63V32a3.51,3.51,0,0,0-3.51-3.51H7.14A3.52,3.52,0,0,0,3.63,32V54.54Z"/><path class="cls-1" d="M39.72,58.17V12.06a7.14,7.14,0,0,1,7.14-7.14h9.21a7.14,7.14,0,0,1,7.14,7.14V58.17Zm19.86-3.63V12.06a3.51,3.51,0,0,0-3.51-3.51H46.86a3.51,3.51,0,0,0-3.51,3.51V54.54Z"/></svg>