<svg xmlns="http://www.w3.org/2000/svg" width="41.003" height="41.002" viewBox="0 0 41.003 41.002">
  <g id="icon-buildings-white" transform="translate(-383.808 76.203)">
    <path id="Union_58" data-name="Union 58" d="M882.649-11139.7a1.026,1.026,0,0,1-1.026-1.026v-1.026h1.651v-22.072a1.028,1.028,0,0,1,1.026-1.028l13.2,0a1.025,1.025,0,0,1,1.026,1.026v22.072h6.2v-31.971a1.029,1.029,0,0,1,1.026-1.027h13.2a1.028,1.028,0,0,1,1.026,1.026v31.971h1.648v1.026a1.028,1.028,0,0,1-1.026,1.027Zm35.27-2.053v-30.944H906.774v6.347h8.248v2.053h-8.248v4.059h8.248v2.054h-8.248v4.058h8.248v2.055h-8.248v10.32h1.245v-3.1a1.03,1.03,0,0,1,1.028-1.029h4.125a1.029,1.029,0,0,1,1.026,1.027v3.1Zm-5.776,0v-2.072h-2.071v2.072Zm-15.672,0v-21.045H885.326v21.045h1.247v-2.273a1.028,1.028,0,0,1,1.026-1.028h6.6a1.026,1.026,0,0,1,1.026,1.027v2.273Zm-3.3,0V-11143h-4.545v1.248Zm-1.424-4.547v-15.25H893.8v15.25Zm-3.75,0v-15.25h2.055v15.25Zm12.6-1.65v-2.877h2.052v2.877Zm0-4.949v-2.877h2.052v2.877Zm0-4.949v-2.877h2.052v2.877Zm0-4.949v-2.877h2.052v2.877Zm-10.725-3.3v-12.575a1.029,1.029,0,0,1,1.026-1.029l22.275,0a1.026,1.026,0,0,1,1.026,1.027v2.676h-2.054v-1.649H891.926v11.549Zm10.725-1.65v-2.876h2.052v2.876Zm-3.3,0v-2.876h2.054v2.876Zm-3.3,0v-2.876h2.052v2.876Zm6.6-4.949v-2.876h2.052v2.876Zm-3.3,0v-2.876h2.054v2.876Zm-3.3,0v-2.876h2.052v2.876Z" transform="translate(-497.315 11103.998)" fill="#fff" stroke="rgba(0,0,0,0)" stroke-width="1"/>
  </g>
</svg>
