<svg xmlns="http://www.w3.org/2000/svg" id="Camada_1" data-name="Camada 1" viewBox="0 0 63.21 63.09"><defs><style>.cls-1{fill:#175c7d;}</style></defs><path class="cls-1" d="M18.41,56A4.69,4.69,0,0,1,15.6,55a4.57,4.57,0,0,1-1.81-4.5l2-11.17a1.36,1.36,0,0,0-.41-1.23L7,30.23A4.55,4.55,0,0,1,5.8,25.5a4.65,4.65,0,0,1,3.82-3.2l11.52-1.63a1.46,1.46,0,0,0,1.1-.78L27.4,9.7a4.68,4.68,0,0,1,4.2-2.56h0a4.68,4.68,0,0,1,4.2,2.56h0L41,19.89a1.46,1.46,0,0,0,1.1.78L53.59,22.3a4.64,4.64,0,0,1,3.82,3.2,4.57,4.57,0,0,1-1.22,4.73l-8.32,7.9a1.33,1.33,0,0,0-.41,1.22l2,11.17A4.59,4.59,0,0,1,47.61,55a4.72,4.72,0,0,1-5,.41L32.3,50.13a1.55,1.55,0,0,0-1.39,0l-10.33,5.3A4.78,4.78,0,0,1,18.41,56Zm13.2-9.22a4.84,4.84,0,0,1,2.16.52l10.33,5.3a1.49,1.49,0,0,0,1.59-.13,1.35,1.35,0,0,0,.54-1.34l-2-11.17a4.58,4.58,0,0,1,1.37-4.13L54,27.88a1.32,1.32,0,0,0,.36-1.4,1.42,1.42,0,0,0-1.18-1L41.62,23.87a4.69,4.69,0,0,1-3.54-2.52L32.92,11.16a1.46,1.46,0,0,0-1.31-.79h0a1.46,1.46,0,0,0-1.31.79l-5.16,10.2a4.69,4.69,0,0,1-3.54,2.51L10.07,25.5a1.42,1.42,0,0,0-1.18,1,1.31,1.31,0,0,0,.37,1.4l8.31,7.9a4.59,4.59,0,0,1,1.37,4.14L17,51.08a1.34,1.34,0,0,0,.55,1.34,1.49,1.49,0,0,0,1.59.13l10.33-5.3A4.85,4.85,0,0,1,31.61,46.73Z"></path></svg>