<svg xmlns="http://www.w3.org/2000/svg" id="Camada_1" viewBox="0 0 100 100"><defs><style>.cls-1{fill:#175c7d;}</style></defs><path class="cls-1" d="M63.05,98.49H28.5c-5.17,0-9.38-4.21-9.38-9.38V19.47c0-5.17,4.21-9.38,9.38-9.38H63.05c5.17,0,9.38,4.21,9.38,9.38V89.11c0,5.17-4.21,9.38-9.38,9.38ZM28.5,13.68c-3.19,0-5.79,2.6-5.79,5.79V89.11c0,3.19,2.6,5.79,5.79,5.79H63.05c3.19,0,5.79-2.6,5.79-5.79V19.47c0-3.19-2.6-5.79-5.79-5.79H28.5Z"></path><path class="cls-1" d="M64.36,26.18v56.2H27.19V26.18h37.16m2.59-2.59H24.61v61.38h42.34V23.6h0Z"></path><g><g><path class="cls-1" d="M73,9.5l4.18-3.62c.17-.16-4.35,3.77-4.18,3.62Z"></path><path class="cls-1" d="M72.87,11.31c-.4,0-.81-.17-1.22-.61l-1.18-1.31,1.35-1.25,3.53-3.06c.08-.07,.16-.14,.25-.22l.4-.34,.02,.02c.71-.49,1.63-.83,2.5,.13l1.18,1.31-1.35,1.25-3.53,3.06c-.08,.07-.16,.14-.25,.22l-.4,.34-.02-.02c-.38,.26-.82,.48-1.28,.48Zm1.33-.52l.02,.02-.02-.02Zm1.75-6.23l.02,.02-.02-.02Z"></path></g><g><path class="cls-1" d="M79.07,12.83c.23-.02-4.15,.37-3.92,.35"></path><path class="cls-1" d="M75.33,14.97v-.03c-1.21-.03-1.87-.56-1.97-1.6-.09-.99,.64-1.86,1.63-1.95,.02,0,.03,0,.04,0,.17-.01,.97-.09,1.8-.16l1.43-.13c.12-.01,.28-.03,.46-.03,.06-.01,.12-.02,.18-.03v.02c.79,.01,1.84,.25,1.97,1.6,.09,.99-.64,1.86-1.63,1.95-.02,0-.03,0-.05,0-.19,.02-1.13,.1-2.05,.18l-1.27,.11c-.12,.01-.25,.02-.36,.02-.06,.01-.12,.02-.19,.03Z"></path></g><g><line class="cls-1" x1="70.9" y1="3.31" x2="69.88" y2="7.07"></line><path class="cls-1" d="M69.88,8.87c-.15,0-.31-.02-.47-.06-.96-.26-1.52-1.24-1.27-2.2l1.02-3.76c.26-.96,1.24-1.52,2.2-1.27,.96,.26,1.52,1.24,1.27,2.2l-1.02,3.76c-.22,.8-.94,1.33-1.73,1.33Z"></path></g></g><path class="cls-1" d="M44.28,64.7l-7.57-9.65c-.7-.89-.54-2.18,.35-2.88,.89-.7,2.18-.54,2.88,.35l4.26,5.43,10.04-13.5c.68-.91,1.96-1.1,2.87-.42,.91,.68,1.1,1.96,.42,2.87l-13.25,17.8Z"></path><path class="cls-1" d="M51.14,20.14h-10.73c-.99,0-1.8-.8-1.8-1.8s.8-1.8,1.8-1.8h10.73c.99,0,1.8,.8,1.8,1.8s-.8,1.8-1.8,1.8Z"></path><path class="cls-1" d="M54.23,92.14h-16.92c-.99,0-1.8-.8-1.8-1.8s.8-1.8,1.8-1.8h16.92c.99,0,1.8,.8,1.8,1.8s-.8,1.8-1.8,1.8Z"></path></svg>