<svg id="Camada_1" data-name="Camada 1" xmlns="http://www.w3.org/2000/svg" xmlns:xlink="http://www.w3.org/1999/xlink" viewBox="0 0 602.3 86.77"><defs><style>.cls-1{fill:#fff;}.cls-2{fill:url(#linear-gradient);}.cls-3{fill:url(#linear-gradient-2);}.cls-4{fill:#876b26;}.cls-5{fill:url(#linear-gradient-3);}.cls-6{fill:#007d88;}.cls-7{fill:#027042;}.cls-8{fill:url(#linear-gradient-4);}.cls-9{fill:url(#linear-gradient-5);}.cls-10{fill:#926b17;}.cls-11{fill:url(#linear-gradient-6);}.cls-12{fill:#007e8b;}.cls-13{fill:#00713c;}</style><linearGradient id="linear-gradient" x1="582.69" y1="1404.83" x2="638.78" y2="1404.83" gradientUnits="userSpaceOnUse"><stop offset="0" stop-color="#0ea7cc"/><stop offset="0.41" stop-color="#0da5c9"/><stop offset="0.66" stop-color="#0a9dc1"/><stop offset="0.86" stop-color="#068fb3"/><stop offset="1" stop-color="#0181a4"/></linearGradient><linearGradient id="linear-gradient-2" x1="591.1" y1="1365.32" x2="641.05" y2="1365.32" gradientUnits="userSpaceOnUse"><stop offset="0" stop-color="#fda101"/><stop offset="0.35" stop-color="#faa001"/><stop offset="0.56" stop-color="#f29c01"/><stop offset="0.73" stop-color="#e49401"/><stop offset="0.89" stop-color="#d08a01"/><stop offset="1" stop-color="#bb8001"/></linearGradient><linearGradient id="linear-gradient-3" x1="562.03" y1="1380" x2="591.1" y2="1380" gradientUnits="userSpaceOnUse"><stop offset="0" stop-color="#09af41"/><stop offset="0.39" stop-color="#09ac40"/><stop offset="0.62" stop-color="#08a43f"/><stop offset="0.82" stop-color="#07963c"/><stop offset="0.99" stop-color="#068237"/><stop offset="1" stop-color="#068037"/></linearGradient><linearGradient id="linear-gradient-4" x1="214.21" y1="1404.77" x2="270.24" y2="1404.77" gradientUnits="userSpaceOnUse"><stop offset="0" stop-color="#00aad0"/><stop offset="0.41" stop-color="#00a8cd"/><stop offset="0.66" stop-color="#009fc5"/><stop offset="0.86" stop-color="#0091b7"/><stop offset="1" stop-color="#0083a8"/></linearGradient><linearGradient id="linear-gradient-5" x1="222.61" y1="1365.3" x2="272.5" y2="1365.3" gradientUnits="userSpaceOnUse"><stop offset="0" stop-color="#ffa400"/><stop offset="0.39" stop-color="#fca200"/><stop offset="0.62" stop-color="#f49c00"/><stop offset="0.82" stop-color="#e69100"/><stop offset="0.99" stop-color="#d28100"/><stop offset="1" stop-color="#d08000"/></linearGradient><linearGradient id="linear-gradient-6" x1="193.57" y1="1379.96" x2="222.61" y2="1379.96" gradientUnits="userSpaceOnUse"><stop offset="0" stop-color="#00b231"/><stop offset="0.39" stop-color="#00af31"/><stop offset="0.62" stop-color="#00a730"/><stop offset="0.81" stop-color="#00992f"/><stop offset="0.98" stop-color="#00852d"/><stop offset="1" stop-color="#00822d"/></linearGradient></defs><path class="cls-1" d="M650,1416.52c0,1,.54,1.16,1.73,1.5,1.38.38,2.22.92,2.22,2.36,0,1.69-1,2.31-2.9,2.31a10.25,10.25,0,0,1-2.14-.2l.11-.91a15.24,15.24,0,0,0,2,.16c1,0,1.77-.23,1.77-1.32s-.71-1.17-1.64-1.45c-1.44-.43-2.28-.82-2.28-2.29,0-1.66,1-2.2,2.79-2.2a11.78,11.78,0,0,1,2.12.21l-.1.88a12.19,12.19,0,0,0-1.66-.15C651.1,1415.42,650,1415.52,650,1416.52Z" transform="translate(-193.57 -1343.51)"/><path class="cls-1" d="M655.57,1414.57h1.13v8h-1.13Z" transform="translate(-193.57 -1343.51)"/><path class="cls-1" d="M659.41,1416.52c0,1,.54,1.16,1.73,1.5,1.38.38,2.22.92,2.22,2.36,0,1.69-1,2.31-2.9,2.31a10.25,10.25,0,0,1-2.14-.2l.11-.91a15.24,15.24,0,0,0,2,.16c1,0,1.77-.23,1.77-1.32s-.71-1.17-1.64-1.45c-1.44-.43-2.28-.82-2.28-2.29,0-1.66,1-2.2,2.79-2.2a11.78,11.78,0,0,1,2.12.21l-.1.88a12.19,12.19,0,0,0-1.66-.15C660.49,1415.42,659.41,1415.52,659.41,1416.52Z" transform="translate(-193.57 -1343.51)"/><path class="cls-1" d="M669.91,1415.47h-2.13v7.14h-1.13v-7.14h-2.13v-.9h5.39Z" transform="translate(-193.57 -1343.51)"/><path class="cls-1" d="M676,1415.46h-2.08c-1.31,0-1.54.25-1.54,1.41v1.2h3.46v.89H672.4v1.35c0,1.16.23,1.4,1.54,1.4H676v.87c-.62,0-1.45.05-2,.05-1.4,0-2.7-.07-2.7-1.83v-4.42c0-1.76,1.3-1.83,2.7-1.83.53,0,1.41,0,2,0Z" transform="translate(-193.57 -1343.51)"/><path class="cls-1" d="M681.68,1420.11l2.13-4.92c.21-.47.52-.71.85-.71.49,0,.71.25.74.8l.38,7.33h-1.1l-.32-6.48-2,4.89a.66.66,0,0,1-1.28,0l-2-4.87-.33,6.46h-1l.39-7.34c0-.54.25-.79.73-.79.33,0,.63.22.84.7Z" transform="translate(-193.57 -1343.51)"/><path class="cls-1" d="M687.2,1422.61l2.62-7.36a1,1,0,0,1,.94-.77,1,1,0,0,1,.93.77l2.59,7.36h-1.19l-.76-2.23h-3.22l-.76,2.23Zm4.83-3.1-1.32-3.88-1.31,3.88Z" transform="translate(-193.57 -1343.51)"/><path class="cls-1" d="M698.82,1414.68a15.44,15.44,0,0,1,2.5-.2c3,0,3.51,1.37,3.51,4.11s-.53,4.1-3.51,4.1a15.44,15.44,0,0,1-2.5-.2Zm1.12.81v6.19a8.25,8.25,0,0,0,1.15.09c2.59,0,2.61-1.38,2.61-3.18s0-3.18-2.61-3.18A10.21,10.21,0,0,0,699.94,1415.49Z" transform="translate(-193.57 -1343.51)"/><path class="cls-1" d="M711.35,1415.46h-2.08c-1.32,0-1.54.25-1.54,1.41v1.2h3.46v.89h-3.46v1.35c0,1.16.22,1.4,1.54,1.4h2.08v.87c-.62,0-1.46.05-2.05.05-1.39,0-2.69-.07-2.69-1.83v-4.42c0-1.76,1.3-1.83,2.69-1.83.54,0,1.42,0,2.05,0Z" transform="translate(-193.57 -1343.51)"/><path class="cls-1" d="M721.22,1422.49a8.57,8.57,0,0,1-1.92.2c-2.62,0-3.26-1.25-3.26-4.1s.64-4.11,3.26-4.11a9.28,9.28,0,0,1,1.92.2l-.1.87a10.33,10.33,0,0,0-1.49-.12c-2.32,0-2.44,1.21-2.44,3.16s.14,3.16,2.44,3.16a9.07,9.07,0,0,0,1.49-.13Z" transform="translate(-193.57 -1343.51)"/><path class="cls-1" d="M722.34,1418.59c0-2.92.7-4.11,3.15-4.11s3.15,1.19,3.15,4.11-.7,4.1-3.15,4.1S722.34,1421.5,722.34,1418.59Zm5.15,0c0-1.87-.06-3.18-2-3.18s-2,1.31-2,3.18.06,3.17,2,3.17S727.49,1420.46,727.49,1418.59Z" transform="translate(-193.57 -1343.51)"/><path class="cls-1" d="M730.25,1418.59c0-2.92.7-4.11,3.15-4.11s3.15,1.19,3.15,4.11-.7,4.1-3.15,4.1S730.25,1421.5,730.25,1418.59Zm5.16,0c0-1.87-.07-3.18-2-3.18s-2,1.31-2,3.18.06,3.17,2,3.17S735.41,1420.46,735.41,1418.59Z" transform="translate(-193.57 -1343.51)"/><path class="cls-1" d="M739.49,1422.61h-1.12v-7.93a16.69,16.69,0,0,1,2.51-.2c1.74,0,3.16.35,3.16,2.46s-1.27,2.52-3.07,2.52c-.42,0-1.09,0-1.48,0Zm0-4.11a11.64,11.64,0,0,0,1.39.07c1.3,0,2-.33,2-1.63,0-1.12-.52-1.57-2-1.57a10.54,10.54,0,0,0-1.43.1Z" transform="translate(-193.57 -1343.51)"/><path class="cls-1" d="M750.31,1415.46h-2.08c-1.32,0-1.54.25-1.54,1.41v1.2h3.46v.89h-3.46v1.35c0,1.16.22,1.4,1.54,1.4h2.08v.87c-.62,0-1.46.05-2,.05-1.39,0-2.69-.07-2.69-1.83v-4.42c0-1.76,1.3-1.83,2.69-1.83.54,0,1.42,0,2,0Z" transform="translate(-193.57 -1343.51)"/><path class="cls-1" d="M752,1422.61v-7.93a16.8,16.8,0,0,1,2.51-.2c1.72,0,3.16.34,3.16,2.43a2.09,2.09,0,0,1-1.84,2.38l1.93,3.32h-1.31l-1.79-3.22h-.06c-.43,0-1.09,0-1.48-.05v3.27Zm1.12-4.18a11.64,11.64,0,0,0,1.39.07c1.29,0,2-.33,2-1.59s-.53-1.54-2-1.54a12.46,12.46,0,0,0-1.43.09Z" transform="translate(-193.57 -1343.51)"/><path class="cls-1" d="M759,1422.61l2.62-7.36a1,1,0,0,1,.94-.77,1,1,0,0,1,.93.77l2.59,7.36h-1.19l-.76-2.23h-3.22l-.76,2.23Zm4.83-3.1-1.32-3.88-1.31,3.88Z" transform="translate(-193.57 -1343.51)"/><path class="cls-1" d="M771.25,1415.47h-2.12v7.14H768v-7.14h-2.13v-.9h5.38Z" transform="translate(-193.57 -1343.51)"/><path class="cls-1" d="M772.7,1414.57h1.13v8H772.7Z" transform="translate(-193.57 -1343.51)"/><path class="cls-1" d="M779.52,1421.92c-.18.55-.46.77-.88.77s-.69-.22-.88-.77l-2.49-7.35h1.2l2.19,6.78,2.21-6.78H782Z" transform="translate(-193.57 -1343.51)"/><path class="cls-1" d="M781.69,1422.61l2.62-7.36a1,1,0,0,1,1.87,0l2.59,7.36h-1.2l-.76-2.23h-3.22l-.75,2.23Zm4.83-3.1-1.32-3.88-1.31,3.88Z" transform="translate(-193.57 -1343.51)"/><path class="cls-1" d="M790.89,1416.52c0,1,.54,1.16,1.73,1.5,1.38.38,2.22.92,2.22,2.36,0,1.69-1,2.31-2.9,2.31a10.25,10.25,0,0,1-2.14-.2l.11-.91a15.24,15.24,0,0,0,2,.16c1,0,1.77-.23,1.77-1.32s-.71-1.17-1.64-1.45c-1.44-.43-2.28-.82-2.28-2.29,0-1.66,1-2.2,2.79-2.2a11.78,11.78,0,0,1,2.12.21l-.1.88a12.19,12.19,0,0,0-1.66-.15C792,1415.42,790.89,1415.52,790.89,1416.52Z" transform="translate(-193.57 -1343.51)"/><path class="cls-1" d="M649,1402.78l11.74-34.37c1.32-3.86,3.45-5.51,6.49-5.51s5.16,1.75,6.43,5.51l11.54,34.37h-8.5l-3-9.78H660.2l-2.94,9.78Zm22.8-15.92-4.91-16-4.83,16Z" transform="translate(-193.57 -1343.51)"/><path class="cls-1" d="M689.72,1363.31h8v39.47h-8Z" transform="translate(-193.57 -1343.51)"/><path class="cls-1" d="M729.42,1402.61c-2.8.12-7.62.27-10.1.27-7.13,0-13.7-.39-13.7-9.64v-29.93h8V1391c0,4.38.79,5.37,5.52,5.37h10.25Z" transform="translate(-193.57 -1343.51)"/><path class="cls-1" d="M733,1383c0-14.29,3.5-20.14,15.78-20.14s15.77,5.85,15.77,20.14-3.5,20.15-15.77,20.15S733,1397.34,733,1383Zm23.42,0c0-8-.17-13.55-7.64-13.55S741.1,1375,741.1,1383s.17,13.54,7.65,13.54S756.39,1391.09,756.39,1383Z" transform="translate(-193.57 -1343.51)"/><path class="cls-1" d="M777.81,1373.51c0,4,2.71,4.5,7.25,5.72,7.56,2,10.81,5,10.81,12.12,0,8.7-5.3,11.84-14.65,11.84a53.56,53.56,0,0,1-11.4-1.22l.78-6.32a83.33,83.33,0,0,0,10.33.88c4.15,0,6.69-.93,6.69-4.9,0-3.67-2.9-4.5-6.55-5.62-7.08-2.17-11.25-4.35-11.25-11.81,0-8.55,5-11.3,14.13-11.3a56.61,56.61,0,0,1,11.29,1.24l-.72,6.15a57.1,57.1,0,0,0-8.69-.86C782.64,1369.43,777.81,1369.56,777.81,1373.51Z" transform="translate(-193.57 -1343.51)"/><path class="cls-1" d="M621.11,1387.76l-7.62-18.69c-.76-1.73-1.32-3-2.46-3s-1.71,1.32-2.4,3L604,1379.85l-4.59-10.78c-.69-1.65-1.24-3-2.4-3s-1.7,1.24-2.46,3l-7.63,18.68a3.61,3.61,0,0,0,3.54,5.18h3.35l0,4.25a2.77,2.77,0,0,0,2.77,2.77h1a2.77,2.77,0,0,0,2.77-2.77v-2.08a1.85,1.85,0,0,0,0-.23V1393h3.38l.33,0,.32,0h3.38v1.94a1.85,1.85,0,0,0,0,.23v2.08a2.77,2.77,0,0,0,2.77,2.77h1a2.77,2.77,0,0,0,2.77-2.77l0-4.25h3.35a3.6,3.6,0,0,0,3.53-5.19Zm-20.33,3.12h-2.54v6.32a.7.7,0,0,1-.7.7h-1a.7.7,0,0,1-.7-.7l0-2.52v-3.8h-5.42a1.56,1.56,0,0,1-1.62-2.34l7.61-18.64c.1-.24.33-.75.54-1.18.14.29.32.68.52,1.15l5.36,12.62-2.05,5.28A4,4,0,0,0,600.78,1390.88Zm4.5-.7a1.62,1.62,0,0,1-1.26.67,1.66,1.66,0,0,1-1.27-.67,1.82,1.82,0,0,1,0-1.65l1.26-3.24,1.29,3.24A1.82,1.82,0,0,1,605.28,1390.18Zm13.87,0a1.82,1.82,0,0,1-1.57.66h-5.42l0,6.32a.7.7,0,0,1-.7.7h-1a.7.7,0,0,1-.7-.7v-6.32h-2.54a4,4,0,0,0,0-3.11l-2.12-5.28,5.44-12.62c.19-.47.36-.86.51-1.15.21.43.43.93.53,1.15l7.61,18.65A1.82,1.82,0,0,1,619.15,1390.22Z" transform="translate(-193.57 -1343.51)"/><path class="cls-2" d="M625.2,1402a28.89,28.89,0,0,1-21.2,9.24c-.89,0-1.76,0-2.63-.12a31.43,31.43,0,0,1-18.68-.8,31.29,31.29,0,0,0,55.82-23.17A31.37,31.37,0,0,1,625.2,1402Z" transform="translate(-193.57 -1343.51)"/><path class="cls-3" d="M608.87,1353.74A29,29,0,0,1,630,1369.53a31.11,31.11,0,0,1,8.51,17.61,31.28,31.28,0,0,0-47.41-37.45c.73-.06,1.47-.08,2.22-.08A31.13,31.13,0,0,1,608.87,1353.74Z" transform="translate(-193.57 -1343.51)"/><path class="cls-4" d="M633,1382.28A28.82,28.82,0,0,1,625.2,1402a31.37,31.37,0,0,0,13.31-14.85,31.11,31.11,0,0,0-8.51-17.61A28.8,28.8,0,0,1,633,1382.28Z" transform="translate(-193.57 -1343.51)"/><path class="cls-5" d="M576.22,1390.47a29,29,0,0,1,3.27-23.61,31.28,31.28,0,0,1,11.61-17.17,31.28,31.28,0,0,0-8.41,60.62,31.17,31.17,0,0,1-6.48-19.06C576.21,1391,576.21,1390.73,576.22,1390.47Z" transform="translate(-193.57 -1343.51)"/><path class="cls-6" d="M601.37,1411.11a29,29,0,0,1-25.15-20.64c0,.26,0,.52,0,.78a31.17,31.17,0,0,0,6.48,19.06,31.43,31.43,0,0,0,18.68.8Z" transform="translate(-193.57 -1343.51)"/><path class="cls-7" d="M579.49,1366.86a29,29,0,0,1,29.38-13.12,31.13,31.13,0,0,0-15.55-4.13c-.75,0-1.49,0-2.22.08A31.28,31.28,0,0,0,579.49,1366.86Z" transform="translate(-193.57 -1343.51)"/><path class="cls-1" d="M304.45,1369.69H293.57c-4.72,0-5.53,1-5.53,5.33v4.46h15.67v6.37H288V1391c0,4.36.81,5.36,5.53,5.36h10.88v6.19c-2.77.14-8.07.31-10.71.31-7.13,0-13.69-.39-13.69-9.63V1372.8c0-9.24,6.56-9.61,13.69-9.61,2.86,0,8,.15,10.71.29Z" transform="translate(-193.57 -1343.51)"/><path class="cls-1" d="M331.79,1397.79c-1.24,3.81-3.2,5.33-6.08,5.33s-4.8-1.4-6.09-5.33l-11.3-34.5h8.53l8.93,30.42,9-30.42H343Z" transform="translate(-193.57 -1343.51)"/><path class="cls-1" d="M346.48,1383c0-14.28,3.51-20.12,15.77-20.12S378,1368.72,378,1383s-3.5,20.12-15.76,20.12S346.48,1397.29,346.48,1383Zm23.41,0c0-8-.17-13.53-7.64-13.53s-7.64,5.5-7.64,13.53.17,13.52,7.64,13.52S369.89,1391,369.89,1383Z" transform="translate(-193.57 -1343.51)"/><path class="cls-1" d="M408.59,1402.55c-2.79.12-7.61.27-10.08.27-7.13,0-13.69-.39-13.69-9.63v-29.9h8V1391c0,4.38.79,5.36,5.52,5.36h10.23Z" transform="translate(-193.57 -1343.51)"/><path class="cls-1" d="M442.26,1389.43c0,10.85-5.84,13.69-14.79,13.69s-14.81-2.84-14.81-13.69v-26.14h7.91v26.58c0,4.69,1.79,6.54,6.9,6.54s6.89-1.85,6.89-6.54v-26.58h7.9Z" transform="translate(-193.57 -1343.51)"/><path class="cls-1" d="M446.67,1402.72l11.72-34.34c1.32-3.85,3.46-5.5,6.49-5.5s5.16,1.75,6.43,5.5l11.52,34.34h-8.5l-3-9.77H457.87l-2.94,9.77Zm22.77-15.91-4.9-15.94-4.83,15.94Z" transform="translate(-193.57 -1343.51)"/><path class="cls-1" d="M289.79,1429.9a16.55,16.55,0,0,1-3.62.39c-4.93,0-6.14-2.39-6.14-7.84s1.21-7.84,6.14-7.84a16.68,16.68,0,0,1,3.62.38l-.2,1.66a19.45,19.45,0,0,0-2.8-.24c-4.38,0-4.6,2.32-4.6,6s.26,6,4.6,6a17.27,17.27,0,0,0,2.81-.25Z" transform="translate(-193.57 -1343.51)"/><path class="cls-1" d="M292.08,1422.45c0-5.57,1.31-7.84,5.93-7.84s5.92,2.27,5.92,7.84-1.31,7.84-5.92,7.84S292.08,1428,292.08,1422.45Zm9.7,0c0-3.57-.13-6.07-3.77-6.07s-3.77,2.5-3.77,6.07.12,6.06,3.77,6.06S301.78,1426,301.78,1422.45Z" transform="translate(-193.57 -1343.51)"/><path class="cls-1" d="M307,1422.45c0-5.57,1.31-7.84,5.93-7.84s5.92,2.27,5.92,7.84-1.31,7.84-5.92,7.84S307,1428,307,1422.45Zm9.7,0c0-3.57-.13-6.07-3.77-6.07s-3.77,2.5-3.77,6.07.11,6.06,3.77,6.06S316.66,1426,316.66,1422.45Z" transform="translate(-193.57 -1343.51)"/><path class="cls-1" d="M324.33,1430.13h-2.12V1415a29.87,29.87,0,0,1,4.72-.38c3.29,0,6,.67,6,4.7s-2.39,4.8-5.78,4.8c-.8,0-2.06,0-2.78-.09Zm0-7.85a20.25,20.25,0,0,0,2.6.13c2.47,0,3.85-.62,3.85-3.1,0-2.14-1-3-3.77-3a19.87,19.87,0,0,0-2.68.18Z" transform="translate(-193.57 -1343.51)"/><path class="cls-1" d="M344.51,1416.48h-3.92c-2.47,0-2.89.48-2.89,2.68v2.29h6.51v1.71H337.7v2.58c0,2.21.42,2.67,2.89,2.67h3.92v1.67c-1.16.05-2.74.09-3.85.09-2.63,0-5.07-.14-5.07-3.5v-8.43c0-3.37,2.44-3.51,5.07-3.51,1,0,2.67,0,3.85.1Z" transform="translate(-193.57 -1343.51)"/><path class="cls-1" d="M347.75,1430.13V1415a29.87,29.87,0,0,1,4.72-.38c3.26,0,5.95.63,5.95,4.64,0,2.91-1.35,4.11-3.45,4.54l3.63,6.34h-2.47l-3.37-6.15h-.11c-.8,0-2.06-.06-2.78-.09v6.24Zm2.12-8a22.19,22.19,0,0,0,2.6.12c2.44,0,3.85-.61,3.85-3,0-2.13-1-3-3.77-3a21.65,21.65,0,0,0-2.68.18Z" transform="translate(-193.57 -1343.51)"/><path class="cls-1" d="M360.42,1430.13l4.94-14.05a1.79,1.79,0,0,1,3.53,0l4.87,14.05h-2.25l-1.43-4.26H364l-1.42,4.26Zm9.1-5.92L367,1416.8l-2.47,7.41Z" transform="translate(-193.57 -1343.51)"/><path class="cls-1" d="M385.09,1416.5h-4v13.63H379V1416.5h-4v-1.73h10.14Z" transform="translate(-193.57 -1343.51)"/><path class="cls-1" d="M387.54,1414.77h2.12v15.36h-2.12Z" transform="translate(-193.57 -1343.51)"/><path class="cls-1" d="M400.15,1428.81c-.35,1-.87,1.48-1.66,1.48s-1.31-.43-1.66-1.48l-4.68-14h2.25l4.12,13,4.16-13h2.15Z" transform="translate(-193.57 -1343.51)"/><path class="cls-1" d="M406.07,1430.13l4.94-14.05a1.79,1.79,0,0,1,3.53,0l4.87,14.05h-2.25l-1.43-4.26h-6.06l-1.42,4.26Zm9.1-5.92-2.48-7.41-2.47,7.41Z" transform="translate(-193.57 -1343.51)"/><path class="cls-1" d="M426.74,1430.13l4.94-14.05a1.79,1.79,0,0,1,3.53,0l4.87,14.05h-2.25l-1.43-4.26h-6.06l-1.42,4.26Zm9.1-5.92-2.48-7.41-2.47,7.41Z" transform="translate(-193.57 -1343.51)"/><path class="cls-1" d="M442.6,1414.77h2.12v15.36H442.6Z" transform="translate(-193.57 -1343.51)"/><path class="cls-1" d="M457.11,1430.09c-1.17,0-2.57.08-3.59.08-2.62,0-5.07-.14-5.07-3.5v-11.9h2.12v11c0,2.2.41,2.67,2.89,2.67h3.65Z" transform="translate(-193.57 -1343.51)"/><path class="cls-1" d="M458.94,1422.45c0-5.57,1.31-7.84,5.93-7.84s5.92,2.27,5.92,7.84-1.31,7.84-5.92,7.84S458.94,1428,458.94,1422.45Zm9.7,0c0-3.57-.13-6.07-3.77-6.07s-3.77,2.5-3.77,6.07.12,6.06,3.77,6.06S468.64,1426,468.64,1422.45Z" transform="translate(-193.57 -1343.51)"/><path class="cls-1" d="M475.57,1418.51c0,1.93,1,2.21,3.27,2.85,2.6.73,4.18,1.76,4.18,4.52,0,3.23-2,4.41-5.46,4.41a19,19,0,0,1-4-.4l.21-1.73a28.6,28.6,0,0,0,3.77.31c1.95,0,3.32-.44,3.32-2.51,0-1.82-1.32-2.25-3.08-2.79-2.71-.82-4.29-1.57-4.29-4.37,0-3.16,1.88-4.19,5.25-4.19a22,22,0,0,1,4,.39l-.2,1.68a21.65,21.65,0,0,0-3.11-.28C477.61,1416.4,475.57,1416.58,475.57,1418.51Z" transform="translate(-193.57 -1343.51)"/><path class="cls-1" d="M252.59,1387.71,245,1369c-.75-1.72-1.31-3-2.45-3s-1.71,1.31-2.4,3l-4.64,10.78L230.9,1369c-.69-1.65-1.24-3-2.4-3s-1.7,1.24-2.46,3l-7.62,18.66a3.6,3.6,0,0,0,3.54,5.17h3.35v4.25a2.77,2.77,0,0,0,2.77,2.76h1a2.77,2.77,0,0,0,2.77-2.76v-2.09a1.7,1.7,0,0,0,0-.22v-1.94h3.38l.32,0,.32,0h3.38v1.94a1.7,1.7,0,0,0,0,.22v2.09a2.77,2.77,0,0,0,2.77,2.76h1a2.77,2.77,0,0,0,2.77-2.76v-4.25h3.35a3.6,3.6,0,0,0,3.53-5.19Zm-20.31,3.12h-2.53v6.32a.7.7,0,0,1-.7.7h-1a.7.7,0,0,1-.7-.7v-6.32H222a1.56,1.56,0,0,1-1.62-2.34l7.61-18.62c.1-.23.32-.75.54-1.18.14.29.31.68.51,1.16l5.36,12.6-2.05,5.28A4,4,0,0,0,232.28,1390.83Zm4.49-.69a1.53,1.53,0,0,1-2.52,0,1.85,1.85,0,0,1,0-1.65l1.26-3.23,1.3,3.23A1.84,1.84,0,0,1,236.77,1390.14Zm13.86,0a1.8,1.8,0,0,1-1.57.66h-5.42v6.32a.7.7,0,0,1-.7.7h-1a.7.7,0,0,1-.7-.7v-6.32h-2.54a4,4,0,0,0,0-3.1l-2.11-5.28,5.42-12.61c.2-.47.37-.86.51-1.15.22.43.44.94.54,1.16l7.6,18.63A1.8,1.8,0,0,1,250.63,1390.17Z" transform="translate(-193.57 -1343.51)"/><path class="cls-8" d="M256.67,1401.93a28.82,28.82,0,0,1-21.18,9.23c-.88,0-1.75,0-2.62-.12a31.36,31.36,0,0,1-18.66-.8A31.25,31.25,0,0,0,270,1387.09,31.32,31.32,0,0,1,256.67,1401.93Z" transform="translate(-193.57 -1343.51)"/><path class="cls-9" d="M240.37,1353.73a29,29,0,0,1,21.1,15.77,31.14,31.14,0,0,1,8.5,17.59,31.25,31.25,0,0,0-47.36-37.41c.73,0,1.47-.08,2.21-.08A31.13,31.13,0,0,1,240.37,1353.73Z" transform="translate(-193.57 -1343.51)"/><path class="cls-10" d="M264.42,1382.24a28.78,28.78,0,0,1-7.75,19.69,31.32,31.32,0,0,0,13.3-14.84,31.14,31.14,0,0,0-8.5-17.59A28.79,28.79,0,0,1,264.42,1382.24Z" transform="translate(-193.57 -1343.51)"/><path class="cls-11" d="M207.74,1390.42a29,29,0,0,1,3.27-23.58,31.24,31.24,0,0,1,11.6-17.16,31.25,31.25,0,0,0-8.4,60.56,31.09,31.09,0,0,1-6.48-19C207.73,1390.94,207.74,1390.68,207.74,1390.42Z" transform="translate(-193.57 -1343.51)"/><path class="cls-12" d="M232.87,1411a29,29,0,0,1-25.13-20.62c0,.26,0,.52,0,.78a31.09,31.09,0,0,0,6.48,19,31.36,31.36,0,0,0,18.66.8Z" transform="translate(-193.57 -1343.51)"/><path class="cls-13" d="M211,1366.84a29,29,0,0,1,29.36-13.11,31.13,31.13,0,0,0-15.55-4.13c-.74,0-1.48,0-2.21.08A31.24,31.24,0,0,0,211,1366.84Z" transform="translate(-193.57 -1343.51)"/></svg>