<svg xmlns="http://www.w3.org/2000/svg" xmlns:xlink="http://www.w3.org/1999/xlink" width="64" height="64" viewBox="0 0 64 64">
  <defs>
    <clipPath id="clip-path">
      <rect id="Retângulo_654" data-name="Retângulo 654" width="32" height="31.114" fill="none"/>
    </clipPath>
  </defs>
  <g id="chat-avatar-medium" transform="translate(-224 -1850)">
    <circle id="Elipse_64" data-name="Elipse 64" cx="32" cy="32" r="32" transform="translate(224 1850)" fill="#fff"/>
    <g id="Grupo_410" data-name="Grupo 410" transform="translate(240 1866)">
      <g id="Grupo_409" data-name="Grupo 409" clip-path="url(#clip-path)">
        <path id="Caminho_395" data-name="Caminho 395" d="M10.15,31.114h-.87a2.737,2.737,0,0,1-2.734-2.734l-.013-3.625H3.722A3.71,3.71,0,0,1,.568,23.247a3.708,3.708,0,0,1-.258-3.485L7.212,2.85C7.912,1.242,8.461-.017,9.654,0S11.4,1.314,12.036,2.827l5.19,12.2-2.17,5.577a1.456,1.456,0,0,0-.008,1.295,1.3,1.3,0,0,0,1.047.515l0,2.319c-.128.01-.256.018-.39.018h-2.83v1.53c.005.07.007.142.007.209v1.886a2.737,2.737,0,0,1-2.734,2.734M8.859,25.867l.013,2.513a.413.413,0,0,0,.408.408h.87a.413.413,0,0,0,.408-.408l-.006-5.951h2.193a3.917,3.917,0,0,1,.145-2.666l1.826-4.692L9.893,3.732c-.094-.224-.18-.425-.26-.6-.117.255-.22.492-.278.625L2.471,20.625a1.416,1.416,0,0,0,.018,1.31,1.43,1.43,0,0,0,1.232.494H8.859Z" transform="translate(0 0)" fill="#eb8b00"/>
        <path id="Caminho_396" data-name="Caminho 396" d="M263.393,31.118h-.871a2.738,2.738,0,0,1-2.734-2.734V26.5c0-.066,0-.138.007-.208V24.76h-2.83c-.135,0-.255-.008-.383-.018V22.422a1.3,1.3,0,0,0,1.041-.51,1.456,1.456,0,0,0-.007-1.294l-2.235-5.578L260.64,2.822c.631-1.5,1.179-2.809,2.379-2.817h.011c1.188,0,1.732,1.247,2.419,2.824l6.906,16.921a3.72,3.72,0,0,1-.251,3.5,3.711,3.711,0,0,1-3.154,1.508h-2.811l-.012,3.625a2.738,2.738,0,0,1-2.734,2.734m-1.278-4.655v1.921a.413.413,0,0,0,.408.408h.871a.413.413,0,0,0,.408-.408l.012-5.951h5.138a1.431,1.431,0,0,0,1.232-.494,1.43,1.43,0,0,0,.012-1.326l-6.888-16.88c-.054-.123-.154-.352-.268-.6q-.118.265-.258.6l-4.88,11.34,1.882,4.7a3.927,3.927,0,0,1,.148,2.666h2.191Z" transform="translate(-240.671 -0.005)" fill="#308b34"/>
      </g>
    </g>
  </g>
</svg>
