<svg xmlns="http://www.w3.org/2000/svg" width="15.138" height="12.296" viewBox="0 0 15.138 12.296">
  <g id="icon-twitter-y" transform="translate(-0.001 -57.441)">
    <g id="Grupo_76" data-name="Grupo 76" transform="translate(0.001 57.441)">
      <path id="Caminho_97" data-name="Caminho 97" d="M15.139,58.9a6.2,6.2,0,0,1-1.783.489,3.118,3.118,0,0,0,1.365-1.717,6.26,6.26,0,0,1-1.973.754,3.108,3.108,0,0,0-5.291,2.831,8.816,8.816,0,0,1-6.4-3.245,3.109,3.109,0,0,0,.961,4.145,3.106,3.106,0,0,1-1.407-.39V61.8A3.108,3.108,0,0,0,3.1,64.848a3.146,3.146,0,0,1-.818.109A2.98,2.98,0,0,1,1.7,64.9a3.107,3.107,0,0,0,2.9,2.157A6.23,6.23,0,0,1,.742,68.383,6.6,6.6,0,0,1,0,68.34a8.778,8.778,0,0,0,4.76,1.4A8.774,8.774,0,0,0,13.6,60.9l-.01-.4A6.2,6.2,0,0,0,15.139,58.9Z" transform="translate(-0.001 -57.441)" fill="#ff0"/>
    </g>
  </g>
</svg>
