<svg xmlns="http://www.w3.org/2000/svg" width="18.09" height="46.5" viewBox="0 0 18.09 46.5">
  <g id="icon-rate-chatbot" transform="translate(689.517 20999.5)">
    <g id="Grupo_1080" data-name="Grupo 1080" transform="translate(-689 -20999)">
      <path id="Caminho_515" data-name="Caminho 515" d="M19.765,28.352a1.547,1.547,0,0,1-.922-.306,1.5,1.5,0,0,1-.594-1.475l.644-3.661a.449.449,0,0,0-.135-.4L16.033,19.92a1.5,1.5,0,0,1-.4-1.551,1.524,1.524,0,0,1,1.249-1.047l3.776-.534a.48.48,0,0,0,.362-.255l1.692-3.341a1.533,1.533,0,0,1,1.376-.839h0a1.534,1.534,0,0,1,1.377.839h0l1.693,3.342a.476.476,0,0,0,.361.255l3.775.534a1.525,1.525,0,0,1,1.251,1.047,1.5,1.5,0,0,1-.4,1.551l-2.726,2.589a.449.449,0,0,0-.135.4l.644,3.661a1.5,1.5,0,0,1-.593,1.475,1.545,1.545,0,0,1-1.634.133l-3.387-1.736a.507.507,0,0,0-.454,0L20.476,28.18A1.563,1.563,0,0,1,19.765,28.352Z" transform="translate(-15.561 -12.353)" fill="#fff" stroke="#c7c7c7" stroke-width="1"/>
    </g>
    <path id="Caminho_807" data-name="Caminho 807" d="M19.765,28.352a1.547,1.547,0,0,1-.922-.306,1.5,1.5,0,0,1-.594-1.475l.644-3.661a.449.449,0,0,0-.135-.4L16.033,19.92a1.5,1.5,0,0,1-.4-1.551,1.524,1.524,0,0,1,1.249-1.047l3.776-.534a.48.48,0,0,0,.362-.255l1.692-3.341a1.533,1.533,0,0,1,1.376-.839h0a1.534,1.534,0,0,1,1.377.839h0l1.693,3.342a.476.476,0,0,0,.361.255l3.775.534a1.525,1.525,0,0,1,1.251,1.047,1.5,1.5,0,0,1-.4,1.551l-2.726,2.589a.449.449,0,0,0-.135.4l.644,3.661a1.5,1.5,0,0,1-.593,1.475,1.545,1.545,0,0,1-1.634.133l-3.387-1.736a.507.507,0,0,0-.454,0L20.476,28.18A1.563,1.563,0,0,1,19.765,28.352Z" transform="translate(-704.561 -20981.354)" fill="#ffa300"/>
  </g>
</svg>
