<svg xmlns="http://www.w3.org/2000/svg" width="7.19" height="13.3" viewBox="0 0 7.19 13.3">
  <g id="icon-facebook-white" transform="translate(-22.077)">
    <path id="Caminho_99" data-name="Caminho 99" d="M29,0,27.272,0a3.029,3.029,0,0,0-3.19,3.273V4.782H22.348a.271.271,0,0,0-.271.271V7.24a.271.271,0,0,0,.271.271h1.734v5.517a.271.271,0,0,0,.271.271h2.262a.271.271,0,0,0,.271-.271V7.511h2.028a.271.271,0,0,0,.271-.271V5.054a.271.271,0,0,0-.271-.271H26.887V3.5c0-.615.147-.927.948-.927H29a.271.271,0,0,0,.271-.271V.274A.271.271,0,0,0,29,0Z" fill="#fff"/>
  </g>
</svg>
