<svg width="16" height="13" viewBox="0 0 16 13" fill="none" xmlns="http://www.w3.org/2000/svg">
<path d="M15.999 1.53811C15.4001 1.80368 14.7647 1.97795 14.114 2.05511C14.7987 1.64457 15.3114 0.999738 15.557 0.240107C14.9121 0.62308 14.2067 0.893601 13.471 1.04011C12.9762 0.51518 12.3224 0.167712 11.6105 0.0513365C10.8986 -0.0650394 10.1682 0.0561498 9.53201 0.396197C8.89583 0.736243 8.38927 1.27624 8.09052 1.93283C7.79177 2.58941 7.71745 3.32608 7.87902 4.02911C6.57402 3.96382 5.29733 3.62479 4.13186 3.03404C2.96639 2.4433 1.93819 1.61404 1.11402 0.600107C0.694747 1.32269 0.566428 2.17783 0.75516 2.99164C0.943892 3.80545 1.4355 4.51683 2.13002 4.98111C1.609 4.9637 1.09962 4.82247 0.644023 4.56911V4.61011C0.644314 5.36786 0.906482 6.10222 1.38613 6.68884C1.86578 7.27547 2.53343 7.67829 3.27602 7.8291C2.99399 7.90527 2.70316 7.94394 2.41102 7.94411C2.20352 7.94418 1.99651 7.92374 1.79302 7.8831C2.00306 8.53474 2.4115 9.10444 2.96123 9.51252C3.51096 9.92061 4.17449 10.1467 4.85902 10.1591C3.69585 11.0698 2.26026 11.5628 0.783023 11.5591C0.521165 11.5608 0.259418 11.5478 -0.000976562 11.5201C1.49913 12.4859 3.24589 12.9987 5.03002 12.9971C6.25877 13.0058 7.47697 12.7701 8.61387 12.3039C9.75077 11.8377 10.7837 11.1502 11.6526 10.2814C12.5215 9.41257 13.2091 8.37973 13.6754 7.24288C14.1418 6.10604 14.3775 4.88785 14.369 3.65911L14.358 3.23411C15.0031 2.77272 15.5591 2.19808 15.999 1.53811Z" fill="#FFA300"/>
</svg>
