<svg xmlns="http://www.w3.org/2000/svg" width="22.114" height="22.114" viewBox="0 0 22.114 22.114">
  <g id="icon-whatsapp" transform="translate(1.004 1)">
    <path id="Caminho_94" data-name="Caminho 94" d="M17.166,2.945a10.056,10.056,0,1,0-1.5,15.45l3.184,1.122a.519.519,0,0,0,.661-.661l-1.122-3.184A10.055,10.055,0,0,0,17.166,2.945Z" transform="translate(20.11) rotate(90)" fill="none" stroke="#00b140" stroke-linecap="round" stroke-miterlimit="10" stroke-width="2"/>
    <path id="Caminho_288" data-name="Caminho 288" d="M121.259,96.591a7.571,7.571,0,0,0,2.343,4.02,9.056,9.056,0,0,0,4.458,2.113c1.117.192,2.757.221,3.558-.5l.447-.4a1,1,0,0,0,0-1.523l-1.786-1.611a1.288,1.288,0,0,0-1.689,0l-.447.4a.86.86,0,0,1-1.063,0L125.3,97.417l-.008-.007a.59.59,0,0,1,0-.894l.447-.4a1,1,0,0,0,0-1.523L123.95,92.98a1.29,1.29,0,0,0-1.689,0l-.447.4h0A3.458,3.458,0,0,0,121.259,96.591Zm1.352-2.491c.469-.413.444-.421.5-.421a.073.073,0,0,1,.049.018c1.882,1.706,1.807,1.606,1.807,1.655a.058.058,0,0,1-.02.044l-.447.4a1.533,1.533,0,0,0,0,2.324l1.783,1.675.008.007a2.072,2.072,0,0,0,2.657,0l.447-.4a.075.075,0,0,1,.1,0c1.882,1.706,1.807,1.606,1.807,1.655a.058.058,0,0,1-.02.044l-.447.4a3.646,3.646,0,0,1-2.553.223,7.871,7.871,0,0,1-3.873-1.834,6.577,6.577,0,0,1-2.033-3.492A2.744,2.744,0,0,1,122.611,94.1Zm0,0" transform="translate(-116.402 -88.311)" fill="#00b140"/>
  </g>
</svg>
