<svg width="16" height="19" viewBox="0 0 16 19" fill="none" xmlns="http://www.w3.org/2000/svg">
<path d="M0.125 16.5625C0.125 17.5117 0.863281 18.25 1.8125 18.25H14.1875C15.1016 18.25 15.875 17.5117 15.875 16.5625V7H0.125V16.5625ZM11.375 9.67188C11.375 9.46094 11.5508 9.25 11.7969 9.25H13.2031C13.4141 9.25 13.625 9.46094 13.625 9.67188V11.0781C13.625 11.3242 13.4141 11.5 13.2031 11.5H11.7969C11.5508 11.5 11.375 11.3242 11.375 11.0781V9.67188ZM11.375 14.1719C11.375 13.9609 11.5508 13.75 11.7969 13.75H13.2031C13.4141 13.75 13.625 13.9609 13.625 14.1719V15.5781C13.625 15.8242 13.4141 16 13.2031 16H11.7969C11.5508 16 11.375 15.8242 11.375 15.5781V14.1719ZM6.875 9.67188C6.875 9.46094 7.05078 9.25 7.29688 9.25H8.70312C8.91406 9.25 9.125 9.46094 9.125 9.67188V11.0781C9.125 11.3242 8.91406 11.5 8.70312 11.5H7.29688C7.05078 11.5 6.875 11.3242 6.875 11.0781V9.67188ZM6.875 14.1719C6.875 13.9609 7.05078 13.75 7.29688 13.75H8.70312C8.91406 13.75 9.125 13.9609 9.125 14.1719V15.5781C9.125 15.8242 8.91406 16 8.70312 16H7.29688C7.05078 16 6.875 15.8242 6.875 15.5781V14.1719ZM2.375 9.67188C2.375 9.46094 2.55078 9.25 2.79688 9.25H4.20312C4.41406 9.25 4.625 9.46094 4.625 9.67188V11.0781C4.625 11.3242 4.41406 11.5 4.20312 11.5H2.79688C2.55078 11.5 2.375 11.3242 2.375 11.0781V9.67188ZM2.375 14.1719C2.375 13.9609 2.55078 13.75 2.79688 13.75H4.20312C4.41406 13.75 4.625 13.9609 4.625 14.1719V15.5781C4.625 15.8242 4.41406 16 4.20312 16H2.79688C2.55078 16 2.375 15.8242 2.375 15.5781V14.1719ZM14.1875 2.5H12.5V0.8125C12.5 0.53125 12.2188 0.25 11.9375 0.25H10.8125C10.4961 0.25 10.25 0.53125 10.25 0.8125V2.5H5.75V0.8125C5.75 0.53125 5.46875 0.25 5.1875 0.25H4.0625C3.74609 0.25 3.5 0.53125 3.5 0.8125V2.5H1.8125C0.863281 2.5 0.125 3.27344 0.125 4.1875V5.875H15.875V4.1875C15.875 3.27344 15.1016 2.5 14.1875 2.5Z" fill="#FFA300"/>
</svg>
