<svg id="Camada_1" data-name="Camada 1" xmlns="http://www.w3.org/2000/svg" viewBox="0 0 63.21 63.09"><defs><style>.cls-1{fill:#fff;}</style></defs><path class="cls-1" d="M57.52,7.73A1.75,1.75,0,0,0,57,6.49l-.44-.44L55.47,5,54.06,3.55l-1.4-1.4-1-1L51.11.58a2.17,2.17,0,0,0-.52-.43,1.71,1.71,0,0,0-.83-.21A1.78,1.78,0,0,0,48,1.72a1.76,1.76,0,0,0,.44,1.17c.33.38.71.73,1.08,1.08l.92.93.76.76.23.23L51.5,6H14.19a8.52,8.52,0,0,0-8.5,8.5V46.53a1.76,1.76,0,0,0,3.52,0V14.47a5,5,0,0,1,5-5H51.5l-1.24,1.24c-.38.39-.77.77-1.15,1.15a4.33,4.33,0,0,0-1,1.1,1.69,1.69,0,0,0-.17.76,1.77,1.77,0,0,0,1.77,1.77A1.74,1.74,0,0,0,51,15c.36-.35.69-.73,1.05-1.08.55-.52,1.09-1.07,1.62-1.61l1.63-1.62,1.26-1.27L57,9A1.75,1.75,0,0,0,57.52,7.73Z"/><path class="cls-1" d="M55.75,14.88A1.76,1.76,0,0,0,54,16.64V48.73a5,5,0,0,1-5,5H11.71c.93-.92,1.85-1.84,2.76-2.77a2.28,2.28,0,0,0,.89-1.62,1.77,1.77,0,0,0-1.77-1.77,1.93,1.93,0,0,0-1.44.72C11,49.51,9.7,50.72,8.48,52L6.21,54.22a1.75,1.75,0,0,0,0,2.49L7.52,58l2.57,2.58,1.12,1.12a9.29,9.29,0,0,0,1.2,1.15,1.77,1.77,0,0,0,2.72-1.49,2.36,2.36,0,0,0-1-1.69L13,58.46l-1.24-1.24H49a8.51,8.51,0,0,0,8.5-8.49V16.64A1.76,1.76,0,0,0,55.75,14.88Z"/><path class="cls-1" d="M32.37,44.52l-.37,4H27.88l.36-4.12a41.12,41.12,0,0,1-5.56-.82l.37-4.15c4.64.11,6.75.15,8.35.15,2.93,0,3.75-.41,3.75-2.38s-.7-2.26-2.45-2.82l-5.05-1.82c-3.82-1.41-5.23-3.71-5.23-7.5,0-5.68,2.52-7,8.61-7.09l.37-3.34h4.12l-.37,3.49a27,27,0,0,1,4.79.85l-.33,3.86c-2.16-.07-5.24-.11-7.95-.11S28,22.84,28,25c0,1.78.74,2.26,2.71,2.9l4.75,1.67c4,1.44,5.34,3.78,5.34,7.53C40.79,42.7,38.53,44.37,32.37,44.52Z"/></svg>