<svg id="Group_1234" data-name="Group 1234" xmlns="http://www.w3.org/2000/svg" width="15.021" height="15.021" viewBox="0 0 15.021 15.021">
  <g id="Group_1231" data-name="Group 1231" transform="translate(4.616 4.616)">
    <g id="Group_1230" data-name="Group 1230">
      <path id="Path_1228" data-name="Path 1228" d="M160.236,157.342a2.894,2.894,0,1,0,2.894,2.894A2.9,2.9,0,0,0,160.236,157.342Z" transform="translate(-157.342 -157.342)" fill="#ffa300"/>
    </g>
  </g>
  <g id="Group_1233" data-name="Group 1233" transform="translate(0 0)">
    <g id="Group_1232" data-name="Group 1232">
      <path id="Path_1229" data-name="Path 1229" d="M10.9,0H4.118A4.122,4.122,0,0,0,0,4.118V10.9a4.122,4.122,0,0,0,4.118,4.118H10.9A4.122,4.122,0,0,0,15.021,10.9V4.118A4.122,4.122,0,0,0,10.9,0ZM7.51,11.63a4.12,4.12,0,1,1,4.12-4.12A4.125,4.125,0,0,1,7.51,11.63ZM11.877,4.4a1.252,1.252,0,1,1,1.252-1.252A1.253,1.253,0,0,1,11.877,4.4Z" transform="translate(0 0)" fill="#ffa300"/>
    </g>
  </g>
</svg>
