<svg xmlns="http://www.w3.org/2000/svg" width="17.583" height="12.631" viewBox="0 0 17.583 12.631">
  <g id="icon-car" transform="translate(-804 -12.999)">
    <path id="Caminho_278" data-name="Caminho 278" d="M821.583,155.786H804v-3.47a2.033,2.033,0,0,1,2.031-2.031h13.521a2.033,2.033,0,0,1,2.031,2.031Zm-16.406-1.178h15.228v-2.292a.855.855,0,0,0-.854-.854H806.031a.855.855,0,0,0-.854.854Z" transform="translate(0 -133.283)" fill="#fff"/>
    <path id="Caminho_279" data-name="Caminho 279" d="M981.285,22.5H970.793V15.03A2.033,2.033,0,0,1,972.824,13h6.43a2.034,2.034,0,0,1,2.031,2.031Zm-9.315-1.178h8.137V15.03a.855.855,0,0,0-.854-.854h-6.43a.855.855,0,0,0-.854.854Z" transform="translate(-161.93 0)" fill="#fff"/>
    <path id="Caminho_280" data-name="Caminho 280" d="M856.323,304.679a2.125,2.125,0,1,1,2.125-2.126,2.128,2.128,0,0,1-2.125,2.126m0-3.073a.948.948,0,1,0,.948.948.949.949,0,0,0-.948-.948" transform="translate(-48.735 -279.049)" fill="#fff"/>
    <path id="Caminho_281" data-name="Caminho 281" d="M1218.115,304.679a2.125,2.125,0,1,1,2.125-2.126,2.128,2.128,0,0,1-2.125,2.126m0-3.073a.948.948,0,1,0,.948.948.949.949,0,0,0-.948-.948" transform="translate(-399.977 -279.049)" fill="#fff"/>
  </g>
</svg>
