<svg width="18" height="18" viewBox="0 0 18 18" fill="none" xmlns="http://www.w3.org/2000/svg">
<path d="M16.2484 0C16.8341 0 17.3026 0.257694 17.654 0.773083C18.0288 1.28847 18.0991 1.81557 17.8648 2.35439L11.1531 16.9727C10.8251 17.6521 10.3097 17.9917 9.60692 17.9917C9.13838 17.9917 8.72841 17.8395 8.37701 17.5349C8.04904 17.2304 7.88505 16.8204 7.88505 16.305V10.1204H1.70039C1.11472 10.1204 0.657901 9.90951 0.329927 9.48783C0.025379 9.04272 -0.068328 8.56248 0.0488057 8.04709C0.165939 7.50827 0.493914 7.11002 1.03273 6.85232L15.651 0.14056C15.8384 0.0468535 16.0376 0 16.2484 0ZM16.8458 1.89757C16.9161 1.75701 16.8926 1.60473 16.7755 1.44074C16.6349 1.2299 16.4592 1.12448 16.2484 1.12448C16.1781 1.12448 16.1196 1.1362 16.0727 1.15962L1.48955 7.87139C1.185 8.01195 1.06787 8.24621 1.13815 8.57419C1.20843 8.85531 1.39584 8.99587 1.70039 8.99587H9.00954V16.305C9.00954 16.6798 9.20866 16.8673 9.60692 16.8673C9.84118 16.8673 10.0169 16.7501 10.134 16.5159L16.8458 1.89757Z" fill="white"/>
</svg>
