<svg id="Camada_1" data-name="Camada 1" xmlns="http://www.w3.org/2000/svg" viewBox="0 0 63.21 63.09"><defs><style>.cls-1{fill:#fff;}</style></defs><path class="cls-1" d="M32.37,44.52l-.37,4H27.88l.36-4.12a41.12,41.12,0,0,1-5.56-.82l.37-4.15c4.64.11,6.75.15,8.35.15,2.93,0,3.75-.41,3.75-2.38s-.7-2.26-2.45-2.82l-5.05-1.82c-3.82-1.41-5.23-3.71-5.23-7.5,0-5.68,2.52-7,8.61-7.09l.37-3.34h4.12l-.37,3.49a27,27,0,0,1,4.79.85l-.33,3.86c-2.16-.07-5.24-.11-7.95-.11S28,22.84,28,25c0,1.78.75,2.26,2.72,2.9l4.75,1.67c4,1.44,5.34,3.78,5.34,7.53C40.79,42.7,38.53,44.37,32.37,44.52Z"/><path class="cls-1" d="M31.61,62.66A31.12,31.12,0,1,1,62.72,31.55,31.15,31.15,0,0,1,31.61,62.66Zm0-58.88A27.77,27.77,0,1,0,59.37,31.55,27.79,27.79,0,0,0,31.61,3.78Z"/></svg>