<svg xmlns="http://www.w3.org/2000/svg" width="17.455" height="12" viewBox="0 0 17.455 12">
  <path id="icon-youtube" d="M16.713,81.156c-.473-.842-.987-1-2.033-1.056s-3.673-.1-5.95-.1-4.91.029-5.954.1-1.559.214-2.037,1.057S0,83.446,0,86v.009c0,2.54.251,4,.739,4.832s.992.995,2.036,1.066,3.674.1,5.955.1,4.9-.036,5.951-.1,1.56-.224,2.033-1.066c.492-.832.741-2.292.741-4.832V86C17.455,83.446,17.206,82,16.713,81.156ZM7.091,88.618V83.382L11.455,86Z" transform="translate(0 -80)" fill="#ffa300"/>
</svg>
