<svg xmlns="http://www.w3.org/2000/svg" width="16.863" height="16.781" viewBox="0 0 16.863 16.781">
  <g id="icon-payment" transform="translate(76.778 -0.054)">
    <path id="Caminho_285" data-name="Caminho 285" d="M-29.256,44.164a.469.469,0,0,0-.469.469V45.7a1.225,1.225,0,0,1-1.223,1.224h-1.111a.469.469,0,0,0-.469.469.469.469,0,0,0,.469.469h1.111A2.164,2.164,0,0,0-28.787,45.7V44.633A.469.469,0,0,0-29.256,44.164Z" transform="translate(-31.128 -31.029)" fill="#fff"/>
    <path id="Caminho_286" data-name="Caminho 286" d="M-73.506.054h-1.111a2.164,2.164,0,0,0-2.161,2.161V3.284a.469.469,0,0,0,.469.469.469.469,0,0,0,.469-.469V2.215A1.225,1.225,0,0,1-74.617.991h1.111a.469.469,0,0,0,.469-.469A.469.469,0,0,0-73.506.054Z" fill="#fff"/>
    <path id="Caminho_287" data-name="Caminho 287" d="M-30.948.054h-1.111a.469.469,0,0,0-.469.469.469.469,0,0,0,.469.469h1.111a1.225,1.225,0,0,1,1.223,1.224V3.284a.469.469,0,0,0,.469.469.469.469,0,0,0,.469-.469V2.215A2.163,2.163,0,0,0-30.948.054Z" transform="translate(-31.128)" fill="#fff"/>
    <path id="Caminho_288" data-name="Caminho 288" d="M-73.506,46.926h-1.111A1.226,1.226,0,0,1-75.84,45.7V44.633a.469.469,0,0,0-.469-.469.469.469,0,0,0-.469.469V45.7a2.164,2.164,0,0,0,2.161,2.162h1.111a.469.469,0,0,0,.469-.469A.469.469,0,0,0-73.506,46.926Z" transform="translate(0 -31.029)" fill="#fff"/>
    <g id="Grupo_198" data-name="Grupo 198" transform="translate(-74.147 2.769)">
      <path id="Caminho_289" data-name="Caminho 289" d="M-67.437,9.208a.469.469,0,0,0-.469.469v8.8a.469.469,0,0,0,.469.469.469.469,0,0,0,.469-.469v-8.8A.469.469,0,0,0-67.437,9.208Z" transform="translate(67.906 -9.208)" fill="#fff"/>
      <path id="Caminho_290" data-name="Caminho 290" d="M-40.487,9.208a.469.469,0,0,0-.469.469v8.8a.469.469,0,0,0,.469.469.469.469,0,0,0,.469-.469v-8.8A.469.469,0,0,0-40.487,9.208Z" transform="translate(48.948 -9.208)" fill="#fff"/>
      <path id="Caminho_291" data-name="Caminho 291" d="M-31.506,9.208a.469.469,0,0,0-.469.469v7.984a.469.469,0,0,0,.469.469.469.469,0,0,0,.469-.469V9.677A.469.469,0,0,0-31.506,9.208Z" transform="translate(42.631 -9.208)" fill="#fff"/>
      <path id="Caminho_292" data-name="Caminho 292" d="M-49.471,9.208a.469.469,0,0,0-.469.469v7.984a.469.469,0,0,0,.469.469A.469.469,0,0,0-49,17.661V9.677A.469.469,0,0,0-49.471,9.208Z" transform="translate(55.268 -9.208)" fill="#fff"/>
      <path id="Caminho_293" data-name="Caminho 293" d="M-58.454,9.208a.469.469,0,0,0-.469.469v6.95a.469.469,0,0,0,.469.469.469.469,0,0,0,.469-.469V9.677A.469.469,0,0,0-58.454,9.208Z" transform="translate(61.587 -9.208)" fill="#fff"/>
      <path id="Caminho_294" data-name="Caminho 294" d="M-67.364,43.388a.469.469,0,0,0-.469.469v.277a.469.469,0,0,0,.469.469.469.469,0,0,0,.469-.469v-.277A.469.469,0,0,0-67.364,43.388Z" transform="translate(67.855 -33.252)" fill="#fff"/>
      <path id="Caminho_295" data-name="Caminho 295" d="M-58.394,43.388a.469.469,0,0,0-.469.469v.277a.469.469,0,0,0,.469.469.469.469,0,0,0,.469-.469v-.277A.469.469,0,0,0-58.394,43.388Z" transform="translate(61.545 -33.252)" fill="#fff"/>
      <path id="Caminho_296" data-name="Caminho 296" d="M-49.422,44.6a.469.469,0,0,1-.469-.469v-.277a.469.469,0,0,1,.469-.469.469.469,0,0,1,.469.469v.277A.469.469,0,0,1-49.422,44.6Z" transform="translate(55.233 -33.252)" fill="#fff"/>
      <path id="Caminho_297" data-name="Caminho 297" d="M-49.383,43.445a.452.452,0,0,0-.452.452v.277a.453.453,0,0,0,.452.452.453.453,0,0,0,.452-.452V43.9A.452.452,0,0,0-49.383,43.445Z" transform="translate(55.194 -33.292)" fill="#fff"/>
      <path id="Caminho_298" data-name="Caminho 298" d="M-40.451,43.388a.469.469,0,0,0-.469.469v.277a.469.469,0,0,0,.469.469.469.469,0,0,0,.469-.469v-.277A.469.469,0,0,0-40.451,43.388Z" transform="translate(48.923 -33.252)" fill="#fff"/>
      <path id="Caminho_299" data-name="Caminho 299" d="M-31.48,43.388a.469.469,0,0,0-.469.469v.277a.47.47,0,0,0,.469.469.469.469,0,0,0,.469-.469v-.277A.469.469,0,0,0-31.48,43.388Z" transform="translate(42.612 -33.252)" fill="#fff"/>
    </g>
  </g>
</svg>
