<svg width="36" height="29" viewBox="0 0 36 29" fill="none" xmlns="http://www.w3.org/2000/svg">
<path d="M17.589 28.5107L2.29398 13.2067C-0.734193 10.2148 -0.770459 5.33703 2.22145 2.29979C5.21336 -0.737448 10.0911 -0.764647 13.1283 2.22726C13.1555 2.25446 13.1827 2.28166 13.2008 2.29979L28.1604 17.2684L26.338 19.0907L11.3785 4.1312C9.42016 2.0822 6.16533 2.00967 4.12539 3.97707C2.08545 5.94448 2.01292 9.19025 3.97126 11.2393C4.02566 11.2936 4.07099 11.339 4.12539 11.3934L19.4113 26.6974L17.589 28.5107Z" fill="#165C7D"/>
<path d="M16.3176 27.3193L32.5011 11.4712C34.6952 9.26811 34.677 5.70502 32.4739 3.51096C30.2798 1.32596 26.7258 1.32596 24.5318 3.52003L8.57491 19.4406L7.25122 18.1169L23.2171 2.19633C26.1456 -0.732111 30.8873 -0.732111 33.8067 2.19633C36.7261 5.12478 36.7351 9.8665 33.8067 12.7859L17.6232 28.6521L16.3176 27.3193Z" fill="#FFA300"/>
</svg>
