<svg xmlns="http://www.w3.org/2000/svg" width="25.123" height="25" viewBox="0 0 25.123 25">
  <g id="icon-bar-code" transform="translate(76.778 -0.054)">
    <path id="Caminho_263" data-name="Caminho 263" d="M-27.653,44.164a.7.7,0,0,0-.7.7v1.593a1.825,1.825,0,0,1-1.822,1.824h-1.655a.7.7,0,0,0-.7.7.7.7,0,0,0,.7.7h1.655a3.224,3.224,0,0,0,3.219-3.22V44.863A.7.7,0,0,0-27.653,44.164Z" transform="translate(-24.7 -24.622)" fill="#fff"/>
    <path id="Caminho_264" data-name="Caminho 264" d="M-71.9.054h-1.655a3.224,3.224,0,0,0-3.22,3.22V4.867a.7.7,0,0,0,.7.7.7.7,0,0,0,.7-.7V3.274a1.825,1.825,0,0,1,1.823-1.823H-71.9a.7.7,0,0,0,.7-.7A.7.7,0,0,0-71.9.054Z" transform="translate(0 0)" fill="#fff"/>
    <path id="Caminho_265" data-name="Caminho 265" d="M-30.174.054h-1.655a.7.7,0,0,0-.7.7.7.7,0,0,0,.7.7h1.655a1.825,1.825,0,0,1,1.822,1.823V4.867a.7.7,0,0,0,.7.7.7.7,0,0,0,.7-.7V3.274A3.223,3.223,0,0,0-30.174.054Z" transform="translate(-24.7 0)" fill="#fff"/>
    <path id="Caminho_266" data-name="Caminho 266" d="M-71.9,48.279h-1.655a1.826,1.826,0,0,1-1.823-1.824V44.863a.7.7,0,0,0-.7-.7.7.7,0,0,0-.7.7v1.593a3.224,3.224,0,0,0,3.22,3.22H-71.9a.7.7,0,0,0,.7-.7A.7.7,0,0,0-71.9,48.279Z" transform="translate(0 -24.622)" fill="#fff"/>
    <g id="Grupo_180" data-name="Grupo 180" transform="translate(-72.858 4.098)">
      <path id="Caminho_267" data-name="Caminho 267" d="M-67.207,9.208a.7.7,0,0,0-.7.7V23.013a.7.7,0,0,0,.7.7.7.7,0,0,0,.7-.7V9.907A.7.7,0,0,0-67.207,9.208Z" transform="translate(67.906 -9.208)" fill="#fff"/>
      <path id="Caminho_268" data-name="Caminho 268" d="M-40.258,9.208a.7.7,0,0,0-.7.7V23.013a.7.7,0,0,0,.7.7.7.7,0,0,0,.7-.7V9.907A.7.7,0,0,0-40.258,9.208Z" transform="translate(52.863 -9.208)" fill="#fff"/>
      <path id="Caminho_269" data-name="Caminho 269" d="M-31.276,9.208a.7.7,0,0,0-.7.7V21.8a.7.7,0,0,0,.7.7.7.7,0,0,0,.7-.7V9.907A.7.7,0,0,0-31.276,9.208Z" transform="translate(47.85 -9.208)" fill="#fff"/>
      <path id="Caminho_270" data-name="Caminho 270" d="M-49.241,9.208a.7.7,0,0,0-.7.7V21.8a.7.7,0,0,0,.7.7.7.7,0,0,0,.7-.7V9.907A.7.7,0,0,0-49.241,9.208Z" transform="translate(57.878 -9.208)" fill="#fff"/>
      <path id="Caminho_271" data-name="Caminho 271" d="M-58.224,9.208a.7.7,0,0,0-.7.7V20.26a.7.7,0,0,0,.7.7.7.7,0,0,0,.7-.7V9.907A.7.7,0,0,0-58.224,9.208Z" transform="translate(62.892 -9.208)" fill="#fff"/>
      <path id="Caminho_272" data-name="Caminho 272" d="M-67.134,43.388a.7.7,0,0,0-.7.7V44.5a.7.7,0,0,0,.7.7.7.7,0,0,0,.7-.7v-.413A.7.7,0,0,0-67.134,43.388Z" transform="translate(67.865 -28.287)" fill="#fff"/>
      <path id="Caminho_273" data-name="Caminho 273" d="M-58.165,43.388a.7.7,0,0,0-.7.7V44.5a.7.7,0,0,0,.7.7.7.7,0,0,0,.7-.7v-.413A.7.7,0,0,0-58.165,43.388Z" transform="translate(62.858 -28.287)" fill="#fff"/>
      <path id="Caminho_274" data-name="Caminho 274" d="M-49.193,45.2a.7.7,0,0,1-.7-.7v-.413a.7.7,0,0,1,.7-.7.7.7,0,0,1,.7.7V44.5A.7.7,0,0,1-49.193,45.2Z" transform="translate(57.85 -28.287)" fill="#fff"/>
      <path id="Caminho_275" data-name="Caminho 275" d="M-49.162,43.445a.674.674,0,0,0-.673.673v.413a.674.674,0,0,0,.673.673.674.674,0,0,0,.674-.673v-.413A.674.674,0,0,0-49.162,43.445Z" transform="translate(57.819 -28.319)" fill="#fff"/>
      <path id="Caminho_276" data-name="Caminho 276" d="M-40.221,43.388a.7.7,0,0,0-.7.7V44.5a.7.7,0,0,0,.7.7.7.7,0,0,0,.7-.7v-.413A.7.7,0,0,0-40.221,43.388Z" transform="translate(52.843 -28.287)" fill="#fff"/>
      <path id="Caminho_277" data-name="Caminho 277" d="M-31.25,43.388a.7.7,0,0,0-.7.7V44.5a.7.7,0,0,0,.7.7.7.7,0,0,0,.7-.7v-.413A.7.7,0,0,0-31.25,43.388Z" transform="translate(47.835 -28.287)" fill="#fff"/>
    </g>
  </g>
</svg>
