<svg width="40" height="25" viewBox="0 0 40 25" fill="none" xmlns="http://www.w3.org/2000/svg">
<path d="M19.8281 24.1666C18.7781 24.0966 17.7681 23.7566 16.8781 23.1966C16.1381 22.7066 12.4181 19.9067 9.31817 17.3167C8.79818 16.8867 8.03819 16.0867 7.29819 15.3067C6.7482 14.7367 6.5582 14.4067 6.2982 14.1867C5.94821 13.8867 5.89821 13.3667 6.1982 13.0167C6.4882 12.6667 7.0082 12.6167 7.35819 12.9067C7.35819 12.9067 7.35819 12.9067 7.36819 12.9167C7.64819 13.1567 7.88819 13.5267 8.49818 14.1567C9.17818 14.8667 9.94817 15.6667 10.3882 16.0367C13.5481 18.6867 17.2081 21.4166 17.7881 21.7966C18.4081 22.1866 19.0981 22.4166 19.8281 22.4966C20.6081 22.4966 20.6781 22.2966 20.7081 22.2166C20.7981 21.9566 21.0181 21.7566 21.2881 21.6966C21.5581 21.6366 21.8381 21.7066 22.048 21.8866C22.308 22.1266 22.688 22.1766 22.998 22.0366C23.528 21.8266 23.908 21.3366 23.978 20.7667C24.008 20.4467 24.218 20.1767 24.508 20.0667C24.808 19.9567 25.138 20.0267 25.368 20.2367C25.778 20.4667 26.268 20.4567 26.668 20.2067C27.058 20.0567 27.308 19.6867 27.308 19.2667C27.278 18.9467 27.428 18.6367 27.708 18.4667C27.988 18.2967 28.338 18.3067 28.608 18.4967C28.958 18.6467 29.368 18.5667 29.628 18.2967C30.008 17.9967 30.118 17.4667 29.878 17.0467C29.258 15.7467 26.478 13.5067 24.038 11.5267C22.688 10.4367 21.3981 9.39676 20.4481 8.49677C20.2081 8.59677 20.0181 8.67677 19.8681 8.74677C19.4781 8.94676 19.0581 9.07676 18.6181 9.14676C17.5781 10.7667 15.5481 11.4667 13.7381 10.8167C13.0281 10.6067 12.4781 10.0368 12.3081 9.31676C11.9181 7.64678 13.4581 5.3368 14.5981 4.20681C17.5881 1.21684 19.6781 0.0968512 23.488 1.79683C26.758 3.25682 32.7079 5.5368 32.7379 5.5468C33.1679 5.6968 33.3979 6.17679 33.2479 6.60679C33.0979 7.03678 32.6279 7.26678 32.188 7.11678C32.158 7.10678 26.148 4.80681 22.808 3.31682C19.8681 1.99683 18.4781 2.67683 15.7681 5.3768C14.6381 6.51679 13.7581 8.21677 13.9381 8.94676C13.9581 9.05676 14.0081 9.16676 14.2681 9.24676C15.0781 9.51676 16.2981 9.66676 17.4781 7.91677C17.6181 7.70678 17.8381 7.57678 18.0881 7.55678C18.4781 7.53678 18.8581 7.42678 19.2081 7.24678C19.4781 7.12678 19.8281 6.96678 20.3881 6.76679C20.6881 6.65679 21.0281 6.73679 21.2581 6.95678C22.168 7.86678 23.598 9.01676 25.108 10.2368C27.818 12.4267 30.618 14.6967 31.398 16.3267C31.958 17.4267 31.678 18.7667 30.728 19.5567C30.208 20.0267 29.518 20.2667 28.818 20.2367C28.548 20.8766 28.058 21.3866 27.428 21.6866C26.788 22.0166 26.048 22.1266 25.338 21.9866C24.978 22.7166 24.358 23.2866 23.608 23.5866C22.998 23.8266 22.328 23.8366 21.7181 23.6066C21.1681 24.0166 20.4981 24.2066 19.8281 24.1666Z" fill="#165C7D"/>
<path d="M16.7106 4.2071H7.0507C6.5907 4.2071 6.2207 3.83711 6.2207 3.37711C6.2207 2.91712 6.5907 2.54712 7.0507 2.54712H16.7206C17.1806 2.54712 17.5506 2.91712 17.5506 3.37711C17.5506 3.83711 17.1806 4.2071 16.7106 4.2071Z" fill="#165C7D"/>
<path d="M30.5689 17.4866C30.3289 17.4866 30.1089 17.3566 29.9889 17.1566C29.7789 16.8166 29.8589 16.3766 30.1789 16.1366L32.2188 14.6866C32.5188 14.4666 32.9388 14.5366 33.1588 14.8466C33.1688 14.8566 33.1788 14.8766 33.1888 14.8866C33.4088 15.2266 33.3188 15.6666 32.9988 15.9066L30.9588 17.3566C30.8488 17.4366 30.7088 17.4866 30.5689 17.4866Z" fill="#165C7D"/>
<path d="M28.149 20.0066C27.959 20.0066 27.779 19.9466 27.639 19.8266C26.759 19.1366 22.9891 15.2066 22.5691 14.7566C22.2491 14.4267 22.2591 13.8967 22.5891 13.5867C22.9191 13.2667 23.4391 13.2767 23.7591 13.6067C25.4091 15.3266 28.069 18.0466 28.659 18.5166C29.019 18.7966 29.079 19.3266 28.799 19.6866C28.639 19.8866 28.399 20.0066 28.149 20.0066Z" fill="#165C7D"/>
<path d="M24.819 21.6766C24.629 21.6766 24.449 21.6166 24.299 21.4966C23.069 20.5066 20.079 17.2866 20.049 17.2566C19.739 16.9166 19.759 16.3966 20.099 16.0766C20.439 15.7666 20.959 15.7866 21.279 16.1266C21.849 16.7366 24.349 19.4066 25.339 20.1966C25.699 20.4866 25.759 21.0066 25.469 21.3666C25.319 21.5566 25.079 21.6666 24.819 21.6766Z" fill="#165C7D"/>
<path d="M21.4994 23.3367C21.2994 23.3367 21.1094 23.2667 20.9594 23.1368C19.7295 22.0968 17.4095 19.6368 16.7295 18.9168C16.4195 18.5768 16.4295 18.0568 16.7695 17.7368C17.0995 17.4268 17.6295 17.4368 17.9395 17.7768C18.4095 18.2868 20.8394 20.8668 22.0294 21.8668C22.3794 22.1668 22.4294 22.6868 22.1294 23.0368C21.9794 23.2268 21.7394 23.3367 21.4994 23.3367Z" fill="#165C7D"/>
<path d="M37.2901 18.3398H35.0801C33.5901 18.3398 32.3701 17.1298 32.3701 15.6298V2.70997C32.3701 1.21999 33.5801 0.0099999 35.0801 0H37.2901C38.7901 0 40 1.20999 40 2.70997V15.6298C40 17.1198 38.7901 18.3298 37.2901 18.3398ZM35.0801 1.40999C34.3601 1.40999 33.7801 1.98998 33.7801 2.69997V15.6198C33.7801 16.3398 34.3601 16.9198 35.0801 16.9198H37.2901C38.0101 16.9198 38.5901 16.3398 38.5901 15.6198V2.70997C38.5901 1.98998 38.0101 1.41999 37.2901 1.41999H35.0801V1.40999Z" fill="#FFA300"/>
<path d="M4.91995 18.3398H2.70997C1.20999 18.3298 0 17.1198 0 15.6298V2.70997C0 1.20999 1.20999 0 2.70997 0H4.91995C6.40994 0 7.62993 1.20999 7.62993 2.70997V15.6298C7.61993 17.1198 6.40994 18.3298 4.91995 18.3398ZM2.70997 1.40999C1.98998 1.40999 1.40999 1.98998 1.40999 2.69997V15.6198C1.40999 16.3398 1.98998 16.9198 2.70997 16.9198H4.91995C5.63994 16.9198 6.21994 16.3398 6.21994 15.6198V2.70997C6.21994 1.98998 5.63994 1.41999 4.91995 1.41999H2.70997V1.40999Z" fill="#FFA300"/>
</svg>
