<svg xmlns="http://www.w3.org/2000/svg" id="Camada_1" viewBox="0 0 100 100"><defs><style>.cls-1{fill:#165c7d;stroke:#165c7d;stroke-miterlimit:10;}</style></defs><g><g><path class="cls-1" d="M55.62,51.5h-2.8c-2.52,0-4.57-2.05-4.57-4.57,0-.68,.55-1.22,1.22-1.22s1.22,.55,1.22,1.22c0,1.17,.95,2.12,2.12,2.12h2.8c1.17,0,2.12-.95,2.12-2.12s-.95-2.12-2.12-2.12h-2.8c-2.52,0-4.57-2.05-4.57-4.57s2.05-4.57,4.57-4.57h2.8c2.52,0,4.57,2.05,4.57,4.57,0,.68-.55,1.22-1.22,1.22s-1.22-.55-1.22-1.22c0-1.17-.95-2.12-2.12-2.12h-2.8c-1.17,0-2.12,.95-2.12,2.12s.95,2.12,2.12,2.12h2.8c2.52,0,4.57,2.05,4.57,4.57s-2.05,4.57-4.57,4.57Z"></path><path class="cls-1" d="M54.22,38.11c-.68,0-1.22-.55-1.22-1.22v-3.09c0-.68,.55-1.22,1.22-1.22s1.22,.55,1.22,1.22v3.09c0,.68-.55,1.22-1.22,1.22Z"></path><path class="cls-1" d="M54.22,54.59c-.68,0-1.22-.55-1.22-1.22v-3.09c0-.68,.55-1.22,1.22-1.22s1.22,.55,1.22,1.22v3.09c0,.68-.55,1.22-1.22,1.22Z"></path></g><path class="cls-1" d="M61.54,18.72c-.68,0-1.22-.55-1.22-1.22,0-.91,.71-1.81,5.16-5.69,.42-.37,.76-.66,.95-.84,.08-.25,.11-.57,.03-.69-.05-.08-.33-.23-1.03-.23-3.43,0-4.51-.16-5.61-1.25-.32-.13-1.92,.13-2.93,.72-.77,.44-1.69,.57-2.67,.37-.99,.2-1.91,.07-2.67-.37-1.02-.59-2.62-.84-3.01-.66-1.02,1.04-2.11,1.2-5.53,1.2-.7,0-.98,.15-1.03,.23-.08,.12-.04,.45,.03,.68,.19,.18,.54,.47,.96,.84,4.45,3.88,5.16,4.78,5.16,5.69,0,.68-.55,1.22-1.22,1.22-.58,0-1.06-.4-1.19-.93-.49-.76-3.28-3.2-4.35-4.14-1.28-1.11-1.56-1.36-1.61-1.75-.19-.54-.53-1.84,.18-2.94,.58-.9,1.62-1.35,3.08-1.35,3.2,0,3.52-.17,3.88-.54,1.37-1.37,4.51-.46,5.88,.33,.37,.21,.87,.12,1.13,.05,.21-.05,.43-.05,.64,0,.27,.07,.77,.16,1.13-.05,1.37-.79,4.51-1.7,5.88-.33,.36,.36,.68,.54,3.88,.54,1.47,0,2.5,.46,3.08,1.35,.71,1.1,.37,2.4,.18,2.94-.06,.4-.34,.64-1.61,1.75-1.07,.93-3.87,3.37-4.35,4.14-.13,.54-.61,.93-1.19,.93Z"></path><path class="cls-1" d="M60.47,24.92h-12.5c-2.38,0-4.32-1.94-4.32-4.32s1.94-4.32,4.32-4.32h12.5c2.39,0,4.32,1.94,4.32,4.32s-1.94,4.32-4.32,4.32Zm-12.5-6.2c-1.04,0-1.88,.84-1.88,1.88s.84,1.88,1.88,1.88h12.5c1.04,0,1.88-.84,1.88-1.88s-.84-1.88-1.88-1.88h-12.5Z"></path><path class="cls-1" d="M71.77,60.87c-.74,0-1.33-.1-1.88-.19-.7-.11-1.31-.21-2.21-.09-.67,.11-1.29-.37-1.39-1.03-.1-.67,.37-1.29,1.03-1.39,1.27-.19,2.16-.04,2.95,.09,.79,.13,1.47,.24,2.59,.06,.76-.12,1.26-.37,1.36-.67,.11-.35-.16-1.11-.82-1.77-1.42-1.42-1.85-5.85-2.49-13.55-.11-1.39-.23-2.8-.36-4.17-.61-6.61-10.68-13.39-10.78-13.46-.56-.37-.71-1.13-.34-1.7,.37-.56,1.13-.72,1.7-.34,.45,.3,11.14,7.5,11.86,15.27,.13,1.38,.24,2.8,.36,4.19,.39,4.68,.92,11.1,1.78,12.02,1.02,1.02,1.93,2.67,1.42,4.25-.28,.87-1.08,1.97-3.3,2.33-.56,.09-1.05,.12-1.49,.12Z"></path><path class="cls-1" d="M35.69,49.95s-.09,0-.14,0c-.67-.08-1.15-.68-1.08-1.35,.22-1.95,.4-4.14,.59-6.47,.12-1.39,.23-2.8,.36-4.18,.72-7.76,11.41-14.97,11.86-15.27,.56-.37,1.32-.22,1.7,.34,.37,.56,.22,1.32-.34,1.7-.1,.07-10.17,6.86-10.78,13.46-.13,1.37-.24,2.77-.36,4.15-.19,2.34-.38,4.56-.6,6.54-.07,.62-.6,1.09-1.21,1.09Z"></path></g><g><path class="cls-1" d="M57.91,79.91c-.45,0-.84-.05-1.15-.14-3.82-1.16-23.02-1.51-30.1-1.55-.68,0-1.22-.55-1.22-1.23,0-.67,.55-1.22,1.22-1.22h0c1.06,0,25.86,.16,30.8,1.66,2.34,.73,14.67-3.92,30.68-11.51,.26-.12,.35-.34,.38-.46,.03-.12,.06-.36-.11-.6-1.72-2.4-4.85-3.33-7.61-2.26l-14.9,5.8c-1.59,.62-3.36,.67-4.98,.15l-7.84-2.54c-.64-.21-.99-.9-.79-1.54,.21-.64,.89-1,1.54-.79l7.84,2.54c1.09,.35,2.28,.32,3.34-.1l14.9-5.8c3.8-1.48,8.11-.2,10.48,3.11,.55,.77,.73,1.73,.49,2.63-.23,.91-.85,1.65-1.7,2.05-11.61,5.51-25.99,11.78-31.29,11.78Z"></path><path class="cls-1" d="M63.08,66.08h-21.9c-.68,0-1.22-.55-1.22-1.22s.55-1.22,1.22-1.22h21.9c-.02-2.86-2.26-5.18-5.13-5.27-3.92-.13-6.92-.34-8.91-.63-2.09-.31-4.03-.96-6.09-1.65-2.93-.98-5.97-2-9.59-2-5.71,0-12.44,7.58-12.51,7.66-.45,.51-1.22,.56-1.73,.11-.51-.44-.56-1.22-.11-1.72,.3-.35,7.53-8.49,14.35-8.49,4.02,0,7.39,1.13,10.36,2.12,1.95,.65,3.79,1.27,5.67,1.55,1.9,.28,4.8,.48,8.63,.61,4.2,.14,7.48,3.53,7.48,7.73,0,1.34-1.09,2.43-2.43,2.43Z"></path><path class="cls-1" d="M18.65,85.13c-.16,0-.31-.03-.46-.09-.3-.12-.54-.36-.67-.66L7.68,61.13c-.26-.62,.03-1.34,.65-1.6l9.28-3.93c.3-.13,.63-.13,.94,0,.3,.12,.54,.36,.67,.66l9.84,23.26c.26,.62-.03,1.34-.65,1.6l-9.28,3.93c-.15,.06-.31,.1-.48,.1Zm-8.24-23.83l8.89,21,7.03-2.97-8.89-21-7.03,2.97Z"></path></g></svg>