<svg xmlns="http://www.w3.org/2000/svg" width="20.482" height="25" viewBox="0 0 20.482 25">
  <g id="icon-news" transform="translate(-388.587)">
    <path id="Caminho_255" data-name="Caminho 255" d="M399.462,27.078h10a.653.653,0,0,0,0-1.3h-10a.653.653,0,0,0,0,1.3Z" transform="translate(-5.636 -14.421)" fill="#fff"/>
    <path id="Caminho_256" data-name="Caminho 256" d="M399.486,18.832h2.882a.652.652,0,1,0,0-1.3h-2.882a.652.652,0,0,0,0,1.3Z" transform="translate(-5.751 -9.807)" fill="#fff"/>
    <path id="Caminho_257" data-name="Caminho 257" d="M399.486,43.571H406.4a.652.652,0,0,0,0-1.3h-6.916a.652.652,0,0,0,0,1.3Z" transform="translate(-5.788 -23.648)" fill="#fff"/>
    <path id="Caminho_258" data-name="Caminho 258" d="M403.379,0H390.921a2.337,2.337,0,0,0-2.334,2.334V22.666A2.337,2.337,0,0,0,390.921,25h15.815a2.337,2.337,0,0,0,2.334-2.334V6.258ZM389.866,2.334a1.056,1.056,0,0,1,1.055-1.055h10.092V6.852a1.205,1.205,0,0,0,1.2,1.2h5.573v14.61a1.056,1.056,0,0,1-1.055,1.055H390.921a1.056,1.056,0,0,1-1.055-1.055Zm12.425,4.444v-5.5h.457l4.949,5.5Z" transform="translate(0)" fill="#fff"/>
    <path id="Caminho_259" data-name="Caminho 259" d="M399.462,35.324h10a.653.653,0,0,0,0-1.3h-10a.653.653,0,0,0,0,1.3Z" transform="translate(-5.636 -19.035)" fill="#fff"/>
  </g>
</svg>
