<svg xmlns="http://www.w3.org/2000/svg" xmlns:xlink="http://www.w3.org/1999/xlink" width="118.594" height="47.491" viewBox="0 0 118.594 47.491">
  <defs>
    <linearGradient id="linear-gradient" y1="-4.829" x2="0.998" y2="-4.829" gradientUnits="objectBoundingBox">
      <stop offset="0" stop-color="#00a9ce"/>
      <stop offset="0.41" stop-color="#00a7cb"/>
      <stop offset="0.66" stop-color="#009fc3"/>
      <stop offset="0.86" stop-color="#0091b5"/>
      <stop offset="1" stop-color="#0083a6"/>
    </linearGradient>
    <linearGradient id="linear-gradient-2" x1="0.001" y1="-3.81" x2="1.003" y2="-3.81" gradientUnits="objectBoundingBox">
      <stop offset="0" stop-color="#ffa300"/>
      <stop offset="0.35" stop-color="#fca200"/>
      <stop offset="0.56" stop-color="#f49d00"/>
      <stop offset="0.73" stop-color="#e69600"/>
      <stop offset="0.89" stop-color="#d28b00"/>
      <stop offset="1" stop-color="#bd8000"/>
    </linearGradient>
    <linearGradient id="linear-gradient-3" x1="-0.001" y1="-2.601" x2="1.001" y2="-2.601" gradientUnits="objectBoundingBox">
      <stop offset="0" stop-color="#00b140"/>
      <stop offset="0.39" stop-color="#00ae40"/>
      <stop offset="0.62" stop-color="#01a63e"/>
      <stop offset="0.82" stop-color="#02983b"/>
      <stop offset="0.99" stop-color="#038437"/>
      <stop offset="1" stop-color="#038237"/>
    </linearGradient>
  </defs>
  <g id="Viacredi-alto-vale" transform="translate(-28.706 -16.27)">
    <path id="Caminho_1" data-name="Caminho 1" d="M48.39,31l-2.54-6.24c-.27-.56-.43-1-.8-1s-.57.44-.8,1l-1.54,3.61-1.53-3.61c-.23-.56-.4-1-.8-1s-.57.4-.84,1L37,31a1.23,1.23,0,0,0,.1,1.2,1.29,1.29,0,0,0,1.1.54h1.1v1.4a.93.93,0,0,0,.94.93h.33a.93.93,0,0,0,.93-.93v-1.4H44v1.4a.93.93,0,0,0,.94.93h.33a.94.94,0,0,0,.94-.93v-1.4h1.1a1.32,1.32,0,0,0,1.1-.54,1.4,1.4,0,0,0-.02-1.2Zm-6.78,1h-.83v2.1a.23.23,0,0,1-.23.23h-.34a.23.23,0,0,1-.23-.23V32h-1.8a.59.59,0,0,1-.54-.24.56.56,0,0,1,0-.56l2.54-6.21a1.514,1.514,0,0,1,.17-.4,2.04,2.04,0,0,0,.16.4l1.8,4.24L41.65,31a1.17,1.17,0,0,0-.04,1.06Zm1.51-.24a.57.57,0,0,1-.41.24.62.62,0,0,1-.43-.24.55.55,0,0,1,0-.56l.43-1.07.44,1.07a.62.62,0,0,1-.03.62Zm4.63,0a.62.62,0,0,1-.53.23h-1.8v2.1a.23.23,0,0,1-.24.24h-.33a.23.23,0,0,1-.23-.24v-2.1h-.84a1.31,1.31,0,0,0,0-1l-.7-1.77,1.8-4.21c.07-.16.14-.3.17-.4.07.14.13.3.17.4l2.53,6.21a.58.58,0,0,1,0,.64Z" fill="#165c7d"/>
    <path id="Caminho_2" data-name="Caminho 2" d="M49.76,35.76a9.62,9.62,0,0,1-7.08,3.07,8.139,8.139,0,0,1-.87,0,10.36,10.36,0,0,1-2.67.37,11.41,11.41,0,0,1-3.53-.6,10.45,10.45,0,0,0,18.72-6.35,10,10,0,0,0-.1-1.36,10.83,10.83,0,0,1-4.47,4.87Z" fill="url(#linear-gradient)"/>
    <path id="Caminho_3" data-name="Caminho 3" d="M44.32,19.68a9.66,9.66,0,0,1,7,5.27,10.48,10.48,0,0,1,2.83,5.87,10.45,10.45,0,0,0-9.57-14.55,10.3,10.3,0,0,0-6.21,2.07h.73A10.51,10.51,0,0,1,44.32,19.68Z" fill="url(#linear-gradient-2)"/>
    <path id="Caminho_4" data-name="Caminho 4" d="M52.36,29.19a9.64,9.64,0,0,1-2.57,6.57,10.45,10.45,0,0,0,4.44-4.94A10.49,10.49,0,0,0,51.39,25a10,10,0,0,1,.97,4.19Z" fill="#886b25"/>
    <path id="Caminho_5" data-name="Caminho 5" d="M33.44,31.92a9,9,0,0,1-.4-2.73,9.58,9.58,0,0,1,1.47-5.14,10.42,10.42,0,0,1,3.87-5.74,10.44,10.44,0,0,0-2.81,20.22,10.38,10.38,0,0,1-2.17-6.34A.63.63,0,0,0,33.44,31.92Z" fill="url(#linear-gradient-3)"/>
    <path id="Caminho_6" data-name="Caminho 6" d="M41.81,38.8a9.64,9.64,0,0,1-8.37-6.88v.27a10.17,10.17,0,0,0,2.17,6.34,10.35,10.35,0,0,0,3.53.6,8.62,8.62,0,0,0,2.67-.33Z" fill="#007d8a"/>
    <path id="Caminho_7" data-name="Caminho 7" d="M34.54,24.05a9.67,9.67,0,0,1,8.17-4.51,8.78,8.78,0,0,1,1.64.14,10.47,10.47,0,0,0-5.17-1.37,5.861,5.861,0,0,0-.74,0A10.13,10.13,0,0,0,34.54,24.05Z" fill="#007041"/>
    <path id="Caminho_8" data-name="Caminho 8" d="M65.51,34.39c-.4,1.27-1.07,1.77-2,1.77s-1.6-.46-2-1.77L57.7,22.88h2.84l3,10.15,3-10.15h2.74Z" fill="#165c7d"/>
    <path id="Caminho_9" data-name="Caminho 9" d="M71,22.88h2.67V36H71Z" fill="#165c7d"/>
    <path id="Caminho_10" data-name="Caminho 10" d="M75.35,36l3.91-11.45c.43-1.3,1.13-1.83,2.17-1.83a2.21,2.21,0,0,1,2.13,1.83L87.4,36H84.56l-1-3.27H79.09l-1,3.27Zm7.58-5.31-1.64-5.3-1.6,5.3Z" fill="#165c7d"/>
    <path id="Caminho_11" data-name="Caminho 11" d="M97.21,35.76a13.42,13.42,0,0,1-3.44.4c-4.37,0-5.44-2-5.44-6.71s1.07-6.7,5.44-6.7a13.42,13.42,0,0,1,3.44.4L97,25.22A17,17,0,0,0,94.27,25c-3.17,0-3.2,1.9-3.2,4.47s0,4.48,3.2,4.48A13.87,13.87,0,0,0,97,33.69Z" fill="#165c7d"/>
    <path id="Caminho_12" data-name="Caminho 12" d="M101.75,36H99.08V23a25.72,25.72,0,0,1,4.27-.37c2.9,0,5.27.57,5.27,4.14,0,2.34-1,3.41-2.53,3.91l3,5.27H106l-2.7-5a11.642,11.642,0,0,1-1.6-.07v5Zm0-7.14a14.53,14.53,0,0,0,1.63.06c1.67,0,2.64-.43,2.64-2.1,0-1.47-.67-2-2.57-2a13.48,13.48,0,0,0-1.67.1v4Z" fill="#165c7d"/>
    <path id="Caminho_13" data-name="Caminho 13" d="M118.9,25h-3.64c-1.56,0-1.83.33-1.83,1.76v1.51h5.24V30.4h-5.24v1.7c0,1.47.27,1.81,1.83,1.81h3.64v2c-.93,0-2.7.1-3.57.1-2.37,0-4.57-.13-4.57-3.2V26.05c0-3.07,2.2-3.2,4.57-3.2,1,0,2.67.06,3.57.1Z" fill="#165c7d"/>
    <path id="Caminho_14" data-name="Caminho 14" d="M121.34,23.11a26.11,26.11,0,0,1,4.27-.36c4.94,0,5.81,2.23,5.81,6.7s-.87,6.71-5.81,6.71a25.515,25.515,0,0,1-4.269-.36ZM124,25v8.87a6.3,6.3,0,0,0,1.23.1c3.47,0,3.51-2,3.51-4.54s0-4.53-3.51-4.53A10.549,10.549,0,0,0,124,25Z" fill="#165c7d"/>
    <path id="Caminho_15" data-name="Caminho 15" d="M133.75,22.88h2.67V36h-2.67Z" fill="#165c7d"/>
    <path id="Caminho_16" data-name="Caminho 16" d="M57.7,53.05,61.6,41.6c.44-1.3,1.14-1.83,2.17-1.83a2.21,2.21,0,0,1,2.14,1.83l3.84,11.45H66.91l-1-3.27H61.44l-1,3.27Zm7.61-5.31-1.64-5.3-1.6,5.3Z" fill="#165c7d"/>
    <path id="Caminho_17" data-name="Caminho 17" d="M79.19,53c-.93,0-2.54.1-3.37.1-2.37,0-4.57-.13-4.57-3.2v-10h2.67v9.24c0,1.47.26,1.81,1.83,1.81h3.41v2Z" fill="#165c7d"/>
    <path id="Caminho_18" data-name="Caminho 18" d="M87.83,42H84.6V53H81.93V42H78.72V39.87h9.15v2.17Z" fill="#165c7d"/>
    <path id="Caminho_19" data-name="Caminho 19" d="M89.07,46.47c0-4.77,1.17-6.7,5.27-6.7s5.27,1.93,5.27,6.7-1.16,6.71-5.27,6.71S89.07,51.25,89.07,46.47Zm7.77,0c0-2.67-.06-4.5-2.53-4.5s-2.54,1.83-2.54,4.5S91.84,51,94.31,51,96.84,49.14,96.84,46.47Z" fill="#165c7d"/>
    <path id="Caminho_20" data-name="Caminho 20" d="M113.16,51.41c-.4,1.27-1.07,1.77-2,1.77s-1.61-.47-2-1.77L105.32,39.9h2.84l3,10.14,3-10.14h2.74Z" fill="#165c7d"/>
    <path id="Caminho_21" data-name="Caminho 21" d="M116.27,53.05l3.9-11.45c.43-1.3,1.17-1.83,2.17-1.83a2.22,2.22,0,0,1,2.14,1.83l3.83,11.45h-2.83l-1-3.27H120l-1,3.27Zm7.6-5.31-1.63-5.3-1.6,5.3Z" fill="#165c7d"/>
    <path id="Caminho_22" data-name="Caminho 22" d="M137.76,53c-.94,0-2.54.1-3.37.1-2.37,0-4.58-.13-4.58-3.2v-10h2.67v9.24c0,1.47.27,1.81,1.84,1.81h3.4v2Z" fill="#165c7d"/>
    <path id="Caminho_23" data-name="Caminho 23" d="M147.3,42h-3.64c-1.56,0-1.83.33-1.83,1.76v1.51h5.24V47.4h-5.24v1.7c0,1.47.27,1.81,1.83,1.81h3.64V53c-.93,0-2.7.1-3.57.1-2.37,0-4.57-.13-4.57-3.2V43.07c0-3.07,2.2-3.2,4.57-3.2,1,0,2.67.06,3.57.1Z" fill="#165c7d"/>
    <path id="Caminho_24" data-name="Caminho 24" d="M60.13,63.63a3.88,3.88,0,0,1-.93.1c-1.27,0-1.57-.6-1.57-2s.3-2,1.57-2a3.58,3.58,0,0,1,.93.1l-.06.43a5.669,5.669,0,0,0-.7-.06c-1.1,0-1.17.6-1.17,1.53s.07,1.54,1.17,1.54a5.721,5.721,0,0,0,.7-.07Z" fill="#165c7d"/>
    <path id="Caminho_25" data-name="Caminho 25" d="M60.64,61.76c0-1.4.33-2,1.5-2s1.5.57,1.5,2-.33,2-1.5,2S60.64,63.16,60.64,61.76Zm2.46,0c0-.9,0-1.54-1-1.54s-1,.64-1,1.54,0,1.53,1,1.53S63.1,62.66,63.1,61.76Z" fill="#165c7d"/>
    <path id="Caminho_26" data-name="Caminho 26" d="M64.41,61.76c0-1.4.33-2,1.5-2s1.5.57,1.5,2-.33,2-1.5,2S64.41,63.16,64.41,61.76Zm2.47,0c0-.9,0-1.54-1-1.54s-1,.64-1,1.54,0,1.53,1,1.53,1-.63,1-1.53Z" fill="#165c7d"/>
    <path id="Caminho_27" data-name="Caminho 27" d="M68.81,63.69h-.53V59.86a6.12,6.12,0,0,1,1.2-.1c.83,0,1.5.16,1.5,1.2s-.6,1.2-1.47,1.2a5.24,5.24,0,0,1-.7,0v1.56Zm0-2a4.18,4.18,0,0,0,.67,0c.63,0,1-.17,1-.8s-.24-.77-1-.77a5.24,5.24,0,0,0-.67,0Z" fill="#165c7d"/>
    <path id="Caminho_28" data-name="Caminho 28" d="M74,60.26H73c-.63,0-.73.13-.73.66v.57H73.9v.44H72.22v.66c0,.57.1.67.73.67h1v.43h-1c-.66,0-1.3,0-1.3-.9v-2.1c0-.87.64-.9,1.3-.9h1Z" fill="#165c7d"/>
    <path id="Caminho_29" data-name="Caminho 29" d="M74.78,63.69V59.86a6.29,6.29,0,0,1,1.21-.1c.83,0,1.5.16,1.5,1.16a1,1,0,0,1-.87,1.14l.93,1.6h-.63l-.87-1.57h0a5.24,5.24,0,0,1-.7,0v1.57l-.54.06Zm.54-2a5.561,5.561,0,0,0,.67,0c.63,0,1-.16,1-.76s-.26-.74-1-.74h-.67Z" fill="#165c7d"/>
    <path id="Caminho_30" data-name="Caminho 30" d="M78.12,63.69l1.27-3.57c.1-.26.23-.36.43-.36a.46.46,0,0,1,.44.36l1.23,3.57h-.56l-.37-1.06H79l-.36,1.06Zm2.34-1.5-.64-1.87-.63,1.87Z" fill="#165c7d"/>
    <path id="Caminho_31" data-name="Caminho 31" d="M84.13,60.26h-1v3.47H82.6V60.26h-1v-.44h2.5v.44Z" fill="#165c7d"/>
    <path id="Caminho_32" data-name="Caminho 32" d="M84.8,59.79h.53v3.9H84.8Z" fill="#165c7d"/>
    <path id="Caminho_33" data-name="Caminho 33" d="M88,63.36c-.1.27-.23.37-.43.37s-.33-.1-.43-.37L86,59.79h.57l1,3.27,1.06-3.27h.54Z" fill="#165c7d"/>
    <path id="Caminho_34" data-name="Caminho 34" d="M89.2,63.69l1.27-3.57c.1-.26.23-.36.43-.36a.46.46,0,0,1,.44.36l1.23,3.57H92l-.36-1.06H90.1l-.36,1.06Zm2.3-1.5-.63-1.87-.63,1.87Z" fill="#165c7d"/>
    <path id="Caminho_35" data-name="Caminho 35" d="M94.77,59.86a6.29,6.29,0,0,1,1.21-.1c1.43,0,1.66.66,1.66,2s-.26,2-1.66,2a6.29,6.29,0,0,1-1.21-.1Zm.54.4v3a3.2,3.2,0,0,0,.53,0c1.24,0,1.24-.66,1.24-1.53s0-1.54-1.24-1.54A2.24,2.24,0,0,0,95.31,60.26Z" fill="#165c7d"/>
    <path id="Caminho_36" data-name="Caminho 36" d="M100.75,60.26h-1c-.64,0-.74.13-.74.66v.57h1.64v.44H99v.66c0,.57.1.67.74.67h1v.43h-1c-.67,0-1.3,0-1.3-.9v-2.1c0-.87.63-.9,1.3-.9h1Z" fill="#165c7d"/>
    <path id="Caminho_37" data-name="Caminho 37" d="M105.45,63.63a3.88,3.88,0,0,1-.93.1c-1.27,0-1.57-.6-1.57-2s.3-2,1.57-2a3.58,3.58,0,0,1,.93.1v.43a5.51,5.51,0,0,0-.7-.06c-1.1,0-1.17.6-1.17,1.53s.07,1.54,1.17,1.54a5.529,5.529,0,0,0,.7-.07Z" fill="#165c7d"/>
    <path id="Caminho_38" data-name="Caminho 38" d="M106.12,63.69V59.86a6.19,6.19,0,0,1,1.2-.1c.84,0,1.5.16,1.5,1.16a1.009,1.009,0,0,1-.86,1.14l.93,1.6h-.63l-.87-1.57h0a5.39,5.39,0,0,1-.71,0v1.57l-.53.06Zm.53-2a5.561,5.561,0,0,0,.67,0c.64,0,1-.16,1-.76s-.27-.74-1-.74h-.67Z" fill="#165c7d"/>
    <path id="Caminho_39" data-name="Caminho 39" d="M111.89,60.26h-1c-.63,0-.73.13-.73.66v.57h1.67v.44h-1.64v.66c0,.57.1.67.74.67h1v.43h-1c-.67,0-1.3,0-1.3-.9v-2.1c0-.87.63-.9,1.3-.9h1v.44Zm-.83-1.47h.63l-.73.67h-.43Z" fill="#165c7d"/>
    <path id="Caminho_40" data-name="Caminho 40" d="M112.73,59.86a6.19,6.19,0,0,1,1.2-.1c1.43,0,1.67.66,1.67,2s-.27,2-1.67,2a6.19,6.19,0,0,1-1.2-.1Zm.53.4v3a3.26,3.26,0,0,0,.54,0c1.23,0,1.23-.66,1.23-1.53s0-1.54-1.23-1.54a2.46,2.46,0,0,0-.54.07Z" fill="#165c7d"/>
    <path id="Caminho_41" data-name="Caminho 41" d="M116.47,59.79H117v3.9h-.53Z" fill="#165c7d"/>
    <path id="Caminho_42" data-name="Caminho 42" d="M120.24,60.26h-1v3.47h-.54V60.26h-1v-.44h2.57v.44Z" fill="#165c7d"/>
    <path id="Caminho_43" data-name="Caminho 43" d="M120.74,61.76c0-1.4.33-2,1.5-2s1.5.57,1.5,2-.33,2-1.5,2S120.74,63.16,120.74,61.76Zm2.47,0c0-.9,0-1.54-1-1.54s-1,.64-1,1.54,0,1.53,1,1.53S123.21,62.66,123.21,61.76Z" fill="#165c7d"/>
  </g>
</svg>
