<?xml version="1.0" encoding="UTF-8"?>
<svg id="Layer_1" data-name="Layer 1" xmlns="http://www.w3.org/2000/svg" xmlns:xlink="http://www.w3.org/1999/xlink" viewBox="0 0 571.06 138.39">
  <defs>
    <style>
      .cls-1 {
        fill: url(#linear-gradient-2);
      }

      .cls-2 {
        fill: #006d32;
      }

      .cls-3 {
        fill: #fff;
      }

      .cls-4 {
        fill: none;
      }

      .cls-5 {
        fill: #007d8a;
      }

      .cls-6 {
        fill: url(#linear-gradient-3);
      }

      .cls-7 {
        fill: #886b25;
      }

      .cls-8 {
        fill: url(#linear-gradient);
      }
    </style>
    <linearGradient id="linear-gradient" x1="32.94" y1="97.11" x2="120.95" y2="97.11" gradientUnits="userSpaceOnUse">
      <stop offset="0" stop-color="#00a9ce"/>
      <stop offset=".41" stop-color="#00a6cb"/>
      <stop offset=".66" stop-color="#009ec3"/>
      <stop offset=".86" stop-color="#0091b4"/>
      <stop offset="1" stop-color="#0083a6"/>
    </linearGradient>
    <linearGradient id="linear-gradient-2" x1="46.13" y1="35.13" x2="124.5" y2="35.13" gradientUnits="userSpaceOnUse">
      <stop offset="0" stop-color="#ffa300"/>
      <stop offset=".35" stop-color="#fca100"/>
      <stop offset=".56" stop-color="#f49d00"/>
      <stop offset=".73" stop-color="#e59500"/>
      <stop offset=".89" stop-color="#d18a00"/>
      <stop offset="1" stop-color="#bd8000"/>
    </linearGradient>
    <linearGradient id="linear-gradient-3" x1=".53" y1="58.15" x2="46.13" y2="58.15" gradientUnits="userSpaceOnUse">
      <stop offset="0" stop-color="#00b140"/>
      <stop offset=".39" stop-color="#00ae3f"/>
      <stop offset=".62" stop-color="#00a63d"/>
      <stop offset=".82" stop-color="#01973b"/>
      <stop offset=".99" stop-color="#028337"/>
      <stop offset="1" stop-color="#038237"/>
    </linearGradient>
  </defs>
  <g>
    <g>
      <path class="cls-3" d="M154.45,78.56l-4.62,15.34h-12.97l18.42-53.93c1.01-2.96,2.35-5.14,4.01-6.54,1.67-1.4,3.72-2.1,6.17-2.1,4.8,0,8.17,2.88,10.1,8.64l18.1,53.93h-13.34l-4.73-15.34h-21.13ZM164.93,43.87l-7.57,25.04h15.28l-7.71-25.04Z"/>
      <path class="cls-3" d="M213.37,93.89h-12.6V31.97h12.6v61.93Z"/>
      <path class="cls-3" d="M246.98,83.84h16.08v9.78c-6.47.28-11.75.43-15.84.43-5.03,0-8.75-.27-11.16-.82-4.27-.96-7.19-3.01-8.74-6.17-1.06-2.13-1.59-4.84-1.59-8.13V31.97h12.6v43.45c0,1.77.1,3.19.29,4.25.19,1.03.62,1.87,1.28,2.52.67.67,1.54,1.12,2.6,1.33,1.08.21,2.58.32,4.49.32Z"/>
      <path class="cls-3" d="M301.91,93.76c-2.48.51-5.32.77-8.51.77-6.45,0-11.45-1.07-14.99-3.22-1.83-1.15-3.37-2.53-4.62-4.15-2.41-3.23-3.97-7.92-4.68-14.09-.32-2.92-.48-6.31-.48-10.15,0-7.58.71-13.63,2.13-18.13.78-2.45,1.79-4.47,3.03-6.09,2.55-3.38,6.25-5.59,11.08-6.62,2.52-.51,5.36-.77,8.53-.77,6.43,0,11.42,1.08,14.96,3.24,1.84,1.12,3.38,2.5,4.62,4.15,2.43,3.21,3.98,7.89,4.65,14.06.34,2.85.5,6.24.5,10.15,0,7.71-.72,13.76-2.15,18.15-1.12,3.54-2.81,6.33-5.08,8.36-2.27,2.03-5.27,3.47-9.01,4.32ZM293.4,84.16c4.48,0,7.62-1.35,9.41-4.04,1.4-2.06,2.21-5.34,2.45-9.86.09-1.81.13-4.25.13-7.34,0-5.4-.19-9.25-.56-11.53-.64-3.77-2.02-6.4-4.15-7.89-1.79-1.22-4.22-1.83-7.28-1.83-4.48,0-7.63,1.35-9.44,4.04-1.4,2.06-2.22,5.34-2.45,9.86-.09,1.81-.13,4.26-.13,7.36,0,5.4.19,9.23.56,11.48.6,3.77,1.98,6.41,4.15,7.89,1.77,1.24,4.21,1.86,7.31,1.86Z"/>
      <path class="cls-3" d="M351.57,41.56c-1.12,0-1.89,0-2.31.03-.64.04-1.43.09-2.37.16-.94.07-1.74.2-2.39.4-1.77.43-3.07,1.04-3.91,1.83-1.06,1.01-1.59,2.34-1.59,3.99,0,2.62.91,4.61,2.74,5.95.48.34,1.18.7,2.1,1.09,1.19.44,3.06,1.01,5.61,1.7l.93.24c3.01.82,5.56,1.74,7.65,2.76,2.06.99,3.8,2.23,5.24,3.72,1.42,1.47,2.45,3.22,3.1,5.24.65,2.02.97,4.45.97,7.28,0,6.73-2,11.54-6.01,14.43-3.86,2.76-9.52,4.15-16.98,4.15-6.01,0-11.97-.64-17.89-1.91l1.22-9.91c6.24.92,11.64,1.38,16.21,1.38,3.37,0,5.92-.5,7.66-1.49,1.9-1.13,2.84-3.2,2.84-6.19,0-2.62-1.01-4.61-3.03-5.95-1.17-.78-3.23-1.63-6.17-2.55-.16-.04-.52-.14-1.09-.32-1.68-.51-3.18-1.01-4.49-1.49-1.17-.43-2.45-.97-3.85-1.62-1.28-.6-2.37-1.24-3.3-1.91-2.11-1.59-3.6-3.37-4.47-5.32-1.03-2.29-1.54-5.01-1.54-8.19,0-6.59,1.92-11.22,5.77-13.9,1.93-1.35,4.21-2.32,6.84-2.92,2.63-.6,5.82-.9,9.55-.9,5.88,0,11.79.65,17.73,1.94l-1.14,9.65c-5.69-.9-10.23-1.36-13.63-1.36Z"/>
    </g>
    <g>
      <path class="cls-3" d="M93.23,70.32l-11.97-29.32c-1.18-2.71-2.06-4.66-3.85-4.66-1.82.01-2.68,2.06-3.76,4.64l-7.28,16.92-7.19-16.91c-1.09-2.6-1.95-4.65-3.77-4.66-1.79.01-2.67,1.95-3.87,4.69l-11.96,29.31c-.8,2.05-.65,4.12.41,5.68,1.06,1.55,2.93,2.44,5.14,2.44h5.27l.02,6.68c0,2.4,1.95,4.35,4.35,4.35h1.51c2.4,0,4.35-1.95,4.35-4.35v-3.27c0-.11,0-.23-.01-.35v-3.06h5.3c.18,0,.34-.01.51-.02.17.01.33.02.5.02h5.3v3.06c0,.12-.01.24-.01.35v3.27c0,2.4,1.95,4.35,4.35,4.35h1.51c2.4,0,4.35-1.95,4.35-4.35l.02-6.68h5.27c2.21,0,4.08-.89,5.14-2.44,1.06-1.55,1.21-3.62.4-5.7ZM61.33,75.22h-3.98v9.92c.01.61-.48,1.1-1.09,1.1h-1.51c-.61,0-1.1-.49-1.1-1.1l-.02-3.96v-5.96h-8.51c-1.13,0-2.01-.36-2.46-1.03-.45-.66-.47-1.61-.07-2.64l11.94-29.25c.16-.37.51-1.17.85-1.85.22.46.49,1.07.81,1.82l8.42,19.8-3.22,8.28c-.68,1.74-.69,3.44-.04,4.87ZM68.39,74.13c-.36.58-1.07.95-1.98,1.05-.91-.1-1.62-.47-1.99-1.05-.41-.66-.42-1.58-.02-2.6l1.97-5.07,2.04,5.08c.4,1.02.39,1.94-.02,2.6ZM90.15,74.19c-.45.66-1.33,1.03-2.46,1.03h-8.51l-.02,9.92c0,.61-.49,1.1-1.1,1.1h-1.51c-.61,0-1.1-.49-1.1-1.1v-9.92s-3.97,0-3.97,0c.64-1.43.63-3.13-.05-4.87l-3.32-8.29,8.52-19.8c.31-.74.58-1.35.8-1.81.34.67.68,1.47.83,1.82l11.94,29.26c.41,1.06.39,2-.06,2.66Z"/>
      <g>
        <path class="cls-8" d="M99.64,92.66c-8.29,8.91-20.13,14.49-33.26,14.49-1.39,0-2.76-.07-4.12-.19-4.03,1.07-8.27,1.65-12.64,1.65-5.85,0-11.47-1.03-16.67-2.91,8.97,11.66,23.07,19.17,38.92,19.17,27.11,0,49.08-21.97,49.08-49.07,0-2.19-.15-4.34-.42-6.46-4.24,9.86-11.62,18.05-20.88,23.31Z"/>
        <path class="cls-1" d="M74.03,16.96c14.59,2.47,26.82,11.91,33.14,24.76,7.12,7.37,11.95,16.96,13.35,27.63,2.56-5.94,3.98-12.49,3.98-19.37C124.5,22.87,102.52.91,75.41.91c-10.97,0-21.11,3.6-29.28,9.69,1.15-.08,2.31-.12,3.48-.12,8.89,0,17.22,2.36,24.41,6.49Z"/>
        <path class="cls-7" d="M111.81,61.73c0,11.95-4.62,22.82-12.17,30.93,9.26-5.26,16.64-13.45,20.88-23.31-1.4-10.67-6.24-20.26-13.35-27.63,2.97,6.04,4.64,12.83,4.64,20.01Z"/>
        <path class="cls-6" d="M22.79,74.58c-1.2-4.07-1.85-8.39-1.85-12.85,0-8.89,2.56-17.19,6.98-24.19,2.86-10.94,9.39-20.39,18.21-26.95C20.65,12.38.53,33.61.53,59.54c0,21.25,13.51,39.34,32.41,46.16-6.37-8.28-10.16-18.64-10.16-29.9,0-.41,0-.82.02-1.22Z"/>
        <path class="cls-5" d="M62.26,106.96c-18.8-1.69-34.29-14.82-39.46-32.38,0,.41-.02.81-.02,1.22,0,11.25,3.79,21.62,10.16,29.9,5.21,1.88,10.82,2.91,16.67,2.91,4.37,0,8.61-.57,12.64-1.65Z"/>
        <path class="cls-2" d="M27.92,37.54c8.04-12.75,22.26-21.23,38.45-21.23,2.61,0,5.16.22,7.65.64-7.19-4.13-15.53-6.49-24.41-6.49-1.17,0-2.33.04-3.48.12-8.82,6.56-15.35,16.01-18.21,26.95Z"/>
      </g>
    </g>
    <g>
      <path class="cls-3" d="M152.31,134.19l.3,2.68c-1.82.41-3.76.62-5.84.62-3.4,0-5.82-.74-7.25-2.21-1-1.03-1.7-2.39-2.1-4.09-.38-1.66-.57-3.78-.57-6.35,0-2.01.11-3.73.34-5.14.23-1.45.62-2.71,1.18-3.76.7-1.29,1.72-2.24,3.07-2.85,1.35-.61,3.13-.91,5.33-.91s4.04.2,5.84.61l-.32,2.69c-1.64-.26-3.15-.39-4.52-.39-2.64,0-4.52.56-5.64,1.67-.84.84-1.38,2.13-1.61,3.88-.12.98-.18,2.38-.18,4.19,0,2.31.12,4,.35,5.09.34,1.6,1.02,2.76,2.06,3.48,1.12.79,2.79,1.18,5.02,1.18,1.41,0,2.92-.13,4.53-.39Z"/>
      <path class="cls-3" d="M168.8,137.18c-.97.21-2.07.31-3.3.31-2.49,0-4.42-.43-5.79-1.29-.71-.46-1.31-1.01-1.79-1.66-.93-1.28-1.53-3.16-1.79-5.64-.13-1.17-.19-2.53-.19-4.06,0-3.05.27-5.47.82-7.26.31-.98.7-1.79,1.16-2.44.99-1.36,2.42-2.24,4.29-2.65.97-.21,2.07-.31,3.3-.31,2.5,0,4.43.43,5.79,1.3.72.45,1.32,1.01,1.78,1.66.93,1.27,1.53,3.15,1.79,5.64.13,1.16.19,2.51.19,4.05s-.06,2.89-.19,4.06c-.13,1.18-.34,2.25-.64,3.2-.43,1.42-1.09,2.53-1.96,3.35-.87.81-2.03,1.39-3.48,1.73ZM165.51,134.62c2.23,0,3.8-.61,4.71-1.83.69-.91,1.12-2.35,1.28-4.31.06-.84.09-2.05.09-3.65,0-2.33-.09-4.03-.27-5.1-.28-1.7-.91-2.91-1.89-3.65-.93-.7-2.24-1.04-3.92-1.04-2.22,0-3.79.6-4.71,1.81-.69.91-1.11,2.33-1.27,4.27-.07.8-.11,2.04-.11,3.71,0,2.34.09,4.02.26,5.04.29,1.72.9,2.94,1.85,3.67.93.72,2.26,1.08,3.98,1.08Z"/>
      <path class="cls-3" d="M192.8,137.18c-.97.21-2.07.31-3.3.31-2.49,0-4.42-.43-5.79-1.29-.71-.46-1.31-1.01-1.79-1.66-.93-1.28-1.53-3.16-1.79-5.64-.13-1.17-.19-2.53-.19-4.06,0-3.05.27-5.47.82-7.26.31-.98.7-1.79,1.16-2.44.99-1.36,2.42-2.24,4.29-2.65.97-.21,2.07-.31,3.3-.31,2.5,0,4.43.43,5.79,1.3.72.45,1.32,1.01,1.78,1.66.93,1.27,1.53,3.15,1.79,5.64.13,1.16.19,2.51.19,4.05s-.06,2.89-.19,4.06c-.13,1.18-.34,2.25-.64,3.2-.43,1.42-1.09,2.53-1.96,3.35-.87.81-2.03,1.39-3.48,1.73ZM189.5,134.62c2.23,0,3.8-.61,4.71-1.83.69-.91,1.12-2.35,1.28-4.31.06-.84.09-2.05.09-3.65,0-2.33-.09-4.03-.27-5.1-.28-1.7-.91-2.91-1.89-3.65-.93-.7-2.24-1.04-3.92-1.04-2.22,0-3.79.6-4.71,1.81-.69.91-1.11,2.33-1.27,4.27-.07.8-.11,2.04-.11,3.71,0,2.34.09,4.02.26,5.04.29,1.72.9,2.94,1.85,3.67.93.72,2.26,1.08,3.98,1.08Z"/>
      <path class="cls-3" d="M207.94,127.37v9.86h-3.41v-24.43c2.35-.41,4.89-.62,7.62-.62.85,0,1.59.03,2.2.07,1.53.11,2.8.4,3.81.86,1.18.53,2.06,1.3,2.62,2.3.65,1.15.98,2.6.98,4.35-.03,2.63-.68,4.54-1.95,5.72-.84.77-1.89,1.3-3.14,1.6-1.2.28-2.61.43-4.24.43-1.11,0-2.61-.05-4.49-.15ZM207.94,115.21v9.35c1.15.13,2.56.2,4.21.2s2.96-.2,3.89-.61c.78-.33,1.36-.86,1.74-1.57.38-.71.58-1.65.58-2.82-.01-.89-.12-1.64-.32-2.24-.2-.6-.55-1.09-1.03-1.48s-1.1-.67-1.86-.85c-.76-.17-1.72-.27-2.87-.28-1.48,0-2.92.1-4.33.29Z"/>
      <path class="cls-3" d="M240.75,112.53v2.67h-6.32c-.72,0-1.3.03-1.74.07-.95.09-1.65.33-2.1.74-.2.19-.37.46-.5.81-.22.56-.33,1.46-.33,2.69v3.7h10.51v2.76h-10.51v4.17c0,.63.02,1.15.06,1.56.09.9.35,1.55.77,1.94.21.18.5.34.86.48.62.22,1.62.33,2.98.33h6.32v2.68c-2.25.1-4.32.15-6.21.15s-3.37-.11-4.31-.32c-1.64-.38-2.75-1.19-3.33-2.44-.36-.77-.55-1.73-.55-2.89v-13.61c0-1.14.18-2.11.54-2.9.29-.65.78-1.21,1.47-1.69.5-.34,1.22-.61,2.16-.8.39-.09.82-.14,1.28-.17.45-.04.89-.06,1.33-.07.52-.01.99-.02,1.41-.02,1.77,0,3.84.05,6.21.16Z"/>
      <path class="cls-3" d="M249.39,127.15v10.08h-3.42v-24.43c2.36-.41,4.9-.62,7.62-.62.85,0,1.58.03,2.19.07.65.05,1.32.15,2,.29.71.14,1.31.33,1.81.55.55.24,1.05.56,1.51.94.46.39.84.83,1.12,1.32.65,1.11.98,2.55.98,4.31,0,2.29-.51,4.01-1.53,5.17-.95,1.09-2.3,1.8-4.04,2.15l5.86,10.24h-3.99l-5.45-9.92h-.18c-1.05,0-2.54-.05-4.48-.16ZM249.39,115.2v9.15c1.12.13,2.52.19,4.2.19s2.92-.2,3.88-.6c1.55-.65,2.33-2.08,2.33-4.29,0-1.72-.46-2.95-1.37-3.67-.92-.72-2.49-1.09-4.71-1.09-1.45,0-2.89.1-4.32.3Z"/>
      <path class="cls-3" d="M273.18,130.36l-2.29,6.87h-3.52l7.98-22.67c.55-1.58,1.5-2.37,2.85-2.37s2.3.79,2.84,2.37l7.86,22.67h-3.63l-2.31-6.87h-9.79ZM278.06,115.71l-3.99,11.96h8l-4.01-11.96Z"/>
      <path class="cls-3" d="M290.81,112.44h16.37v2.8h-6.46v21.99h-3.43v-21.99h-6.48v-2.8Z"/>
      <path class="cls-3" d="M314.95,137.23h-3.43v-24.79h3.43v24.79Z"/>
      <path class="cls-3" d="M336.25,112.44h3.48l-7.57,22.66c-.28.83-.63,1.43-1.06,1.81s-.97.57-1.62.57-1.19-.19-1.63-.57-.79-.98-1.06-1.81l-7.56-22.66h3.64l6.64,20.92,6.72-20.92Z"/>
      <path class="cls-3" d="M345.42,130.36l-2.29,6.87h-3.52l7.98-22.67c.55-1.58,1.5-2.37,2.85-2.37s2.3.79,2.84,2.37l7.86,22.67h-3.63l-2.31-6.87h-9.79ZM350.3,115.71l-3.99,11.96h8l-4.01-11.96Z"/>
      <path class="cls-3" d="M389.73,134.19l.3,2.68c-1.82.41-3.76.62-5.84.62-3.4,0-5.82-.74-7.25-2.21-1-1.03-1.7-2.39-2.1-4.09-.38-1.66-.57-3.78-.57-6.35,0-2.01.11-3.73.34-5.14.23-1.45.62-2.71,1.17-3.76.7-1.29,1.72-2.24,3.08-2.85,1.35-.61,3.13-.91,5.33-.91s4.04.2,5.84.61l-.31,2.69c-1.64-.26-3.15-.39-4.52-.39-2.64,0-4.52.56-5.64,1.67-.84.84-1.37,2.13-1.61,3.88-.12.98-.18,2.38-.18,4.19,0,2.31.12,4,.35,5.09.34,1.6,1.02,2.76,2.06,3.48,1.12.79,2.79,1.18,5.02,1.18,1.41,0,2.92-.13,4.53-.39Z"/>
      <path class="cls-3" d="M397.75,127.15v10.08h-3.42v-24.43c2.37-.41,4.91-.62,7.62-.62.85,0,1.59.03,2.19.07.65.05,1.32.15,2,.29.71.14,1.31.33,1.8.55.55.24,1.05.56,1.51.94.46.39.84.83,1.12,1.32.65,1.11.98,2.55.98,4.31,0,2.29-.51,4.01-1.53,5.17-.95,1.09-2.3,1.8-4.04,2.15l5.86,10.24h-3.99l-5.45-9.92h-.18c-1.05,0-2.54-.05-4.48-.16ZM397.75,115.2v9.15c1.12.13,2.52.19,4.2.19s2.93-.2,3.88-.6c1.55-.65,2.33-2.08,2.33-4.29,0-1.72-.46-2.95-1.37-3.67-.92-.72-2.49-1.09-4.71-1.09-1.45,0-2.89.1-4.32.3Z"/>
      <path class="cls-3" d="M430.94,112.53v2.67h-6.32c-.72,0-1.3.03-1.74.07-.95.09-1.65.33-2.1.74-.2.19-.37.46-.5.81-.22.56-.33,1.46-.33,2.69v3.7h10.51v2.76h-10.51v4.17c0,.63.02,1.15.06,1.56.09.9.35,1.55.77,1.94.21.18.5.34.86.48.62.22,1.62.33,2.98.33h6.32v2.68c-2.25.1-4.32.15-6.21.15s-3.37-.11-4.31-.32c-1.64-.38-2.75-1.19-3.33-2.44-.36-.77-.55-1.73-.55-2.89v-13.61c0-1.14.18-2.11.54-2.9.29-.65.78-1.21,1.47-1.69.5-.34,1.22-.61,2.16-.8.39-.09.82-.14,1.28-.17.45-.04.89-.06,1.33-.07.52-.01.99-.02,1.41-.02,1.77,0,3.84.05,6.21.16Z"/>
      <path class="cls-3" d="M436.17,136.87v-24.09c2.39-.4,4.93-.6,7.61-.6,1.98,0,3.64.2,4.97.62,1.33.42,2.4,1.05,3.21,1.88.74.74,1.32,1.78,1.73,3.13.18.56.33,1.24.45,2.03.2,1.41.3,3.07.3,4.99s-.1,3.58-.3,4.99c-.2,1.43-.59,2.67-1.15,3.75-.53,1.01-1.34,1.84-2.41,2.5-1.51.94-3.77,1.42-6.79,1.42-2.71,0-5.24-.21-7.61-.62ZM443.07,115.02c-1.01,0-2.17.09-3.47.27v19.09c1.31.18,2.47.27,3.47.27,2.97,0,5.06-.64,6.27-1.91.82-.87,1.34-2.19,1.54-3.95.09-.79.14-2.1.14-3.95,0-2.07-.07-3.54-.2-4.42-.25-1.7-.85-2.96-1.79-3.78-1.22-1.08-3.21-1.62-5.95-1.62Z"/>
      <path class="cls-3" d="M463.38,137.23h-3.43v-24.79h3.43v24.79Z"/>
      <path class="cls-3" d="M484.19,134.19l.3,2.68c-1.82.41-3.76.62-5.84.62-3.4,0-5.82-.74-7.25-2.21-1-1.03-1.7-2.39-2.1-4.09-.38-1.66-.57-3.78-.57-6.35,0-2.01.11-3.73.34-5.14.23-1.45.62-2.71,1.17-3.76.7-1.29,1.72-2.24,3.08-2.85,1.35-.61,3.13-.91,5.33-.91s4.04.2,5.84.61l-.31,2.69c-1.64-.26-3.15-.39-4.52-.39-2.64,0-4.52.56-5.64,1.67-.84.84-1.37,2.13-1.61,3.88-.12.98-.18,2.38-.18,4.19,0,2.31.12,4,.35,5.09.34,1.6,1.02,2.76,2.06,3.48,1.12.79,2.79,1.18,5.02,1.18,1.41,0,2.92-.13,4.53-.39Z"/>
      <path class="cls-3" d="M500.68,137.18c-.97.21-2.07.31-3.3.31-2.49,0-4.42-.43-5.79-1.29-.71-.46-1.31-1.01-1.79-1.66-.93-1.28-1.53-3.16-1.79-5.64-.13-1.17-.19-2.53-.19-4.06,0-3.05.27-5.47.82-7.26.31-.98.7-1.79,1.16-2.44.99-1.36,2.42-2.24,4.29-2.65.97-.21,2.07-.31,3.3-.31,2.5,0,4.43.43,5.79,1.3.72.45,1.32,1.01,1.78,1.66.93,1.27,1.53,3.15,1.79,5.64.13,1.16.19,2.51.19,4.05s-.06,2.89-.19,4.06c-.13,1.18-.34,2.25-.64,3.2-.43,1.42-1.09,2.53-1.96,3.35-.87.81-2.03,1.39-3.48,1.73ZM497.38,134.62c2.23,0,3.8-.61,4.71-1.83.69-.91,1.12-2.35,1.28-4.31.06-.84.09-2.05.09-3.65,0-2.33-.09-4.03-.27-5.1-.28-1.7-.91-2.91-1.89-3.65-.93-.7-2.24-1.04-3.92-1.04-2.22,0-3.79.6-4.71,1.81-.69.91-1.11,2.33-1.27,4.27-.07.8-.1,2.04-.1,3.71,0,2.34.09,4.02.26,5.04.29,1.72.9,2.94,1.85,3.67.93.72,2.26,1.08,3.98,1.08Z"/>
      <path class="cls-3" d="M517.74,114.33l6.41,15.21,6.49-15.16c.31-.72.68-1.26,1.13-1.63.44-.37.93-.56,1.45-.56.73,0,1.28.2,1.64.59s.56,1.02.6,1.87l1.15,22.59h-3.33l-.99-19.96-6.19,15.05c-.43,1.04-1.08,1.56-1.94,1.56s-1.55-.52-1.97-1.56l-6.22-15.01-1.01,19.93h-3.19l1.2-22.61c.04-.84.24-1.46.6-1.85.36-.39.9-.59,1.63-.59,1.09,0,1.94.72,2.55,2.15Z"/>
      <path class="cls-3" d="M545.64,137.23h-3.43v-24.79h3.43v24.79Z"/>
      <path class="cls-3" d="M556.88,114.42l10.56,18.39v-20.37h3.1v22.55c0,.83-.18,1.45-.54,1.87-.36.42-.88.63-1.56.63-.63,0-1.18-.17-1.65-.52-.47-.35-.93-.93-1.4-1.73l-10.55-18.41v20.41h-3.1v-22.55c0-.84.18-1.46.55-1.88s.89-.62,1.56-.62c.61,0,1.15.18,1.64.53s.95.92,1.39,1.71Z"/>
    </g>
  </g>
  <rect class="cls-4" x="-31.4" y="-30.96" width="588.5" height="206.1"/>
</svg>