<?xml version="1.0" encoding="UTF-8"?>
<svg id="Layer_1" xmlns="http://www.w3.org/2000/svg" version="1.1" xmlns:xlink="http://www.w3.org/1999/xlink" viewBox="0 0 551.01 164.26">
  <!-- Generator: Adobe Illustrator 30.0.0, SVG Export Plug-In . SVG Version: 2.1.1 Build 123)  -->
  <defs>
    <style>
      .st0 {
        fill: #006d32;
      }

      .st1 {
        fill: url(#Gradiente_sem_nome_2);
      }

      .st2 {
        fill: none;
      }

      .st3 {
        fill: url(#Gradiente_sem_nome);
      }

      .st4 {
        fill: #007d8a;
      }

      .st5 {
        fill: #165c7d;
      }

      .st6 {
        fill: #886b25;
      }

      .st7 {
        fill: url(#Gradiente_sem_nome_3);
      }
    </style>
    <linearGradient id="Gradiente_sem_nome" data-name="Gradiente sem nome" x1="38.22" y1="96.84" x2="136.59" y2="96.84" gradientTransform="translate(0 207.28) scale(1 -1)" gradientUnits="userSpaceOnUse">
      <stop offset="0" stop-color="#00a9ce"/>
      <stop offset=".41" stop-color="#00a6cb"/>
      <stop offset=".66" stop-color="#009ec3"/>
      <stop offset=".86" stop-color="#0091b4"/>
      <stop offset="1" stop-color="#0083a6"/>
    </linearGradient>
    <linearGradient id="Gradiente_sem_nome_2" data-name="Gradiente sem nome 2" x1="52.95" y1="166.14" x2="140.55" y2="166.14" gradientTransform="translate(0 207.28) scale(1 -1)" gradientUnits="userSpaceOnUse">
      <stop offset="0" stop-color="#ffa300"/>
      <stop offset=".35" stop-color="#fca100"/>
      <stop offset=".56" stop-color="#f49d00"/>
      <stop offset=".73" stop-color="#e59500"/>
      <stop offset=".89" stop-color="#d18a00"/>
      <stop offset="1" stop-color="#bd8000"/>
    </linearGradient>
    <linearGradient id="Gradiente_sem_nome_3" data-name="Gradiente sem nome 3" x1="1.98" y1="140.4" x2="52.96" y2="140.4" gradientTransform="translate(0 207.28) scale(1 -1)" gradientUnits="userSpaceOnUse">
      <stop offset="0" stop-color="#00b140"/>
      <stop offset=".39" stop-color="#00ae3f"/>
      <stop offset=".62" stop-color="#00a63d"/>
      <stop offset=".82" stop-color="#01973b"/>
      <stop offset=".99" stop-color="#028337"/>
      <stop offset="1" stop-color="#038237"/>
    </linearGradient>
  </defs>
  <rect class="st2" y="0" width="551.02" height="206.07"/>
  <g>
    <g>
      <path class="st5" d="M174.05,89.68l-5.17,17.14h-14.5l20.58-60.27c1.13-3.31,2.63-5.74,4.49-7.3,1.86-1.57,4.16-2.35,6.89-2.35,5.37,0,9.13,3.22,11.29,9.65l20.24,60.27h-14.91l-5.29-17.14h-23.62,0ZM185.75,50.91l-8.47,27.99h17.08l-8.61-27.99Z"/>
      <path class="st5" d="M239.89,106.82h-14.08V37.6h14.08v69.22Z"/>
      <path class="st5" d="M277.47,95.59h17.98v10.93c-7.23.31-13.13.47-17.71.47-5.63,0-9.79-.3-12.47-.92-4.78-1.07-8.03-3.37-9.78-6.89-1.19-2.37-1.78-5.4-1.78-9.09v-52.5h14.08v48.57c0,1.98.11,3.57.32,4.75.21,1.15.69,2.09,1.42,2.82.75.75,1.72,1.25,2.91,1.49,1.21.23,2.89.36,5.02.36h0Z"/>
      <path class="st5" d="M338.87,106.68c-2.77.57-5.94.86-9.51.86-7.2,0-12.8-1.2-16.76-3.59-2.04-1.29-3.76-2.83-5.17-4.63-2.7-3.6-4.44-8.85-5.22-15.75-.36-3.27-.54-7.05-.54-11.35,0-8.48.79-15.23,2.37-20.26.87-2.73,2-5,3.39-6.8,2.85-3.78,6.98-6.25,12.38-7.39,2.81-.57,6-.86,9.53-.86,7.19,0,12.76,1.21,16.72,3.62,2.06,1.25,3.78,2.8,5.17,4.63,2.71,3.58,4.44,8.83,5.2,15.72.38,3.19.56,6.97.56,11.34,0,8.61-.81,15.38-2.41,20.29-1.25,3.96-3.14,7.08-5.67,9.34-2.54,2.27-5.9,3.88-10.07,4.83h.01ZM329.36,95.95c5.01,0,8.51-1.51,10.52-4.52,1.57-2.29,2.47-5.97,2.73-11.02.1-2.02.15-4.75.15-8.2,0-6.04-.21-10.34-.63-12.9-.72-4.22-2.26-7.16-4.63-8.83-2-1.36-4.71-2.05-8.14-2.05-5.01,0-8.52,1.51-10.55,4.52-1.57,2.29-2.47,5.97-2.73,11.02-.1,2.02-.15,4.77-.15,8.23,0,6.04.21,10.31.63,12.83.67,4.22,2.21,7.16,4.63,8.83,1.98,1.39,4.71,2.08,8.17,2.08h.01Z"/>
      <path class="st5" d="M394.38,48.33c-1.25,0-2.11,0-2.58.03-.72.04-1.6.1-2.64.18-1.05.08-1.95.22-2.67.45-1.98.47-3.43,1.16-4.36,2.05-1.19,1.13-1.78,2.62-1.78,4.45,0,2.93,1.02,5.15,3.07,6.66.54.38,1.32.78,2.35,1.22,1.33.49,3.41,1.13,6.26,1.9l1.04.27c3.37.91,6.22,1.95,8.56,3.09,2.29,1.11,4.25,2.49,5.85,4.16,1.59,1.64,2.74,3.59,3.46,5.85.73,2.26,1.09,4.97,1.09,8.14,0,7.53-2.24,12.9-6.71,16.13-4.32,3.09-10.65,4.63-18.98,4.63-6.71,0-13.38-.72-19.99-2.14l1.36-11.09c6.97,1.03,13.01,1.54,18.12,1.54,3.76,0,6.61-.56,8.56-1.67,2.11-1.26,3.18-3.58,3.18-6.92,0-2.93-1.13-5.15-3.39-6.66-1.31-.87-3.6-1.82-6.89-2.85-.18-.04-.58-.16-1.22-.36-1.88-.57-3.56-1.13-5.02-1.67-1.31-.47-2.74-1.07-4.31-1.81-1.42-.67-2.65-1.39-3.68-2.14-2.36-1.78-4.02-3.76-4.99-5.94-1.15-2.55-1.72-5.6-1.72-9.15,0-7.37,2.15-12.55,6.44-15.54,2.16-1.51,4.71-2.6,7.65-3.27s6.5-1.01,10.68-1.01c6.58,0,13.18.73,19.81,2.17l-1.28,10.78c-6.35-1.01-11.43-1.51-15.24-1.51h-.02Z"/>
    </g>
    <g>
      <path class="st5" d="M105.61,80.48l-13.38-32.78c-1.32-3.03-2.3-5.2-4.31-5.21-2.04.01-3,2.3-4.21,5.19l-8.14,18.92-8.04-18.89c-1.22-2.9-2.18-5.19-4.22-5.2-1.99.01-2.99,2.18-4.32,5.25l-13.37,32.75c-.89,2.29-.73,4.61.46,6.34,1.19,1.73,3.28,2.73,5.75,2.73h5.88l.02,7.46c0,2.67,2.18,4.86,4.86,4.86h1.69c2.67,0,4.86-2.18,4.86-4.86v-3.66c0-.12,0-.26-.01-.39v-3.41h5.93c.2,0,.38-.01.57-.02.19.01.37.02.56.02h5.93v3.41c0,.13-.01.27-.01.39v3.66c0,2.67,2.18,4.86,4.86,4.86h1.69c2.67,0,4.86-2.18,4.86-4.86l.02-7.46h5.88c2.47,0,4.56-1,5.75-2.73s1.35-4.05.45-6.37h0ZM69.95,85.95h-4.45v11.09c.01.68-.54,1.23-1.22,1.23h-1.69c-.68,0-1.23-.55-1.23-1.23l-.02-4.43v-6.66h-9.52c-1.26,0-2.25-.4-2.75-1.15-.5-.74-.53-1.8-.08-2.95l13.35-32.7c.18-.41.57-1.31.95-2.07.25.51.55,1.2.89,2.04l9.42,22.13-3.6,9.25c-.76,1.95-.77,3.85-.04,5.45h0ZM77.84,84.74c-.4.65-1.2,1.06-2.21,1.17-1.02-.11-1.81-.53-2.23-1.17-.46-.74-.47-1.77-.02-2.9l2.2-5.67,2.27,5.67c.45,1.14.44,2.17-.02,2.9h.01ZM102.16,84.81c-.5.74-1.49,1.15-2.75,1.15h-9.52l-.02,11.09c0,.68-.55,1.23-1.23,1.23h-1.69c-.68,0-1.23-.55-1.23-1.23v-11.09h-4.43c.72-1.6.7-3.5-.06-5.45l-3.71-9.26,9.53-22.14c.35-.83.65-1.51.89-2.02.38.75.76,1.64.93,2.04l13.36,32.71c.46,1.19.44,2.24-.07,2.98h0Z"/>
      <g>
        <path class="st3" d="M112.78,105.45c-9.27,9.97-22.5,16.2-37.18,16.2-1.55,0-3.09-.08-4.61-.21-4.51,1.2-9.24,1.85-14.13,1.85-6.54,0-12.82-1.15-18.64-3.24,10.03,13.03,25.79,21.43,43.51,21.43,30.3,0,54.87-24.55,54.87-54.85,0-2.45-.17-4.86-.47-7.22-4.74,11.02-12.99,20.17-23.35,26.05h0Z"/>
        <path class="st1" d="M84.14,20.83c16.31,2.76,29.98,13.31,37.05,27.68,7.95,8.23,13.36,18.96,14.92,30.89,2.86-6.64,4.44-13.96,4.44-21.66,0-30.29-24.57-54.85-54.87-54.85-12.27,0-23.59,4.03-32.73,10.83,1.29-.09,2.58-.13,3.89-.13,9.93,0,19.25,2.64,27.28,7.26h.01Z"/>
        <path class="st6" d="M126.37,70.88c0,13.36-5.17,25.51-13.6,34.58,10.35-5.88,18.6-15.03,23.35-26.05-1.57-11.93-6.97-22.64-14.92-30.89,3.32,6.75,5.19,14.34,5.19,22.37h-.01Z"/>
        <path class="st7" d="M26.87,85.24c-1.34-4.55-2.07-9.37-2.07-14.36,0-9.94,2.86-19.21,7.8-27.04,3.2-12.23,10.5-22.79,20.36-30.13C24.48,15.71,1.98,39.45,1.98,68.43c0,23.75,15.1,43.97,36.23,51.6-7.13-9.25-11.37-20.84-11.37-33.41,0-.46,0-.92.02-1.36h0Z"/>
        <path class="st4" d="M70.98,121.43c-21.01-1.89-38.34-16.57-44.11-36.2,0,.46-.02.91-.02,1.36,0,12.57,4.24,24.16,11.37,33.41,5.82,2.1,12.09,3.24,18.64,3.24,4.89,0,9.62-.64,14.13-1.85v.02Z"/>
        <path class="st0" d="M32.6,43.83c8.99-14.25,24.88-23.73,42.98-23.73,2.92,0,5.77.25,8.55.72-8.03-4.62-17.35-7.26-27.28-7.26-1.31,0-2.61.04-3.89.13-9.86,7.34-17.16,17.9-20.36,30.13h.01Z"/>
      </g>
    </g>
    <g>
      <path class="st5" d="M171.65,151.87l.34,3c-2.04.46-4.21.69-6.52.69-3.8,0-6.5-.83-8.11-2.47-1.12-1.15-1.9-2.67-2.35-4.56-.43-1.86-.64-4.22-.64-7.1,0-2.25.12-4.16.38-5.74.26-1.62.69-3.02,1.31-4.2.78-1.44,1.92-2.51,3.43-3.18,1.51-.68,3.49-1.02,5.96-1.02s4.51.22,6.52.68l-.35,3.01c-1.83-.29-3.52-.44-5.06-.44-2.95,0-5.05.63-6.3,1.87-.94.94-1.53,2.38-1.79,4.34-.13,1.1-.2,2.65-.2,4.69,0,2.57.13,4.47.39,5.68.38,1.78,1.14,3.08,2.3,3.89,1.25.88,3.12,1.32,5.6,1.32,1.58,0,3.27-.15,5.07-.44v-.03Z"/>
      <path class="st5" d="M190.08,155.21c-1.09.23-2.32.35-3.68.35-2.79,0-4.94-.48-6.48-1.44-.79-.51-1.47-1.13-2-1.86-1.04-1.43-1.71-3.53-2-6.3-.15-1.31-.21-2.82-.21-4.54,0-3.41.3-6.11.92-8.11.35-1.1.78-2,1.3-2.72,1.11-1.51,2.71-2.51,4.8-2.96,1.09-.23,2.32-.35,3.68-.35,2.8,0,4.94.48,6.48,1.45.81.5,1.47,1.13,1.99,1.86,1.04,1.42,1.71,3.52,2,6.3.15,1.3.21,2.81.21,4.53s-.07,3.23-.21,4.54c-.15,1.32-.38,2.52-.72,3.58-.48,1.59-1.22,2.83-2.19,3.74-.97.91-2.27,1.55-3.89,1.94h.01ZM186.4,152.35c2.49,0,4.25-.68,5.27-2.05.77-1.02,1.25-2.63,1.43-4.82.07-.94.1-2.29.1-4.08,0-2.6-.1-4.5-.3-5.69-.31-1.89-1.02-3.26-2.11-4.08-1.04-.78-2.51-1.16-4.39-1.16-2.48,0-4.24.67-5.27,2.02-.77,1.02-1.24,2.61-1.42,4.77-.08.89-.11,2.28-.11,4.15,0,2.62.1,4.5.29,5.64.32,1.91,1.01,3.29,2.07,4.11,1.04.81,2.52,1.2,4.44,1.2h0Z"/>
      <path class="st5" d="M216.9,155.21c-1.09.23-2.32.35-3.68.35-2.79,0-4.94-.48-6.48-1.44-.79-.51-1.47-1.13-2-1.86-1.04-1.43-1.71-3.53-2-6.3-.15-1.31-.21-2.82-.21-4.54,0-3.41.3-6.11.92-8.11.35-1.1.78-2,1.3-2.72,1.11-1.51,2.71-2.51,4.8-2.96,1.09-.23,2.32-.35,3.68-.35,2.8,0,4.94.48,6.48,1.45.81.5,1.47,1.13,1.99,1.86,1.04,1.42,1.71,3.52,2,6.3.15,1.3.21,2.81.21,4.53s-.07,3.23-.21,4.54c-.15,1.32-.38,2.52-.72,3.58-.48,1.59-1.22,2.83-2.19,3.74-.97.91-2.27,1.55-3.89,1.94h.01ZM213.22,152.35c2.49,0,4.25-.68,5.27-2.05.77-1.02,1.25-2.63,1.43-4.82.07-.94.1-2.29.1-4.08,0-2.6-.1-4.5-.3-5.69-.31-1.89-1.02-3.26-2.11-4.08-1.04-.78-2.51-1.16-4.39-1.16-2.48,0-4.24.67-5.27,2.02-.77,1.02-1.24,2.61-1.42,4.77-.08.89-.11,2.28-.11,4.15,0,2.62.1,4.5.29,5.64.32,1.91,1.01,3.29,2.07,4.11,1.04.81,2.52,1.2,4.44,1.2h0Z"/>
      <path class="st5" d="M233.84,144.24v11.03h-3.81v-27.31c2.63-.46,5.47-.69,8.51-.69.95,0,1.78.03,2.46.08,1.71.12,3.13.45,4.26.96,1.32.59,2.3,1.45,2.93,2.57.73,1.29,1.1,2.91,1.1,4.87-.03,2.94-.76,5.08-2.18,6.4-.94.86-2.1,1.45-3.51,1.78-1.34.31-2.92.48-4.74.48-1.24,0-2.92-.06-5.02-.17h.01ZM233.84,130.66v10.46c1.29.15,2.85.22,4.71.22s3.31-.22,4.35-.68c.87-.37,1.52-.96,1.95-1.76s.65-1.85.65-3.15c-.01-1-.13-1.83-.36-2.49-.22-.66-.62-1.22-1.15-1.66s-1.23-.75-2.08-.95c-.85-.19-1.91-.3-3.21-.31-1.66,0-3.27.11-4.84.32h-.01Z"/>
      <path class="st5" d="M270.51,127.66v2.99h-7.06c-.81,0-1.45.03-1.95.08-1.06.09-1.85.37-2.35.83-.22.21-.41.51-.56.91-.25.63-.37,1.63-.37,3.01v4.14h11.75v3.08h-11.75v4.66c0,.7.02,1.29.07,1.75.1,1.01.39,1.73.86,2.17.23.2.56.38.96.54.69.25,1.8.37,3.33.37h7.06v3c-2.52.11-4.83.17-6.95.17s-3.77-.12-4.82-.36c-1.83-.43-3.07-1.33-3.71-2.73-.4-.85-.6-1.94-.6-3.23v-15.21c0-1.28.2-2.36.59-3.24.32-.73.87-1.35,1.64-1.89.56-.38,1.36-.68,2.42-.89.44-.09.92-.16,1.43-.19.5-.04,1-.07,1.49-.08.58-.01,1.11-.02,1.58-.02,1.98,0,4.3.06,6.95.18h-.01Z"/>
      <path class="st5" d="M280.16,144.01v11.27h-3.83v-27.31c2.64-.46,5.48-.69,8.51-.69.95,0,1.77.03,2.45.08.73.06,1.48.17,2.24.32.79.16,1.47.37,2.01.62.62.27,1.17.62,1.69,1.05.51.44.94.93,1.25,1.48.73,1.24,1.1,2.85,1.1,4.82,0,2.56-.57,4.49-1.71,5.78-1.06,1.21-2.57,2.01-4.52,2.41l6.54,11.44h-4.45l-6.09-11.09h-.2c-1.17,0-2.84-.06-5.01-.18h.01ZM280.16,130.65v10.22c1.25.15,2.82.21,4.69.21s3.27-.22,4.34-.66c1.73-.73,2.61-2.33,2.61-4.8,0-1.92-.51-3.3-1.53-4.11-1.03-.81-2.79-1.21-5.27-1.21-1.62,0-3.23.11-4.83.34h0Z"/>
      <path class="st5" d="M306.77,147.59l-2.56,7.69h-3.93l8.92-25.35c.62-1.77,1.68-2.65,3.19-2.65s2.57.88,3.18,2.65l8.78,25.35h-4.06l-2.58-7.69h-10.94.01ZM312.21,131.22l-4.45,13.37h8.94l-4.49-13.37h0Z"/>
      <path class="st5" d="M326.47,127.55h18.3v3.13h-7.23v24.59h-3.84v-24.59h-7.24v-3.13h0Z"/>
      <path class="st5" d="M353.45,155.27h-3.84v-27.71h3.84v27.71Z"/>
      <path class="st5" d="M377.26,127.55h3.89l-8.46,25.34c-.31.93-.7,1.6-1.19,2.02s-1.07.64-1.81.64-1.33-.21-1.81-.64-.88-1.1-1.19-2.02l-8.45-25.34h4.07l7.43,23.38,7.51-23.38h0Z"/>
      <path class="st5" d="M387.51,147.59l-2.56,7.69h-3.93l8.92-25.35c.62-1.77,1.68-2.65,3.19-2.65s2.57.88,3.18,2.65l8.78,25.35h-4.06l-2.58-7.69h-10.94.01ZM392.96,131.22l-4.46,13.37h8.94l-4.49-13.37h.01Z"/>
      <path class="st5" d="M436.59,127.55h3.78v18.65c0,2.83-.59,5-1.77,6.49-.55.69-1.25,1.26-2.1,1.69-.83.43-1.73.72-2.71.89-.97.18-2.11.27-3.41.27s-2.44-.09-3.41-.27-1.88-.48-2.71-.89c-1.26-.64-2.23-1.61-2.87-2.94-.65-1.33-.98-3.08-1-5.24v-18.65h3.79v18.96c0,2.02.48,3.49,1.43,4.41s2.54,1.36,4.78,1.36,3.83-.46,4.78-1.36c.95-.92,1.43-2.39,1.43-4.41v-18.96h-.01ZM431.08,125.21h-3.04l3.8-4.82h4.37l-5.13,4.82Z"/>
      <path class="st5" d="M452.84,129.77l11.8,20.55v-22.76h3.46v25.2c0,.93-.2,1.62-.6,2.09-.4.47-.98.7-1.75.7-.7,0-1.32-.19-1.85-.58s-1.04-1.03-1.55-1.94l-11.79-20.57v22.81h-3.46v-25.2c0-.94.2-1.63.6-2.1s.98-.69,1.75-.69c.68,0,1.29.2,1.83.59s1.05,1.03,1.54,1.91h.01Z"/>
      <path class="st5" d="M478.75,155.27h-3.84v-27.71h3.84v27.71Z"/>
      <path class="st5" d="M494.51,152.17h6.58v3.02c-2.42.09-4.58.15-6.48.15-2.18,0-3.79-.12-4.83-.37-1.83-.43-3.07-1.33-3.71-2.72-.4-.87-.6-1.95-.6-3.22v-21.47h3.84v19.8c0,.69.02,1.26.07,1.73.1,1.02.38,1.73.84,2.17.22.2.55.39.96.55.69.25,1.81.37,3.33.37h.01Z"/>
      <path class="st5" d="M518.76,155.21c-1.09.23-2.32.35-3.68.35-2.79,0-4.94-.48-6.48-1.44-.79-.51-1.47-1.13-2-1.86-1.04-1.43-1.71-3.53-2-6.3-.15-1.31-.21-2.82-.21-4.54,0-3.41.3-6.11.92-8.11.35-1.1.78-2,1.3-2.72,1.11-1.51,2.71-2.51,4.8-2.96,1.09-.23,2.32-.35,3.68-.35,2.8,0,4.94.48,6.48,1.45.81.5,1.47,1.13,1.99,1.86,1.04,1.42,1.71,3.52,2,6.3.15,1.3.21,2.81.21,4.53s-.07,3.23-.21,4.54c-.15,1.32-.38,2.52-.72,3.58-.48,1.59-1.22,2.83-2.19,3.74s-2.27,1.55-3.89,1.94h.01ZM515.07,152.35c2.49,0,4.25-.68,5.27-2.05.77-1.02,1.25-2.63,1.43-4.82.07-.94.1-2.29.1-4.08,0-2.6-.1-4.5-.3-5.69-.31-1.89-1.02-3.26-2.11-4.08-1.04-.78-2.51-1.16-4.39-1.16-2.48,0-4.24.67-5.27,2.02-.76,1.02-1.24,2.61-1.42,4.77-.08.89-.11,2.28-.11,4.15,0,2.62.1,4.5.29,5.64.32,1.91,1.01,3.29,2.07,4.11,1.04.81,2.52,1.2,4.44,1.2h0Z"/>
      <path class="st5" d="M541.42,130.51c-.39,0-.86,0-1.41.02-.31,0-.77.04-1.36.12-.45.06-.88.15-1.3.26-.89.25-1.58.62-2.01,1.12-.54.59-.79,1.35-.79,2.27-.06,1.54.41,2.68,1.41,3.43.26.2.64.41,1.15.63.4.17.88.34,1.44.53.28.09.89.28,1.85.55.01,0,.03.01.06.01,1.04.29,1.92.59,2.65.89s1.4.67,2.01,1.11c.96.66,1.68,1.48,2.14,2.46s.7,2.2.74,3.68c0,2.87-.86,4.93-2.57,6.18-1.63,1.19-4.06,1.78-7.27,1.78-2.57,0-5-.23-7.28-.72l.38-3.12c2.46.37,4.73.55,6.79.55,1.52,0,2.73-.17,3.62-.51.79-.3,1.38-.77,1.77-1.41s.59-1.51.6-2.61c0-1.44-.5-2.55-1.5-3.31-.63-.48-1.69-.95-3.19-1.44l-.88-.27c-.77-.23-1.43-.45-1.97-.64s-1.11-.41-1.69-.68c-.58-.27-1.06-.55-1.44-.82-.95-.69-1.6-1.43-1.96-2.24-.45-.98-.67-2.16-.67-3.52,0-2.23.53-3.94,1.58-5.11.51-.58,1.15-1.06,1.94-1.42,1.49-.68,3.47-1.02,5.96-1.02s4.8.23,7.22.7l-.35,3.03c-2.25-.34-4.13-.5-5.62-.5l-.03.02Z"/>
    </g>
  </g>
</svg>