<?xml version="1.0" encoding="utf-8"?>
<!-- Generator: Adobe Illustrator 28.7.2, SVG Export Plug-In . SVG Version: 9.03 Build 54978)  -->
<svg version="1.1" id="Layer_1" xmlns="http://www.w3.org/2000/svg" xmlns:xlink="http://www.w3.org/1999/xlink" x="0px" y="0px"
	 viewBox="0 0 455.4 136.5" style="enable-background:new 0 0 455.4 136.5;" xml:space="preserve">
<style type="text/css">
	._x005B_Default_x005D_{fill:#FFFFFF;stroke:#1D1D1B;stroke-miterlimit:10;}
	.Drop_x0020_Shadow{fill:none;}
	.Round_x0020_Corners_x0020_2_x0020_pt{fill:#FFFFFF;stroke:#1D1D1B;stroke-miterlimit:10;}
	.Live_x0020_Reflect_x0020_X{fill:none;}
	.Bevel_x0020_Soft{fill:url(#SVGID_1_);}
	.Dusk{fill:#FFFFFF;}
	.Foliage_GS{fill:#FFDC00;}
	.Pompadour_GS{fill-rule:evenodd;clip-rule:evenodd;fill:#51ADE1;}
	.st0{fill:#FFFFFF;}
	.st1{fill:url(#SVGID_00000055707760857251390770000001994383202180394421_);}
	.st2{fill:url(#SVGID_00000124125986027920314580000002630344166918469041_);}
	.st3{fill:#886B25;}
	.st4{fill:url(#SVGID_00000142859534505540814710000004018704631689977499_);}
	.st5{fill:#007D8A;}
	.st6{fill:#006D32;}
</style>
<linearGradient id="SVGID_1_" gradientUnits="userSpaceOnUse" x1="-115.2027" y1="-228.197" x2="-114.4956" y2="-227.4899">
	<stop  offset="0" style="stop-color:#E6E6EA"/>
	<stop  offset="0.1761" style="stop-color:#E2E2E6"/>
	<stop  offset="0.3567" style="stop-color:#D6D6DA"/>
	<stop  offset="0.5393" style="stop-color:#C1C2C5"/>
	<stop  offset="0.7233" style="stop-color:#A5A6A8"/>
	<stop  offset="0.9067" style="stop-color:#808384"/>
	<stop  offset="1" style="stop-color:#6B6E6E"/>
</linearGradient>
<g>
	<g>
		<g>
			<path class="st0" d="M92.6,69.4l-12-29.3c-1.2-2.7-2.1-4.7-3.8-4.7c-1.8,0-2.7,2.1-3.8,4.6L65.8,57l-7.2-16.9
				c-1.1-2.6-1.9-4.6-3.8-4.7c-1.8,0-2.7,1.9-3.9,4.7L39,69.4c-0.8,2.1-0.7,4.1,0.4,5.7c1.1,1.6,2.9,2.4,5.1,2.4h5.3l0,6.7
				c0,2.4,1.9,4.3,4.3,4.3h1.5c2.4,0,4.3-1.9,4.3-4.3v-3.3c0-0.1,0-0.2,0-0.3v-3.1h5.3c0.2,0,0.3,0,0.5,0c0.2,0,0.3,0,0.5,0h5.3v3.1
				c0,0.1,0,0.2,0,0.3v3.3c0,2.4,1.9,4.3,4.3,4.3h1.5c2.4,0,4.3-1.9,4.3-4.3l0-6.7h5.3c2.2,0,4.1-0.9,5.1-2.4
				C93.3,73.5,93.4,71.4,92.6,69.4z M60.8,74.3h-4l0,9.9c0,0.6-0.5,1.1-1.1,1.1h-1.5c-0.6,0-1.1-0.5-1.1-1.1l0-4v-6h-8.5
				c-1.1,0-2-0.4-2.5-1c-0.5-0.7-0.5-1.6-0.1-2.6l11.9-29.2c0.2-0.4,0.5-1.2,0.8-1.9c0.2,0.5,0.5,1.1,0.8,1.8L64,61.1l-3.2,8.3
				C60.1,71.1,60.1,72.8,60.8,74.3z M67.8,73.2c-0.4,0.6-1.1,0.9-2,1c-0.9-0.1-1.6-0.5-2-1.1c-0.4-0.7-0.4-1.6,0-2.6l2-5.1l2,5.1
				C68.2,71.6,68.2,72.5,67.8,73.2z M89.6,73.2c-0.5,0.7-1.3,1-2.5,1h-8.5l0,9.9c0,0.6-0.5,1.1-1.1,1.1H76c-0.6,0-1.1-0.5-1.1-1.1
				l0-9.9h-4c0.6-1.4,0.6-3.1,0-4.9l-3.3-8.3L76,41.3c0.3-0.7,0.6-1.3,0.8-1.8c0.3,0.7,0.7,1.5,0.8,1.8l11.9,29.2
				C90,71.6,90,72.6,89.6,73.2z"/>
		</g>
		<g>
			
				<linearGradient id="SVGID_00000164510767422658234840000002332620009061559686_" gradientUnits="userSpaceOnUse" x1="32.3857" y1="96.1326" x2="120.3232" y2="96.1326">
				<stop  offset="0" style="stop-color:#00A9CE"/>
				<stop  offset="0.411" style="stop-color:#00A7CB"/>
				<stop  offset="0.6581" style="stop-color:#009FC3"/>
				<stop  offset="0.8612" style="stop-color:#0091B5"/>
				<stop  offset="1" style="stop-color:#0083A6"/>
			</linearGradient>
			<path style="fill:url(#SVGID_00000164510767422658234840000002332620009061559686_);" d="M99,91.7c-8.3,8.9-20.1,14.5-33.2,14.5
				c-1.4,0-2.8-0.1-4.1-0.2c-4,1.1-8.3,1.6-12.6,1.6c-5.8,0-11.5-1-16.7-2.9c9,11.6,23.1,19.2,38.9,19.2c27.1,0,49-22,49-49
				c0-2.2-0.1-4.3-0.4-6.5C115.7,78.2,108.3,86.4,99,91.7z"/>
			
				<linearGradient id="SVGID_00000029760511555705484020000011322949374313975170_" gradientUnits="userSpaceOnUse" x1="45.5681" y1="34.1955" x2="123.874" y2="34.1955">
				<stop  offset="0" style="stop-color:#FFA300"/>
				<stop  offset="0.3498" style="stop-color:#FCA200"/>
				<stop  offset="0.5601" style="stop-color:#F49D00"/>
				<stop  offset="0.7336" style="stop-color:#E69600"/>
				<stop  offset="0.8861" style="stop-color:#D28B00"/>
				<stop  offset="1" style="stop-color:#BD8000"/>
			</linearGradient>
			<path style="fill:url(#SVGID_00000029760511555705484020000011322949374313975170_);" d="M73.4,16c14.6,2.5,26.8,11.9,33.1,24.7
				c7.1,7.4,11.9,16.9,13.3,27.6c2.6-5.9,4-12.5,4-19.4c0-27.1-22-49-49-49c-11,0-21.1,3.6-29.3,9.7c1.1-0.1,2.3-0.1,3.5-0.1
				C57.9,9.6,66.3,11.9,73.4,16z"/>
			<path class="st3" d="M111.2,60.8c0,11.9-4.6,22.8-12.2,30.9c9.3-5.3,16.6-13.4,20.9-23.3c-1.4-10.7-6.2-20.2-13.3-27.6
				C109.5,46.8,111.2,53.6,111.2,60.8z"/>
			
				<linearGradient id="SVGID_00000099655525556044770610000017202785324224342965_" gradientUnits="userSpaceOnUse" x1="0" y1="57.1969" x2="45.5681" y2="57.1969">
				<stop  offset="0" style="stop-color:#00B140"/>
				<stop  offset="0.3902" style="stop-color:#00AE40"/>
				<stop  offset="0.6248" style="stop-color:#01A63E"/>
				<stop  offset="0.8176" style="stop-color:#02983B"/>
				<stop  offset="0.9878" style="stop-color:#038437"/>
				<stop  offset="1" style="stop-color:#038237"/>
			</linearGradient>
			<path style="fill:url(#SVGID_00000099655525556044770610000017202785324224342965_);" d="M22.2,73.6c-1.2-4.1-1.8-8.4-1.8-12.8
				c0-8.9,2.6-17.2,7-24.2c2.9-10.9,9.4-20.4,18.2-26.9C20.1,11.5,0,32.7,0,58.6c0,21.2,13.5,39.3,32.4,46.1
				C26,96.4,22.2,86.1,22.2,74.8C22.2,74.4,22.2,74,22.2,73.6z"/>
			<path class="st5" d="M61.7,106c-18.8-1.7-34.3-14.8-39.4-32.4c0,0.4,0,0.8,0,1.2c0,11.2,3.8,21.6,10.2,29.9
				c5.2,1.9,10.8,2.9,16.7,2.9C53.4,107.6,57.6,107,61.7,106z"/>
			<path class="st6" d="M27.4,36.6c8-12.7,22.2-21.2,38.4-21.2c2.6,0,5.2,0.2,7.6,0.6C66.3,11.9,57.9,9.6,49,9.6
				c-1.2,0-2.3,0-3.5,0.1C36.8,16.2,30.2,25.7,27.4,36.6z"/>
		</g>
	</g>
	<g>
		<path class="st0" d="M149.2,92.9h-13L154.6,39c1-3,2.4-5.2,4-6.5c1.7-1.4,3.7-2.1,6.1-2.1c4.8,0,8.1,2.9,10.1,8.6L193,92.9h-13.3
			l-4.7-15.3h-21.1L149.2,92.9z M156.7,68H172l-7.7-25L156.7,68z"/>
		<path class="st0" d="M200.1,92.9V31h12.6v61.9H200.1z"/>
		<path class="st0" d="M262.3,82.9v9.8c-6.7,0.3-12,0.4-15.8,0.4c-1.9,0-3.5,0-4.7-0.1s-2.7-0.2-4.4-0.4c-1.7-0.2-3-0.5-4.1-0.9
			s-2.2-1-3.3-1.7c-1.2-0.7-2.1-1.6-2.7-2.7c-0.7-1.1-1.2-2.4-1.6-3.9c-0.4-1.6-0.6-3.4-0.6-5.4V31h12.6v43.4c0,1.8,0.1,3.2,0.3,4.2
			c0.2,1,0.6,1.9,1.3,2.5c0.7,0.7,1.5,1.1,2.6,1.3c1.1,0.2,2.6,0.3,4.5,0.3H262.3z"/>
		<path class="st0" d="M301.2,92.8c-2.5,0.5-5.3,0.8-8.5,0.8s-6.1-0.3-8.5-0.8s-4.6-1.3-6.5-2.5c-1.8-1.1-3.4-2.5-4.6-4.1
			s-2.2-3.7-3-6.1c-0.8-2.4-1.3-5.1-1.6-8c-0.3-2.9-0.5-6.3-0.5-10.1c0-3.8,0.2-7.2,0.5-10.1c0.3-2.9,0.9-5.6,1.6-8
			c0.8-2.4,1.8-4.4,3-6.1s2.8-3,4.6-4.1c1.8-1.1,4-1.9,6.5-2.5c2.5-0.5,5.3-0.8,8.5-0.8s6.1,0.3,8.5,0.8c2.5,0.5,4.6,1.3,6.4,2.5
			c1.8,1.1,3.4,2.5,4.6,4.1c1.2,1.6,2.2,3.7,3,6.1c0.8,2.4,1.3,5.1,1.6,8c0.3,2.9,0.5,6.3,0.5,10.1c0,3.8-0.2,7.2-0.5,10.1
			c-0.3,2.9-0.9,5.6-1.6,8c-0.8,2.4-1.8,4.4-3,6.1c-1.2,1.6-2.8,3-4.6,4.1C305.8,91.4,303.6,92.3,301.2,92.8z M289.1,82.8
			c1,0.2,2.2,0.3,3.5,0.3s2.5-0.1,3.5-0.3c1-0.2,2-0.5,2.7-0.8c0.8-0.3,1.5-0.8,2.1-1.5c0.6-0.7,1.1-1.3,1.5-2
			c0.4-0.6,0.7-1.5,1-2.5c0.3-1.1,0.5-2,0.7-2.9c0.2-0.8,0.3-2,0.3-3.4c0.1-1.4,0.1-2.6,0.1-3.7c0-1,0-2.4,0-4.1s0-3.1,0-4.1
			c0-1-0.1-2.2-0.1-3.7c-0.1-1.4-0.2-2.6-0.3-3.4c-0.2-0.8-0.4-1.8-0.7-2.9c-0.3-1.1-0.6-1.9-1-2.5c-0.4-0.6-0.9-1.3-1.5-1.9
			s-1.3-1.2-2.1-1.5c-0.8-0.3-1.7-0.6-2.7-0.9c-1-0.2-2.2-0.3-3.5-0.3s-2.5,0.1-3.5,0.3c-1,0.2-2,0.5-2.7,0.9
			c-0.8,0.3-1.5,0.9-2.1,1.5s-1.1,1.3-1.5,1.9c-0.4,0.6-0.8,1.5-1,2.5c-0.3,1.1-0.5,2-0.7,2.9c-0.2,0.8-0.3,2-0.3,3.4
			c-0.1,1.4-0.1,2.6-0.1,3.7c0,1,0,2.4,0,4.1s0,3.1,0,4.1c0,1,0.1,2.2,0.1,3.7c0.1,1.4,0.2,2.6,0.3,3.4c0.1,0.8,0.4,1.8,0.7,2.9
			c0.3,1.1,0.6,1.9,1,2.5c0.4,0.6,0.9,1.3,1.5,2c0.6,0.7,1.3,1.2,2.1,1.5C287.2,82.3,288.1,82.6,289.1,82.8z"/>
		<path class="st0" d="M350.8,40.6c-0.9,0-1.7,0-2.3,0c-0.6,0-1.4,0.1-2.4,0.2c-0.9,0.1-1.7,0.2-2.4,0.4c-0.7,0.2-1.4,0.4-2.1,0.7
			c-0.7,0.3-1.3,0.7-1.8,1.1c-0.5,0.4-0.8,1-1.1,1.7c-0.3,0.7-0.5,1.4-0.5,2.3c0,1,0.1,1.8,0.3,2.6c0.2,0.7,0.5,1.4,1,1.9
			c0.4,0.5,0.9,1,1.5,1.4s1.3,0.8,2.1,1.1c0.8,0.3,1.7,0.6,2.5,0.9s1.9,0.5,3.1,0.8c0.4,0.1,0.7,0.2,0.9,0.2
			c3.1,0.8,5.6,1.7,7.7,2.7c2,1,3.8,2.2,5.2,3.7c1.4,1.5,2.5,3.2,3.1,5.3c0.6,2,1,4.4,1,7.2c0,3.4-0.5,6.2-1.5,8.6
			c-1,2.4-2.5,4.3-4.5,5.8s-4.4,2.5-7.2,3.2c-2.8,0.7-6,1-9.8,1c-6,0-12-0.6-17.9-1.9l1.2-9.9c6.3,0.9,11.7,1.4,16.2,1.4
			c1.7,0,3.2-0.1,4.4-0.3c1.2-0.2,2.3-0.6,3.2-1.2s1.7-1.3,2.1-2.4c0.5-1,0.7-2.3,0.7-3.8c0-0.8-0.1-1.5-0.3-2.2s-0.4-1.2-0.6-1.7
			c-0.2-0.5-0.6-0.9-1.3-1.4c-0.6-0.5-1.1-0.8-1.4-1c-0.3-0.2-1-0.5-2-0.9c-1-0.4-1.7-0.6-2-0.7c-0.3-0.1-1.1-0.4-2.4-0.7
			c-0.1,0-0.2-0.1-0.2-0.1c-1.7-0.5-3.2-1-4.5-1.5s-2.5-1-3.8-1.6c-1.3-0.6-2.4-1.3-3.3-1.9c-0.9-0.7-1.7-1.4-2.5-2.4
			c-0.8-0.9-1.4-1.9-1.9-2.9c-0.5-1.1-0.9-2.3-1.1-3.7s-0.4-2.9-0.4-4.5c0-3.3,0.5-6.1,1.4-8.4c1-2.3,2.4-4.1,4.3-5.5
			c1.9-1.4,4.2-2.3,6.9-2.9c2.6-0.6,5.8-0.9,9.5-0.9c5.8,0,11.7,0.6,17.7,1.9l-1.1,9.6C358.7,41.1,354.2,40.6,350.8,40.6z"/>
	</g>
	<g>
		<g>
			<g>
				<path class="st0" d="M151.7,133.2l0.3,2.7c-1.8,0.4-3.8,0.6-5.8,0.6c-3.4,0-5.8-0.7-7.2-2.2c-1-1-1.7-2.4-2.1-4.1
					c-0.4-1.7-0.6-3.8-0.6-6.3c0-2,0.1-3.7,0.3-5.1c0.2-1.5,0.6-2.7,1.2-3.8c0.7-1.3,1.7-2.2,3.1-2.8c1.3-0.6,3.1-0.9,5.3-0.9
					c2.1,0,4,0.2,5.8,0.6l-0.3,2.7c-1.6-0.3-3.1-0.4-4.5-0.4c-2.6,0-4.5,0.6-5.6,1.7c-0.8,0.8-1.4,2.1-1.6,3.9
					c-0.1,1-0.2,2.4-0.2,4.2c0,2.3,0.1,4,0.3,5.1c0.3,1.6,1,2.8,2.1,3.5c1.1,0.8,2.8,1.2,5,1.2C148.5,133.6,150.1,133.4,151.7,133.2
					z"/>
				<path class="st0" d="M168.1,136.2c-1,0.2-2.1,0.3-3.3,0.3c-2.5,0-4.4-0.4-5.8-1.3c-0.7-0.5-1.3-1-1.8-1.7
					c-0.9-1.3-1.5-3.2-1.8-5.6c-0.1-1.2-0.2-2.5-0.2-4.1c0-3,0.3-5.5,0.8-7.3c0.3-1,0.7-1.8,1.2-2.4c1-1.4,2.4-2.2,4.3-2.6
					c1-0.2,2.1-0.3,3.3-0.3c2.5,0,4.4,0.4,5.8,1.3c0.7,0.5,1.3,1,1.8,1.7c0.9,1.3,1.5,3.1,1.8,5.6c0.1,1.2,0.2,2.5,0.2,4.1
					s-0.1,2.9-0.2,4.1c-0.1,1.2-0.3,2.3-0.6,3.2c-0.4,1.4-1.1,2.5-2,3.3C170.7,135.3,169.6,135.8,168.1,136.2z M164.9,133.6
					c2.2,0,3.8-0.6,4.7-1.8c0.7-0.9,1.1-2.3,1.3-4.3c0.1-0.8,0.1-2.1,0.1-3.6c0-2.3-0.1-4-0.3-5.1c-0.3-1.7-0.9-2.9-1.9-3.6
					c-0.9-0.7-2.2-1-3.9-1c-2.2,0-3.8,0.6-4.7,1.8c-0.7,0.9-1.1,2.3-1.3,4.3c-0.1,0.8-0.1,2-0.1,3.7c0,2.3,0.1,4,0.3,5
					c0.3,1.7,0.9,2.9,1.8,3.7C161.8,133.3,163.1,133.6,164.9,133.6z"/>
				<path class="st0" d="M192.1,136.2c-1,0.2-2.1,0.3-3.3,0.3c-2.5,0-4.4-0.4-5.8-1.3c-0.7-0.5-1.3-1-1.8-1.7
					c-0.9-1.3-1.5-3.2-1.8-5.6c-0.1-1.2-0.2-2.5-0.2-4.1c0-3,0.3-5.5,0.8-7.3c0.3-1,0.7-1.8,1.2-2.4c1-1.4,2.4-2.2,4.3-2.6
					c1-0.2,2.1-0.3,3.3-0.3c2.5,0,4.4,0.4,5.8,1.3c0.7,0.5,1.3,1,1.8,1.7c0.9,1.3,1.5,3.1,1.8,5.6c0.1,1.2,0.2,2.5,0.2,4.1
					s-0.1,2.9-0.2,4.1c-0.1,1.2-0.3,2.3-0.6,3.2c-0.4,1.4-1.1,2.5-2,3.3C194.7,135.3,193.6,135.8,192.1,136.2z M188.8,133.6
					c2.2,0,3.8-0.6,4.7-1.8c0.7-0.9,1.1-2.3,1.3-4.3c0.1-0.8,0.1-2.1,0.1-3.6c0-2.3-0.1-4-0.3-5.1c-0.3-1.7-0.9-2.9-1.9-3.6
					c-0.9-0.7-2.2-1-3.9-1c-2.2,0-3.8,0.6-4.7,1.8c-0.7,0.9-1.1,2.3-1.3,4.3c-0.1,0.8-0.1,2-0.1,3.7c0,2.3,0.1,4,0.3,5
					c0.3,1.7,0.9,2.9,1.8,3.7C185.8,133.3,187.1,133.6,188.8,133.6z"/>
				<path class="st0" d="M207.3,126.4v9.9h-3.4v-24.4c2.3-0.4,4.9-0.6,7.6-0.6c0.9,0,1.6,0,2.2,0.1c1.5,0.1,2.8,0.4,3.8,0.9
					c1.2,0.5,2.1,1.3,2.6,2.3c0.7,1.1,1,2.6,1,4.3c0,2.6-0.7,4.5-2,5.7c-0.8,0.8-1.9,1.3-3.1,1.6c-1.2,0.3-2.6,0.4-4.2,0.4
					C210.6,126.5,209.1,126.5,207.3,126.4z M207.3,114.2v9.3c1.2,0.1,2.6,0.2,4.2,0.2c1.7,0,3-0.2,3.9-0.6c0.8-0.3,1.4-0.9,1.7-1.6
					c0.4-0.7,0.6-1.7,0.6-2.8c0-0.9-0.1-1.6-0.3-2.2c-0.2-0.6-0.5-1.1-1-1.5s-1.1-0.7-1.9-0.8c-0.8-0.2-1.7-0.3-2.9-0.3
					C210.1,113.9,208.7,114,207.3,114.2z"/>
				<path class="st0" d="M240,111.5v2.7h-6.3c-0.7,0-1.3,0-1.7,0.1c-1,0.1-1.6,0.3-2.1,0.7c-0.2,0.2-0.4,0.5-0.5,0.8
					c-0.2,0.6-0.3,1.5-0.3,2.7v3.7h10.5v2.8h-10.5v4.2c0,0.6,0,1.2,0.1,1.6c0.1,0.9,0.3,1.5,0.8,1.9c0.2,0.2,0.5,0.3,0.9,0.5
					c0.6,0.2,1.6,0.3,3,0.3h6.3v2.7c-2.3,0.1-4.3,0.1-6.2,0.1c-1.9,0-3.4-0.1-4.3-0.3c-1.6-0.4-2.7-1.2-3.3-2.4
					c-0.4-0.8-0.5-1.7-0.5-2.9V117c0-1.1,0.2-2.1,0.5-2.9c0.3-0.6,0.8-1.2,1.5-1.7c0.5-0.3,1.2-0.6,2.2-0.8c0.4-0.1,0.8-0.1,1.3-0.2
					c0.4,0,0.9-0.1,1.3-0.1c0.5,0,1,0,1.4,0C235.6,111.4,237.7,111.4,240,111.5z"/>
				<path class="st0" d="M248.7,126.2v10.1h-3.4v-24.4c2.4-0.4,4.9-0.6,7.6-0.6c0.9,0,1.6,0,2.2,0.1c0.7,0,1.3,0.1,2,0.3
					c0.7,0.1,1.3,0.3,1.8,0.6c0.5,0.2,1,0.6,1.5,0.9c0.5,0.4,0.8,0.8,1.1,1.3c0.7,1.1,1,2.5,1,4.3c0,2.3-0.5,4-1.5,5.2
					c-1,1.1-2.3,1.8-4,2.1l5.9,10.2h-4l-5.4-9.9h-0.2C252.1,126.3,250.6,126.3,248.7,126.2z M248.7,114.2v9.1
					c1.1,0.1,2.5,0.2,4.2,0.2c1.6,0,2.9-0.2,3.9-0.6c1.6-0.7,2.3-2.1,2.3-4.3c0-1.7-0.5-2.9-1.4-3.7c-0.9-0.7-2.5-1.1-4.7-1.1
					C251.5,113.9,250.1,114,248.7,114.2z"/>
				<path class="st0" d="M272.4,129.4l-2.3,6.9h-3.5l8-22.7c0.6-1.6,1.5-2.4,2.9-2.4s2.3,0.8,2.8,2.4l7.9,22.7h-3.6l-2.3-6.9H272.4z
					 M277.3,114.7l-4,12h8L277.3,114.7z"/>
				<path class="st0" d="M290.1,111.4h16.4v2.8H300v22h-3.4v-22h-6.5V111.4z"/>
				<path class="st0" d="M314.2,136.2h-3.4v-24.8h3.4V136.2z"/>
				<path class="st0" d="M335.5,111.4h3.5l-7.6,22.6c-0.3,0.8-0.6,1.4-1.1,1.8s-1,0.6-1.6,0.6c-0.6,0-1.2-0.2-1.6-0.6
					s-0.8-1-1.1-1.8l-7.5-22.6h3.6l6.6,20.9L335.5,111.4z"/>
				<path class="st0" d="M344.6,129.4l-2.3,6.9h-3.5l8-22.7c0.6-1.6,1.5-2.4,2.9-2.4c1.3,0,2.3,0.8,2.8,2.4l7.9,22.7h-3.6l-2.3-6.9
					H344.6z M349.5,114.7l-4,12h8L349.5,114.7z"/>
				<path class="st0" d="M388.9,133.2l0.3,2.7c-1.8,0.4-3.8,0.6-5.8,0.6c-3.4,0-5.8-0.7-7.2-2.2c-1-1-1.7-2.4-2.1-4.1
					c-0.4-1.7-0.6-3.8-0.6-6.3c0-2,0.1-3.7,0.3-5.1c0.2-1.5,0.6-2.7,1.2-3.8c0.7-1.3,1.7-2.2,3.1-2.8c1.3-0.6,3.1-0.9,5.3-0.9
					c2.1,0,4,0.2,5.8,0.6l-0.3,2.7c-1.6-0.3-3.1-0.4-4.5-0.4c-2.6,0-4.5,0.6-5.6,1.7c-0.8,0.8-1.4,2.1-1.6,3.9
					c-0.1,1-0.2,2.4-0.2,4.2c0,2.3,0.1,4,0.3,5.1c0.3,1.6,1,2.8,2.1,3.5c1.1,0.8,2.8,1.2,5,1.2C385.8,133.6,387.3,133.4,388.9,133.2
					z"/>
				<path class="st0" d="M396.9,136.2h-3.4v-24.8h3.4V136.2z"/>
				<path class="st0" d="M418.2,111.4h3.5l-7.6,22.6c-0.3,0.8-0.6,1.4-1.1,1.8s-1,0.6-1.6,0.6c-0.6,0-1.2-0.2-1.6-0.6
					s-0.8-1-1.1-1.8l-7.5-22.6h3.6l6.6,20.9L418.2,111.4z"/>
				<path class="st0" d="M429.5,136.2h-3.4v-24.8h3.4V136.2z"/>
				<path class="st0" d="M439.7,129.4l-2.3,6.9h-3.5l8-22.7c0.6-1.6,1.5-2.4,2.9-2.4c1.3,0,2.3,0.8,2.8,2.4l7.9,22.7h-3.6l-2.3-6.9
					H439.7z M444.6,114.7l-4,12h8L444.6,114.7z"/>
			</g>
		</g>
	</g>
</g>
</svg>
