<svg id="Camada_1" data-name="Camada 1" xmlns="http://www.w3.org/2000/svg" xmlns:xlink="http://www.w3.org/1999/xlink" viewBox="0 0 644.25 86.77"><defs><style>.cls-1{fill:#fff;}.cls-2{fill:url(#linear-gradient);}.cls-3{fill:url(#linear-gradient-2);}.cls-4{fill:#876b26;}.cls-5{fill:url(#linear-gradient-3);}.cls-6{fill:#007d88;}.cls-7{fill:#027042;}.cls-8{fill:url(#linear-gradient-4);}.cls-9{fill:url(#linear-gradient-5);}.cls-10{fill:#926b17;}.cls-11{fill:url(#linear-gradient-6);}.cls-12{fill:#007e8b;}.cls-13{fill:#00713c;}</style><linearGradient id="linear-gradient" x1="582.69" y1="1075.98" x2="638.78" y2="1075.98" gradientUnits="userSpaceOnUse"><stop offset="0" stop-color="#0ea7cc"/><stop offset="0.41" stop-color="#0da5c9"/><stop offset="0.66" stop-color="#0a9dc1"/><stop offset="0.86" stop-color="#068fb3"/><stop offset="1" stop-color="#0181a4"/></linearGradient><linearGradient id="linear-gradient-2" x1="591.1" y1="1036.47" x2="641.05" y2="1036.47" gradientUnits="userSpaceOnUse"><stop offset="0" stop-color="#fda101"/><stop offset="0.35" stop-color="#faa001"/><stop offset="0.56" stop-color="#f29c01"/><stop offset="0.73" stop-color="#e49401"/><stop offset="0.89" stop-color="#d08a01"/><stop offset="1" stop-color="#bb8001"/></linearGradient><linearGradient id="linear-gradient-3" x1="562.03" y1="1051.15" x2="591.1" y2="1051.15" gradientUnits="userSpaceOnUse"><stop offset="0" stop-color="#09af41"/><stop offset="0.39" stop-color="#09ac40"/><stop offset="0.62" stop-color="#08a43f"/><stop offset="0.82" stop-color="#07963c"/><stop offset="0.99" stop-color="#068237"/><stop offset="1" stop-color="#068037"/></linearGradient><linearGradient id="linear-gradient-4" x1="172.26" y1="1075.92" x2="228.3" y2="1075.92" gradientUnits="userSpaceOnUse"><stop offset="0" stop-color="#00aad0"/><stop offset="0.41" stop-color="#00a8cd"/><stop offset="0.66" stop-color="#009fc5"/><stop offset="0.86" stop-color="#0091b7"/><stop offset="1" stop-color="#0083a8"/></linearGradient><linearGradient id="linear-gradient-5" x1="180.66" y1="1036.45" x2="230.56" y2="1036.45" gradientUnits="userSpaceOnUse"><stop offset="0" stop-color="#ffa400"/><stop offset="0.39" stop-color="#fca200"/><stop offset="0.62" stop-color="#f49c00"/><stop offset="0.82" stop-color="#e69100"/><stop offset="0.99" stop-color="#d28100"/><stop offset="1" stop-color="#d08000"/></linearGradient><linearGradient id="linear-gradient-6" x1="151.62" y1="1051.11" x2="180.66" y2="1051.11" gradientUnits="userSpaceOnUse"><stop offset="0" stop-color="#00b231"/><stop offset="0.39" stop-color="#00af31"/><stop offset="0.62" stop-color="#00a730"/><stop offset="0.81" stop-color="#00992f"/><stop offset="0.98" stop-color="#00852d"/><stop offset="1" stop-color="#00822d"/></linearGradient></defs><path class="cls-1" d="M650,1087.67c0,1,.54,1.16,1.73,1.5,1.38.38,2.22.92,2.22,2.36,0,1.69-1,2.31-2.9,2.31a9.57,9.57,0,0,1-2.14-.21l.11-.9a15.24,15.24,0,0,0,2,.16c1,0,1.77-.23,1.77-1.32s-.71-1.17-1.64-1.45c-1.44-.43-2.28-.82-2.28-2.29,0-1.66,1-2.2,2.79-2.2a11.78,11.78,0,0,1,2.12.21l-.1.88a10.78,10.78,0,0,0-1.66-.15C651.1,1086.57,650,1086.67,650,1087.67Z" transform="translate(-151.62 -1014.66)"/><path class="cls-1" d="M655.57,1085.72h1.13v8h-1.13Z" transform="translate(-151.62 -1014.66)"/><path class="cls-1" d="M659.41,1087.67c0,1,.54,1.16,1.73,1.5,1.38.38,2.22.92,2.22,2.36,0,1.69-1,2.31-2.9,2.31a9.57,9.57,0,0,1-2.14-.21l.11-.9a15.24,15.24,0,0,0,2,.16c1,0,1.77-.23,1.77-1.32s-.71-1.17-1.64-1.45c-1.44-.43-2.28-.82-2.28-2.29,0-1.66,1-2.2,2.79-2.2a11.78,11.78,0,0,1,2.12.21l-.1.88a10.78,10.78,0,0,0-1.66-.15C660.49,1086.57,659.41,1086.67,659.41,1087.67Z" transform="translate(-151.62 -1014.66)"/><path class="cls-1" d="M669.91,1086.62h-2.13v7.14h-1.13v-7.14h-2.13v-.9h5.39Z" transform="translate(-151.62 -1014.66)"/><path class="cls-1" d="M676,1086.61h-2.08c-1.31,0-1.54.25-1.54,1.41v1.2h3.46v.89H672.4v1.35c0,1.16.23,1.4,1.54,1.4H676v.87c-.62,0-1.45,0-2,0-1.4,0-2.7-.07-2.7-1.83v-4.42c0-1.76,1.3-1.84,2.7-1.84.53,0,1.41,0,2,.06Z" transform="translate(-151.62 -1014.66)"/><path class="cls-1" d="M681.68,1091.26l2.13-4.92c.21-.47.52-.71.85-.71.49,0,.71.25.74.8l.38,7.33h-1.1l-.32-6.48-2,4.88a.66.66,0,0,1-1.28,0l-2-4.87-.33,6.47h-1l.39-7.34c0-.55.25-.79.73-.79.33,0,.63.22.84.7Z" transform="translate(-151.62 -1014.66)"/><path class="cls-1" d="M687.2,1093.76l2.62-7.36a1,1,0,0,1,.94-.77,1,1,0,0,1,.93.77l2.59,7.36h-1.19l-.76-2.23h-3.22l-.76,2.23Zm4.83-3.1-1.32-3.88-1.31,3.88Z" transform="translate(-151.62 -1014.66)"/><path class="cls-1" d="M698.82,1085.83a15.44,15.44,0,0,1,2.5-.2c3,0,3.51,1.37,3.51,4.11s-.53,4.1-3.51,4.1a15.44,15.44,0,0,1-2.5-.2Zm1.12.81v6.19a8.25,8.25,0,0,0,1.15.09c2.59,0,2.61-1.38,2.61-3.18s0-3.19-2.61-3.19A10.13,10.13,0,0,0,699.94,1086.64Z" transform="translate(-151.62 -1014.66)"/><path class="cls-1" d="M711.35,1086.61h-2.08c-1.32,0-1.54.25-1.54,1.41v1.2h3.46v.89h-3.46v1.35c0,1.16.22,1.4,1.54,1.4h2.08v.87c-.62,0-1.46,0-2.05,0-1.39,0-2.69-.07-2.69-1.83v-4.42c0-1.76,1.3-1.84,2.69-1.84.54,0,1.42,0,2.05.06Z" transform="translate(-151.62 -1014.66)"/><path class="cls-1" d="M721.22,1093.64a8.57,8.57,0,0,1-1.92.2c-2.62,0-3.26-1.25-3.26-4.1s.64-4.11,3.26-4.11a9.28,9.28,0,0,1,1.92.2l-.1.87a10.33,10.33,0,0,0-1.49-.12c-2.32,0-2.44,1.21-2.44,3.16s.14,3.16,2.44,3.16a9.07,9.07,0,0,0,1.49-.13Z" transform="translate(-151.62 -1014.66)"/><path class="cls-1" d="M722.34,1089.74c0-2.92.7-4.11,3.15-4.11s3.15,1.19,3.15,4.11-.7,4.1-3.15,4.1S722.34,1092.65,722.34,1089.74Zm5.15,0c0-1.87-.06-3.18-2-3.18s-2,1.31-2,3.18.06,3.17,2,3.17S727.49,1091.61,727.49,1089.74Z" transform="translate(-151.62 -1014.66)"/><path class="cls-1" d="M730.25,1089.74c0-2.92.7-4.11,3.15-4.11s3.15,1.19,3.15,4.11-.7,4.1-3.15,4.1S730.25,1092.65,730.25,1089.74Zm5.16,0c0-1.87-.07-3.18-2-3.18s-2,1.31-2,3.18.06,3.17,2,3.17S735.41,1091.61,735.41,1089.74Z" transform="translate(-151.62 -1014.66)"/><path class="cls-1" d="M739.49,1093.76h-1.12v-7.93a16.69,16.69,0,0,1,2.51-.2c1.74,0,3.16.35,3.16,2.46s-1.27,2.52-3.07,2.52c-.42,0-1.09,0-1.48,0Zm0-4.11a11.64,11.64,0,0,0,1.39.07c1.3,0,2-.33,2-1.63,0-1.12-.52-1.57-2-1.57a10.54,10.54,0,0,0-1.43.1Z" transform="translate(-151.62 -1014.66)"/><path class="cls-1" d="M750.31,1086.61h-2.08c-1.32,0-1.54.25-1.54,1.41v1.2h3.46v.89h-3.46v1.35c0,1.16.22,1.4,1.54,1.4h2.08v.87c-.62,0-1.46,0-2,0-1.39,0-2.69-.07-2.69-1.83v-4.42c0-1.76,1.3-1.84,2.69-1.84.54,0,1.42,0,2,.06Z" transform="translate(-151.62 -1014.66)"/><path class="cls-1" d="M752,1093.76v-7.93a16.8,16.8,0,0,1,2.51-.2c1.72,0,3.16.33,3.16,2.43a2.09,2.09,0,0,1-1.84,2.38l1.93,3.32h-1.31l-1.79-3.22h-.06c-.43,0-1.09,0-1.48,0v3.27Zm1.12-4.18a11.49,11.49,0,0,0,1.39.06c1.29,0,2-.32,2-1.58,0-1.11-.53-1.54-2-1.54a12.46,12.46,0,0,0-1.43.09Z" transform="translate(-151.62 -1014.66)"/><path class="cls-1" d="M759,1093.76l2.62-7.36a1,1,0,0,1,.94-.77,1,1,0,0,1,.93.77l2.59,7.36h-1.19l-.76-2.23h-3.22l-.76,2.23Zm4.83-3.1-1.32-3.88-1.31,3.88Z" transform="translate(-151.62 -1014.66)"/><path class="cls-1" d="M771.25,1086.62h-2.12v7.14H768v-7.14h-2.13v-.9h5.38Z" transform="translate(-151.62 -1014.66)"/><path class="cls-1" d="M772.7,1085.72h1.13v8H772.7Z" transform="translate(-151.62 -1014.66)"/><path class="cls-1" d="M779.52,1093.07c-.18.54-.46.77-.88.77s-.69-.22-.88-.77l-2.49-7.35h1.2l2.19,6.78,2.21-6.78H782Z" transform="translate(-151.62 -1014.66)"/><path class="cls-1" d="M781.69,1093.76l2.62-7.36a1,1,0,0,1,1.87,0l2.59,7.36h-1.2l-.76-2.23h-3.22l-.75,2.23Zm4.83-3.1-1.32-3.88-1.31,3.88Z" transform="translate(-151.62 -1014.66)"/><path class="cls-1" d="M790.89,1087.67c0,1,.54,1.16,1.73,1.5,1.38.38,2.22.92,2.22,2.36,0,1.69-1,2.31-2.9,2.31a9.57,9.57,0,0,1-2.14-.21l.11-.9a15.24,15.24,0,0,0,2,.16c1,0,1.77-.23,1.77-1.32s-.71-1.17-1.64-1.45c-1.44-.43-2.28-.82-2.28-2.29,0-1.66,1-2.2,2.79-2.2a11.78,11.78,0,0,1,2.12.21l-.1.88a10.78,10.78,0,0,0-1.66-.15C792,1086.57,790.89,1086.67,790.89,1087.67Z" transform="translate(-151.62 -1014.66)"/><path class="cls-1" d="M649,1073.93l11.74-34.37c1.32-3.86,3.45-5.51,6.49-5.51s5.16,1.75,6.43,5.51l11.54,34.37h-8.5l-3-9.78H660.2l-2.94,9.78Zm22.8-15.93-4.91-16-4.83,16Z" transform="translate(-151.62 -1014.66)"/><path class="cls-1" d="M689.72,1034.46h8v39.47h-8Z" transform="translate(-151.62 -1014.66)"/><path class="cls-1" d="M729.42,1073.76c-2.8.12-7.62.27-10.1.27-7.13,0-13.7-.39-13.7-9.64v-29.93h8v27.7c0,4.38.79,5.37,5.52,5.37h10.25Z" transform="translate(-151.62 -1014.66)"/><path class="cls-1" d="M733,1054.19c0-14.29,3.5-20.14,15.78-20.14s15.77,5.85,15.77,20.14-3.5,20.15-15.77,20.15S733,1068.49,733,1054.19Zm23.42,0c0-8-.17-13.55-7.64-13.55s-7.65,5.51-7.65,13.55.17,13.54,7.65,13.54S756.39,1062.24,756.39,1054.19Z" transform="translate(-151.62 -1014.66)"/><path class="cls-1" d="M777.81,1044.66c0,4,2.71,4.5,7.25,5.72,7.56,2,10.81,5,10.81,12.11,0,8.71-5.3,11.85-14.65,11.85a53.56,53.56,0,0,1-11.4-1.22l.78-6.32a83.33,83.33,0,0,0,10.33.88c4.15,0,6.69-.93,6.69-4.9,0-3.67-2.9-4.5-6.55-5.62-7.08-2.17-11.25-4.35-11.25-11.81,0-8.55,5-11.3,14.13-11.3a56.61,56.61,0,0,1,11.29,1.24l-.72,6.15a57.06,57.06,0,0,0-8.69-.87C782.64,1040.57,777.81,1040.71,777.81,1044.66Z" transform="translate(-151.62 -1014.66)"/><path class="cls-1" d="M621.11,1058.91l-7.62-18.69c-.76-1.73-1.32-3-2.46-3s-1.71,1.31-2.4,3L604,1051l-4.59-10.78c-.69-1.66-1.24-3-2.4-3s-1.7,1.24-2.46,3l-7.63,18.68a3.61,3.61,0,0,0,3.54,5.18h3.35l0,4.25a2.77,2.77,0,0,0,2.77,2.77h1a2.77,2.77,0,0,0,2.77-2.77v-2.08a1.85,1.85,0,0,0,0-.23v-1.94h3.38l.33,0,.32,0h3.38V1066a1.85,1.85,0,0,0,0,.23v2.08a2.77,2.77,0,0,0,2.77,2.77h1a2.77,2.77,0,0,0,2.77-2.77l0-4.25h3.35a3.6,3.6,0,0,0,3.53-5.19ZM600.78,1062h-2.54v6.32a.7.7,0,0,1-.7.7h-1a.7.7,0,0,1-.7-.7l0-2.53V1062h-5.42a1.56,1.56,0,0,1-1.62-2.34l7.61-18.64c.1-.24.33-.75.54-1.19.14.3.32.69.52,1.16l5.36,12.62-2.05,5.28A4,4,0,0,0,600.78,1062Zm4.5-.7a1.62,1.62,0,0,1-1.26.67,1.66,1.66,0,0,1-1.27-.67,1.84,1.84,0,0,1,0-1.66l1.26-3.23,1.29,3.24A1.82,1.82,0,0,1,605.28,1061.33Zm13.87,0a1.82,1.82,0,0,1-1.57.66h-5.42l0,6.32a.7.7,0,0,1-.7.7h-1a.7.7,0,0,1-.7-.7V1062h-2.54a4,4,0,0,0,0-3.11l-2.12-5.28,5.44-12.62c.19-.48.36-.86.51-1.16.21.43.43.94.53,1.16l7.61,18.65A1.82,1.82,0,0,1,619.15,1061.37Z" transform="translate(-151.62 -1014.66)"/><path class="cls-2" d="M625.2,1073.14a28.89,28.89,0,0,1-21.2,9.24c-.89,0-1.76,0-2.63-.12a31.43,31.43,0,0,1-18.68-.8,31.29,31.29,0,0,0,55.82-23.17A31.37,31.37,0,0,1,625.2,1073.14Z" transform="translate(-151.62 -1014.66)"/><path class="cls-3" d="M608.87,1024.89A29,29,0,0,1,630,1040.68a31.08,31.08,0,0,1,8.51,17.61,31.28,31.28,0,0,0-47.41-37.45c.73-.06,1.47-.08,2.22-.08A31.13,31.13,0,0,1,608.87,1024.89Z" transform="translate(-151.62 -1014.66)"/><path class="cls-4" d="M633,1053.43a28.83,28.83,0,0,1-7.76,19.71,31.37,31.37,0,0,0,13.31-14.85,31.08,31.08,0,0,0-8.51-17.61A28.8,28.8,0,0,1,633,1053.43Z" transform="translate(-151.62 -1014.66)"/><path class="cls-5" d="M576.22,1061.62a29,29,0,0,1,3.27-23.61,31.28,31.28,0,0,1,11.61-17.17,31.28,31.28,0,0,0-8.41,60.62,31.17,31.17,0,0,1-6.48-19.06C576.21,1062.14,576.21,1061.88,576.22,1061.62Z" transform="translate(-151.62 -1014.66)"/><path class="cls-6" d="M601.37,1082.26a29,29,0,0,1-25.15-20.64c0,.26,0,.52,0,.78a31.17,31.17,0,0,0,6.48,19.06,31.43,31.43,0,0,0,18.68.8Z" transform="translate(-151.62 -1014.66)"/><path class="cls-7" d="M579.49,1038a29,29,0,0,1,29.38-13.12,31.13,31.13,0,0,0-15.55-4.13c-.75,0-1.49,0-2.22.08A31.28,31.28,0,0,0,579.49,1038Z" transform="translate(-151.62 -1014.66)"/><path class="cls-1" d="M264.56,1073.09a41.33,41.33,0,0,1-10.3,1.18c-13.1,0-16.33-6.12-16.33-20.12s3.25-20.12,16.33-20.12a41.09,41.09,0,0,1,10.3,1.2l-.71,6.18a50.63,50.63,0,0,0-8.12-.68c-9.47,0-9.64,5.67-9.64,13.42s.13,13.42,9.64,13.42a49.29,49.29,0,0,0,8.11-.68Z" transform="translate(-151.62 -1014.66)"/><path class="cls-1" d="M278.23,1073.87h-8v-38.76a75.76,75.76,0,0,1,12.83-1.08c8.71,0,15.84,1.73,15.84,12.39,0,7-2.93,10.25-7.57,11.66l9,15.79h-9.21L283.05,1059c-1.61,0-3.43-.08-4.82-.17Zm0-21.41a41.57,41.57,0,0,0,4.87.2c5,0,7.89-1.27,7.89-6.28,0-4.36-2-6.1-7.72-6.1a39.36,39.36,0,0,0-5,.33Z" transform="translate(-151.62 -1014.66)"/><path class="cls-1" d="M330.17,1040.83H319.29c-4.72,0-5.54,1-5.54,5.33v4.47h15.67V1057H313.75v5.12c0,4.36.82,5.36,5.54,5.36h10.88v6.19c-2.78.14-8.07.31-10.71.31-7.13,0-13.69-.39-13.69-9.63V1044c0-9.24,6.56-9.61,13.69-9.61,2.86,0,8,.15,10.71.28Z" transform="translate(-151.62 -1014.66)"/><path class="cls-1" d="M337.49,1035.15a73.17,73.17,0,0,1,12.84-1.12c14.77,0,17.4,6.72,17.4,20.12s-2.63,20.12-17.4,20.12a74.32,74.32,0,0,1-12.84-1.08Zm8,5.7v26.6a24.2,24.2,0,0,0,3.74.29c10.39,0,10.48-5.89,10.48-13.59s-.09-13.57-10.48-13.57A29,29,0,0,0,345.49,1040.85Z" transform="translate(-151.62 -1014.66)"/><path class="cls-1" d="M374.6,1034.44h8v39.43h-8Z" transform="translate(-151.62 -1014.66)"/><path class="cls-1" d="M390.49,1073.87V1044c0-9.24,6.58-9.61,13.7-9.61,2.86,0,8,.17,10.72.28v6.21H404c-4.72,0-5.53,1-5.53,5.33v4.47h15.67V1057H398.49v16.88Z" transform="translate(-151.62 -1014.66)"/><path class="cls-1" d="M419.38,1054.15c0-14.28,3.5-20.12,15.77-20.12s15.76,5.84,15.76,20.12-3.51,20.12-15.76,20.12S419.38,1068.43,419.38,1054.15Zm23.4,0c0-8-.16-13.54-7.63-13.54s-7.65,5.5-7.65,13.54.17,13.52,7.65,13.52S442.78,1062.19,442.78,1054.15Z" transform="translate(-151.62 -1014.66)"/><path class="cls-1" d="M466,1067.23h16.85v6.64H460.14c-2.93,0-4.5-1.09-4.5-3a5.81,5.81,0,0,1,1-3L472.71,1041H456.79v-6.58h21.76c3,0,4.47,1.15,4.47,3a5.93,5.93,0,0,1-1,3Z" transform="translate(-151.62 -1014.66)"/><path class="cls-1" d="M247.65,1101.05a16.61,16.61,0,0,1-3.62.38c-4.93,0-6.14-2.38-6.14-7.83s1.22-7.84,6.14-7.84a17.4,17.4,0,0,1,3.62.37l-.2,1.67a18,18,0,0,0-2.8-.24c-4.37,0-4.59,2.32-4.59,6s.26,6,4.59,6a17.18,17.18,0,0,0,2.81-.24Z" transform="translate(-151.62 -1014.66)"/><path class="cls-1" d="M249.94,1093.6c0-5.57,1.32-7.84,5.93-7.84s5.92,2.27,5.92,7.84-1.3,7.83-5.92,7.83S249.94,1099.16,249.94,1093.6Zm9.7,0c0-3.58-.13-6.07-3.77-6.07s-3.77,2.49-3.77,6.07.12,6.06,3.77,6.06S259.64,1097.16,259.64,1093.6Z" transform="translate(-151.62 -1014.66)"/><path class="cls-1" d="M264.82,1093.6c0-5.57,1.32-7.84,5.93-7.84s5.92,2.27,5.92,7.84-1.3,7.83-5.92,7.83S264.82,1099.16,264.82,1093.6Zm9.7,0c0-3.58-.13-6.07-3.77-6.07S267,1090,267,1093.6s.12,6.06,3.77,6.06S274.52,1097.16,274.52,1093.6Z" transform="translate(-151.62 -1014.66)"/><path class="cls-1" d="M282.19,1101.28h-2.11v-15.14a29.67,29.67,0,0,1,4.72-.38c3.28,0,5.95.66,5.95,4.7s-2.39,4.8-5.78,4.8c-.8,0-2.06-.06-2.78-.09Zm0-7.85a22.41,22.41,0,0,0,2.61.13c2.46,0,3.84-.62,3.84-3.1,0-2.14-1-3-3.77-3a20,20,0,0,0-2.68.18Z" transform="translate(-151.62 -1014.66)"/><path class="cls-1" d="M302.37,1087.63h-3.91c-2.48,0-2.9.48-2.9,2.68v2.29h6.51v1.71h-6.51v2.58c0,2.21.42,2.67,2.9,2.67h3.91v1.66c-1.16.06-2.74.1-3.85.1-2.63,0-5.07-.14-5.07-3.5v-8.44c0-3.36,2.44-3.5,5.07-3.5,1,0,2.67,0,3.85.1Z" transform="translate(-151.62 -1014.66)"/><path class="cls-1" d="M305.61,1101.28v-15.14a30,30,0,0,1,4.72-.38c3.26,0,6,.63,6,4.64,0,2.91-1.36,4.11-3.45,4.53l3.62,6.35H314l-3.37-6.15h-.11c-.8,0-2.05-.06-2.78-.1v6.25Zm2.12-8a22.19,22.19,0,0,0,2.6.12c2.44,0,3.85-.61,3.85-3,0-2.12-1-2.94-3.77-2.94a21.78,21.78,0,0,0-2.68.18Z" transform="translate(-151.62 -1014.66)"/><path class="cls-1" d="M318.29,1101.28l4.94-14a1.79,1.79,0,0,1,3.53,0l4.87,14h-2.25L328,1097h-6.07l-1.42,4.26Zm9.1-5.92L324.9,1088l-2.46,7.41Z" transform="translate(-151.62 -1014.66)"/><path class="cls-1" d="M343,1087.65h-4v13.63h-2.13v-13.63h-4v-1.73H343Z" transform="translate(-151.62 -1014.66)"/><path class="cls-1" d="M345.4,1085.92h2.12v15.36H345.4Z" transform="translate(-151.62 -1014.66)"/><path class="cls-1" d="M358,1100c-.35,1-.87,1.47-1.66,1.47s-1.31-.42-1.66-1.47l-4.68-14h2.26l4.11,13,4.16-13h2.16Z" transform="translate(-151.62 -1014.66)"/><path class="cls-1" d="M363.94,1101.28l4.94-14a1.79,1.79,0,0,1,3.53,0l4.86,14H375L373.6,1097h-6.07l-1.42,4.26Zm9.1-5.92-2.49-7.41-2.47,7.41Z" transform="translate(-151.62 -1014.66)"/><path class="cls-1" d="M384.61,1101.28l4.94-14a1.79,1.79,0,0,1,3.53,0l4.86,14H395.7l-1.43-4.26H388.2l-1.42,4.26Zm9.1-5.92-2.49-7.41-2.47,7.41Z" transform="translate(-151.62 -1014.66)"/><path class="cls-1" d="M400.46,1085.92h2.12v15.36h-2.12Z" transform="translate(-151.62 -1014.66)"/><path class="cls-1" d="M415,1101.24c-1.17,0-2.57.08-3.59.08-2.62,0-5.07-.14-5.07-3.5v-11.9h2.13v11c0,2.2.41,2.67,2.88,2.67H415Z" transform="translate(-151.62 -1014.66)"/><path class="cls-1" d="M416.8,1093.6c0-5.57,1.32-7.84,5.93-7.84s5.92,2.27,5.92,7.84-1.3,7.83-5.92,7.83S416.8,1099.16,416.8,1093.6Zm9.7,0c0-3.58-.13-6.07-3.77-6.07S419,1090,419,1093.6s.12,6.06,3.77,6.06S426.5,1097.16,426.5,1093.6Z" transform="translate(-151.62 -1014.66)"/><path class="cls-1" d="M433.44,1089.65c0,1.94,1,2.22,3.26,2.86,2.6.73,4.18,1.76,4.18,4.51,0,3.23-2,4.41-5.46,4.41a18.84,18.84,0,0,1-4-.39l.21-1.73a28.55,28.55,0,0,0,3.76.3c2,0,3.33-.43,3.33-2.51,0-1.82-1.33-2.24-3.09-2.78-2.7-.82-4.28-1.57-4.28-4.38,0-3.15,1.87-4.18,5.24-4.18a22,22,0,0,1,4,.39l-.2,1.68a21.52,21.52,0,0,0-3.11-.28C435.48,1087.55,433.44,1087.73,433.44,1089.65Z" transform="translate(-151.62 -1014.66)"/><path class="cls-1" d="M210.65,1058.86,203,1040.19c-.76-1.72-1.32-3-2.46-3s-1.7,1.31-2.39,3L193.54,1051,189,1040.19c-.7-1.65-1.24-3-2.4-3s-1.7,1.24-2.46,3l-7.62,18.66A3.59,3.59,0,0,0,180,1064h3.36v4.25a2.77,2.77,0,0,0,2.77,2.77h1a2.77,2.77,0,0,0,2.76-2.77V1064h7.39v4.25a2.77,2.77,0,0,0,2.76,2.77h1a2.77,2.77,0,0,0,2.76-2.77l0-4.25h3.35a3.82,3.82,0,0,0,3.27-1.55A3.87,3.87,0,0,0,210.65,1058.86ZM190.34,1062H187.8v6.31a.7.7,0,0,1-.7.7h-1a.7.7,0,0,1-.7-.7l0-2.52V1062H180a1.56,1.56,0,0,1-1.61-2.34L186,1041c.1-.24.33-.75.54-1.18.14.29.31.68.51,1.16l5.37,12.6-2.06,5.28A4,4,0,0,0,190.34,1062Zm4.49-.7a1.59,1.59,0,0,1-1.26.67,1.66,1.66,0,0,1-1.27-.67,1.85,1.85,0,0,1,0-1.65l1.26-3.23,1.29,3.23A1.82,1.82,0,0,1,194.83,1061.28Zm13.86,0a1.81,1.81,0,0,1-1.57.66H201.7v6.31a.7.7,0,0,1-.7.7h-1a.7.7,0,0,1-.7-.7V1062H196.8a4,4,0,0,0,0-3.1l-2.12-5.28,5.43-12.61c.2-.47.37-.86.51-1.15.21.43.43.93.53,1.16l7.61,18.63A1.8,1.8,0,0,1,208.69,1061.32Z" transform="translate(-151.62 -1014.66)"/><path class="cls-8" d="M214.73,1073.08a28.84,28.84,0,0,1-21.18,9.23c-.88,0-1.76,0-2.62-.12a31.4,31.4,0,0,1-18.67-.8,31.26,31.26,0,0,0,56-19,32.86,32.86,0,0,0-.27-4.11A31.32,31.32,0,0,1,214.73,1073.08Z" transform="translate(-151.62 -1014.66)"/><path class="cls-9" d="M198.42,1024.88a29,29,0,0,1,21.1,15.77,31.15,31.15,0,0,1,8.51,17.59,31.26,31.26,0,0,0-47.37-37.41c.73-.05,1.47-.08,2.22-.08A31.09,31.09,0,0,1,198.42,1024.88Z" transform="translate(-151.62 -1014.66)"/><path class="cls-10" d="M222.48,1053.39a28.78,28.78,0,0,1-7.75,19.69,31.32,31.32,0,0,0,13.3-14.84,31.15,31.15,0,0,0-8.51-17.59A28.79,28.79,0,0,1,222.48,1053.39Z" transform="translate(-151.62 -1014.66)"/><path class="cls-11" d="M165.8,1061.57a29,29,0,0,1-1.18-8.18,28.72,28.72,0,0,1,4.45-15.4,31.28,31.28,0,0,1,11.59-17.16,31.25,31.25,0,0,0-8.4,60.56,31.08,31.08,0,0,1-6.47-19C165.79,1062.09,165.79,1061.83,165.8,1061.57Z" transform="translate(-151.62 -1014.66)"/><path class="cls-12" d="M190.93,1082.19a29,29,0,0,1-25.13-20.62c0,.26,0,.52,0,.78a31.08,31.08,0,0,0,6.47,19,31.4,31.4,0,0,0,18.67.8Z" transform="translate(-151.62 -1014.66)"/><path class="cls-13" d="M169.07,1038a28.95,28.95,0,0,1,29.35-13.11,31.09,31.09,0,0,0-15.54-4.13c-.75,0-1.49,0-2.22.08A31.28,31.28,0,0,0,169.07,1038Z" transform="translate(-151.62 -1014.66)"/></svg>