<svg id="Camada_1" data-name="Camada 1" xmlns="http://www.w3.org/2000/svg" xmlns:xlink="http://www.w3.org/1999/xlink" viewBox="0 0 642 86.82"><defs><style>.cls-1{fill:#fff;}.cls-2{fill:url(#linear-gradient);}.cls-3{fill:url(#linear-gradient-2);}.cls-4{fill:#876b26;}.cls-5{fill:url(#linear-gradient-3);}.cls-6{fill:#007d88;}.cls-7{fill:#027042;}.cls-8{fill:url(#linear-gradient-4);}.cls-9{fill:url(#linear-gradient-5);}.cls-10{fill:#926b17;}.cls-11{fill:url(#linear-gradient-6);}.cls-12{fill:#007e8b;}.cls-13{fill:#00713c;}</style><linearGradient id="linear-gradient" x1="582.69" y1="81.25" x2="638.78" y2="81.25" gradientUnits="userSpaceOnUse"><stop offset="0" stop-color="#0ea7cc"/><stop offset="0.41" stop-color="#0da5c9"/><stop offset="0.66" stop-color="#0a9dc1"/><stop offset="0.86" stop-color="#068fb3"/><stop offset="1" stop-color="#0181a4"/></linearGradient><linearGradient id="linear-gradient-2" x1="591.1" y1="41.74" x2="641.05" y2="41.74" gradientUnits="userSpaceOnUse"><stop offset="0" stop-color="#fda101"/><stop offset="0.35" stop-color="#faa001"/><stop offset="0.56" stop-color="#f29c01"/><stop offset="0.73" stop-color="#e49401"/><stop offset="0.89" stop-color="#d08a01"/><stop offset="1" stop-color="#bb8001"/></linearGradient><linearGradient id="linear-gradient-3" x1="562.03" y1="56.42" x2="591.1" y2="56.42" gradientUnits="userSpaceOnUse"><stop offset="0" stop-color="#09af41"/><stop offset="0.39" stop-color="#09ac40"/><stop offset="0.62" stop-color="#08a43f"/><stop offset="0.82" stop-color="#07963c"/><stop offset="0.99" stop-color="#068237"/><stop offset="1" stop-color="#068037"/></linearGradient><linearGradient id="linear-gradient-4" x1="174.51" y1="81.19" x2="230.54" y2="81.19" gradientUnits="userSpaceOnUse"><stop offset="0" stop-color="#00aad0"/><stop offset="0.41" stop-color="#00a8cd"/><stop offset="0.66" stop-color="#009fc5"/><stop offset="0.86" stop-color="#0091b7"/><stop offset="1" stop-color="#0083a8"/></linearGradient><linearGradient id="linear-gradient-5" x1="182.91" y1="41.72" x2="232.81" y2="41.72" gradientUnits="userSpaceOnUse"><stop offset="0" stop-color="#ffa400"/><stop offset="0.39" stop-color="#fca200"/><stop offset="0.62" stop-color="#f49c00"/><stop offset="0.82" stop-color="#e69100"/><stop offset="0.99" stop-color="#d28100"/><stop offset="1" stop-color="#d08000"/></linearGradient><linearGradient id="linear-gradient-6" x1="153.87" y1="56.38" x2="182.91" y2="56.38" gradientUnits="userSpaceOnUse"><stop offset="0" stop-color="#00b231"/><stop offset="0.39" stop-color="#00af31"/><stop offset="0.62" stop-color="#00a730"/><stop offset="0.81" stop-color="#00992f"/><stop offset="0.98" stop-color="#00852d"/><stop offset="1" stop-color="#00822d"/></linearGradient></defs><path class="cls-1" d="M650,92.94c0,1,.54,1.16,1.73,1.5,1.38.38,2.22.92,2.22,2.36,0,1.69-1,2.31-2.9,2.31a9.57,9.57,0,0,1-2.14-.21L649,98a15.24,15.24,0,0,0,2,.16c1,0,1.77-.23,1.77-1.32s-.71-1.17-1.64-1.45c-1.44-.43-2.28-.82-2.28-2.29,0-1.66,1-2.2,2.79-2.2a11.78,11.78,0,0,1,2.12.21l-.1.88a10.78,10.78,0,0,0-1.66-.15C651.1,91.84,650,91.94,650,92.94Z" transform="translate(-153.87 -19.93)"/><path class="cls-1" d="M655.57,91h1.13v8h-1.13Z" transform="translate(-153.87 -19.93)"/><path class="cls-1" d="M659.41,92.94c0,1,.54,1.16,1.73,1.5,1.38.38,2.22.92,2.22,2.36,0,1.69-1,2.31-2.9,2.31a9.57,9.57,0,0,1-2.14-.21l.11-.9a15.24,15.24,0,0,0,2,.16c1,0,1.77-.23,1.77-1.32s-.71-1.17-1.64-1.45c-1.44-.43-2.28-.82-2.28-2.29,0-1.66,1-2.2,2.79-2.2a11.78,11.78,0,0,1,2.12.21l-.1.88a10.78,10.78,0,0,0-1.66-.15C660.49,91.84,659.41,91.94,659.41,92.94Z" transform="translate(-153.87 -19.93)"/><path class="cls-1" d="M669.91,91.89h-2.13V99h-1.13V91.89h-2.13V91h5.39Z" transform="translate(-153.87 -19.93)"/><path class="cls-1" d="M676,91.88h-2.08c-1.31,0-1.54.25-1.54,1.41v1.2h3.46v.89H672.4v1.35c0,1.16.23,1.4,1.54,1.4H676V99c-.62,0-1.45,0-2,0-1.4,0-2.7-.07-2.7-1.83V92.8c0-1.76,1.3-1.84,2.7-1.84.53,0,1.41,0,2,.06Z" transform="translate(-153.87 -19.93)"/><path class="cls-1" d="M681.68,96.53l2.13-4.92c.21-.47.52-.71.85-.71.49,0,.71.25.74.8l.38,7.33h-1.1l-.32-6.48-2,4.88a.66.66,0,0,1-1.28,0l-2-4.87L678.66,99h-1l.39-7.34c0-.55.25-.79.73-.79.33,0,.63.22.84.7Z" transform="translate(-153.87 -19.93)"/><path class="cls-1" d="M687.2,99l2.62-7.36a1,1,0,0,1,.94-.77,1,1,0,0,1,.93.77L694.28,99h-1.19l-.76-2.23h-3.22L688.35,99Zm4.83-3.1-1.32-3.88-1.31,3.88Z" transform="translate(-153.87 -19.93)"/><path class="cls-1" d="M698.82,91.1a15.44,15.44,0,0,1,2.5-.2c3,0,3.51,1.37,3.51,4.11s-.53,4.1-3.51,4.1a15.44,15.44,0,0,1-2.5-.2Zm1.12.81V98.1a8.25,8.25,0,0,0,1.15.09c2.59,0,2.61-1.38,2.61-3.18s0-3.19-2.61-3.19A10.13,10.13,0,0,0,699.94,91.91Z" transform="translate(-153.87 -19.93)"/><path class="cls-1" d="M711.35,91.88h-2.08c-1.32,0-1.54.25-1.54,1.41v1.2h3.46v.89h-3.46v1.35c0,1.16.22,1.4,1.54,1.4h2.08V99c-.62,0-1.46,0-2.05,0-1.39,0-2.69-.07-2.69-1.83V92.8c0-1.76,1.3-1.84,2.69-1.84.54,0,1.42,0,2.05.06Z" transform="translate(-153.87 -19.93)"/><path class="cls-1" d="M721.22,98.91a8.57,8.57,0,0,1-1.92.2c-2.62,0-3.26-1.25-3.26-4.1s.64-4.11,3.26-4.11a9.28,9.28,0,0,1,1.92.2l-.1.87a10.33,10.33,0,0,0-1.49-.12c-2.32,0-2.44,1.21-2.44,3.16s.14,3.16,2.44,3.16a9.07,9.07,0,0,0,1.49-.13Z" transform="translate(-153.87 -19.93)"/><path class="cls-1" d="M722.34,95c0-2.92.7-4.11,3.15-4.11s3.15,1.19,3.15,4.11-.7,4.1-3.15,4.1S722.34,97.92,722.34,95Zm5.15,0c0-1.87-.06-3.18-2-3.18s-2,1.31-2,3.18.06,3.17,2,3.17S727.49,96.88,727.49,95Z" transform="translate(-153.87 -19.93)"/><path class="cls-1" d="M730.25,95c0-2.92.7-4.11,3.15-4.11s3.15,1.19,3.15,4.11-.7,4.1-3.15,4.1S730.25,97.92,730.25,95Zm5.16,0c0-1.87-.07-3.18-2-3.18s-2,1.31-2,3.18.06,3.17,2,3.17S735.41,96.88,735.41,95Z" transform="translate(-153.87 -19.93)"/><path class="cls-1" d="M739.49,99h-1.12V91.1a16.69,16.69,0,0,1,2.51-.2c1.74,0,3.16.35,3.16,2.46s-1.27,2.52-3.07,2.52c-.42,0-1.09,0-1.48,0Zm0-4.11a11.64,11.64,0,0,0,1.39.07c1.3,0,2-.33,2-1.63,0-1.12-.52-1.57-2-1.57a10.54,10.54,0,0,0-1.43.1Z" transform="translate(-153.87 -19.93)"/><path class="cls-1" d="M750.31,91.88h-2.08c-1.32,0-1.54.25-1.54,1.41v1.2h3.46v.89h-3.46v1.35c0,1.16.22,1.4,1.54,1.4h2.08V99c-.62,0-1.46,0-2,0-1.39,0-2.69-.07-2.69-1.83V92.8c0-1.76,1.3-1.84,2.69-1.84.54,0,1.42,0,2,.06Z" transform="translate(-153.87 -19.93)"/><path class="cls-1" d="M752,99V91.1a16.8,16.8,0,0,1,2.51-.2c1.72,0,3.16.33,3.16,2.43a2.09,2.09,0,0,1-1.84,2.38L757.73,99h-1.31l-1.79-3.22h-.06c-.43,0-1.09,0-1.48,0V99Zm1.12-4.18a11.49,11.49,0,0,0,1.39.06c1.29,0,2-.32,2-1.58,0-1.11-.53-1.54-2-1.54a12.46,12.46,0,0,0-1.43.09Z" transform="translate(-153.87 -19.93)"/><path class="cls-1" d="M759,99l2.62-7.36a1,1,0,0,1,.94-.77,1,1,0,0,1,.93.77L766.11,99h-1.19l-.76-2.23h-3.22L760.18,99Zm4.83-3.1-1.32-3.88-1.31,3.88Z" transform="translate(-153.87 -19.93)"/><path class="cls-1" d="M771.25,91.89h-2.12V99H768V91.89h-2.13V91h5.38Z" transform="translate(-153.87 -19.93)"/><path class="cls-1" d="M772.7,91h1.13v8H772.7Z" transform="translate(-153.87 -19.93)"/><path class="cls-1" d="M779.52,98.34c-.18.54-.46.77-.88.77s-.69-.22-.88-.77L775.27,91h1.2l2.19,6.78L780.87,91H782Z" transform="translate(-153.87 -19.93)"/><path class="cls-1" d="M781.69,99l2.62-7.36a1,1,0,0,1,1.87,0L788.77,99h-1.2l-.76-2.23h-3.22L782.84,99Zm4.83-3.1-1.32-3.88-1.31,3.88Z" transform="translate(-153.87 -19.93)"/><path class="cls-1" d="M790.89,92.94c0,1,.54,1.16,1.73,1.5,1.38.38,2.22.92,2.22,2.36,0,1.69-1,2.31-2.9,2.31a9.57,9.57,0,0,1-2.14-.21l.11-.9a15.24,15.24,0,0,0,2,.16c1,0,1.77-.23,1.77-1.32S793,95.67,792,95.39c-1.44-.43-2.28-.82-2.28-2.29,0-1.66,1-2.2,2.79-2.2a11.78,11.78,0,0,1,2.12.21l-.1.88a10.78,10.78,0,0,0-1.66-.15C792,91.84,790.89,91.94,790.89,92.94Z" transform="translate(-153.87 -19.93)"/><path class="cls-1" d="M649,79.2l11.74-34.37c1.32-3.86,3.45-5.51,6.49-5.51s5.16,1.75,6.43,5.51L685.19,79.2h-8.5l-3-9.78H660.2l-2.94,9.78Zm22.8-15.92-4.91-16-4.83,16Z" transform="translate(-153.87 -19.93)"/><path class="cls-1" d="M689.72,39.73h8V79.2h-8Z" transform="translate(-153.87 -19.93)"/><path class="cls-1" d="M729.42,79c-2.8.12-7.62.27-10.1.27-7.13,0-13.7-.39-13.7-9.64V39.73h8v27.7c0,4.38.79,5.37,5.52,5.37h10.25Z" transform="translate(-153.87 -19.93)"/><path class="cls-1" d="M733,59.46c0-14.29,3.5-20.14,15.78-20.14s15.77,5.85,15.77,20.14S761,79.61,748.75,79.61,733,73.76,733,59.46Zm23.42,0c0-8-.17-13.55-7.64-13.55s-7.65,5.51-7.65,13.55S741.27,73,748.75,73,756.39,67.51,756.39,59.46Z" transform="translate(-153.87 -19.93)"/><path class="cls-1" d="M777.81,49.93c0,4,2.71,4.5,7.25,5.72,7.56,2.05,10.81,5,10.81,12.11,0,8.71-5.3,11.85-14.65,11.85a53.56,53.56,0,0,1-11.4-1.22l.78-6.32a83.33,83.33,0,0,0,10.33.88c4.15,0,6.69-.93,6.69-4.9,0-3.67-2.9-4.5-6.55-5.62-7.08-2.17-11.25-4.35-11.25-11.81,0-8.55,5-11.3,14.13-11.3a56.61,56.61,0,0,1,11.29,1.24l-.72,6.15a57.06,57.06,0,0,0-8.69-.87C782.64,45.84,777.81,46,777.81,49.93Z" transform="translate(-153.87 -19.93)"/><path class="cls-1" d="M621.11,64.18l-7.62-18.69c-.76-1.73-1.32-3-2.46-3s-1.71,1.31-2.4,3L604,56.27,599.4,45.49c-.69-1.66-1.24-3-2.4-3s-1.7,1.24-2.46,3l-7.63,18.68a3.61,3.61,0,0,0,3.54,5.18h3.35l0,4.25a2.77,2.77,0,0,0,2.77,2.77h1a2.77,2.77,0,0,0,2.77-2.77V71.54a1.85,1.85,0,0,0,0-.23V69.37h3.38l.33,0,.32,0h3.38v1.94a1.85,1.85,0,0,0,0,.23v2.08a2.77,2.77,0,0,0,2.77,2.77h1a2.77,2.77,0,0,0,2.77-2.77l0-4.25h3.35a3.6,3.6,0,0,0,3.53-5.19ZM600.78,67.3h-2.54v6.32a.7.7,0,0,1-.7.7h-1a.7.7,0,0,1-.7-.7l0-2.53V67.3h-5.42A1.56,1.56,0,0,1,588.83,65l7.61-18.64c.1-.24.33-.75.54-1.19.14.3.32.69.52,1.16l5.36,12.62-2.05,5.28A4,4,0,0,0,600.78,67.3Zm4.5-.7a1.62,1.62,0,0,1-1.26.67,1.66,1.66,0,0,1-1.27-.67,1.84,1.84,0,0,1,0-1.66L604,61.71,605.29,65A1.82,1.82,0,0,1,605.28,66.6Zm13.87,0a1.82,1.82,0,0,1-1.57.66h-5.42l0,6.32a.7.7,0,0,1-.7.7h-1a.7.7,0,0,1-.7-.7V67.3h-2.54a4,4,0,0,0,0-3.11l-2.12-5.28,5.44-12.62c.19-.48.36-.86.51-1.16.21.43.43.94.53,1.16l7.61,18.65A1.82,1.82,0,0,1,619.15,66.64Z" transform="translate(-153.87 -19.93)"/><path class="cls-2" d="M625.2,78.41A28.89,28.89,0,0,1,604,87.65c-.89,0-1.76,0-2.63-.12a31.43,31.43,0,0,1-18.68-.8,31.29,31.29,0,0,0,55.82-23.17A31.37,31.37,0,0,1,625.2,78.41Z" transform="translate(-153.87 -19.93)"/><path class="cls-3" d="M608.87,30.16A29,29,0,0,1,630,46a31.08,31.08,0,0,1,8.51,17.61A31.28,31.28,0,0,0,591.1,26.11c.73-.06,1.47-.08,2.22-.08A31.13,31.13,0,0,1,608.87,30.16Z" transform="translate(-153.87 -19.93)"/><path class="cls-4" d="M633,58.7a28.82,28.82,0,0,1-7.76,19.71,31.37,31.37,0,0,0,13.31-14.85A31.08,31.08,0,0,0,630,46,28.8,28.8,0,0,1,633,58.7Z" transform="translate(-153.87 -19.93)"/><path class="cls-5" d="M576.22,66.89a29,29,0,0,1,3.27-23.61A31.28,31.28,0,0,1,591.1,26.11a31.28,31.28,0,0,0-8.41,60.62,31.17,31.17,0,0,1-6.48-19.06C576.21,67.41,576.21,67.15,576.22,66.89Z" transform="translate(-153.87 -19.93)"/><path class="cls-6" d="M601.37,87.53a29,29,0,0,1-25.15-20.64c0,.26,0,.52,0,.78a31.17,31.17,0,0,0,6.48,19.06,31.43,31.43,0,0,0,18.68.8Z" transform="translate(-153.87 -19.93)"/><path class="cls-7" d="M579.49,43.28a29,29,0,0,1,29.38-13.12A31.13,31.13,0,0,0,593.32,26c-.75,0-1.49,0-2.22.08A31.28,31.28,0,0,0,579.49,43.28Z" transform="translate(-153.87 -19.93)"/><path class="cls-1" d="M212.9,64.13l-7.63-18.67c-.75-1.72-1.31-3-2.45-3s-1.7,1.31-2.39,3l-4.64,10.78-4.58-10.77c-.7-1.65-1.24-3-2.4-3s-1.7,1.24-2.47,3l-7.61,18.66a3.59,3.59,0,0,0,3.53,5.16h3.35l0,4.25a2.77,2.77,0,0,0,2.76,2.77h1a2.77,2.77,0,0,0,2.76-2.77V69.31h7.39v4.25a2.77,2.77,0,0,0,2.76,2.77h1A2.77,2.77,0,0,0,206,73.56l0-4.25h3.35a3.6,3.6,0,0,0,3.53-5.18Zm-20.31,3.12h-2.54v6.31a.7.7,0,0,1-.7.7h-1a.7.7,0,0,1-.7-.7V67.25h-5.42a1.56,1.56,0,0,1-1.61-2.34l7.6-18.62c.1-.24.33-.75.54-1.18.14.29.31.68.51,1.16l5.37,12.6-2.06,5.28A3.93,3.93,0,0,0,192.59,67.25Zm4.49-.7a1.59,1.59,0,0,1-1.26.67,1.66,1.66,0,0,1-1.27-.67,1.85,1.85,0,0,1,0-1.65l1.26-3.23,1.29,3.23A1.85,1.85,0,0,1,197.08,66.55Zm13.86,0a1.81,1.81,0,0,1-1.57.66H204l0,6.31a.7.7,0,0,1-.7.7h-1a.7.7,0,0,1-.7-.7V67.25h-2.53a4,4,0,0,0,0-3.1l-2.12-5.28,5.43-12.61c.2-.47.37-.86.51-1.15.21.43.43.94.53,1.16L211,64.9A1.83,1.83,0,0,1,210.94,66.59Z" transform="translate(-153.87 -19.93)"/><path class="cls-8" d="M217,78.35a28.84,28.84,0,0,1-21.18,9.23c-.89,0-1.76,0-2.62-.12a31.4,31.4,0,0,1-18.67-.8,31.25,31.25,0,0,0,55.76-23.15A31.3,31.3,0,0,1,217,78.35Z" transform="translate(-153.87 -19.93)"/><path class="cls-9" d="M200.67,30.15a29,29,0,0,1,21.1,15.77,31.14,31.14,0,0,1,8.5,17.59A31.25,31.25,0,0,0,182.91,26.1c.73-.05,1.47-.08,2.22-.08A31.12,31.12,0,0,1,200.67,30.15Z" transform="translate(-153.87 -19.93)"/><path class="cls-10" d="M224.73,58.66A28.82,28.82,0,0,1,217,78.35a31.3,31.3,0,0,0,13.29-14.84,31.14,31.14,0,0,0-8.5-17.59A28.79,28.79,0,0,1,224.73,58.66Z" transform="translate(-153.87 -19.93)"/><path class="cls-11" d="M168.05,66.84a28.93,28.93,0,0,1,3.26-23.58,31.29,31.29,0,0,1,11.6-17.16,31.25,31.25,0,0,0-8.4,60.56,31.08,31.08,0,0,1-6.47-19C168,67.36,168,67.1,168.05,66.84Z" transform="translate(-153.87 -19.93)"/><path class="cls-12" d="M193.18,87.46a29,29,0,0,1-25.13-20.62c0,.26,0,.52,0,.78a31.08,31.08,0,0,0,6.47,19,31.4,31.4,0,0,0,18.67.8Z" transform="translate(-153.87 -19.93)"/><path class="cls-13" d="M171.31,43.26a29,29,0,0,1,29.36-13.11A31.12,31.12,0,0,0,185.13,26c-.75,0-1.49,0-2.22.08A31.29,31.29,0,0,0,171.31,43.26Z" transform="translate(-153.87 -19.93)"/><path class="cls-1" d="M250.56,106.36a16.45,16.45,0,0,1-3.61.39c-4.93,0-6.14-2.39-6.14-7.84S242,91.07,247,91.07a16.51,16.51,0,0,1,3.61.38l-.19,1.67a18.11,18.11,0,0,0-2.8-.25c-4.38,0-4.6,2.32-4.6,6s.26,6,4.6,6a17.27,17.27,0,0,0,2.81-.25Z" transform="translate(-153.87 -19.93)"/><path class="cls-1" d="M252.86,98.91c0-5.56,1.31-7.84,5.93-7.84s5.92,2.28,5.92,7.84-1.31,7.84-5.92,7.84S252.86,104.47,252.86,98.91Zm9.7,0c0-3.57-.13-6.06-3.77-6.06S255,95.34,255,98.91s.12,6.06,3.77,6.06S262.56,102.48,262.56,98.91Z" transform="translate(-153.87 -19.93)"/><path class="cls-1" d="M267.74,98.91c0-5.56,1.31-7.84,5.93-7.84s5.92,2.28,5.92,7.84-1.31,7.84-5.92,7.84S267.74,104.47,267.74,98.91Zm9.7,0c0-3.57-.13-6.06-3.77-6.06s-3.77,2.49-3.77,6.06S270,105,273.67,105,277.44,102.48,277.44,98.91Z" transform="translate(-153.87 -19.93)"/><path class="cls-1" d="M285.11,106.59H283V91.45a29.87,29.87,0,0,1,4.72-.38c3.28,0,6,.67,6,4.7s-2.39,4.8-5.78,4.8c-.8,0-2.06,0-2.78-.09Zm0-7.84a22.09,22.09,0,0,0,2.6.12c2.47,0,3.85-.62,3.85-3.1,0-2.14-1-3-3.77-3a21.65,21.65,0,0,0-2.68.18Z" transform="translate(-153.87 -19.93)"/><path class="cls-1" d="M305.29,92.94h-3.92c-2.48,0-2.89.48-2.89,2.68v2.29H305v1.71h-6.51v2.59c0,2.2.41,2.67,2.89,2.67h3.92v1.66c-1.16,0-2.74.09-3.85.09-2.63,0-5.07-.14-5.07-3.5V94.7c0-3.36,2.44-3.51,5.07-3.51,1,0,2.67,0,3.85.1Z" transform="translate(-153.87 -19.93)"/><path class="cls-1" d="M308.53,106.59V91.45a29.87,29.87,0,0,1,4.72-.38c3.26,0,5.95.63,5.95,4.64,0,2.91-1.35,4.12-3.45,4.54l3.63,6.34h-2.47l-3.37-6.14h-.11c-.8,0-2.06-.06-2.78-.1v6.24Zm2.12-8a22.19,22.19,0,0,0,2.6.12c2.44,0,3.85-.61,3.85-3,0-2.13-1-2.95-3.77-2.95a21.65,21.65,0,0,0-2.68.18Z" transform="translate(-153.87 -19.93)"/><path class="cls-1" d="M321.2,106.59l4.94-14a1.79,1.79,0,0,1,3.53,0l4.87,14h-2.25l-1.43-4.26H324.8l-1.42,4.26Zm9.1-5.92-2.48-7.41-2.47,7.41Z" transform="translate(-153.87 -19.93)"/><path class="cls-1" d="M345.87,93h-4v13.63h-2.13V93h-4V91.23h10.14Z" transform="translate(-153.87 -19.93)"/><path class="cls-1" d="M348.32,91.23h2.12v15.36h-2.12Z" transform="translate(-153.87 -19.93)"/><path class="cls-1" d="M360.93,105.27c-.35,1-.87,1.48-1.66,1.48s-1.31-.43-1.67-1.48l-4.67-14h2.25l4.12,13,4.16-13h2.15Z" transform="translate(-153.87 -19.93)"/><path class="cls-1" d="M366.85,106.59l4.94-14a1.79,1.79,0,0,1,3.53,0l4.87,14h-2.25l-1.43-4.26h-6.06L369,106.59Zm9.1-5.92-2.48-7.41L371,100.67Z" transform="translate(-153.87 -19.93)"/><path class="cls-1" d="M387.52,106.59l4.94-14a1.79,1.79,0,0,1,3.53,0l4.87,14h-2.25l-1.43-4.26h-6.06l-1.42,4.26Zm9.1-5.92-2.48-7.41-2.47,7.41Z" transform="translate(-153.87 -19.93)"/><path class="cls-1" d="M403.37,91.23h2.13v15.36h-2.13Z" transform="translate(-153.87 -19.93)"/><path class="cls-1" d="M417.89,106.55c-1.17,0-2.57.08-3.59.08-2.62,0-5.07-.14-5.07-3.5V91.23h2.12v11c0,2.19.41,2.67,2.89,2.67h3.65Z" transform="translate(-153.87 -19.93)"/><path class="cls-1" d="M419.72,98.91c0-5.56,1.31-7.84,5.93-7.84s5.92,2.28,5.92,7.84-1.31,7.84-5.92,7.84S419.72,104.47,419.72,98.91Zm9.7,0c0-3.57-.13-6.06-3.77-6.06s-3.77,2.49-3.77,6.06S422,105,425.65,105,429.42,102.48,429.42,98.91Z" transform="translate(-153.87 -19.93)"/><path class="cls-1" d="M436.35,95c0,1.93,1,2.21,3.27,2.85,2.59.73,4.17,1.76,4.17,4.52,0,3.23-2,4.41-5.45,4.41a19,19,0,0,1-4-.4l.21-1.73a27,27,0,0,0,3.77.31c2,0,3.32-.44,3.32-2.51,0-1.82-1.32-2.24-3.08-2.78-2.71-.83-4.29-1.57-4.29-4.38,0-3.16,1.88-4.19,5.25-4.19a22.12,22.12,0,0,1,4,.39l-.2,1.68a21.65,21.65,0,0,0-3.11-.28C438.39,92.86,436.35,93,436.35,95Z" transform="translate(-153.87 -19.93)"/><path class="cls-1" d="M240.78,79.18l11.73-34.33c1.32-3.86,3.45-5.5,6.48-5.5s5.16,1.74,6.43,5.5L277,79.18h-8.5l-3-9.76H252l-3,9.76Zm22.78-15.91-4.91-15.94-4.82,15.94Z" transform="translate(-153.87 -19.93)"/><path class="cls-1" d="M306.3,78.4A40.89,40.89,0,0,1,296,79.59c-13.1,0-16.33-6.13-16.33-20.12S282.91,39.35,296,39.35a40.72,40.72,0,0,1,10.31,1.2l-.71,6.17a50.87,50.87,0,0,0-8.13-.67c-9.47,0-9.64,5.67-9.64,13.42s.13,13.42,9.64,13.42a50.4,50.4,0,0,0,8.11-.68Z" transform="translate(-153.87 -19.93)"/><path class="cls-1" d="M336.15,46.15H325.27c-4.72,0-5.53,1-5.53,5.33V56h15.67v6.36H319.74v5.11c0,4.36.81,5.36,5.53,5.36h10.88V79c-2.77.13-8.07.3-10.71.3-7.12,0-13.69-.39-13.69-9.63V49.26c0-9.24,6.57-9.61,13.69-9.61,2.86,0,8,.15,10.71.29Z" transform="translate(-153.87 -19.93)"/><path class="cls-1" d="M367.65,68.67V39.75h7.2V73.58c0,4.2-1.76,6-4.84,6s-4.78-1.27-6.81-5.2L350.7,50.16v29h-7.19V45.34c0-4.2,1.81-6,4.84-6,2.74,0,4.8,1.37,6.78,5.17Z" transform="translate(-153.87 -19.93)"/><path class="cls-1" d="M407.53,46.22h-9.7v33h-8v-33h-9.65V39.75h27.38Z" transform="translate(-153.87 -19.93)"/><path class="cls-1" d="M420.72,79.18h-8V40.43a74.74,74.74,0,0,1,12.83-1.08c8.71,0,15.84,1.72,15.84,12.38,0,7-2.93,10.26-7.57,11.66l9,15.79h-9.21l-8.09-14.87c-1.6,0-3.43-.09-4.82-.17Zm0-21.41a41.57,41.57,0,0,0,4.87.21c5,0,7.89-1.27,7.89-6.28,0-4.37-2-6.11-7.72-6.11a39.39,39.39,0,0,0-5,.34Z" transform="translate(-153.87 -19.93)"/><path class="cls-1" d="M446.85,79.18l11.73-34.33c1.32-3.86,3.45-5.5,6.48-5.5s5.16,1.74,6.43,5.5L483,79.18h-8.5l-3-9.76H458.06l-2.95,9.76Zm22.78-15.91-4.91-15.94L459.9,63.27Z" transform="translate(-153.87 -19.93)"/></svg>