<svg id="Camada_1" data-name="Camada 1" xmlns="http://www.w3.org/2000/svg" xmlns:xlink="http://www.w3.org/1999/xlink" viewBox="0 0 635.6 86.79"><defs><style>.cls-1{fill:#fff;}.cls-2{fill:url(#linear-gradient);}.cls-3{fill:url(#linear-gradient-2);}.cls-4{fill:#876b26;}.cls-5{fill:url(#linear-gradient-3);}.cls-6{fill:#007d88;}.cls-7{fill:#027042;}.cls-8{fill:url(#linear-gradient-4);}.cls-9{fill:url(#linear-gradient-5);}.cls-10{fill:#926b17;}.cls-11{fill:url(#linear-gradient-6);}.cls-12{fill:#007e8b;}.cls-13{fill:#00713c;}</style><linearGradient id="linear-gradient" x1="582.69" y1="1903.22" x2="638.78" y2="1903.22" gradientUnits="userSpaceOnUse"><stop offset="0" stop-color="#0ea7cc"/><stop offset="0.41" stop-color="#0da5c9"/><stop offset="0.66" stop-color="#0a9dc1"/><stop offset="0.86" stop-color="#068fb3"/><stop offset="1" stop-color="#0181a4"/></linearGradient><linearGradient id="linear-gradient-2" x1="591.1" y1="1863.71" x2="641.05" y2="1863.71" gradientUnits="userSpaceOnUse"><stop offset="0" stop-color="#fda101"/><stop offset="0.35" stop-color="#faa001"/><stop offset="0.56" stop-color="#f29c01"/><stop offset="0.73" stop-color="#e49401"/><stop offset="0.89" stop-color="#d08a01"/><stop offset="1" stop-color="#bb8001"/></linearGradient><linearGradient id="linear-gradient-3" x1="562.03" y1="1878.38" x2="591.1" y2="1878.38" gradientUnits="userSpaceOnUse"><stop offset="0" stop-color="#09af41"/><stop offset="0.39" stop-color="#09ac40"/><stop offset="0.62" stop-color="#08a43f"/><stop offset="0.82" stop-color="#07963c"/><stop offset="0.99" stop-color="#068237"/><stop offset="1" stop-color="#068037"/></linearGradient><linearGradient id="linear-gradient-4" x1="180.91" y1="1903.15" x2="236.94" y2="1903.15" gradientUnits="userSpaceOnUse"><stop offset="0" stop-color="#00aad0"/><stop offset="0.41" stop-color="#00a8cd"/><stop offset="0.66" stop-color="#009fc5"/><stop offset="0.86" stop-color="#0091b7"/><stop offset="1" stop-color="#0083a8"/></linearGradient><linearGradient id="linear-gradient-5" x1="189.31" y1="1863.69" x2="239.21" y2="1863.69" gradientUnits="userSpaceOnUse"><stop offset="0" stop-color="#ffa400"/><stop offset="0.39" stop-color="#fca200"/><stop offset="0.62" stop-color="#f49c00"/><stop offset="0.82" stop-color="#e69100"/><stop offset="0.99" stop-color="#d28100"/><stop offset="1" stop-color="#d08000"/></linearGradient><linearGradient id="linear-gradient-6" x1="160.27" y1="1878.34" x2="189.31" y2="1878.34" gradientUnits="userSpaceOnUse"><stop offset="0" stop-color="#00b231"/><stop offset="0.39" stop-color="#00af31"/><stop offset="0.62" stop-color="#00a730"/><stop offset="0.81" stop-color="#00992f"/><stop offset="0.98" stop-color="#00852d"/><stop offset="1" stop-color="#00822d"/></linearGradient></defs><path class="cls-1" d="M650,1914.91c0,1,.54,1.16,1.73,1.49,1.38.39,2.22.92,2.22,2.37,0,1.69-1,2.31-2.9,2.31a10.19,10.19,0,0,1-2.14-.21l.11-.91a15.24,15.24,0,0,0,2,.16c1,0,1.77-.23,1.77-1.31s-.71-1.18-1.64-1.46c-1.44-.43-2.28-.82-2.28-2.29,0-1.65,1-2.19,2.79-2.19a11.84,11.84,0,0,1,2.12.2l-.1.88a12.23,12.23,0,0,0-1.66-.14C651.1,1913.81,650,1913.9,650,1914.91Z" transform="translate(-160.27 -1841.9)"/><path class="cls-1" d="M655.57,1913h1.13v8h-1.13Z" transform="translate(-160.27 -1841.9)"/><path class="cls-1" d="M659.41,1914.91c0,1,.54,1.16,1.73,1.49,1.38.39,2.22.92,2.22,2.37,0,1.69-1,2.31-2.9,2.31a10.19,10.19,0,0,1-2.14-.21l.11-.91a15.24,15.24,0,0,0,2,.16c1,0,1.77-.23,1.77-1.31s-.71-1.18-1.64-1.46c-1.44-.43-2.28-.82-2.28-2.29,0-1.65,1-2.19,2.79-2.19a11.84,11.84,0,0,1,2.12.2l-.1.88a12.23,12.23,0,0,0-1.66-.14C660.49,1913.81,659.41,1913.9,659.41,1914.91Z" transform="translate(-160.27 -1841.9)"/><path class="cls-1" d="M669.91,1913.86h-2.13V1921h-1.13v-7.13h-2.13V1913h5.39Z" transform="translate(-160.27 -1841.9)"/><path class="cls-1" d="M676,1913.85h-2.08c-1.31,0-1.54.25-1.54,1.4v1.2h3.46v.89H672.4v1.36c0,1.15.23,1.4,1.54,1.4H676v.87c-.62,0-1.45,0-2,0-1.4,0-2.7-.07-2.7-1.83v-4.41c0-1.77,1.3-1.84,2.7-1.84.53,0,1.41,0,2,0Z" transform="translate(-160.27 -1841.9)"/><path class="cls-1" d="M681.68,1918.5l2.13-4.92c.21-.48.52-.71.85-.71.49,0,.71.24.74.79l.38,7.33h-1.1l-.32-6.47-2,4.88a.69.69,0,0,1-.64.51.68.68,0,0,1-.64-.51l-2-4.87-.33,6.46h-1l.39-7.33c0-.55.25-.79.73-.79.33,0,.63.21.84.69Z" transform="translate(-160.27 -1841.9)"/><path class="cls-1" d="M687.2,1921l2.62-7.35a1,1,0,0,1,.94-.77,1,1,0,0,1,.93.77l2.59,7.35h-1.19l-.76-2.23h-3.22l-.76,2.23Zm4.83-3.1-1.32-3.88-1.31,3.88Z" transform="translate(-160.27 -1841.9)"/><path class="cls-1" d="M698.82,1913.06a16.75,16.75,0,0,1,2.5-.19c3,0,3.51,1.37,3.51,4.1s-.53,4.11-3.51,4.11a16.66,16.66,0,0,1-2.5-.2Zm1.12.81v6.2a10.21,10.21,0,0,0,1.15.08c2.59,0,2.61-1.37,2.61-3.18s0-3.18-2.61-3.18A10.21,10.21,0,0,0,699.94,1913.87Z" transform="translate(-160.27 -1841.9)"/><path class="cls-1" d="M711.35,1913.85h-2.08c-1.32,0-1.54.25-1.54,1.4v1.2h3.46v.89h-3.46v1.36c0,1.15.22,1.4,1.54,1.4h2.08v.87c-.62,0-1.46,0-2.05,0-1.39,0-2.69-.07-2.69-1.83v-4.41c0-1.77,1.3-1.84,2.69-1.84.54,0,1.42,0,2.05,0Z" transform="translate(-160.27 -1841.9)"/><path class="cls-1" d="M721.22,1920.88a9.2,9.2,0,0,1-1.92.2c-2.62,0-3.26-1.25-3.26-4.11s.64-4.1,3.26-4.1a9.35,9.35,0,0,1,1.92.19l-.1.88a10.32,10.32,0,0,0-1.49-.13c-2.32,0-2.44,1.21-2.44,3.16s.14,3.16,2.44,3.16a10.33,10.33,0,0,0,1.49-.12Z" transform="translate(-160.27 -1841.9)"/><path class="cls-1" d="M722.34,1917c0-2.91.7-4.1,3.15-4.1s3.15,1.19,3.15,4.1-.7,4.11-3.15,4.11S722.34,1919.89,722.34,1917Zm5.15,0c0-1.87-.06-3.17-2-3.17s-2,1.3-2,3.17.06,3.18,2,3.18S727.49,1918.84,727.49,1917Z" transform="translate(-160.27 -1841.9)"/><path class="cls-1" d="M730.25,1917c0-2.91.7-4.1,3.15-4.1s3.15,1.19,3.15,4.1-.7,4.11-3.15,4.11S730.25,1919.89,730.25,1917Zm5.16,0c0-1.87-.07-3.17-2-3.17s-2,1.3-2,3.17.06,3.18,2,3.18S735.41,1918.84,735.41,1917Z" transform="translate(-160.27 -1841.9)"/><path class="cls-1" d="M739.49,1921h-1.12v-7.92a15.48,15.48,0,0,1,2.51-.2c1.74,0,3.16.35,3.16,2.46s-1.27,2.51-3.07,2.51c-.42,0-1.09,0-1.48,0Zm0-4.1c.53,0,1,.06,1.39.06,1.3,0,2-.32,2-1.62,0-1.12-.52-1.57-2-1.57a12.33,12.33,0,0,0-1.43.09Z" transform="translate(-160.27 -1841.9)"/><path class="cls-1" d="M750.31,1913.85h-2.08c-1.32,0-1.54.25-1.54,1.4v1.2h3.46v.89h-3.46v1.36c0,1.15.22,1.4,1.54,1.4h2.08v.87c-.62,0-1.46,0-2,0-1.39,0-2.69-.07-2.69-1.83v-4.41c0-1.77,1.3-1.84,2.69-1.84.54,0,1.42,0,2,0Z" transform="translate(-160.27 -1841.9)"/><path class="cls-1" d="M752,1921v-7.92a15.57,15.57,0,0,1,2.51-.2c1.72,0,3.16.33,3.16,2.43a2.09,2.09,0,0,1-1.84,2.37l1.93,3.32h-1.31l-1.79-3.21h-.06c-.43,0-1.09,0-1.48-.06V1921Zm1.12-4.17c.53,0,.95.06,1.39.06,1.29,0,2-.32,2-1.59,0-1.11-.53-1.54-2-1.54a10.65,10.65,0,0,0-1.43.1Z" transform="translate(-160.27 -1841.9)"/><path class="cls-1" d="M759,1921l2.62-7.35a1,1,0,0,1,.94-.77,1,1,0,0,1,.93.77l2.59,7.35h-1.19l-.76-2.23h-3.22l-.76,2.23Zm4.83-3.1-1.32-3.88-1.31,3.88Z" transform="translate(-160.27 -1841.9)"/><path class="cls-1" d="M771.25,1913.86h-2.12V1921H768v-7.13h-2.13V1913h5.38Z" transform="translate(-160.27 -1841.9)"/><path class="cls-1" d="M772.7,1913h1.13v8H772.7Z" transform="translate(-160.27 -1841.9)"/><path class="cls-1" d="M779.52,1920.3c-.18.55-.46.78-.88.78s-.69-.23-.88-.78l-2.49-7.35h1.2l2.19,6.79,2.21-6.79H782Z" transform="translate(-160.27 -1841.9)"/><path class="cls-1" d="M781.69,1921l2.62-7.35a1,1,0,0,1,1.87,0l2.59,7.35h-1.2l-.76-2.23h-3.22l-.75,2.23Zm4.83-3.1L785.2,1914l-1.31,3.88Z" transform="translate(-160.27 -1841.9)"/><path class="cls-1" d="M790.89,1914.91c0,1,.54,1.16,1.73,1.49,1.38.39,2.22.92,2.22,2.37,0,1.69-1,2.31-2.9,2.31a10.19,10.19,0,0,1-2.14-.21l.11-.91a15.24,15.24,0,0,0,2,.16c1,0,1.77-.23,1.77-1.31s-.71-1.18-1.64-1.46c-1.44-.43-2.28-.82-2.28-2.29,0-1.65,1-2.19,2.79-2.19a11.84,11.84,0,0,1,2.12.2l-.1.88a12.23,12.23,0,0,0-1.66-.14C792,1913.81,790.89,1913.9,790.89,1914.91Z" transform="translate(-160.27 -1841.9)"/><path class="cls-1" d="M649,1901.16l11.74-34.37c1.32-3.86,3.45-5.5,6.49-5.5s5.16,1.74,6.43,5.5l11.54,34.37h-8.5l-3-9.77H660.2l-2.94,9.77Zm22.8-15.92-4.91-16-4.83,16Z" transform="translate(-160.27 -1841.9)"/><path class="cls-1" d="M689.72,1861.69h8v39.47h-8Z" transform="translate(-160.27 -1841.9)"/><path class="cls-1" d="M729.42,1901c-2.8.12-7.62.27-10.1.27-7.13,0-13.7-.39-13.7-9.63v-29.94h8v27.7c0,4.39.79,5.37,5.52,5.37h10.25Z" transform="translate(-160.27 -1841.9)"/><path class="cls-1" d="M733,1881.43c0-14.3,3.5-20.14,15.78-20.14s15.77,5.84,15.77,20.14-3.5,20.14-15.77,20.14S733,1895.72,733,1881.43Zm23.42,0c0-8-.17-13.55-7.64-13.55s-7.65,5.5-7.65,13.55.17,13.53,7.65,13.53S756.39,1889.47,756.39,1881.43Z" transform="translate(-160.27 -1841.9)"/><path class="cls-1" d="M777.81,1871.89c0,4,2.71,4.51,7.25,5.73,7.56,2.05,10.81,5,10.81,12.11,0,8.71-5.3,11.84-14.65,11.84a53.56,53.56,0,0,1-11.4-1.22l.78-6.32a83.33,83.33,0,0,0,10.33.88c4.15,0,6.69-.93,6.69-4.89,0-3.68-2.9-4.51-6.55-5.63-7.08-2.17-11.25-4.35-11.25-11.8,0-8.56,5-11.3,14.13-11.3a56.69,56.69,0,0,1,11.29,1.23l-.72,6.15a58.4,58.4,0,0,0-8.69-.86C782.64,1867.81,777.81,1867.94,777.81,1871.89Z" transform="translate(-160.27 -1841.9)"/><path class="cls-1" d="M621.11,1886.14l-7.62-18.69c-.76-1.73-1.32-3-2.46-3s-1.71,1.32-2.4,3L604,1878.23l-4.59-10.78c-.69-1.65-1.24-3-2.4-3s-1.7,1.24-2.46,3l-7.63,18.68a3.6,3.6,0,0,0,3.54,5.17h3.35l0,4.25a2.77,2.77,0,0,0,2.77,2.77h1a2.77,2.77,0,0,0,2.77-2.77v-2.08a1.62,1.62,0,0,0,0-.22v-2h3.38l.33,0,.32,0h3.38v2a1.62,1.62,0,0,0,0,.22v2.08a2.77,2.77,0,0,0,2.77,2.77h1a2.77,2.77,0,0,0,2.77-2.77l0-4.25h3.35a3.6,3.6,0,0,0,3.53-5.19Zm-20.33,3.12h-2.54v6.32a.7.7,0,0,1-.7.7h-1a.7.7,0,0,1-.7-.7l0-2.52v-3.8h-5.42a1.56,1.56,0,0,1-1.62-2.34l7.61-18.64c.1-.23.33-.75.54-1.18.14.29.32.68.52,1.16l5.36,12.62-2.05,5.28A4,4,0,0,0,600.78,1889.26Zm4.5-.69a1.54,1.54,0,0,1-2.53,0,1.82,1.82,0,0,1,0-1.65l1.26-3.23,1.29,3.23A1.84,1.84,0,0,1,605.28,1888.57Zm13.87,0a1.82,1.82,0,0,1-1.57.65h-5.42l0,6.32a.7.7,0,0,1-.7.7h-1a.7.7,0,0,1-.7-.7v-6.32h-2.54a4,4,0,0,0,0-3.1l-2.12-5.29,5.44-12.62c.19-.47.36-.86.51-1.15.21.43.43.94.53,1.16l7.61,18.65A1.82,1.82,0,0,1,619.15,1888.61Z" transform="translate(-160.27 -1841.9)"/><path class="cls-2" d="M625.2,1900.38a28.88,28.88,0,0,1-21.2,9.23c-.89,0-1.76,0-2.63-.12a31.43,31.43,0,0,1-18.68-.8,31.29,31.29,0,0,0,55.82-23.17A31.44,31.44,0,0,1,625.2,1900.38Z" transform="translate(-160.27 -1841.9)"/><path class="cls-3" d="M608.87,1852.13A29,29,0,0,1,630,1867.91a31.14,31.14,0,0,1,8.51,17.61,31.29,31.29,0,0,0-47.41-37.45c.73,0,1.47-.08,2.22-.08A31,31,0,0,1,608.87,1852.13Z" transform="translate(-160.27 -1841.9)"/><path class="cls-4" d="M633,1880.66a28.86,28.86,0,0,1-7.76,19.72,17.75,17.75,0,0,0,4.8-32.47A28.87,28.87,0,0,1,633,1880.66Z" transform="translate(-160.27 -1841.9)"/><path class="cls-5" d="M576.22,1888.85a29,29,0,0,1,3.27-23.61,31.28,31.28,0,0,1,11.61-17.17,31.28,31.28,0,0,0-8.41,60.62,31.15,31.15,0,0,1-6.48-19.06C576.21,1889.37,576.21,1889.11,576.22,1888.85Z" transform="translate(-160.27 -1841.9)"/><path class="cls-6" d="M601.37,1909.49a29,29,0,0,1-25.15-20.64c0,.26,0,.52,0,.78a31.15,31.15,0,0,0,6.48,19.06,31.43,31.43,0,0,0,18.68.8Z" transform="translate(-160.27 -1841.9)"/><path class="cls-7" d="M579.49,1865.24a29,29,0,0,1,29.38-13.11,31,31,0,0,0-15.55-4.14c-.75,0-1.49,0-2.22.08A31.28,31.28,0,0,0,579.49,1865.24Z" transform="translate(-160.27 -1841.9)"/><path class="cls-1" d="M270.47,1896.19c-1.23,3.81-3.2,5.33-6.07,5.33s-4.81-1.4-6.1-5.33l-11.3-34.5h8.53l8.93,30.42,9-30.42h8.22Z" transform="translate(-160.27 -1841.9)"/><path class="cls-1" d="M286.2,1861.69h8v39.43h-8Z" transform="translate(-160.27 -1841.9)"/><path class="cls-1" d="M298.75,1901.12l11.72-34.34c1.32-3.86,3.46-5.5,6.49-5.5s5.16,1.74,6.43,5.5l11.52,34.34h-8.5l-3-9.77H310l-2.94,9.77Zm22.77-15.91-4.9-15.94-4.83,15.94Z" transform="translate(-160.27 -1841.9)"/><path class="cls-1" d="M365,1900.34a41.33,41.33,0,0,1-10.3,1.18c-13.1,0-16.33-6.12-16.33-20.12s3.25-20.12,16.33-20.12a41.09,41.09,0,0,1,10.3,1.2l-.71,6.18a50.73,50.73,0,0,0-8.12-.68c-9.48,0-9.64,5.67-9.64,13.42s.13,13.42,9.64,13.42a49.38,49.38,0,0,0,8.11-.68Z" transform="translate(-160.27 -1841.9)"/><path class="cls-1" d="M378.62,1901.12h-8v-38.76a75.76,75.76,0,0,1,12.83-1.08c8.71,0,15.84,1.73,15.84,12.39,0,7-2.93,10.25-7.57,11.66l9,15.79h-9.2l-8.09-14.88c-1.61,0-3.44-.08-4.82-.17Zm0-21.41a41.57,41.57,0,0,0,4.87.2c5,0,7.89-1.27,7.89-6.28,0-4.36-2-6.1-7.72-6.1a39.36,39.36,0,0,0-5,.33Z" transform="translate(-160.27 -1841.9)"/><path class="cls-1" d="M430.56,1868.08H419.68c-4.72,0-5.54,1-5.54,5.33v4.47h15.67v6.36H414.14v5.11c0,4.37.82,5.37,5.54,5.37h10.88v6.19c-2.78.14-8.07.31-10.71.31-7.13,0-13.69-.39-13.69-9.63V1871.2c0-9.24,6.56-9.61,13.69-9.61,2.86,0,8,.15,10.71.28Z" transform="translate(-160.27 -1841.9)"/><path class="cls-1" d="M437.88,1862.4a72.22,72.22,0,0,1,12.84-1.12c14.77,0,17.4,6.72,17.4,20.12s-2.63,20.12-17.4,20.12a75.33,75.33,0,0,1-12.84-1.08Zm8,5.7v26.6a25.52,25.52,0,0,0,3.74.29c10.39,0,10.48-5.89,10.48-13.59s-.09-13.57-10.48-13.57A27.31,27.31,0,0,0,445.88,1868.1Z" transform="translate(-160.27 -1841.9)"/><path class="cls-1" d="M475,1861.69h8v39.43h-8Z" transform="translate(-160.27 -1841.9)"/><path class="cls-1" d="M256.81,1928.3a16.51,16.51,0,0,1-3.61.38c-4.93,0-6.14-2.38-6.14-7.83s1.21-7.84,6.14-7.84a17.22,17.22,0,0,1,3.61.37l-.19,1.67a18.12,18.12,0,0,0-2.8-.24c-4.38,0-4.6,2.32-4.6,6s.26,6,4.6,6a17.28,17.28,0,0,0,2.81-.24Z" transform="translate(-160.27 -1841.9)"/><path class="cls-1" d="M259.11,1920.85c0-5.57,1.31-7.84,5.93-7.84s5.92,2.27,5.92,7.84-1.31,7.83-5.92,7.83S259.11,1926.41,259.11,1920.85Zm9.7,0c0-3.58-.13-6.07-3.77-6.07s-3.77,2.49-3.77,6.07.12,6.06,3.77,6.06S268.81,1924.41,268.81,1920.85Z" transform="translate(-160.27 -1841.9)"/><path class="cls-1" d="M274,1920.85c0-5.57,1.31-7.84,5.93-7.84s5.92,2.27,5.92,7.84-1.31,7.83-5.92,7.83S274,1926.41,274,1920.85Zm9.7,0c0-3.58-.13-6.07-3.77-6.07s-3.77,2.49-3.77,6.07.11,6.06,3.77,6.06S283.69,1924.41,283.69,1920.85Z" transform="translate(-160.27 -1841.9)"/><path class="cls-1" d="M291.36,1928.53h-2.12v-15.14A29.87,29.87,0,0,1,294,1913c3.28,0,6,.66,6,4.7s-2.39,4.8-5.78,4.8c-.8,0-2.06-.06-2.78-.09Zm0-7.85a22.25,22.25,0,0,0,2.6.13c2.47,0,3.85-.62,3.85-3.1,0-2.14-1-3-3.77-3a19.87,19.87,0,0,0-2.68.18Z" transform="translate(-160.27 -1841.9)"/><path class="cls-1" d="M311.54,1914.88h-3.92c-2.48,0-2.89.48-2.89,2.68v2.29h6.51v1.71h-6.51v2.58c0,2.21.41,2.67,2.89,2.67h3.92v1.66c-1.16.06-2.74.09-3.85.09-2.63,0-5.07-.13-5.07-3.5v-8.43c0-3.36,2.44-3.5,5.07-3.5,1,0,2.67,0,3.85.1Z" transform="translate(-160.27 -1841.9)"/><path class="cls-1" d="M314.78,1928.53v-15.14a29.87,29.87,0,0,1,4.72-.38c3.26,0,5.95.63,5.95,4.64,0,2.91-1.36,4.11-3.45,4.53l3.63,6.35h-2.47l-3.37-6.15h-.12c-.8,0-2.05-.06-2.77-.1v6.25Zm2.12-8a22.19,22.19,0,0,0,2.6.12c2.44,0,3.85-.62,3.85-3,0-2.12-1-2.94-3.77-2.94a19.87,19.87,0,0,0-2.68.18Z" transform="translate(-160.27 -1841.9)"/><path class="cls-1" d="M327.45,1928.53l4.94-14a1.79,1.79,0,0,1,3.53,0l4.87,14h-2.25l-1.43-4.26h-6.06l-1.42,4.26Zm9.1-5.92-2.48-7.41-2.47,7.41Z" transform="translate(-160.27 -1841.9)"/><path class="cls-1" d="M352.12,1914.9h-4v13.63H346V1914.9h-4v-1.73h10.14Z" transform="translate(-160.27 -1841.9)"/><path class="cls-1" d="M354.57,1913.17h2.12v15.36h-2.12Z" transform="translate(-160.27 -1841.9)"/><path class="cls-1" d="M367.18,1927.21c-.35,1-.87,1.47-1.66,1.47s-1.31-.43-1.67-1.47l-4.68-14h2.26l4.11,13,4.17-13h2.15Z" transform="translate(-160.27 -1841.9)"/><path class="cls-1" d="M373.1,1928.53l4.94-14a1.79,1.79,0,0,1,3.53,0l4.87,14h-2.25l-1.43-4.26H376.7l-1.42,4.26Zm9.1-5.92-2.48-7.41-2.47,7.41Z" transform="translate(-160.27 -1841.9)"/><path class="cls-1" d="M393.77,1928.53l4.94-14a1.79,1.79,0,0,1,3.53,0l4.87,14h-2.25l-1.43-4.26h-6.06l-1.42,4.26Zm9.1-5.92-2.48-7.41-2.47,7.41Z" transform="translate(-160.27 -1841.9)"/><path class="cls-1" d="M409.62,1913.17h2.13v15.36h-2.13Z" transform="translate(-160.27 -1841.9)"/><path class="cls-1" d="M424.13,1928.49c-1.17,0-2.56.07-3.58.07-2.62,0-5.07-.13-5.07-3.5v-11.89h2.12v11c0,2.2.41,2.67,2.89,2.67h3.64Z" transform="translate(-160.27 -1841.9)"/><path class="cls-1" d="M426,1920.85c0-5.57,1.31-7.84,5.93-7.84s5.92,2.27,5.92,7.84-1.31,7.83-5.92,7.83S426,1926.41,426,1920.85Zm9.7,0c0-3.58-.13-6.07-3.77-6.07s-3.77,2.49-3.77,6.07.11,6.06,3.77,6.06S435.67,1924.41,435.67,1920.85Z" transform="translate(-160.27 -1841.9)"/><path class="cls-1" d="M442.6,1916.9c0,1.94,1,2.22,3.27,2.86,2.59.73,4.17,1.76,4.17,4.51,0,3.23-2,4.41-5.45,4.41a18.94,18.94,0,0,1-4-.39l.21-1.73a28.56,28.56,0,0,0,3.77.3c2,0,3.32-.43,3.32-2.51,0-1.82-1.32-2.24-3.08-2.78-2.71-.82-4.29-1.57-4.29-4.38,0-3.15,1.88-4.18,5.25-4.18a22.12,22.12,0,0,1,4,.39l-.2,1.68a21.65,21.65,0,0,0-3.11-.28C444.64,1914.8,442.6,1915,442.6,1916.9Z" transform="translate(-160.27 -1841.9)"/><path class="cls-1" d="M219.3,1886.09l-7.62-18.66c-.76-1.73-1.32-3-2.46-3s-1.7,1.31-2.39,3l-4.64,10.77-4.58-10.76c-.7-1.66-1.24-3-2.4-3s-1.7,1.24-2.47,3l-7.61,18.66a3.6,3.6,0,0,0,3.53,5.17H192l0,4.25a2.78,2.78,0,0,0,2.77,2.77h1a2.77,2.77,0,0,0,2.76-2.77v-4.25h3.37l.33,0,.32,0h3.37v4.25a2.77,2.77,0,0,0,2.76,2.77h1a2.78,2.78,0,0,0,2.77-2.77l0-4.25h3.35a3.61,3.61,0,0,0,3.53-5.19ZM199,1889.21h-2.54v6.32a.71.71,0,0,1-.7.7h-1a.7.7,0,0,1-.7-.7l0-2.52v-3.8h-5.42a1.55,1.55,0,0,1-1.61-2.33l7.6-18.63c.1-.23.33-.75.54-1.18.14.3.31.68.51,1.16l5.37,12.61-2.06,5.27A3.93,3.93,0,0,0,199,1889.21Zm4.49-.69a1.52,1.52,0,0,1-2.53,0,1.85,1.85,0,0,1,0-1.65l1.26-3.23,1.29,3.24A1.86,1.86,0,0,1,203.48,1888.52Zm13.86,0a1.83,1.83,0,0,1-1.57.65h-5.42l0,6.32a.7.7,0,0,1-.7.7h-1a.71.71,0,0,1-.7-.7v-6.32h-2.53a4,4,0,0,0,0-3.1l-2.12-5.28,5.43-12.6c.2-.48.37-.86.51-1.16.21.43.43.94.53,1.16l7.61,18.63A1.85,1.85,0,0,1,217.34,1888.56Z" transform="translate(-160.27 -1841.9)"/><path class="cls-8" d="M223.38,1900.32a28.87,28.87,0,0,1-21.18,9.22c-.89,0-1.76,0-2.62-.12a31.4,31.4,0,0,1-18.67-.8,31.25,31.25,0,0,0,55.76-23.15A31.33,31.33,0,0,1,223.38,1900.32Z" transform="translate(-160.27 -1841.9)"/><path class="cls-9" d="M207.07,1852.12a28.94,28.94,0,0,1,21.1,15.76,31.14,31.14,0,0,1,8.5,17.59,31.26,31.26,0,0,0-47.36-37.41c.73,0,1.47-.08,2.22-.08A31.13,31.13,0,0,1,207.07,1852.12Z" transform="translate(-160.27 -1841.9)"/><path class="cls-10" d="M231.13,1880.62a28.87,28.87,0,0,1-7.75,19.7,31.33,31.33,0,0,0,13.29-14.85,31.14,31.14,0,0,0-8.5-17.59A28.82,28.82,0,0,1,231.13,1880.62Z" transform="translate(-160.27 -1841.9)"/><path class="cls-11" d="M174.45,1888.81a28.92,28.92,0,0,1,3.27-23.59,31.26,31.26,0,0,1,11.59-17.16,31.25,31.25,0,0,0-8.4,60.56,31.07,31.07,0,0,1-6.47-19C174.44,1889.32,174.44,1889.06,174.45,1888.81Z" transform="translate(-160.27 -1841.9)"/><path class="cls-12" d="M199.58,1909.42a28.93,28.93,0,0,1-25.13-20.61c0,.25,0,.51,0,.78a31.07,31.07,0,0,0,6.47,19,31.4,31.4,0,0,0,18.67.8Z" transform="translate(-160.27 -1841.9)"/><path class="cls-13" d="M177.72,1865.22a29,29,0,0,1,29.35-13.1,31.13,31.13,0,0,0-15.54-4.14c-.75,0-1.49,0-2.22.08A31.26,31.26,0,0,0,177.72,1865.22Z" transform="translate(-160.27 -1841.9)"/></svg>