<svg id="Camada_1" data-name="Camada 1" xmlns="http://www.w3.org/2000/svg" xmlns:xlink="http://www.w3.org/1999/xlink" viewBox="0 0 774.91 86.77"><defs><style>.cls-1{fill:#fff;}.cls-2{fill:url(#linear-gradient);}.cls-3{fill:url(#linear-gradient-2);}.cls-4{fill:#876b26;}.cls-5{fill:url(#linear-gradient-3);}.cls-6{fill:#007d88;}.cls-7{fill:#027042;}.cls-8{fill:url(#linear-gradient-4);}.cls-9{fill:url(#linear-gradient-5);}.cls-10{fill:#926b17;}.cls-11{fill:url(#linear-gradient-6);}.cls-12{fill:#007e8b;}.cls-13{fill:#00713c;}</style><linearGradient id="linear-gradient" x1="582.69" y1="1570.28" x2="638.78" y2="1570.28" gradientUnits="userSpaceOnUse"><stop offset="0" stop-color="#0ea7cc"/><stop offset="0.41" stop-color="#0da5c9"/><stop offset="0.66" stop-color="#0a9dc1"/><stop offset="0.86" stop-color="#068fb3"/><stop offset="1" stop-color="#0181a4"/></linearGradient><linearGradient id="linear-gradient-2" x1="591.1" y1="1530.77" x2="641.05" y2="1530.77" gradientUnits="userSpaceOnUse"><stop offset="0" stop-color="#fda101"/><stop offset="0.35" stop-color="#faa001"/><stop offset="0.56" stop-color="#f29c01"/><stop offset="0.73" stop-color="#e49401"/><stop offset="0.89" stop-color="#d08a01"/><stop offset="1" stop-color="#bb8001"/></linearGradient><linearGradient id="linear-gradient-3" x1="562.03" y1="1545.44" x2="591.1" y2="1545.44" gradientUnits="userSpaceOnUse"><stop offset="0" stop-color="#09af41"/><stop offset="0.39" stop-color="#09ac40"/><stop offset="0.62" stop-color="#08a43f"/><stop offset="0.82" stop-color="#07963c"/><stop offset="0.99" stop-color="#068237"/><stop offset="1" stop-color="#068037"/></linearGradient><linearGradient id="linear-gradient-4" x1="41.59" y1="1570.22" x2="97.63" y2="1570.22" gradientUnits="userSpaceOnUse"><stop offset="0" stop-color="#00aad0"/><stop offset="0.41" stop-color="#00a8cd"/><stop offset="0.66" stop-color="#009fc5"/><stop offset="0.86" stop-color="#0091b7"/><stop offset="1" stop-color="#0083a8"/></linearGradient><linearGradient id="linear-gradient-5" x1="49.99" y1="1530.75" x2="99.89" y2="1530.75" gradientUnits="userSpaceOnUse"><stop offset="0" stop-color="#ffa400"/><stop offset="0.39" stop-color="#fca200"/><stop offset="0.62" stop-color="#f49c00"/><stop offset="0.82" stop-color="#e69100"/><stop offset="0.99" stop-color="#d28100"/><stop offset="1" stop-color="#d08000"/></linearGradient><linearGradient id="linear-gradient-6" x1="20.96" y1="1545.41" x2="49.99" y2="1545.41" gradientUnits="userSpaceOnUse"><stop offset="0" stop-color="#00b231"/><stop offset="0.39" stop-color="#00af31"/><stop offset="0.62" stop-color="#00a730"/><stop offset="0.81" stop-color="#00992f"/><stop offset="0.98" stop-color="#00852d"/><stop offset="1" stop-color="#00822d"/></linearGradient></defs><path class="cls-1" d="M650,1582c0,1,.54,1.16,1.73,1.5,1.38.38,2.22.92,2.22,2.36,0,1.69-1,2.31-2.9,2.31a10.19,10.19,0,0,1-2.14-.21l.11-.9a15.24,15.24,0,0,0,2,.16c1,0,1.77-.23,1.77-1.32s-.71-1.17-1.64-1.45c-1.44-.44-2.28-.83-2.28-2.3,0-1.65,1-2.19,2.79-2.19a10.93,10.93,0,0,1,2.12.21l-.1.88a10.78,10.78,0,0,0-1.66-.15C651.1,1580.87,650,1581,650,1582Z" transform="translate(-20.96 -1508.96)"/><path class="cls-1" d="M655.57,1580h1.13v8h-1.13Z" transform="translate(-20.96 -1508.96)"/><path class="cls-1" d="M659.41,1582c0,1,.54,1.16,1.73,1.5,1.38.38,2.22.92,2.22,2.36,0,1.69-1,2.31-2.9,2.31a10.19,10.19,0,0,1-2.14-.21l.11-.9a15.24,15.24,0,0,0,2,.16c1,0,1.77-.23,1.77-1.32s-.71-1.17-1.64-1.45c-1.44-.44-2.28-.83-2.28-2.3,0-1.65,1-2.19,2.79-2.19a10.93,10.93,0,0,1,2.12.21l-.1.88a10.78,10.78,0,0,0-1.66-.15C660.49,1580.87,659.41,1581,659.41,1582Z" transform="translate(-20.96 -1508.96)"/><path class="cls-1" d="M669.91,1580.92h-2.13v7.14h-1.13v-7.14h-2.13V1580h5.39Z" transform="translate(-20.96 -1508.96)"/><path class="cls-1" d="M676,1580.91h-2.08c-1.31,0-1.54.25-1.54,1.4v1.2h3.46v.9H672.4v1.35c0,1.16.23,1.4,1.54,1.4H676v.87c-.62,0-1.45,0-2,0-1.4,0-2.7-.08-2.7-1.83v-4.42c0-1.76,1.3-1.84,2.7-1.84.53,0,1.41,0,2,.06Z" transform="translate(-20.96 -1508.96)"/><path class="cls-1" d="M681.68,1585.56l2.13-4.92c.21-.47.52-.71.85-.71.49,0,.71.25.74.8l.38,7.33h-1.1l-.32-6.48-2,4.88a.66.66,0,0,1-1.28,0l-2-4.87-.33,6.47h-1l.39-7.34c0-.55.25-.79.73-.79.33,0,.63.22.84.7Z" transform="translate(-20.96 -1508.96)"/><path class="cls-1" d="M687.2,1588.06l2.62-7.36a1,1,0,0,1,.94-.77,1,1,0,0,1,.93.77l2.59,7.36h-1.19l-.76-2.23h-3.22l-.76,2.23ZM692,1585l-1.32-3.88L689.4,1585Z" transform="translate(-20.96 -1508.96)"/><path class="cls-1" d="M698.82,1580.12a16.75,16.75,0,0,1,2.5-.19c3,0,3.51,1.37,3.51,4.11s-.53,4.1-3.51,4.1a15.44,15.44,0,0,1-2.5-.2Zm1.12.82v6.19a8.25,8.25,0,0,0,1.15.09c2.59,0,2.61-1.38,2.61-3.18s0-3.19-2.61-3.19A8.25,8.25,0,0,0,699.94,1580.94Z" transform="translate(-20.96 -1508.96)"/><path class="cls-1" d="M711.35,1580.91h-2.08c-1.32,0-1.54.25-1.54,1.4v1.2h3.46v.9h-3.46v1.35c0,1.16.22,1.4,1.54,1.4h2.08v.87c-.62,0-1.46,0-2.05,0-1.39,0-2.69-.08-2.69-1.83v-4.42c0-1.76,1.3-1.84,2.69-1.84.54,0,1.42,0,2.05.06Z" transform="translate(-20.96 -1508.96)"/><path class="cls-1" d="M721.22,1587.94a9.2,9.2,0,0,1-1.92.2c-2.62,0-3.26-1.25-3.26-4.1s.64-4.11,3.26-4.11a8.64,8.64,0,0,1,1.92.2l-.1.87a10.32,10.32,0,0,0-1.49-.13c-2.32,0-2.44,1.22-2.44,3.17s.14,3.16,2.44,3.16a9.07,9.07,0,0,0,1.49-.13Z" transform="translate(-20.96 -1508.96)"/><path class="cls-1" d="M722.34,1584c0-2.92.7-4.11,3.15-4.11s3.15,1.19,3.15,4.11-.7,4.1-3.15,4.1S722.34,1587,722.34,1584Zm5.15,0c0-1.88-.06-3.18-2-3.18s-2,1.3-2,3.18.06,3.17,2,3.17S727.49,1585.9,727.49,1584Z" transform="translate(-20.96 -1508.96)"/><path class="cls-1" d="M730.25,1584c0-2.92.7-4.11,3.15-4.11s3.15,1.19,3.15,4.11-.7,4.1-3.15,4.1S730.25,1587,730.25,1584Zm5.16,0c0-1.88-.07-3.18-2-3.18s-2,1.3-2,3.18.06,3.17,2,3.17S735.41,1585.9,735.41,1584Z" transform="translate(-20.96 -1508.96)"/><path class="cls-1" d="M739.49,1588.06h-1.12v-7.93a15.48,15.48,0,0,1,2.51-.2c1.74,0,3.16.35,3.16,2.46s-1.27,2.52-3.07,2.52c-.42,0-1.09,0-1.48-.05Zm0-4.11a11.49,11.49,0,0,0,1.39.06c1.3,0,2-.32,2-1.62,0-1.12-.52-1.57-2-1.57a10.54,10.54,0,0,0-1.43.1Z" transform="translate(-20.96 -1508.96)"/><path class="cls-1" d="M750.31,1580.91h-2.08c-1.32,0-1.54.25-1.54,1.4v1.2h3.46v.9h-3.46v1.35c0,1.16.22,1.4,1.54,1.4h2.08v.87c-.62,0-1.46,0-2,0-1.39,0-2.69-.08-2.69-1.83v-4.42c0-1.76,1.3-1.84,2.69-1.84.54,0,1.42,0,2,.06Z" transform="translate(-20.96 -1508.96)"/><path class="cls-1" d="M752,1588.06v-7.93a15.57,15.57,0,0,1,2.51-.2c1.72,0,3.16.33,3.16,2.43a2.11,2.11,0,0,1-1.84,2.38l1.93,3.32h-1.31l-1.79-3.22h-.06c-.43,0-1.09,0-1.48,0v3.27Zm1.12-4.18a11.49,11.49,0,0,0,1.39.06c1.29,0,2-.32,2-1.58,0-1.11-.53-1.55-2-1.55a10.65,10.65,0,0,0-1.43.1Z" transform="translate(-20.96 -1508.96)"/><path class="cls-1" d="M759,1588.06l2.62-7.36a1,1,0,0,1,.94-.77,1,1,0,0,1,.93.77l2.59,7.36h-1.19l-.76-2.23h-3.22l-.76,2.23Zm4.83-3.1-1.32-3.88-1.31,3.88Z" transform="translate(-20.96 -1508.96)"/><path class="cls-1" d="M771.25,1580.92h-2.12v7.14H768v-7.14h-2.13V1580h5.38Z" transform="translate(-20.96 -1508.96)"/><path class="cls-1" d="M772.7,1580h1.13v8H772.7Z" transform="translate(-20.96 -1508.96)"/><path class="cls-1" d="M779.52,1587.37c-.18.54-.46.77-.88.77s-.69-.23-.88-.77l-2.49-7.36h1.2l2.19,6.79,2.21-6.79H782Z" transform="translate(-20.96 -1508.96)"/><path class="cls-1" d="M781.69,1588.06l2.62-7.36a1,1,0,0,1,1.87,0l2.59,7.36h-1.2l-.76-2.23h-3.22l-.75,2.23Zm4.83-3.1-1.32-3.88-1.31,3.88Z" transform="translate(-20.96 -1508.96)"/><path class="cls-1" d="M790.89,1582c0,1,.54,1.16,1.73,1.5,1.38.38,2.22.92,2.22,2.36,0,1.69-1,2.31-2.9,2.31a10.19,10.19,0,0,1-2.14-.21l.11-.9a15.24,15.24,0,0,0,2,.16c1,0,1.77-.23,1.77-1.32s-.71-1.17-1.64-1.45c-1.44-.44-2.28-.83-2.28-2.3,0-1.65,1-2.19,2.79-2.19a10.93,10.93,0,0,1,2.12.21l-.1.88a10.78,10.78,0,0,0-1.66-.15C792,1580.87,790.89,1581,790.89,1582Z" transform="translate(-20.96 -1508.96)"/><path class="cls-1" d="M649,1568.23l11.74-34.37c1.32-3.87,3.45-5.51,6.49-5.51s5.16,1.75,6.43,5.51l11.54,34.37h-8.5l-3-9.78H660.2l-2.94,9.78Zm22.8-15.93-4.91-16-4.83,16Z" transform="translate(-20.96 -1508.96)"/><path class="cls-1" d="M689.72,1528.76h8v39.47h-8Z" transform="translate(-20.96 -1508.96)"/><path class="cls-1" d="M729.42,1568.06c-2.8.12-7.62.27-10.1.27-7.13,0-13.7-.39-13.7-9.64v-29.93h8v27.69c0,4.39.79,5.37,5.52,5.37h10.25Z" transform="translate(-20.96 -1508.96)"/><path class="cls-1" d="M733,1548.49c0-14.29,3.5-20.14,15.78-20.14s15.77,5.85,15.77,20.14-3.5,20.14-15.77,20.14S733,1562.79,733,1548.49Zm23.42,0c0-8-.17-13.55-7.64-13.55s-7.65,5.51-7.65,13.55.17,13.54,7.65,13.54S756.39,1556.54,756.39,1548.49Z" transform="translate(-20.96 -1508.96)"/><path class="cls-1" d="M777.81,1539c0,4,2.71,4.5,7.25,5.72,7.56,2,10.81,5,10.81,12.11,0,8.71-5.3,11.84-14.65,11.84a52.92,52.92,0,0,1-11.4-1.22l.78-6.31a83.33,83.33,0,0,0,10.33.88c4.15,0,6.69-.94,6.69-4.9,0-3.68-2.9-4.51-6.55-5.62-7.08-2.17-11.25-4.36-11.25-11.81,0-8.55,5-11.3,14.13-11.3a56.61,56.61,0,0,1,11.29,1.24l-.72,6.15a57.06,57.06,0,0,0-8.69-.87C782.64,1534.87,777.81,1535,777.81,1539Z" transform="translate(-20.96 -1508.96)"/><path class="cls-1" d="M621.11,1553.2l-7.62-18.68c-.76-1.73-1.32-3-2.46-3s-1.71,1.31-2.4,3L604,1545.29l-4.59-10.77c-.69-1.66-1.24-3-2.4-3s-1.7,1.24-2.46,3l-7.63,18.68a3.6,3.6,0,0,0,3.54,5.17h3.35l0,4.26a2.78,2.78,0,0,0,2.77,2.77h1a2.78,2.78,0,0,0,2.77-2.77v-2.09a1.7,1.7,0,0,0,0-.22v-1.95h7.41v1.95a1.7,1.7,0,0,0,0,.22v2.09a2.78,2.78,0,0,0,2.77,2.77h1a2.78,2.78,0,0,0,2.77-2.77l0-4.26h3.35a3.6,3.6,0,0,0,3.53-5.19Zm-20.33,3.12h-2.54v6.33a.7.7,0,0,1-.7.7h-1a.7.7,0,0,1-.7-.7l0-2.53v-3.8h-5.42a1.56,1.56,0,0,1-1.62-2.33l7.61-18.65c.1-.23.33-.74.54-1.18.14.3.32.68.52,1.16l5.36,12.62-2.05,5.28A4,4,0,0,0,600.78,1556.32Zm4.5-.69a1.65,1.65,0,0,1-1.26.67,1.69,1.69,0,0,1-1.27-.67,1.84,1.84,0,0,1,0-1.66l1.26-3.23,1.29,3.24A1.82,1.82,0,0,1,605.28,1555.63Zm13.87,0a1.82,1.82,0,0,1-1.57.65h-5.42l0,6.33a.7.7,0,0,1-.7.7h-1a.7.7,0,0,1-.7-.7v-6.33h-2.54a4,4,0,0,0,0-3.1l-2.12-5.28,5.44-12.62c.19-.48.36-.86.51-1.16.21.43.43.94.53,1.16l7.61,18.65A1.82,1.82,0,0,1,619.15,1555.67Z" transform="translate(-20.96 -1508.96)"/><path class="cls-2" d="M625.2,1567.44a28.89,28.89,0,0,1-21.2,9.24c-.89,0-1.76,0-2.63-.12a31.34,31.34,0,0,1-18.68-.81,31.29,31.29,0,0,0,55.82-23.17A31.34,31.34,0,0,1,625.2,1567.44Z" transform="translate(-20.96 -1508.96)"/><path class="cls-3" d="M608.87,1519.19A29,29,0,0,1,630,1535a31.14,31.14,0,0,1,8.51,17.61,31.29,31.29,0,0,0-47.41-37.45c.73-.05,1.47-.08,2.22-.08A31.14,31.14,0,0,1,608.87,1519.19Z" transform="translate(-20.96 -1508.96)"/><path class="cls-4" d="M633,1547.73a28.85,28.85,0,0,1-7.76,19.71,31.34,31.34,0,0,0,13.31-14.86A31.14,31.14,0,0,0,630,1535,28.88,28.88,0,0,1,633,1547.73Z" transform="translate(-20.96 -1508.96)"/><path class="cls-5" d="M576.22,1555.92a29,29,0,0,1,3.27-23.61,31.31,31.31,0,0,1,11.61-17.18,31.28,31.28,0,0,0-8.41,60.62,31.12,31.12,0,0,1-6.48-19C576.21,1556.44,576.21,1556.18,576.22,1555.92Z" transform="translate(-20.96 -1508.96)"/><path class="cls-6" d="M601.37,1576.56a29,29,0,0,1-25.15-20.64c0,.26,0,.52,0,.78a31.12,31.12,0,0,0,6.48,19,31.34,31.34,0,0,0,18.68.81Z" transform="translate(-20.96 -1508.96)"/><path class="cls-7" d="M579.49,1532.31a29,29,0,0,1,29.38-13.12,31.14,31.14,0,0,0-15.55-4.14c-.75,0-1.49,0-2.22.08A31.31,31.31,0,0,0,579.49,1532.31Z" transform="translate(-20.96 -1508.96)"/><path class="cls-1" d="M135.06,1535.2h-9.7v33h-8v-33h-9.64v-6.46h27.38Z" transform="translate(-20.96 -1508.96)"/><path class="cls-1" d="M147.77,1568.17h-8v-38.76a75.54,75.54,0,0,1,12.82-1.08c8.72,0,15.84,1.73,15.84,12.39,0,7-2.93,10.25-7.56,11.66l9,15.79h-9.2l-8.09-14.88c-1.61,0-3.44-.08-4.83-.17Zm0-21.41a41.83,41.83,0,0,0,4.88.2c5,0,7.88-1.27,7.88-6.28,0-4.36-2-6.11-7.71-6.11a39.54,39.54,0,0,0-5,.34Z" transform="translate(-20.96 -1508.96)"/><path class="cls-1" d="M172.1,1568.17l11.72-34.34c1.32-3.86,3.46-5.5,6.49-5.5s5.16,1.74,6.43,5.5l11.52,34.34h-8.49l-3-9.77H183.3l-2.94,9.77Zm22.77-15.91-4.9-15.94-4.83,15.94Z" transform="translate(-20.96 -1508.96)"/><path class="cls-1" d="M237,1557.66v-28.92h7.19v33.82c0,4.2-1.76,6-4.84,6s-4.77-1.27-6.8-5.19l-12.51-24.23v29h-7.19v-33.85c0-4.19,1.81-6,4.84-6,2.74,0,4.81,1.37,6.79,5.18Z" transform="translate(-20.96 -1508.96)"/><path class="cls-1" d="M258.6,1538.92c0,4,2.71,4.51,7.24,5.72,7.55,2,10.8,5,10.8,12.1,0,8.7-5.3,11.83-14.64,11.83a52.89,52.89,0,0,1-11.39-1.22l.78-6.31a83.49,83.49,0,0,0,10.32.88c4.15,0,6.69-.93,6.69-4.89,0-3.67-2.89-4.5-6.55-5.62-7.07-2.16-11.24-4.35-11.24-11.79,0-8.55,5-11.29,14.12-11.29a56.5,56.5,0,0,1,11.28,1.24l-.72,6.14a57,57,0,0,0-8.69-.86C263.42,1534.85,258.6,1535,258.6,1538.92Z" transform="translate(-20.96 -1508.96)"/><path class="cls-1" d="M290.84,1568.17h-8v-38.76a75.64,75.64,0,0,1,12.82-1.08c8.79,0,15.84,1.74,15.84,12.52,0,10.48-6.36,12.75-15.41,12.75-1.73,0-3.74-.09-5.27-.19Zm0-21.09a39.76,39.76,0,0,0,4.88.22c5,0,7.87-1.3,7.87-6.45,0-4.48-1.88-6.26-7.7-6.26a39.42,39.42,0,0,0-5.05.34Z" transform="translate(-20.96 -1508.96)"/><path class="cls-1" d="M316,1548.45c0-14.28,3.51-20.12,15.78-20.12s15.75,5.84,15.75,20.12-3.5,20.12-15.75,20.12S316,1562.73,316,1548.45Zm23.41,0c0-8-.17-13.54-7.63-13.54s-7.65,5.5-7.65,13.54.17,13.52,7.65,13.52S339.37,1556.49,339.37,1548.45Z" transform="translate(-20.96 -1508.96)"/><path class="cls-1" d="M379.85,1567.39a41.33,41.33,0,0,1-10.3,1.18c-13.1,0-16.33-6.12-16.33-20.12s3.25-20.12,16.33-20.12a41.09,41.09,0,0,1,10.3,1.2l-.71,6.18A50.73,50.73,0,0,0,371,1535c-9.48,0-9.65,5.67-9.65,13.42s.14,13.42,9.65,13.42a49.38,49.38,0,0,0,8.11-.68Z" transform="translate(-20.96 -1508.96)"/><path class="cls-1" d="M393.52,1568.17h-8v-38.76a75.76,75.76,0,0,1,12.83-1.08c8.71,0,15.83,1.73,15.83,12.39,0,7-2.92,10.25-7.56,11.66l9,15.79h-9.2l-8.09-14.88c-1.61,0-3.44-.08-4.82-.17Zm0-21.41a41.57,41.57,0,0,0,4.87.2c5,0,7.89-1.27,7.89-6.28,0-4.36-2-6.11-7.72-6.11a39.27,39.27,0,0,0-5,.34Z" transform="translate(-20.96 -1508.96)"/><path class="cls-1" d="M445.46,1535.13H434.58c-4.73,0-5.54,1-5.54,5.33v4.47h15.67v6.36H429v5.11c0,4.37.81,5.37,5.54,5.37h10.88V1568c-2.78.14-8.07.31-10.71.31-7.13,0-13.69-.39-13.69-9.63v-20.39c0-9.24,6.56-9.61,13.69-9.61,2.85,0,8,.15,10.71.28Z" transform="translate(-20.96 -1508.96)"/><path class="cls-1" d="M452.78,1529.45a73.17,73.17,0,0,1,12.84-1.12c14.77,0,17.4,6.72,17.4,20.12s-2.63,20.12-17.4,20.12a75.33,75.33,0,0,1-12.84-1.08Zm8,5.7v26.6a25.4,25.4,0,0,0,3.74.29c10.39,0,10.47-5.89,10.47-13.59s-.08-13.57-10.47-13.57A28.86,28.86,0,0,0,460.78,1535.15Z" transform="translate(-20.96 -1508.96)"/><path class="cls-1" d="M117.43,1595.35a16.61,16.61,0,0,1-3.62.38c-4.93,0-6.14-2.38-6.14-7.83s1.21-7.84,6.14-7.84a17.4,17.4,0,0,1,3.62.37l-.2,1.67a18.12,18.12,0,0,0-2.8-.24c-4.38,0-4.6,2.32-4.6,6s.26,6,4.6,6a17.28,17.28,0,0,0,2.81-.24Z" transform="translate(-20.96 -1508.96)"/><path class="cls-1" d="M119.72,1587.9c0-5.57,1.31-7.84,5.93-7.84s5.92,2.27,5.92,7.84-1.3,7.83-5.92,7.83S119.72,1593.46,119.72,1587.9Zm9.7,0c0-3.58-.13-6.07-3.77-6.07s-3.77,2.49-3.77,6.07.12,6.06,3.77,6.06S129.42,1591.46,129.42,1587.9Z" transform="translate(-20.96 -1508.96)"/><path class="cls-1" d="M134.6,1587.9c0-5.57,1.31-7.84,5.93-7.84s5.92,2.27,5.92,7.84-1.31,7.83-5.92,7.83S134.6,1593.46,134.6,1587.9Zm9.7,0c0-3.58-.13-6.07-3.77-6.07s-3.77,2.49-3.77,6.07.11,6.06,3.77,6.06S144.3,1591.46,144.3,1587.9Z" transform="translate(-20.96 -1508.96)"/><path class="cls-1" d="M152,1595.58h-2.12v-15.14a29.87,29.87,0,0,1,4.72-.38c3.29,0,6,.66,6,4.7s-2.39,4.8-5.78,4.8c-.8,0-2.06-.06-2.78-.09Zm0-7.85a22.25,22.25,0,0,0,2.6.13c2.47,0,3.85-.62,3.85-3.1,0-2.14-1-3-3.77-3a19.87,19.87,0,0,0-2.68.18Z" transform="translate(-20.96 -1508.96)"/><path class="cls-1" d="M172.15,1581.93h-3.92c-2.47,0-2.89.48-2.89,2.68v2.29h6.51v1.71h-6.51v2.58c0,2.21.42,2.67,2.89,2.67h3.92v1.66c-1.16.06-2.74.09-3.85.09-2.63,0-5.07-.13-5.07-3.5v-8.43c0-3.36,2.44-3.5,5.07-3.5,1,0,2.67,0,3.85.1Z" transform="translate(-20.96 -1508.96)"/><path class="cls-1" d="M175.39,1595.58v-15.14a29.87,29.87,0,0,1,4.72-.38c3.26,0,5.95.63,5.95,4.64,0,2.91-1.35,4.11-3.45,4.53l3.63,6.35h-2.47l-3.37-6.15h-.11c-.8,0-2.06-.06-2.78-.1v6.25Zm2.12-8a22.19,22.19,0,0,0,2.6.12c2.44,0,3.85-.61,3.85-3,0-2.12-1-2.94-3.77-2.94a21.65,21.65,0,0,0-2.68.18Z" transform="translate(-20.96 -1508.96)"/><path class="cls-1" d="M188.06,1595.58l4.94-14a1.79,1.79,0,0,1,3.53,0l4.87,14h-2.25l-1.43-4.26h-6.06l-1.42,4.26Zm9.11-5.92-2.49-7.41-2.47,7.41Z" transform="translate(-20.96 -1508.96)"/><path class="cls-1" d="M212.73,1582h-4v13.63H206.6V1582h-4v-1.73h10.14Z" transform="translate(-20.96 -1508.96)"/><path class="cls-1" d="M215.18,1580.22h2.12v15.36h-2.12Z" transform="translate(-20.96 -1508.96)"/><path class="cls-1" d="M227.79,1594.26c-.35,1-.87,1.47-1.66,1.47s-1.31-.42-1.66-1.47l-4.68-14H222l4.12,13,4.16-13h2.15Z" transform="translate(-20.96 -1508.96)"/><path class="cls-1" d="M233.71,1595.58l4.94-14a1.79,1.79,0,0,1,3.53,0l4.87,14H244.8l-1.43-4.26h-6.06l-1.42,4.26Zm9.1-5.92-2.48-7.41-2.47,7.41Z" transform="translate(-20.96 -1508.96)"/><path class="cls-1" d="M254.38,1595.58l4.94-14a1.79,1.79,0,0,1,3.53,0l4.87,14h-2.25l-1.43-4.26H258l-1.42,4.26Zm9.1-5.92-2.48-7.41-2.47,7.41Z" transform="translate(-20.96 -1508.96)"/><path class="cls-1" d="M270.24,1580.22h2.12v15.36h-2.12Z" transform="translate(-20.96 -1508.96)"/><path class="cls-1" d="M284.75,1595.54c-1.17,0-2.57.07-3.59.07-2.62,0-5.07-.13-5.07-3.5v-11.89h2.12v11c0,2.2.41,2.67,2.89,2.67h3.65Z" transform="translate(-20.96 -1508.96)"/><path class="cls-1" d="M286.58,1587.9c0-5.57,1.31-7.84,5.93-7.84s5.92,2.27,5.92,7.84-1.31,7.83-5.92,7.83S286.58,1593.46,286.58,1587.9Zm9.7,0c0-3.58-.13-6.07-3.77-6.07s-3.77,2.49-3.77,6.07.12,6.06,3.77,6.06S296.28,1591.46,296.28,1587.9Z" transform="translate(-20.96 -1508.96)"/><path class="cls-1" d="M303.21,1584c0,1.94,1,2.22,3.27,2.86,2.6.73,4.18,1.76,4.18,4.51,0,3.23-2,4.41-5.46,4.41a18.84,18.84,0,0,1-4-.39l.2-1.73a28.56,28.56,0,0,0,3.77.3c1.95,0,3.32-.43,3.32-2.51,0-1.82-1.32-2.24-3.08-2.78-2.71-.82-4.29-1.57-4.29-4.38,0-3.15,1.88-4.18,5.25-4.18a22,22,0,0,1,4,.39l-.2,1.68a21.52,21.52,0,0,0-3.11-.28C305.25,1581.85,303.21,1582,303.21,1584Z" transform="translate(-20.96 -1508.96)"/><path class="cls-1" d="M80,1553.16l-7.62-18.67c-.75-1.73-1.31-3-2.45-3s-1.71,1.32-2.4,3l-4.64,10.78-4.58-10.77c-.69-1.65-1.24-3-2.4-3s-1.7,1.24-2.46,3l-7.62,18.66a3.6,3.6,0,0,0,3.53,5.17H52.7v4.25a2.77,2.77,0,0,0,2.77,2.77h1a2.77,2.77,0,0,0,2.77-2.77v-2.08a1.62,1.62,0,0,0,0-.22v-2h7.4v2a1.62,1.62,0,0,0,0,.22v2.08a2.77,2.77,0,0,0,2.77,2.77h1a2.77,2.77,0,0,0,2.76-2.77l0-4.25h3.35a3.59,3.59,0,0,0,3.53-5.18Zm-20.31,3.12H57.13v6.31a.7.7,0,0,1-.7.7h-1a.7.7,0,0,1-.7-.7l0-2.52v-3.79H49.34a1.81,1.81,0,0,1-1.56-.66,1.78,1.78,0,0,1-.05-1.68l7.6-18.62c.1-.24.33-.75.54-1.18.15.29.32.68.52,1.15l5.36,12.61-2,5.27A4,4,0,0,0,59.67,1556.28Zm4.49-.7a1.52,1.52,0,0,1-2.52,0,1.82,1.82,0,0,1,0-1.65l1.26-3.23,1.29,3.23A1.82,1.82,0,0,1,64.16,1555.58Zm13.86,0a1.83,1.83,0,0,1-1.57.66H71v6.31a.7.7,0,0,1-.7.7h-1a.7.7,0,0,1-.7-.7v-6.31H66.13a4,4,0,0,0,0-3.11L64,1547.9l5.43-12.61c.2-.47.37-.86.51-1.15.22.43.44.93.53,1.15l7.61,18.64A1.8,1.8,0,0,1,78,1555.62Z" transform="translate(-20.96 -1508.96)"/><path class="cls-8" d="M84.06,1567.38a28.82,28.82,0,0,1-21.18,9.23c-.88,0-1.76,0-2.62-.12a31.31,31.31,0,0,1-18.67-.81,31.26,31.26,0,0,0,56-19,32.74,32.74,0,0,0-.27-4.11A31.32,31.32,0,0,1,84.06,1567.38Z" transform="translate(-20.96 -1508.96)"/><path class="cls-9" d="M67.75,1519.18A28.94,28.94,0,0,1,88.85,1535a31.12,31.12,0,0,1,8.51,17.59A31.26,31.26,0,0,0,50,1515.13c.74-.05,1.47-.08,2.22-.08A31.09,31.09,0,0,1,67.75,1519.18Z" transform="translate(-20.96 -1508.96)"/><path class="cls-10" d="M91.81,1547.69a28.78,28.78,0,0,1-7.75,19.69,31.32,31.32,0,0,0,13.3-14.84A31.12,31.12,0,0,0,88.85,1535,28.63,28.63,0,0,1,91.81,1547.69Z" transform="translate(-20.96 -1508.96)"/><path class="cls-11" d="M35.13,1555.87a29,29,0,0,1-1.17-8.18,28.74,28.74,0,0,1,4.44-15.41A31.25,31.25,0,0,1,50,1515.13a31.24,31.24,0,0,0-8.4,60.55,31.13,31.13,0,0,1-6.47-19C35.12,1556.39,35.13,1556.13,35.13,1555.87Z" transform="translate(-20.96 -1508.96)"/><path class="cls-12" d="M60.26,1576.49a29,29,0,0,1-25.13-20.62c0,.26,0,.52,0,.78a31.13,31.13,0,0,0,6.47,19,31.31,31.31,0,0,0,18.67.81Z" transform="translate(-20.96 -1508.96)"/><path class="cls-13" d="M38.4,1532.28a29,29,0,0,1,29.35-13.1,31.09,31.09,0,0,0-15.54-4.13c-.75,0-1.48,0-2.22.08A31.25,31.25,0,0,0,38.4,1532.28Z" transform="translate(-20.96 -1508.96)"/></svg>