<svg id="Layer_1" data-name="Layer 1" xmlns="http://www.w3.org/2000/svg" xmlns:xlink="http://www.w3.org/1999/xlink" viewBox="0 0 289.45 86.77"><defs><style>.cls-1{fill:#165c7d;}.cls-2{fill:url(#linear-gradient);}.cls-3{fill:url(#linear-gradient-2);}.cls-4{fill:#886b25;}.cls-5{fill:url(#linear-gradient-3);}.cls-6{fill:#007d8a;}.cls-7{fill:#007041;}</style><linearGradient id="linear-gradient" x1="40.55" y1="81.17" x2="96.59" y2="81.17" gradientUnits="userSpaceOnUse"><stop offset="0" stop-color="#00a9ce"/><stop offset="0.41" stop-color="#00a7cb"/><stop offset="0.66" stop-color="#009fc3"/><stop offset="0.86" stop-color="#0091b5"/><stop offset="1" stop-color="#0083a6"/></linearGradient><linearGradient id="linear-gradient-2" x1="48.95" y1="41.71" x2="98.85" y2="41.71" gradientUnits="userSpaceOnUse"><stop offset="0" stop-color="#ffa300"/><stop offset="0.35" stop-color="#fca200"/><stop offset="0.56" stop-color="#f49d00"/><stop offset="0.73" stop-color="#e69600"/><stop offset="0.89" stop-color="#d28b00"/><stop offset="1" stop-color="#bd8000"/></linearGradient><linearGradient id="linear-gradient-3" x1="19.92" y1="56.36" x2="48.95" y2="56.36" gradientUnits="userSpaceOnUse"><stop offset="0" stop-color="#00b140"/><stop offset="0.39" stop-color="#00ae40"/><stop offset="0.62" stop-color="#01a63e"/><stop offset="0.82" stop-color="#02983b"/><stop offset="0.99" stop-color="#038437"/><stop offset="1" stop-color="#038237"/></linearGradient></defs><path class="cls-1" d="M130.8,46.09H119.92c-4.72,0-5.54,1-5.54,5.33v4.47h15.67v6.36H114.38v5.11c0,4.37.82,5.37,5.54,5.37H130.8v6.19c-2.78.14-8.07.3-10.71.3-7.13,0-13.69-.39-13.69-9.62V49.2c0-9.23,6.56-9.61,13.69-9.61,2.86,0,8,.16,10.71.29Z" transform="translate(-19.92 -19.92)"/><path class="cls-1" d="M158.14,74.2c-1.24,3.81-3.2,5.33-6.08,5.33s-4.81-1.41-6.09-5.33l-11.3-34.51h8.52l8.94,30.43,9-30.43h8.22Z" transform="translate(-19.92 -19.92)"/><path class="cls-1" d="M172.83,59.41c0-14.28,3.5-20.12,15.77-20.12s15.76,5.84,15.76,20.12-3.51,20.12-15.76,20.12S172.83,73.69,172.83,59.41Zm23.4,0c0-8-.16-13.54-7.63-13.54S181,51.37,181,59.41s.17,13.52,7.65,13.52S196.23,67.45,196.23,59.41Z" transform="translate(-19.92 -19.92)"/><path class="cls-1" d="M234.94,79c-2.79.12-7.61.27-10.08.27-7.13,0-13.69-.39-13.69-9.62V39.69h8V67.36c0,4.38.79,5.37,5.51,5.37h10.24Z" transform="translate(-19.92 -19.92)"/><path class="cls-1" d="M268.61,65.84c0,10.85-5.84,13.69-14.79,13.69S239,76.69,239,65.84V39.69h7.9V66.28c0,4.69,1.8,6.53,6.91,6.53s6.89-1.84,6.89-6.53V39.69h7.9Z" transform="translate(-19.92 -19.92)"/><path class="cls-1" d="M273,79.12l11.72-34.33c1.32-3.86,3.45-5.5,6.48-5.5s5.17,1.74,6.43,5.5l11.53,34.33h-8.5l-3-9.76H284.22l-3,9.76Zm22.77-15.9-4.9-15.94-4.83,15.94Z" transform="translate(-19.92 -19.92)"/><path class="cls-1" d="M116.13,106.31a16.51,16.51,0,0,1-3.61.38c-4.93,0-6.14-2.39-6.14-7.84S107.59,91,112.52,91a16.57,16.57,0,0,1,3.61.37l-.19,1.67a18.11,18.11,0,0,0-2.8-.25c-4.38,0-4.6,2.33-4.6,6s.26,6,4.6,6a18.23,18.23,0,0,0,2.8-.24Z" transform="translate(-19.92 -19.92)"/><path class="cls-1" d="M118.43,98.85c0-5.56,1.31-7.83,5.93-7.83s5.92,2.27,5.92,7.83-1.31,7.84-5.92,7.84S118.43,104.42,118.43,98.85Zm9.7,0c0-3.57-.13-6.06-3.77-6.06s-3.77,2.49-3.77,6.06.12,6.07,3.77,6.07S128.13,102.42,128.13,98.85Z" transform="translate(-19.92 -19.92)"/><path class="cls-1" d="M133.31,98.85c0-5.56,1.31-7.83,5.93-7.83s5.92,2.27,5.92,7.83-1.31,7.84-5.92,7.84S133.31,104.42,133.31,98.85Zm9.7,0c0-3.57-.13-6.06-3.77-6.06s-3.77,2.49-3.77,6.06.11,6.07,3.77,6.07S143,102.42,143,98.85Z" transform="translate(-19.92 -19.92)"/><path class="cls-1" d="M150.67,106.53h-2.11V91.4a28.73,28.73,0,0,1,4.72-.38c3.28,0,5.95.66,5.95,4.7s-2.38,4.79-5.77,4.79c-.8,0-2.06-.05-2.79-.09Zm0-7.84a22.35,22.35,0,0,0,2.61.12c2.46,0,3.85-.62,3.85-3.09,0-2.15-1-3-3.77-3a21.81,21.81,0,0,0-2.69.17Z" transform="translate(-19.92 -19.92)"/><path class="cls-1" d="M170.85,92.89h-3.91c-2.48,0-2.89.47-2.89,2.67v2.3h6.5v1.7h-6.5v2.59c0,2.21.41,2.67,2.89,2.67h3.91v1.66c-1.15,0-2.73.09-3.84.09-2.63,0-5.07-.14-5.07-3.5V94.64c0-3.36,2.44-3.51,5.07-3.51,1,0,2.67.05,3.84.1Z" transform="translate(-19.92 -19.92)"/><path class="cls-1" d="M174.1,106.53V91.4a28.73,28.73,0,0,1,4.72-.38c3.26,0,6,.63,6,4.64,0,2.9-1.36,4.11-3.45,4.53l3.63,6.34h-2.47l-3.38-6.14H179c-.8,0-2.05-.06-2.77-.1v6.24Zm2.12-8a22.19,22.19,0,0,0,2.6.12c2.44,0,3.85-.62,3.85-3,0-2.12-1-3-3.77-3a20,20,0,0,0-2.68.19Z" transform="translate(-19.92 -19.92)"/><path class="cls-1" d="M186.77,106.53l4.94-14a1.79,1.79,0,0,1,3.53,0l4.87,14h-2.25l-1.43-4.26h-6.06L189,106.53Zm9.1-5.92-2.48-7.41-2.47,7.41Z" transform="translate(-19.92 -19.92)"/><path class="cls-1" d="M211.44,92.91h-4v13.62h-2.12V92.91h-4V91.17h10.14Z" transform="translate(-19.92 -19.92)"/><path class="cls-1" d="M213.88,91.17H216v15.36h-2.13Z" transform="translate(-19.92 -19.92)"/><path class="cls-1" d="M226.5,105.21c-.36,1.05-.88,1.48-1.66,1.48s-1.31-.43-1.67-1.48l-4.68-14h2.26l4.11,13,4.16-13h2.16Z" transform="translate(-19.92 -19.92)"/><path class="cls-1" d="M232.42,106.53l4.94-14a1.79,1.79,0,0,1,3.53,0l4.87,14h-2.25l-1.43-4.26H236l-1.42,4.26Zm9.1-5.92L239,93.2l-2.47,7.41Z" transform="translate(-19.92 -19.92)"/><path class="cls-1" d="M253.09,106.53l4.94-14a1.79,1.79,0,0,1,3.53,0l4.87,14h-2.25l-1.43-4.26h-6.06l-1.42,4.26Zm9.1-5.92-2.48-7.41-2.47,7.41Z" transform="translate(-19.92 -19.92)"/><path class="cls-1" d="M268.94,91.17h2.13v15.36h-2.13Z" transform="translate(-19.92 -19.92)"/><path class="cls-1" d="M283.45,106.49c-1.17.05-2.56.08-3.58.08-2.62,0-5.07-.14-5.07-3.5V91.17h2.12v11c0,2.19.41,2.67,2.89,2.67h3.64Z" transform="translate(-19.92 -19.92)"/><path class="cls-1" d="M285.29,98.85c0-5.56,1.31-7.83,5.93-7.83s5.92,2.27,5.92,7.83-1.31,7.84-5.92,7.84S285.29,104.42,285.29,98.85Zm9.7,0c0-3.57-.13-6.06-3.77-6.06s-3.77,2.49-3.77,6.06.11,6.07,3.77,6.07S295,102.42,295,98.85Z" transform="translate(-19.92 -19.92)"/><path class="cls-1" d="M301.92,94.91c0,1.93,1,2.22,3.27,2.86,2.59.73,4.17,1.76,4.17,4.51,0,3.23-1.95,4.41-5.45,4.41a18.94,18.94,0,0,1-4-.39l.21-1.73a28.55,28.55,0,0,0,3.76.3c2,0,3.33-.43,3.33-2.51,0-1.82-1.32-2.24-3.09-2.78-2.7-.83-4.28-1.57-4.28-4.38,0-3.16,1.88-4.18,5.25-4.18a22,22,0,0,1,4,.38l-.19,1.69a21.79,21.79,0,0,0-3.11-.28C304,92.81,301.92,93,301.92,94.91Z" transform="translate(-19.92 -19.92)"/><path class="cls-1" d="M78.94,64.12,71.32,45.45c-.75-1.73-1.31-3-2.45-3s-1.71,1.32-2.4,3L61.83,56.21,57.25,45.45c-.69-1.65-1.24-3-2.4-3s-1.7,1.24-2.46,3L44.77,64.13A3.6,3.6,0,0,0,48.3,69.3h3.36v4.25a2.77,2.77,0,0,0,2.77,2.77h1a2.77,2.77,0,0,0,2.77-2.77V71.47a1.62,1.62,0,0,0,0-.22v-2h3.37l.33,0,.32,0h3.38v2a1.62,1.62,0,0,0,0,.22v2.08a2.77,2.77,0,0,0,2.77,2.77h1a2.78,2.78,0,0,0,2.77-2.77V69.3h3.35a3.6,3.6,0,0,0,3.53-5.18ZM58.63,67.23H56.09v6.32a.7.7,0,0,1-.7.7h-1a.7.7,0,0,1-.7-.7l0-2.52v-3.8H48.3a1.55,1.55,0,0,1-1.61-2.33l7.6-18.63c.11-.23.33-.74.54-1.18.15.3.32.69.52,1.16l5.36,12.61-2.05,5.27A4,4,0,0,0,58.63,67.23Zm4.49-.69a1.52,1.52,0,0,1-2.52,0,1.84,1.84,0,0,1,0-1.66l1.26-3.23,1.3,3.24A1.85,1.85,0,0,1,63.12,66.54Zm13.86,0a1.82,1.82,0,0,1-1.57.65H70v6.32a.7.7,0,0,1-.7.7h-1a.7.7,0,0,1-.7-.7V67.23H65.09a4,4,0,0,0,0-3.1l-2.12-5.27,5.43-12.61c.2-.48.37-.86.51-1.16.22.43.44.94.53,1.16L77,64.88A1.82,1.82,0,0,1,77,66.58Z" transform="translate(-19.92 -19.92)"/><path class="cls-2" d="M83,78.34a28.85,28.85,0,0,1-21.18,9.22c-.88,0-1.76,0-2.62-.12a31.4,31.4,0,0,1-18.67-.8,31.26,31.26,0,0,0,56-19,30.84,30.84,0,0,0-.27-4.11A31.37,31.37,0,0,1,83,78.34Z" transform="translate(-19.92 -19.92)"/><path class="cls-3" d="M66.71,30.14A29,29,0,0,1,87.82,45.9a31.16,31.16,0,0,1,8.5,17.6A31.26,31.26,0,0,0,49,26.08c.74,0,1.47-.07,2.22-.07A31.06,31.06,0,0,1,66.71,30.14Z" transform="translate(-19.92 -19.92)"/><path class="cls-4" d="M90.77,58.65A28.8,28.8,0,0,1,83,78.34,31.37,31.37,0,0,0,96.32,63.5a31.16,31.16,0,0,0-8.5-17.6A28.83,28.83,0,0,1,90.77,58.65Z" transform="translate(-19.92 -19.92)"/><path class="cls-5" d="M34.09,66.83a29,29,0,0,1,3.27-23.59A31.31,31.31,0,0,1,49,26.08a31.25,31.25,0,0,0-8.4,60.56,31.13,31.13,0,0,1-6.47-19C34.08,67.35,34.09,67.09,34.09,66.83Z" transform="translate(-19.92 -19.92)"/><path class="cls-6" d="M59.22,87.44A28.94,28.94,0,0,1,34.09,66.83c0,.26,0,.52,0,.78a31.13,31.13,0,0,0,6.47,19,31.4,31.4,0,0,0,18.67.8Z" transform="translate(-19.92 -19.92)"/><path class="cls-7" d="M37.36,43.24a29,29,0,0,1,29.35-13.1A31.06,31.06,0,0,0,51.17,26c-.75,0-1.48,0-2.22.07A31.31,31.31,0,0,0,37.36,43.24Z" transform="translate(-19.92 -19.92)"/></svg>