<?xml version="1.0" encoding="UTF-8"?>
<svg id="Layer_1" xmlns="http://www.w3.org/2000/svg" xmlns:xlink="http://www.w3.org/1999/xlink" version="1.1" viewBox="0 0 612.91 206.04">
  <!-- Generator: Adobe Illustrator 29.4.0, SVG Export Plug-In . SVG Version: 2.1.0 Build 152)  -->
  <defs>
    <style>
      .st0 {
        fill: #886b25;
      }

      .st1 {
        fill: url(#linear-gradient2);
      }

      .st2 {
        fill: url(#linear-gradient1);
      }

      .st3 {
        fill: #006d32;
      }

      .st4 {
        fill: url(#linear-gradient);
      }

      .st5 {
        fill: #fff;
      }

      .st6 {
        fill: #165c7d;
      }

      .st7 {
        fill: #007d8a;
      }
    </style>
    <linearGradient id="linear-gradient" x1="63.79" y1="127.64" x2="151.73" y2="127.64" gradientUnits="userSpaceOnUse">
      <stop offset="0" stop-color="#00a9ce"/>
      <stop offset=".41" stop-color="#00a6cb"/>
      <stop offset=".66" stop-color="#009ec3"/>
      <stop offset=".86" stop-color="#0091b4"/>
      <stop offset="1" stop-color="#0083a6"/>
    </linearGradient>
    <linearGradient id="linear-gradient1" x1="76.97" y1="65.7" x2="155.28" y2="65.7" gradientUnits="userSpaceOnUse">
      <stop offset="0" stop-color="#ffa300"/>
      <stop offset=".35" stop-color="#fca100"/>
      <stop offset=".56" stop-color="#f49d00"/>
      <stop offset=".73" stop-color="#e59500"/>
      <stop offset=".89" stop-color="#d18a00"/>
      <stop offset="1" stop-color="#bd8000"/>
    </linearGradient>
    <linearGradient id="linear-gradient2" x1="31.4" y1="88.71" x2="76.97" y2="88.71" gradientUnits="userSpaceOnUse">
      <stop offset="0" stop-color="#00b140"/>
      <stop offset=".39" stop-color="#00ae3f"/>
      <stop offset=".62" stop-color="#00a63d"/>
      <stop offset=".82" stop-color="#01973b"/>
      <stop offset=".99" stop-color="#028337"/>
      <stop offset="1" stop-color="#038237"/>
    </linearGradient>
  </defs>
  <rect class="st6" x="0" y="-.01" width="612.91" height="206.07"/>
  <g>
    <g>
      <path class="st5" d="M124.03,100.87l-11.96-29.3c-1.18-2.71-2.06-4.65-3.85-4.66-1.82.01-2.68,2.06-3.76,4.64l-7.28,16.91-7.19-16.89c-1.09-2.59-1.95-4.64-3.77-4.65-1.78.01-2.67,1.95-3.86,4.69l-11.95,29.28c-.8,2.05-.65,4.12.41,5.67,1.06,1.55,2.93,2.44,5.14,2.44h5.26l.02,6.67c0,2.39,1.95,4.34,4.34,4.34h1.51c2.39,0,4.34-1.95,4.34-4.34v-3.27c0-.11,0-.23-.01-.35v-3.05h5.3c.18,0,.34-.01.51-.02.17.01.33.02.5.02h5.3v3.05c0,.12-.01.24-.01.35v3.27c0,2.39,1.95,4.34,4.34,4.34h1.51c2.39,0,4.34-1.95,4.34-4.34l.02-6.67h5.26c2.21,0,4.08-.89,5.14-2.44,1.06-1.55,1.21-3.62.4-5.69ZM92.16,105.76h-3.98v9.91c.01.61-.48,1.1-1.09,1.1h-1.51c-.61,0-1.1-.49-1.1-1.1l-.02-3.96v-5.95h-8.51c-1.13,0-2.01-.36-2.46-1.03-.45-.66-.47-1.61-.07-2.64l11.93-29.23c.16-.37.51-1.17.85-1.85.22.46.49,1.07.8,1.82l8.42,19.78-3.22,8.27c-.68,1.74-.69,3.44-.04,4.87ZM99.21,104.68c-.36.58-1.07.95-1.98,1.05-.91-.1-1.62-.47-1.99-1.05-.41-.66-.42-1.58-.02-2.59l1.97-5.07,2.03,5.07c.4,1.02.39,1.94-.02,2.59ZM120.95,104.74c-.45.66-1.33,1.03-2.46,1.03h-8.51l-.02,9.91c0,.61-.49,1.1-1.1,1.1h-1.51c-.61,0-1.1-.49-1.1-1.1v-9.91s-3.96,0-3.96,0c.64-1.43.63-3.13-.05-4.87l-3.32-8.28,8.52-19.79c.31-.74.58-1.35.8-1.81.34.67.68,1.47.83,1.82l11.94,29.24c.41,1.06.39,2-.06,2.66Z"/>
      <g>
        <path class="st4" d="M130.44,123.19c-8.29,8.91-20.11,14.48-33.24,14.48-1.39,0-2.76-.07-4.12-.19-4.03,1.07-8.26,1.65-12.63,1.65-5.85,0-11.46-1.03-16.66-2.9,8.97,11.65,23.05,19.16,38.89,19.16,27.09,0,49.05-21.95,49.05-49.03,0-2.19-.15-4.34-.42-6.45-4.24,9.85-11.61,18.03-20.87,23.29Z"/>
        <path class="st2" d="M104.84,47.55c14.58,2.47,26.8,11.9,33.12,24.74,7.11,7.36,11.94,16.95,13.34,27.61,2.56-5.94,3.97-12.48,3.97-19.36,0-27.08-21.96-49.03-49.05-49.03-10.97,0-21.09,3.6-29.26,9.68,1.15-.08,2.31-.12,3.48-.12,8.88,0,17.21,2.36,24.39,6.49Z"/>
        <path class="st0" d="M142.59,92.29c0,11.94-4.62,22.8-12.16,30.91,9.25-5.26,16.63-13.44,20.87-23.29-1.4-10.66-6.23-20.24-13.34-27.61,2.97,6.03,4.64,12.82,4.64,20Z"/>
        <path class="st1" d="M53.65,105.13c-1.2-4.07-1.85-8.38-1.85-12.84,0-8.89,2.56-17.17,6.97-24.17,2.86-10.93,9.39-20.37,18.2-26.93-25.46,1.78-45.57,23-45.57,48.91,0,21.23,13.5,39.31,32.39,46.13-6.37-8.27-10.16-18.63-10.16-29.87,0-.41,0-.82.02-1.22Z"/>
        <path class="st7" d="M93.08,137.48c-18.78-1.69-34.27-14.81-39.43-32.36,0,.41-.02.81-.02,1.22,0,11.24,3.79,21.6,10.16,29.87,5.2,1.88,10.81,2.9,16.66,2.9,4.37,0,8.6-.57,12.63-1.65Z"/>
        <path class="st3" d="M58.77,68.11c8.04-12.74,22.24-21.21,38.42-21.21,2.61,0,5.16.22,7.64.64-7.18-4.13-15.51-6.49-24.39-6.49-1.17,0-2.33.04-3.48.12-8.81,6.56-15.34,16-18.2,26.93Z"/>
      </g>
    </g>
    <g>
      <path class="st5" d="M180.59,124.42h-12.96l18.4-53.88c1.03-2.97,2.37-5.16,4.04-6.55,1.66-1.39,3.71-2.08,6.13-2.08,4.78,0,8.14,2.88,10.09,8.63l18.09,53.88h-13.33l-4.73-15.32h-21.11l-4.62,15.32ZM188.1,99.46h15.27l-7.7-25.02-7.57,25.02Z"/>
      <path class="st5" d="M231.49,124.42v-61.88h12.59v61.88h-12.59Z"/>
      <path class="st5" d="M293.73,114.38v9.77c-6.68.28-11.95.42-15.83.42-1.91,0-3.49-.02-4.74-.07s-2.7-.18-4.37-.4c-1.66-.22-3.03-.53-4.09-.92s-2.17-.96-3.32-1.7c-1.15-.74-2.05-1.64-2.71-2.7-.66-1.05-1.2-2.37-1.62-3.94-.42-1.58-.64-3.37-.64-5.39v-46.93h12.59v43.42c0,1.82.1,3.24.29,4.25.19,1.01.62,1.85,1.27,2.52.65.67,1.52,1.12,2.6,1.33,1.08.21,2.58.32,4.49.32h16.07Z"/>
      <path class="st5" d="M332.56,124.29c-2.45.51-5.29.77-8.51.77s-6.06-.26-8.52-.77-4.61-1.33-6.45-2.46c-1.84-1.12-3.38-2.51-4.62-4.14s-2.24-3.67-3.01-6.08c-.77-2.42-1.32-5.08-1.65-7.99-.33-2.91-.49-6.29-.49-10.13s.16-7.22.49-10.13c.33-2.91.88-5.58,1.65-7.99.77-2.42,1.77-4.44,3.01-6.08s2.78-3.02,4.62-4.14c1.84-1.12,3.99-1.94,6.45-2.46,2.46-.51,5.3-.77,8.52-.77s6.06.26,8.51.77c2.45.51,4.6,1.33,6.44,2.46,1.84,1.12,3.38,2.51,4.62,4.14,1.24,1.64,2.24,3.66,3.01,6.07.77,2.41,1.32,5.07,1.65,7.99.33,2.92.49,6.3.49,10.14s-.16,7.22-.49,10.15c-.33,2.92-.88,5.59-1.65,7.99-.77,2.41-1.77,4.43-3.01,6.07-1.24,1.64-2.78,3.02-4.62,4.14-1.84,1.12-3.99,1.94-6.44,2.46ZM320.54,114.36c1.04.23,2.21.35,3.51.35s2.46-.12,3.51-.35c1.04-.23,1.96-.51,2.74-.85.78-.34,1.47-.85,2.07-1.53.6-.68,1.1-1.33,1.5-1.95.4-.62.74-1.46,1.02-2.54.28-1.07.5-2.03.65-2.87.15-.84.26-1.97.33-3.4.07-1.42.11-2.65.13-3.67.02-1.02.03-2.38.03-4.08s0-3.06-.03-4.08c-.02-1.02-.06-2.24-.13-3.67-.07-1.42-.18-2.56-.33-3.4-.15-.84-.37-1.8-.65-2.88-.28-1.08-.62-1.93-1.02-2.55-.4-.62-.9-1.27-1.5-1.94s-1.29-1.18-2.07-1.53c-.78-.35-1.69-.63-2.74-.86-1.04-.23-2.21-.35-3.51-.35s-2.46.12-3.51.35c-1.04.23-1.96.52-2.75.86-.79.35-1.48.85-2.07,1.53s-1.09,1.32-1.5,1.94c-.41.62-.75,1.47-1.04,2.55-.28,1.08-.5,2.04-.65,2.88-.15.84-.26,1.97-.33,3.4-.07,1.43-.12,2.65-.13,3.67-.02,1.02-.03,2.38-.03,4.08s0,3.06.03,4.08c.02,1.02.06,2.24.13,3.67.07,1.42.18,2.56.33,3.4.15.84.37,1.8.65,2.87.28,1.07.63,1.92,1.04,2.54.41.62.91,1.27,1.5,1.95.59.68,1.28,1.19,2.07,1.53.79.34,1.7.62,2.75.85Z"/>
      <path class="st5" d="M382.17,72.13c-.9,0-1.67,0-2.3.03-.63.02-1.42.07-2.36.16-.95.09-1.75.22-2.4.39-.66.17-1.35.41-2.1.72-.74.31-1.35.69-1.81,1.13-.46.44-.84,1-1.14,1.69-.3.68-.45,1.45-.45,2.3,0,.97.1,1.83.3,2.58.2.74.52,1.39.96,1.94.43.55.93,1.02,1.49,1.42s1.26.76,2.1,1.09c.84.33,1.69.62,2.54.86s1.87.53,3.05.85c.41.11.72.19.93.24,3.06.83,5.62,1.75,7.66,2.75,2.04,1,3.78,2.24,5.22,3.73,1.43,1.49,2.47,3.24,3.11,5.27.64,2.03.96,4.44.96,7.24,0,3.36-.5,6.25-1.5,8.64-1,2.4-2.5,4.32-4.5,5.76s-4.39,2.5-7.17,3.16c-2.78.66-6.05,1-9.8,1-6,0-11.96-.64-17.87-1.91l1.22-9.91c6.3.92,11.7,1.38,16.2,1.38,1.74,0,3.21-.11,4.41-.33,1.2-.22,2.28-.61,3.24-1.17s1.67-1.35,2.14-2.36c.47-1.02.7-2.29.7-3.81,0-.8-.11-1.53-.32-2.2s-.42-1.24-.64-1.7c-.21-.46-.64-.92-1.29-1.39-.65-.47-1.12-.82-1.43-1.05-.31-.23-.96-.54-1.97-.92-1-.38-1.67-.62-2-.73-.34-.11-1.13-.35-2.39-.74-.11-.04-.19-.06-.24-.08-1.74-.53-3.23-1.03-4.49-1.49s-2.54-1-3.84-1.62c-1.3-.62-2.4-1.26-3.29-1.93-.89-.66-1.74-1.45-2.55-2.35-.81-.9-1.45-1.89-1.93-2.95-.48-1.06-.85-2.28-1.13-3.65s-.41-2.88-.41-4.53c0-3.31.48-6.12,1.43-8.42.96-2.3,2.4-4.13,4.34-5.48,1.94-1.35,4.23-2.33,6.88-2.92,2.65-.59,5.81-.89,9.49-.89,5.84,0,11.75.65,17.71,1.94l-1.14,9.64c-5.68-.9-10.22-1.35-13.62-1.35Z"/>
    </g>
    <g>
      <path class="st5" d="M183.07,164.69l.3,2.68c-1.82.41-3.76.62-5.83.62-3.4,0-5.81-.74-7.25-2.21-1-1.03-1.7-2.39-2.1-4.08-.38-1.66-.57-3.77-.57-6.35,0-2.01.11-3.72.34-5.13.23-1.45.62-2.7,1.17-3.75.7-1.29,1.72-2.24,3.07-2.84,1.35-.61,3.12-.91,5.33-.91s4.03.2,5.83.61l-.31,2.69c-1.64-.26-3.15-.39-4.52-.39-2.64,0-4.51.56-5.63,1.67-.84.84-1.37,2.13-1.6,3.88-.12.98-.18,2.37-.18,4.19,0,2.3.12,4,.35,5.08.34,1.59,1.02,2.75,2.06,3.48,1.12.79,2.79,1.18,5.01,1.18,1.41,0,2.92-.13,4.53-.39Z"/>
      <path class="st5" d="M199.54,167.67c-.97.21-2.07.31-3.29.31-2.49,0-4.42-.43-5.79-1.29-.71-.46-1.31-1.01-1.79-1.66-.93-1.28-1.53-3.16-1.79-5.63-.13-1.17-.19-2.52-.19-4.06,0-3.05.27-5.46.82-7.25.31-.98.7-1.79,1.16-2.43.99-1.35,2.42-2.24,4.29-2.65.97-.21,2.07-.31,3.29-.31,2.5,0,4.42.43,5.79,1.3.72.45,1.31,1.01,1.78,1.66.93,1.27,1.53,3.15,1.79,5.63.13,1.16.19,2.51.19,4.05s-.06,2.89-.19,4.06c-.13,1.18-.34,2.25-.64,3.2-.43,1.42-1.09,2.53-1.96,3.34-.87.81-2.03,1.39-3.48,1.73ZM196.25,165.12c2.23,0,3.8-.61,4.71-1.83.69-.91,1.12-2.35,1.28-4.31.06-.84.09-2.05.09-3.65,0-2.32-.09-4.02-.27-5.09-.28-1.69-.91-2.91-1.89-3.65-.93-.7-2.24-1.04-3.92-1.04-2.22,0-3.79.6-4.71,1.81-.69.91-1.11,2.33-1.27,4.26-.07.8-.1,2.04-.1,3.71,0,2.34.09,4.02.26,5.04.29,1.71.9,2.94,1.85,3.67.93.72,2.25,1.07,3.97,1.07Z"/>
      <path class="st5" d="M223.52,167.67c-.97.21-2.07.31-3.29.31-2.49,0-4.42-.43-5.79-1.29-.71-.46-1.31-1.01-1.79-1.66-.93-1.28-1.53-3.16-1.79-5.63-.13-1.17-.19-2.52-.19-4.06,0-3.05.27-5.46.82-7.25.31-.98.7-1.79,1.16-2.43.99-1.35,2.42-2.24,4.29-2.65.97-.21,2.07-.31,3.29-.31,2.5,0,4.42.43,5.79,1.3.72.45,1.31,1.01,1.78,1.66.93,1.27,1.53,3.15,1.79,5.63.13,1.16.19,2.51.19,4.05s-.06,2.89-.19,4.06c-.13,1.18-.34,2.25-.64,3.2-.43,1.42-1.09,2.53-1.96,3.34-.87.81-2.03,1.39-3.48,1.73ZM220.23,165.12c2.23,0,3.8-.61,4.71-1.83.69-.91,1.12-2.35,1.28-4.31.06-.84.09-2.05.09-3.65,0-2.32-.09-4.02-.27-5.09-.28-1.69-.91-2.91-1.89-3.65-.93-.7-2.24-1.04-3.92-1.04-2.22,0-3.79.6-4.71,1.81-.69.91-1.11,2.33-1.27,4.26-.07.8-.1,2.04-.1,3.71,0,2.34.09,4.02.26,5.04.29,1.71.9,2.94,1.85,3.67.93.72,2.25,1.07,3.97,1.07Z"/>
      <path class="st5" d="M238.66,157.87v9.86h-3.41v-24.41c2.35-.41,4.89-.62,7.61-.62.85,0,1.59.03,2.2.07,1.53.11,2.8.4,3.81.86,1.18.53,2.06,1.3,2.62,2.3.65,1.15.98,2.6.98,4.35-.03,2.63-.68,4.54-1.95,5.72-.84.77-1.88,1.3-3.14,1.59-1.2.28-2.61.43-4.24.43-1.11,0-2.61-.05-4.49-.15ZM238.66,145.73v9.35c1.15.13,2.55.2,4.21.2s2.96-.2,3.89-.61c.78-.33,1.36-.86,1.74-1.57.38-.71.58-1.65.58-2.82-.01-.89-.12-1.64-.32-2.23-.2-.59-.55-1.09-1.03-1.48s-1.1-.67-1.86-.85c-.76-.17-1.71-.27-2.87-.28-1.48,0-2.92.1-4.33.29Z"/>
      <path class="st5" d="M271.44,143.05v2.67h-6.31c-.72,0-1.3.03-1.74.07-.95.08-1.65.33-2.1.74-.2.19-.37.46-.5.81-.22.56-.33,1.46-.33,2.69v3.7h10.5v2.75h-10.5v4.17c0,.63.02,1.15.06,1.56.09.9.35,1.55.77,1.94.21.18.5.34.86.48.62.22,1.61.33,2.98.33h6.31v2.68c-2.25.1-4.32.15-6.21.15s-3.37-.11-4.31-.32c-1.64-.38-2.74-1.19-3.32-2.44-.36-.76-.54-1.73-.54-2.89v-13.6c0-1.14.18-2.11.53-2.9.29-.65.78-1.21,1.47-1.69.5-.34,1.22-.61,2.16-.8.39-.08.82-.14,1.28-.17.45-.04.89-.06,1.33-.07.52-.01.99-.02,1.41-.02,1.77,0,3.84.05,6.21.16Z"/>
      <path class="st5" d="M280.07,157.66v10.07h-3.42v-24.41c2.36-.41,4.9-.62,7.61-.62.85,0,1.58.03,2.19.07.65.05,1.32.15,2,.29.71.14,1.31.33,1.8.55.55.24,1.05.55,1.51.94.46.39.84.83,1.12,1.32.65,1.11.98,2.55.98,4.31,0,2.29-.51,4.01-1.53,5.17-.95,1.08-2.3,1.8-4.04,2.15l5.85,10.23h-3.98l-5.44-9.91h-.18c-1.05,0-2.54-.05-4.48-.16ZM280.07,145.72v9.14c1.12.13,2.52.19,4.19.19s2.92-.2,3.88-.59c1.55-.65,2.33-2.08,2.33-4.29,0-1.72-.46-2.95-1.37-3.67-.92-.72-2.49-1.08-4.71-1.08-1.45,0-2.89.1-4.32.3Z"/>
      <path class="st5" d="M303.85,160.86l-2.29,6.87h-3.51l7.97-22.66c.55-1.58,1.5-2.37,2.85-2.37s2.3.79,2.84,2.37l7.85,22.66h-3.63l-2.31-6.87h-9.78ZM308.72,146.23l-3.98,11.95h7.99l-4.01-11.95Z"/>
      <path class="st5" d="M321.46,142.95h16.36v2.8h-6.46v21.98h-3.43v-21.98h-6.47v-2.8Z"/>
      <path class="st5" d="M345.58,167.73h-3.43v-24.77h3.43v24.77Z"/>
      <path class="st5" d="M366.87,142.95h3.48l-7.56,22.65c-.28.83-.63,1.43-1.06,1.81s-.96.57-1.62.57-1.19-.19-1.62-.57-.79-.98-1.06-1.81l-7.55-22.65h3.64l6.64,20.9,6.71-20.9Z"/>
      <path class="st5" d="M376.03,160.86l-2.29,6.87h-3.51l7.97-22.66c.55-1.58,1.5-2.37,2.85-2.37s2.3.79,2.84,2.37l7.85,22.66h-3.63l-2.31-6.87h-9.78ZM380.9,146.23l-3.99,11.95h7.99l-4.01-11.95Z"/>
      <path class="st5" d="M420.31,164.69l.3,2.68c-1.82.41-3.76.62-5.83.62-3.4,0-5.81-.74-7.25-2.21-1-1.03-1.7-2.39-2.1-4.08-.38-1.66-.57-3.77-.57-6.35,0-2.01.11-3.72.34-5.13.23-1.45.62-2.7,1.17-3.75.7-1.29,1.72-2.24,3.07-2.84,1.35-.61,3.12-.91,5.33-.91s4.03.2,5.83.61l-.31,2.69c-1.64-.26-3.15-.39-4.52-.39-2.64,0-4.51.56-5.63,1.67-.84.84-1.37,2.13-1.6,3.88-.12.98-.18,2.37-.18,4.19,0,2.3.12,4,.35,5.08.34,1.59,1.02,2.75,2.06,3.48,1.12.79,2.79,1.18,5.01,1.18,1.4,0,2.92-.13,4.53-.39Z"/>
      <path class="st5" d="M428.32,157.66v10.07h-3.42v-24.41c2.36-.41,4.9-.62,7.61-.62.85,0,1.58.03,2.19.07.65.05,1.32.15,2,.29.71.14,1.31.33,1.8.55.55.24,1.05.55,1.51.94.46.39.83.83,1.12,1.32.65,1.11.97,2.55.97,4.31,0,2.29-.51,4.01-1.53,5.17-.95,1.08-2.3,1.8-4.04,2.15l5.85,10.23h-3.98l-5.44-9.91h-.18c-1.05,0-2.54-.05-4.48-.16ZM428.32,145.72v9.14c1.12.13,2.52.19,4.19.19s2.92-.2,3.88-.59c1.55-.65,2.33-2.08,2.33-4.29,0-1.72-.46-2.95-1.37-3.67-.92-.72-2.49-1.08-4.71-1.08-1.45,0-2.89.1-4.32.3Z"/>
      <path class="st5" d="M461.48,143.05v2.67h-6.31c-.72,0-1.3.03-1.74.07-.95.08-1.65.33-2.1.74-.2.19-.37.46-.5.81-.22.56-.33,1.46-.33,2.69v3.7h10.5v2.75h-10.5v4.17c0,.63.02,1.15.06,1.56.09.9.35,1.55.77,1.94.21.18.5.34.86.48.62.22,1.62.33,2.98.33h6.31v2.68c-2.25.1-4.32.15-6.21.15s-3.37-.11-4.31-.32c-1.64-.38-2.74-1.19-3.32-2.44-.36-.76-.55-1.73-.55-2.89v-13.6c0-1.14.18-2.11.54-2.9.29-.65.78-1.21,1.47-1.69.5-.34,1.22-.61,2.16-.8.39-.08.82-.14,1.28-.17.45-.04.89-.06,1.33-.07.52-.01.99-.02,1.41-.02,1.77,0,3.84.05,6.21.16Z"/>
      <path class="st5" d="M466.71,167.37v-24.07c2.39-.4,4.92-.6,7.6-.6,1.98,0,3.63.2,4.97.62,1.33.42,2.4,1.05,3.2,1.88.74.74,1.32,1.78,1.73,3.12.18.56.33,1.24.45,2.03.2,1.41.3,3.07.3,4.99s-.1,3.58-.3,4.99c-.2,1.42-.59,2.67-1.15,3.74-.53,1.01-1.34,1.84-2.41,2.5-1.51.94-3.77,1.41-6.79,1.41-2.71,0-5.24-.21-7.6-.62ZM473.6,145.54c-1.01,0-2.16.09-3.47.27v19.07c1.31.18,2.46.27,3.47.27,2.97,0,5.06-.64,6.26-1.91.82-.87,1.34-2.19,1.54-3.95.09-.79.14-2.1.14-3.94,0-2.07-.07-3.54-.2-4.41-.25-1.7-.85-2.96-1.79-3.77-1.22-1.08-3.21-1.62-5.95-1.62Z"/>
      <path class="st5" d="M504.75,143.05v2.67h-6.31c-.72,0-1.3.03-1.74.07-.95.08-1.65.33-2.1.74-.2.19-.37.46-.5.81-.22.56-.33,1.46-.33,2.69v3.7h10.5v2.75h-10.5v4.17c0,.63.02,1.15.06,1.56.09.9.35,1.55.77,1.94.21.18.5.34.86.48.62.22,1.62.33,2.98.33h6.31v2.68c-2.25.1-4.32.15-6.21.15s-3.37-.11-4.31-.32c-1.64-.38-2.74-1.19-3.32-2.44-.36-.76-.55-1.73-.55-2.89v-13.6c0-1.14.18-2.11.54-2.9.29-.65.78-1.21,1.47-1.69.5-.34,1.22-.61,2.16-.8.39-.08.82-.14,1.28-.17.45-.04.89-.06,1.33-.07.52-.01.99-.02,1.41-.02,1.77,0,3.84.05,6.21.16Z"/>
      <path class="st5" d="M517.98,164.96h5.88v2.7c-2.16.08-4.09.13-5.79.13-1.95,0-3.39-.11-4.32-.33-1.64-.38-2.74-1.19-3.32-2.43-.36-.78-.54-1.74-.54-2.88v-19.19h3.43v17.7c0,.62.02,1.13.06,1.55.09.91.34,1.55.75,1.94.2.18.49.35.86.49.62.22,1.62.33,2.98.33Z"/>
      <path class="st5" d="M541.68,143.05v2.67h-6.31c-.72,0-1.3.03-1.74.07-.95.08-1.65.33-2.1.74-.2.19-.37.46-.5.81-.22.56-.33,1.46-.33,2.69v3.7h10.5v2.75h-10.5v4.17c0,.63.02,1.15.06,1.56.09.9.35,1.55.77,1.94.21.18.5.34.86.48.62.22,1.62.33,2.98.33h6.31v2.68c-2.25.1-4.32.15-6.21.15s-3.37-.11-4.31-.32c-1.64-.38-2.74-1.19-3.32-2.44-.36-.76-.55-1.73-.55-2.89v-13.6c0-1.14.18-2.11.54-2.9.29-.65.78-1.21,1.47-1.69.5-.34,1.22-.61,2.16-.8.39-.08.82-.14,1.28-.17.45-.04.89-.06,1.33-.07.52-.01.99-.02,1.41-.02,1.77,0,3.84.05,6.21.16Z"/>
      <path class="st5" d="M555.59,145.59c-.35,0-.77,0-1.26.02-.28,0-.69.04-1.22.11-.4.05-.79.13-1.16.23-.8.22-1.41.55-1.8,1-.48.53-.71,1.21-.71,2.03-.05,1.38.37,2.4,1.26,3.07.23.18.57.37,1.03.56.36.15.79.3,1.29.47.25.08.8.25,1.65.49.01,0,.03.01.05.01.93.26,1.72.53,2.37.8.65.27,1.25.6,1.8.99.86.59,1.5,1.32,1.91,2.2s.63,1.97.66,3.29c0,2.57-.77,4.41-2.3,5.52-1.46,1.06-3.63,1.59-6.5,1.59-2.3,0-4.47-.21-6.51-.64l.34-2.79c2.2.33,4.23.49,6.07.49,1.36,0,2.44-.15,3.24-.46.71-.27,1.23-.69,1.58-1.26s.53-1.35.54-2.33c0-1.29-.45-2.28-1.34-2.96-.56-.43-1.51-.85-2.85-1.29l-.79-.24c-.69-.21-1.28-.4-1.76-.57s-.99-.37-1.51-.61c-.52-.24-.95-.49-1.29-.73-.85-.62-1.43-1.28-1.75-2-.4-.88-.6-1.93-.6-3.15,0-1.99.47-3.52,1.41-4.57.46-.52,1.03-.95,1.73-1.27,1.33-.61,3.1-.91,5.33-.91s4.29.21,6.45.63l-.31,2.71c-2.01-.3-3.69-.45-5.02-.45Z"/>
      <path class="st5" d="M581.2,164.69l.3,2.68c-1.82.41-3.76.62-5.83.62-3.4,0-5.81-.74-7.25-2.21-1-1.03-1.7-2.39-2.1-4.08-.38-1.66-.57-3.77-.57-6.35,0-2.01.11-3.72.34-5.13.23-1.45.62-2.7,1.17-3.75.7-1.29,1.72-2.24,3.07-2.84,1.35-.61,3.12-.91,5.33-.91s4.03.2,5.83.61l-.31,2.69c-1.64-.26-3.15-.39-4.52-.39-2.64,0-4.51.56-5.63,1.67-.84.84-1.37,2.13-1.6,3.88-.12.98-.18,2.37-.18,4.19,0,2.3.12,4,.35,5.08.34,1.59,1.02,2.75,2.06,3.48,1.12.79,2.79,1.18,5.01,1.18,1.4,0,2.92-.13,4.53-.39Z"/>
    </g>
  </g>
</svg>