<svg id="Camada_1" data-name="Camada 1" xmlns="http://www.w3.org/2000/svg" xmlns:xlink="http://www.w3.org/1999/xlink" viewBox="0 0 606.4 86.82"><defs><style>.cls-1{fill:#fff;}.cls-2{fill:url(#linear-gradient);}.cls-3{fill:url(#linear-gradient-2);}.cls-4{fill:#876b26;}.cls-5{fill:url(#linear-gradient-3);}.cls-6{fill:#007d88;}.cls-7{fill:#027042;}.cls-8{fill:url(#linear-gradient-4);}.cls-9{fill:url(#linear-gradient-5);}.cls-10{fill:#926b17;}.cls-11{fill:url(#linear-gradient-6);}.cls-12{fill:#007e8b;}.cls-13{fill:#00713c;}</style><linearGradient id="linear-gradient" x1="582.69" y1="1241.43" x2="638.78" y2="1241.43" gradientUnits="userSpaceOnUse"><stop offset="0" stop-color="#0ea7cc"/><stop offset="0.41" stop-color="#0da5c9"/><stop offset="0.66" stop-color="#0a9dc1"/><stop offset="0.86" stop-color="#068fb3"/><stop offset="1" stop-color="#0181a4"/></linearGradient><linearGradient id="linear-gradient-2" x1="591.1" y1="1201.92" x2="641.05" y2="1201.92" gradientUnits="userSpaceOnUse"><stop offset="0" stop-color="#fda101"/><stop offset="0.35" stop-color="#faa001"/><stop offset="0.56" stop-color="#f29c01"/><stop offset="0.73" stop-color="#e49401"/><stop offset="0.89" stop-color="#d08a01"/><stop offset="1" stop-color="#bb8001"/></linearGradient><linearGradient id="linear-gradient-3" x1="562.03" y1="1216.59" x2="591.1" y2="1216.59" gradientUnits="userSpaceOnUse"><stop offset="0" stop-color="#09af41"/><stop offset="0.39" stop-color="#09ac40"/><stop offset="0.62" stop-color="#08a43f"/><stop offset="0.82" stop-color="#07963c"/><stop offset="0.99" stop-color="#068237"/><stop offset="1" stop-color="#068037"/></linearGradient><linearGradient id="linear-gradient-4" x1="210.1" y1="1241.36" x2="266.14" y2="1241.36" gradientUnits="userSpaceOnUse"><stop offset="0" stop-color="#00aad0"/><stop offset="0.41" stop-color="#00a8cd"/><stop offset="0.66" stop-color="#009fc5"/><stop offset="0.86" stop-color="#0091b7"/><stop offset="1" stop-color="#0083a8"/></linearGradient><linearGradient id="linear-gradient-5" x1="218.5" y1="1201.9" x2="268.4" y2="1201.9" gradientUnits="userSpaceOnUse"><stop offset="0" stop-color="#ffa400"/><stop offset="0.39" stop-color="#fca200"/><stop offset="0.62" stop-color="#f49c00"/><stop offset="0.82" stop-color="#e69100"/><stop offset="0.99" stop-color="#d28100"/><stop offset="1" stop-color="#d08000"/></linearGradient><linearGradient id="linear-gradient-6" x1="189.47" y1="1216.55" x2="218.5" y2="1216.55" gradientUnits="userSpaceOnUse"><stop offset="0" stop-color="#00b231"/><stop offset="0.39" stop-color="#00af31"/><stop offset="0.62" stop-color="#00a730"/><stop offset="0.81" stop-color="#00992f"/><stop offset="0.98" stop-color="#00852d"/><stop offset="1" stop-color="#00822d"/></linearGradient></defs><path class="cls-1" d="M650,1253.12c0,1,.54,1.16,1.73,1.49,1.38.39,2.22.93,2.22,2.37,0,1.69-1,2.31-2.9,2.31a10.19,10.19,0,0,1-2.14-.21l.11-.9a15.24,15.24,0,0,0,2,.16c1,0,1.77-.23,1.77-1.32s-.71-1.17-1.64-1.46c-1.44-.43-2.28-.82-2.28-2.29,0-1.65,1-2.19,2.79-2.19a11.84,11.84,0,0,1,2.12.2l-.1.88A12.23,12.23,0,0,0,652,1252C651.1,1252,650,1252.11,650,1253.12Z" transform="translate(-189.47 -1180.11)"/><path class="cls-1" d="M655.57,1251.16h1.13v8h-1.13Z" transform="translate(-189.47 -1180.11)"/><path class="cls-1" d="M659.41,1253.12c0,1,.54,1.16,1.73,1.49,1.38.39,2.22.93,2.22,2.37,0,1.69-1,2.31-2.9,2.31a10.19,10.19,0,0,1-2.14-.21l.11-.9a15.24,15.24,0,0,0,2,.16c1,0,1.77-.23,1.77-1.32s-.71-1.17-1.64-1.46c-1.44-.43-2.28-.82-2.28-2.29,0-1.65,1-2.19,2.79-2.19a11.84,11.84,0,0,1,2.12.2l-.1.88a12.23,12.23,0,0,0-1.66-.14C660.49,1252,659.41,1252.11,659.41,1253.12Z" transform="translate(-189.47 -1180.11)"/><path class="cls-1" d="M669.91,1252.07h-2.13v7.14h-1.13v-7.14h-2.13v-.91h5.39Z" transform="translate(-189.47 -1180.11)"/><path class="cls-1" d="M676,1252.06h-2.08c-1.31,0-1.54.25-1.54,1.4v1.2h3.46v.9H672.4v1.35c0,1.16.23,1.4,1.54,1.4H676v.87c-.62,0-1.45,0-2,0-1.4,0-2.7-.08-2.7-1.84V1253c0-1.76,1.3-1.84,2.7-1.84.53,0,1.41,0,2,0Z" transform="translate(-189.47 -1180.11)"/><path class="cls-1" d="M681.68,1256.71l2.13-4.92c.21-.48.52-.71.85-.71.49,0,.71.25.74.8l.38,7.33h-1.1l-.32-6.48-2,4.88a.66.66,0,0,1-1.28,0l-2-4.87-.33,6.47h-1l.39-7.34c0-.55.25-.79.73-.79.33,0,.63.21.84.7Z" transform="translate(-189.47 -1180.11)"/><path class="cls-1" d="M687.2,1259.21l2.62-7.36a1,1,0,0,1,.94-.77,1,1,0,0,1,.93.77l2.59,7.36h-1.19l-.76-2.23h-3.22l-.76,2.23Zm4.83-3.1-1.32-3.88-1.31,3.88Z" transform="translate(-189.47 -1180.11)"/><path class="cls-1" d="M698.82,1251.27a16.75,16.75,0,0,1,2.5-.19c3,0,3.51,1.37,3.51,4.1s-.53,4.11-3.51,4.11a15.44,15.44,0,0,1-2.5-.2Zm1.12.82v6.19a8.25,8.25,0,0,0,1.15.09c2.59,0,2.61-1.38,2.61-3.19s0-3.18-2.61-3.18A8.25,8.25,0,0,0,699.94,1252.09Z" transform="translate(-189.47 -1180.11)"/><path class="cls-1" d="M711.35,1252.06h-2.08c-1.32,0-1.54.25-1.54,1.4v1.2h3.46v.9h-3.46v1.35c0,1.16.22,1.4,1.54,1.4h2.08v.87c-.62,0-1.46,0-2.05,0-1.39,0-2.69-.08-2.69-1.84V1253c0-1.76,1.3-1.84,2.69-1.84.54,0,1.42,0,2.05,0Z" transform="translate(-189.47 -1180.11)"/><path class="cls-1" d="M721.22,1259.09a9.2,9.2,0,0,1-1.92.2c-2.62,0-3.26-1.25-3.26-4.11s.64-4.1,3.26-4.1a8.64,8.64,0,0,1,1.92.2l-.1.87a10.32,10.32,0,0,0-1.49-.13c-2.32,0-2.44,1.22-2.44,3.16s.14,3.17,2.44,3.17a10.32,10.32,0,0,0,1.49-.13Z" transform="translate(-189.47 -1180.11)"/><path class="cls-1" d="M722.34,1255.18c0-2.91.7-4.1,3.15-4.1s3.15,1.19,3.15,4.1-.7,4.11-3.15,4.11S722.34,1258.1,722.34,1255.18Zm5.15,0c0-1.87-.06-3.17-2-3.17s-2,1.3-2,3.17.06,3.18,2,3.18S727.49,1257.05,727.49,1255.18Z" transform="translate(-189.47 -1180.11)"/><path class="cls-1" d="M730.25,1255.18c0-2.91.7-4.1,3.15-4.1s3.15,1.19,3.15,4.1-.7,4.11-3.15,4.11S730.25,1258.1,730.25,1255.18Zm5.16,0c0-1.87-.07-3.17-2-3.17s-2,1.3-2,3.17.06,3.18,2,3.18S735.41,1257.05,735.41,1255.18Z" transform="translate(-189.47 -1180.11)"/><path class="cls-1" d="M739.49,1259.21h-1.12v-7.93a15.48,15.48,0,0,1,2.51-.2c1.74,0,3.16.35,3.16,2.46s-1.27,2.51-3.07,2.51c-.42,0-1.09,0-1.48,0Zm0-4.11a11.49,11.49,0,0,0,1.39.06c1.3,0,2-.32,2-1.62,0-1.12-.52-1.57-2-1.57a12.33,12.33,0,0,0-1.43.09Z" transform="translate(-189.47 -1180.11)"/><path class="cls-1" d="M750.31,1252.06h-2.08c-1.32,0-1.54.25-1.54,1.4v1.2h3.46v.9h-3.46v1.35c0,1.16.22,1.4,1.54,1.4h2.08v.87c-.62,0-1.46,0-2,0-1.39,0-2.69-.08-2.69-1.84V1253c0-1.76,1.3-1.84,2.69-1.84.54,0,1.42,0,2,0Z" transform="translate(-189.47 -1180.11)"/><path class="cls-1" d="M752,1259.21v-7.93a15.57,15.57,0,0,1,2.51-.2c1.72,0,3.16.33,3.16,2.43a2.09,2.09,0,0,1-1.84,2.37l1.93,3.33h-1.31l-1.79-3.22h-.06c-.43,0-1.09,0-1.48,0v3.27Zm1.12-4.18a11.49,11.49,0,0,0,1.39.06c1.29,0,2-.32,2-1.58s-.53-1.55-2-1.55a10.65,10.65,0,0,0-1.43.1Z" transform="translate(-189.47 -1180.11)"/><path class="cls-1" d="M759,1259.21l2.62-7.36a1,1,0,0,1,.94-.77,1,1,0,0,1,.93.77l2.59,7.36h-1.19l-.76-2.23h-3.22l-.76,2.23Zm4.83-3.1-1.32-3.88-1.31,3.88Z" transform="translate(-189.47 -1180.11)"/><path class="cls-1" d="M771.25,1252.07h-2.12v7.14H768v-7.14h-2.13v-.91h5.38Z" transform="translate(-189.47 -1180.11)"/><path class="cls-1" d="M772.7,1251.16h1.13v8H772.7Z" transform="translate(-189.47 -1180.11)"/><path class="cls-1" d="M779.52,1258.52c-.18.54-.46.77-.88.77s-.69-.23-.88-.77l-2.49-7.36h1.2l2.19,6.79,2.21-6.79H782Z" transform="translate(-189.47 -1180.11)"/><path class="cls-1" d="M781.69,1259.21l2.62-7.36a1,1,0,0,1,1.87,0l2.59,7.36h-1.2l-.76-2.23h-3.22l-.75,2.23Zm4.83-3.1-1.32-3.88-1.31,3.88Z" transform="translate(-189.47 -1180.11)"/><path class="cls-1" d="M790.89,1253.12c0,1,.54,1.16,1.73,1.49,1.38.39,2.22.93,2.22,2.37,0,1.69-1,2.31-2.9,2.31a10.19,10.19,0,0,1-2.14-.21l.11-.9a15.24,15.24,0,0,0,2,.16c1,0,1.77-.23,1.77-1.32s-.71-1.17-1.64-1.46c-1.44-.43-2.28-.82-2.28-2.29,0-1.65,1-2.19,2.79-2.19a11.84,11.84,0,0,1,2.12.2l-.1.88a12.23,12.23,0,0,0-1.66-.14C792,1252,790.89,1252.11,790.89,1253.12Z" transform="translate(-189.47 -1180.11)"/><path class="cls-1" d="M649,1239.38,660.73,1205c1.32-3.86,3.45-5.5,6.49-5.5s5.16,1.74,6.43,5.5l11.54,34.38h-8.5l-3-9.78H660.2l-2.94,9.78Zm22.8-15.93-4.91-16-4.83,16Z" transform="translate(-189.47 -1180.11)"/><path class="cls-1" d="M689.72,1199.91h8v39.47h-8Z" transform="translate(-189.47 -1180.11)"/><path class="cls-1" d="M729.42,1239.21c-2.8.11-7.62.27-10.1.27-7.13,0-13.7-.39-13.7-9.64v-29.93h8v27.69c0,4.39.79,5.37,5.52,5.37h10.25Z" transform="translate(-189.47 -1180.11)"/><path class="cls-1" d="M733,1219.64c0-14.3,3.5-20.14,15.78-20.14s15.77,5.84,15.77,20.14-3.5,20.14-15.77,20.14S733,1233.94,733,1219.64Zm23.42,0c0-8.05-.17-13.55-7.64-13.55s-7.65,5.5-7.65,13.55.17,13.54,7.65,13.54S756.39,1227.69,756.39,1219.64Z" transform="translate(-189.47 -1180.11)"/><path class="cls-1" d="M777.81,1210.1c0,4,2.71,4.51,7.25,5.73,7.56,2.05,10.81,5,10.81,12.11,0,8.71-5.3,11.84-14.65,11.84a52.92,52.92,0,0,1-11.4-1.22l.78-6.32a81.44,81.44,0,0,0,10.33.88c4.15,0,6.69-.93,6.69-4.89,0-3.68-2.9-4.51-6.55-5.62-7.08-2.17-11.25-4.36-11.25-11.81,0-8.56,5-11.3,14.13-11.3a56.61,56.61,0,0,1,11.29,1.24l-.72,6.14a58.4,58.4,0,0,0-8.69-.86C782.64,1206,777.81,1206.16,777.81,1210.1Z" transform="translate(-189.47 -1180.11)"/><path class="cls-1" d="M621.11,1224.35l-7.62-18.68c-.76-1.73-1.32-3-2.46-3s-1.71,1.31-2.4,3L604,1216.44l-4.59-10.77c-.69-1.66-1.24-3-2.4-3s-1.7,1.24-2.46,3l-7.63,18.68a3.6,3.6,0,0,0,3.54,5.17h3.35l0,4.26a2.78,2.78,0,0,0,2.77,2.77h1a2.78,2.78,0,0,0,2.77-2.77v-2.09a1.7,1.7,0,0,0,0-.22v-2h7.41v2a1.7,1.7,0,0,0,0,.22v2.09a2.78,2.78,0,0,0,2.77,2.77h1a2.78,2.78,0,0,0,2.77-2.77l0-4.26h3.35a3.6,3.6,0,0,0,3.53-5.19Zm-20.33,3.12h-2.54v6.33a.7.7,0,0,1-.7.7h-1a.7.7,0,0,1-.7-.7l0-2.53v-3.8h-5.42a1.56,1.56,0,0,1-1.62-2.33l7.61-18.65c.1-.23.33-.75.54-1.18.14.3.32.68.52,1.16l5.36,12.62-2.05,5.28A4,4,0,0,0,600.78,1227.47Zm4.5-.69a1.52,1.52,0,0,1-2.53,0,1.82,1.82,0,0,1,0-1.65l1.26-3.23,1.29,3.23A1.84,1.84,0,0,1,605.28,1226.78Zm13.87,0a1.82,1.82,0,0,1-1.57.65h-5.42l0,6.33a.7.7,0,0,1-.7.7h-1a.7.7,0,0,1-.7-.7v-6.33h-2.54a4,4,0,0,0,0-3.1l-2.12-5.28,5.44-12.62c.19-.48.36-.86.51-1.16.21.43.43.94.53,1.16l7.61,18.65A1.82,1.82,0,0,1,619.15,1226.82Z" transform="translate(-189.47 -1180.11)"/><path class="cls-2" d="M625.2,1238.59a28.88,28.88,0,0,1-21.2,9.23c-.89,0-1.76,0-2.63-.11a31.55,31.55,0,0,1-18.68-.81,31.29,31.29,0,0,0,55.82-23.17A31.39,31.39,0,0,1,625.2,1238.59Z" transform="translate(-189.47 -1180.11)"/><path class="cls-3" d="M608.87,1190.34A29,29,0,0,1,630,1206.12a31.14,31.14,0,0,1,8.51,17.61,31.29,31.29,0,0,0-47.41-37.45c.73,0,1.47-.08,2.22-.08A31.14,31.14,0,0,1,608.87,1190.34Z" transform="translate(-189.47 -1180.11)"/><path class="cls-4" d="M633,1218.88a28.85,28.85,0,0,1-7.76,19.71,31.39,31.39,0,0,0,13.31-14.86,31.14,31.14,0,0,0-8.51-17.61A28.88,28.88,0,0,1,633,1218.88Z" transform="translate(-189.47 -1180.11)"/><path class="cls-5" d="M576.22,1227.07a29,29,0,0,1,3.27-23.61,31.31,31.31,0,0,1,11.61-17.18,31.28,31.28,0,0,0-8.41,60.62,31.12,31.12,0,0,1-6.48-19.05C576.21,1227.59,576.21,1227.33,576.22,1227.07Z" transform="translate(-189.47 -1180.11)"/><path class="cls-6" d="M601.37,1247.71a29,29,0,0,1-25.15-20.64c0,.26,0,.52,0,.78a31.12,31.12,0,0,0,6.48,19.05,31.55,31.55,0,0,0,18.68.81Z" transform="translate(-189.47 -1180.11)"/><path class="cls-7" d="M579.49,1203.46a29,29,0,0,1,29.38-13.12,31.14,31.14,0,0,0-15.55-4.14c-.75,0-1.49,0-2.22.08A31.31,31.31,0,0,0,579.49,1203.46Z" transform="translate(-189.47 -1180.11)"/><path class="cls-1" d="M302.29,1238.59a41.33,41.33,0,0,1-10.3,1.18c-13.1,0-16.33-6.13-16.33-20.12s3.25-20.12,16.33-20.12a41.15,41.15,0,0,1,10.3,1.2l-.71,6.18a49.6,49.6,0,0,0-8.12-.68c-9.48,0-9.65,5.67-9.65,13.42s.14,13.42,9.65,13.42a49.17,49.17,0,0,0,8.1-.68Z" transform="translate(-189.47 -1180.11)"/><path class="cls-1" d="M316,1239.36h-8v-38.75a75.64,75.64,0,0,1,12.82-1.08c8.72,0,15.84,1.73,15.84,12.39,0,7-2.92,10.25-7.56,11.66l9,15.78h-9.2l-8.09-14.87c-1.61,0-3.44-.08-4.83-.17Zm0-21.4a44.15,44.15,0,0,0,4.88.2c5,0,7.88-1.27,7.88-6.28,0-4.36-2-6.11-7.71-6.11a39.54,39.54,0,0,0-5.05.34Z" transform="translate(-189.47 -1180.11)"/><path class="cls-1" d="M367.9,1206.33H357c-4.73,0-5.54,1-5.54,5.33v4.47h15.67v6.36H351.48v5.11c0,4.37.81,5.37,5.54,5.37H367.9v6.19c-2.78.14-8.08.31-10.72.31-7.12,0-13.69-.39-13.69-9.63v-20.39c0-9.24,6.57-9.62,13.69-9.62,2.86,0,8,.16,10.72.29Z" transform="translate(-189.47 -1180.11)"/><path class="cls-1" d="M395.23,1234.44c-1.23,3.81-3.2,5.33-6.07,5.33s-4.81-1.4-6.09-5.33l-11.31-34.5h8.53l8.94,30.42,9-30.42h8.23Z" transform="translate(-189.47 -1180.11)"/><path class="cls-1" d="M411,1199.94h8v39.42h-8Z" transform="translate(-189.47 -1180.11)"/><path class="cls-1" d="M433.31,1210.12c0,4,2.7,4.5,7.24,5.72,7.55,2.05,10.8,5,10.8,12.1,0,8.7-5.3,11.83-14.64,11.83a52.75,52.75,0,0,1-11.39-1.22l.78-6.31a83.16,83.16,0,0,0,10.32.88c4.15,0,6.68-.93,6.68-4.89,0-3.67-2.89-4.5-6.54-5.62-7.08-2.17-11.24-4.35-11.24-11.79,0-8.55,5-11.29,14.11-11.29a57.44,57.44,0,0,1,11.29,1.23l-.73,6.15a56.67,56.67,0,0,0-8.68-.87C438.13,1206,433.31,1206.18,433.31,1210.12Z" transform="translate(-189.47 -1180.11)"/><path class="cls-1" d="M483,1238.59a41.48,41.48,0,0,1-10.31,1.18c-13.1,0-16.33-6.13-16.33-20.12s3.25-20.12,16.33-20.12a41.24,41.24,0,0,1,10.31,1.2l-.72,6.18a49.5,49.5,0,0,0-8.12-.68c-9.47,0-9.64,5.67-9.64,13.42s.13,13.42,9.64,13.42a49.29,49.29,0,0,0,8.11-.68Z" transform="translate(-189.47 -1180.11)"/><path class="cls-1" d="M285.37,1266.55a16.44,16.44,0,0,1-3.61.38c-4.93,0-6.14-2.38-6.14-7.83s1.21-7.84,6.14-7.84a17.22,17.22,0,0,1,3.61.37l-.19,1.67a18.12,18.12,0,0,0-2.8-.24c-4.38,0-4.6,2.32-4.6,6s.26,6,4.6,6a18.47,18.47,0,0,0,2.81-.24Z" transform="translate(-189.47 -1180.11)"/><path class="cls-1" d="M287.67,1259.1c0-5.57,1.31-7.84,5.93-7.84s5.92,2.27,5.92,7.84-1.31,7.83-5.92,7.83S287.67,1264.66,287.67,1259.1Zm9.7,0c0-3.58-.13-6.07-3.77-6.07s-3.77,2.49-3.77,6.07.12,6.06,3.77,6.06S297.37,1262.66,297.37,1259.1Z" transform="translate(-189.47 -1180.11)"/><path class="cls-1" d="M302.55,1259.1c0-5.57,1.31-7.84,5.93-7.84s5.92,2.27,5.92,7.84-1.31,7.83-5.92,7.83S302.55,1264.66,302.55,1259.1Zm9.7,0c0-3.58-.13-6.07-3.77-6.07s-3.77,2.49-3.77,6.07.11,6.06,3.77,6.06S312.25,1262.66,312.25,1259.1Z" transform="translate(-189.47 -1180.11)"/><path class="cls-1" d="M319.92,1266.77H317.8v-15.13a29.87,29.87,0,0,1,4.72-.38c3.29,0,6,.66,6,4.7s-2.39,4.8-5.78,4.8c-.8,0-2.06-.06-2.78-.1Zm0-7.84a22.25,22.25,0,0,0,2.6.13c2.47,0,3.85-.63,3.85-3.1,0-2.14-1-3-3.77-3a19.87,19.87,0,0,0-2.68.18Z" transform="translate(-189.47 -1180.11)"/><path class="cls-1" d="M340.1,1253.13h-3.92c-2.47,0-2.89.47-2.89,2.68v2.29h6.51v1.71h-6.51v2.58c0,2.21.42,2.67,2.89,2.67h3.92v1.66c-1.16,0-2.74.09-3.85.09-2.63,0-5.07-.13-5.07-3.5v-8.43c0-3.36,2.44-3.5,5.07-3.5,1,0,2.67,0,3.85.09Z" transform="translate(-189.47 -1180.11)"/><path class="cls-1" d="M343.34,1266.77v-15.13a29.87,29.87,0,0,1,4.72-.38c3.26,0,5.95.63,5.95,4.64,0,2.9-1.35,4.11-3.45,4.53l3.63,6.34h-2.47l-3.37-6.14h-.11c-.8,0-2.06-.06-2.78-.1v6.24Zm2.12-8a22.19,22.19,0,0,0,2.6.12c2.44,0,3.85-.62,3.85-3,0-2.12-1-3-3.77-3a20,20,0,0,0-2.68.19Z" transform="translate(-189.47 -1180.11)"/><path class="cls-1" d="M356,1266.77l4.94-14a1.79,1.79,0,0,1,3.53,0l4.87,14H367.1l-1.43-4.25h-6.06l-1.42,4.25Zm9.1-5.92-2.48-7.4-2.47,7.4Z" transform="translate(-189.47 -1180.11)"/><path class="cls-1" d="M380.68,1253.15h-4v13.62h-2.13v-13.62h-4v-1.73h10.14Z" transform="translate(-189.47 -1180.11)"/><path class="cls-1" d="M383.13,1251.42h2.12v15.35h-2.12Z" transform="translate(-189.47 -1180.11)"/><path class="cls-1" d="M395.74,1265.46c-.35,1-.87,1.47-1.66,1.47s-1.31-.43-1.66-1.47l-4.68-14H390l4.12,12.95,4.16-12.95h2.15Z" transform="translate(-189.47 -1180.11)"/><path class="cls-1" d="M401.66,1266.77l4.94-14a1.79,1.79,0,0,1,3.53,0l4.87,14h-2.25l-1.43-4.25h-6.06l-1.42,4.25Zm9.1-5.92-2.48-7.4-2.47,7.4Z" transform="translate(-189.47 -1180.11)"/><path class="cls-1" d="M422.33,1266.77l4.94-14a1.79,1.79,0,0,1,3.53,0l4.87,14h-2.25l-1.43-4.25h-6.06l-1.42,4.25Zm9.1-5.92-2.48-7.4-2.47,7.4Z" transform="translate(-189.47 -1180.11)"/><path class="cls-1" d="M438.19,1251.42h2.12v15.35h-2.12Z" transform="translate(-189.47 -1180.11)"/><path class="cls-1" d="M452.7,1266.74c-1.17,0-2.57.07-3.59.07-2.62,0-5.07-.13-5.07-3.5v-11.89h2.12v11c0,2.2.41,2.67,2.89,2.67h3.65Z" transform="translate(-189.47 -1180.11)"/><path class="cls-1" d="M454.53,1259.1c0-5.57,1.31-7.84,5.93-7.84s5.92,2.27,5.92,7.84-1.31,7.83-5.92,7.83S454.53,1264.66,454.53,1259.1Zm9.7,0c0-3.58-.13-6.07-3.77-6.07s-3.77,2.49-3.77,6.07.12,6.06,3.77,6.06S464.23,1262.66,464.23,1259.1Z" transform="translate(-189.47 -1180.11)"/><path class="cls-1" d="M471.16,1255.15c0,1.94,1,2.22,3.27,2.86,2.59.73,4.17,1.76,4.17,4.51,0,3.23-2,4.41-5.45,4.41a19,19,0,0,1-4-.39l.21-1.73a28.56,28.56,0,0,0,3.77.3c2,0,3.32-.43,3.32-2.51,0-1.82-1.32-2.24-3.08-2.78-2.71-.82-4.29-1.57-4.29-4.38,0-3.15,1.88-4.18,5.25-4.18a21.17,21.17,0,0,1,4,.39l-.2,1.68a21.65,21.65,0,0,0-3.11-.28C473.2,1253.05,471.16,1253.23,471.16,1255.15Z" transform="translate(-189.47 -1180.11)"/><path class="cls-1" d="M248.49,1224.31l-7.62-18.67c-.75-1.73-1.31-3-2.45-3s-1.71,1.32-2.4,3l-4.64,10.77-4.58-10.76c-.69-1.65-1.24-3-2.4-3s-1.7,1.24-2.46,3l-7.62,18.66a3.6,3.6,0,0,0,3.53,5.17h3.36v4.25a2.77,2.77,0,0,0,2.77,2.77h1a2.77,2.77,0,0,0,2.77-2.77v-2.08a1.62,1.62,0,0,0,0-.22v-2h7.4v2a1.62,1.62,0,0,0,0,.22v2.08a2.77,2.77,0,0,0,2.77,2.77h1a2.78,2.78,0,0,0,2.77-2.77v-4.25H245a3.59,3.59,0,0,0,3.53-5.18Zm-20.31,3.11h-2.54v6.32a.7.7,0,0,1-.7.7h-1a.7.7,0,0,1-.7-.7l0-2.52v-3.8h-5.42a1.81,1.81,0,0,1-1.56-.65,1.78,1.78,0,0,1,0-1.68l7.6-18.62c.11-.24.33-.75.54-1.18.15.29.32.68.52,1.15l5.36,12.61-2,5.27A4,4,0,0,0,228.18,1227.42Zm4.49-.69a1.52,1.52,0,0,1-2.52,0,1.84,1.84,0,0,1,0-1.66l1.26-3.22,1.3,3.23A1.85,1.85,0,0,1,232.67,1226.73Zm13.86,0a1.83,1.83,0,0,1-1.57.65h-5.42v6.32a.7.7,0,0,1-.7.7h-1a.7.7,0,0,1-.7-.7v-6.32h-2.53a4,4,0,0,0,0-3.1l-2.12-5.27,5.43-12.61c.2-.47.37-.86.51-1.15.22.42.44.93.53,1.15l7.61,18.63A1.82,1.82,0,0,1,246.53,1226.77Z" transform="translate(-189.47 -1180.11)"/><path class="cls-8" d="M252.57,1238.53a28.86,28.86,0,0,1-21.18,9.23c-.88,0-1.76,0-2.62-.12a31.52,31.52,0,0,1-18.67-.81,31.26,31.26,0,0,0,56-19,30.84,30.84,0,0,0-.27-4.11A31.37,31.37,0,0,1,252.57,1238.53Z" transform="translate(-189.47 -1180.11)"/><path class="cls-9" d="M236.26,1190.33a29,29,0,0,1,21.11,15.77,31.11,31.11,0,0,1,8.5,17.59,31.26,31.26,0,0,0-47.37-37.41c.74-.06,1.47-.08,2.22-.08A31.06,31.06,0,0,1,236.26,1190.33Z" transform="translate(-189.47 -1180.11)"/><path class="cls-10" d="M260.32,1218.84a28.78,28.78,0,0,1-7.75,19.69,31.37,31.37,0,0,0,13.3-14.84,31.11,31.11,0,0,0-8.5-17.59A28.75,28.75,0,0,1,260.32,1218.84Z" transform="translate(-189.47 -1180.11)"/><path class="cls-11" d="M203.64,1227a29,29,0,0,1,3.27-23.59,31.25,31.25,0,0,1,11.59-17.15,31.24,31.24,0,0,0-8.4,60.55,31.13,31.13,0,0,1-6.47-19C203.63,1227.54,203.64,1227.28,203.64,1227Z" transform="translate(-189.47 -1180.11)"/><path class="cls-12" d="M228.77,1247.64A29,29,0,0,1,203.64,1227c0,.26,0,.52,0,.78a31.13,31.13,0,0,0,6.47,19,31.52,31.52,0,0,0,18.67.81Z" transform="translate(-189.47 -1180.11)"/><path class="cls-13" d="M206.91,1203.43a29,29,0,0,1,29.35-13.1,31.06,31.06,0,0,0-15.54-4.13c-.75,0-1.48,0-2.22.08A31.25,31.25,0,0,0,206.91,1203.43Z" transform="translate(-189.47 -1180.11)"/></svg>