<svg id="Layer_1" data-name="Layer 1" xmlns="http://www.w3.org/2000/svg" xmlns:xlink="http://www.w3.org/1999/xlink" viewBox="0 0 413.57 86.77"><defs><style>.cls-1{fill:#165c7d;}.cls-2{fill:url(#linear-gradient);}.cls-3{fill:url(#linear-gradient-2);}.cls-4{fill:#886b25;}.cls-5{fill:url(#linear-gradient-3);}.cls-6{fill:#007d8a;}.cls-7{fill:#007041;}</style><linearGradient id="linear-gradient" x1="40.55" y1="81.17" x2="96.59" y2="81.17" gradientUnits="userSpaceOnUse"><stop offset="0" stop-color="#00a9ce"/><stop offset="0.41" stop-color="#00a7cb"/><stop offset="0.66" stop-color="#009fc3"/><stop offset="0.86" stop-color="#0091b5"/><stop offset="1" stop-color="#0083a6"/></linearGradient><linearGradient id="linear-gradient-2" x1="48.95" y1="41.71" x2="98.85" y2="41.71" gradientUnits="userSpaceOnUse"><stop offset="0" stop-color="#ffa300"/><stop offset="0.35" stop-color="#fca200"/><stop offset="0.56" stop-color="#f49d00"/><stop offset="0.73" stop-color="#e69600"/><stop offset="0.89" stop-color="#d28b00"/><stop offset="1" stop-color="#bd8000"/></linearGradient><linearGradient id="linear-gradient-3" x1="19.92" y1="56.36" x2="48.95" y2="56.36" gradientUnits="userSpaceOnUse"><stop offset="0" stop-color="#00b140"/><stop offset="0.39" stop-color="#00ae40"/><stop offset="0.62" stop-color="#01a63e"/><stop offset="0.82" stop-color="#02983b"/><stop offset="0.99" stop-color="#038437"/><stop offset="1" stop-color="#038237"/></linearGradient></defs><path class="cls-1" d="M78.94,64.12,71.32,45.45c-.75-1.73-1.31-3-2.45-3s-1.71,1.32-2.4,3L61.83,56.21,57.25,45.45c-.69-1.65-1.24-3-2.4-3s-1.7,1.24-2.46,3L44.77,64.13A3.6,3.6,0,0,0,48.3,69.3h3.36v4.25a2.77,2.77,0,0,0,2.77,2.77h1a2.77,2.77,0,0,0,2.77-2.77V71.47a1.62,1.62,0,0,0,0-.22v-2h3.37l.33,0,.32,0h3.38v2a1.62,1.62,0,0,0,0,.22v2.08a2.77,2.77,0,0,0,2.77,2.77h1a2.78,2.78,0,0,0,2.77-2.77V69.3h3.35a3.6,3.6,0,0,0,3.53-5.18ZM58.63,67.23H56.09v6.32a.7.7,0,0,1-.7.7h-1a.7.7,0,0,1-.7-.7l0-2.52v-3.8H48.3a1.55,1.55,0,0,1-1.61-2.33l7.6-18.63c.11-.23.33-.74.54-1.18.15.3.32.69.52,1.16l5.36,12.61-2.05,5.27A4,4,0,0,0,58.63,67.23Zm4.49-.69a1.52,1.52,0,0,1-2.52,0,1.84,1.84,0,0,1,0-1.66l1.26-3.23,1.3,3.24A1.85,1.85,0,0,1,63.12,66.54Zm13.86,0a1.82,1.82,0,0,1-1.57.65H70v6.32a.7.7,0,0,1-.7.7h-1a.7.7,0,0,1-.7-.7V67.23H65.09a4,4,0,0,0,0-3.1l-2.12-5.27,5.43-12.61c.2-.48.37-.86.51-1.16.22.43.44.94.53,1.16L77,64.88A1.82,1.82,0,0,1,77,66.58Z" transform="translate(-19.92 -19.92)"/><path class="cls-2" d="M83,78.34a28.85,28.85,0,0,1-21.18,9.22c-.88,0-1.76,0-2.62-.12a31.4,31.4,0,0,1-18.67-.8,31.26,31.26,0,0,0,56-19,30.84,30.84,0,0,0-.27-4.11A31.37,31.37,0,0,1,83,78.34Z" transform="translate(-19.92 -19.92)"/><path class="cls-3" d="M66.71,30.14A29,29,0,0,1,87.82,45.9a31.16,31.16,0,0,1,8.5,17.6A31.26,31.26,0,0,0,49,26.08c.74,0,1.47-.07,2.22-.07A31.06,31.06,0,0,1,66.71,30.14Z" transform="translate(-19.92 -19.92)"/><path class="cls-4" d="M90.77,58.65A28.8,28.8,0,0,1,83,78.34,31.37,31.37,0,0,0,96.32,63.5a31.16,31.16,0,0,0-8.5-17.6A28.83,28.83,0,0,1,90.77,58.65Z" transform="translate(-19.92 -19.92)"/><path class="cls-5" d="M34.09,66.83a29,29,0,0,1,3.27-23.59A31.31,31.31,0,0,1,49,26.08a31.25,31.25,0,0,0-8.4,60.56,31.13,31.13,0,0,1-6.47-19C34.08,67.35,34.09,67.09,34.09,66.83Z" transform="translate(-19.92 -19.92)"/><path class="cls-6" d="M59.22,87.44A28.94,28.94,0,0,1,34.09,66.83c0,.26,0,.52,0,.78a31.13,31.13,0,0,0,6.47,19,31.4,31.4,0,0,0,18.67.8Z" transform="translate(-19.92 -19.92)"/><path class="cls-7" d="M37.36,43.24a29,29,0,0,1,29.35-13.1A31.06,31.06,0,0,0,51.17,26c-.75,0-1.48,0-2.22.07A31.31,31.31,0,0,0,37.36,43.24Z" transform="translate(-19.92 -19.92)"/><path class="cls-1" d="M106.79,79.12l11.72-34.33c1.32-3.86,3.46-5.5,6.49-5.5s5.16,1.74,6.43,5.5L143,79.12h-8.5l-3-9.76H118L115,79.12Zm22.77-15.9-4.9-15.94-4.83,15.94Z" transform="translate(-19.92 -19.92)"/><path class="cls-1" d="M173,78.34a40.81,40.81,0,0,1-10.3,1.19c-13.1,0-16.33-6.13-16.33-20.12s3.25-20.12,16.33-20.12a41.09,41.09,0,0,1,10.3,1.2l-.71,6.18a49.6,49.6,0,0,0-8.12-.68c-9.48,0-9.65,5.67-9.65,13.42s.14,13.42,9.65,13.42a50.4,50.4,0,0,0,8.11-.68Z" transform="translate(-19.92 -19.92)"/><path class="cls-1" d="M186.66,79.12h-8V40.37a75.76,75.76,0,0,1,12.83-1.08c8.71,0,15.84,1.72,15.84,12.39,0,7-2.93,10.25-7.57,11.66l9,15.78h-9.2l-8.09-14.87c-1.61,0-3.44-.09-4.82-.17Zm0-21.4a43.87,43.87,0,0,0,4.87.2c5,0,7.89-1.27,7.89-6.28,0-4.36-2-6.11-7.72-6.11a39.39,39.39,0,0,0-5,.34Z" transform="translate(-19.92 -19.92)"/><path class="cls-1" d="M238.6,46.09H227.72c-4.72,0-5.54,1-5.54,5.33v4.47h15.67v6.36H222.18v5.11c0,4.37.82,5.37,5.54,5.37H238.6v6.19c-2.78.14-8.07.3-10.71.3-7.13,0-13.69-.38-13.69-9.62V49.21c0-9.24,6.56-9.62,13.69-9.62,2.86,0,8,.16,10.71.29Z" transform="translate(-19.92 -19.92)"/><path class="cls-1" d="M245.92,40.41a72.22,72.22,0,0,1,12.84-1.12c14.77,0,17.4,6.72,17.4,20.12s-2.63,20.12-17.4,20.12a75.33,75.33,0,0,1-12.84-1.08Zm8,5.7v26.6a25.52,25.52,0,0,0,3.74.29c10.39,0,10.47-5.89,10.47-13.59s-.08-13.57-10.47-13.57A27.31,27.31,0,0,0,253.92,46.11Z" transform="translate(-19.92 -19.92)"/><path class="cls-1" d="M283,39.69h8V79.12h-8Z" transform="translate(-19.92 -19.92)"/><path class="cls-1" d="M324.47,78.34a40.89,40.89,0,0,1-10.31,1.19c-13.1,0-16.33-6.13-16.33-20.12s3.25-20.12,16.33-20.12a41.18,41.18,0,0,1,10.31,1.2l-.71,6.18a49.72,49.72,0,0,0-8.13-.68c-9.47,0-9.64,5.67-9.64,13.42s.13,13.42,9.64,13.42a50.4,50.4,0,0,0,8.11-.68Z" transform="translate(-19.92 -19.92)"/><path class="cls-1" d="M329,59.41c0-14.28,3.51-20.12,15.78-20.12s15.75,5.84,15.75,20.12-3.5,20.12-15.75,20.12S329,73.69,329,59.41Zm23.41,0c0-8-.17-13.54-7.63-13.54s-7.65,5.5-7.65,13.54.17,13.52,7.65,13.52S352.45,67.45,352.45,59.41Z" transform="translate(-19.92 -19.92)"/><path class="cls-1" d="M366.38,59.41c0-14.28,3.5-20.12,15.77-20.12s15.76,5.84,15.76,20.12-3.51,20.12-15.76,20.12S366.38,73.69,366.38,59.41Zm23.41,0c0-8-.17-13.54-7.64-13.54s-7.65,5.5-7.65,13.54.17,13.52,7.65,13.52S389.79,67.45,389.79,59.41Z" transform="translate(-19.92 -19.92)"/><path class="cls-1" d="M412.81,79.12h-8V40.37a75.76,75.76,0,0,1,12.83-1.08c8.78,0,15.84,1.74,15.84,12.52,0,10.48-6.37,12.74-15.42,12.74-1.73,0-3.74-.08-5.26-.18Zm0-21.08a39.51,39.51,0,0,0,4.87.22c5,0,7.87-1.3,7.87-6.45,0-4.48-1.88-6.26-7.7-6.26a39.15,39.15,0,0,0-5,.34Z" transform="translate(-19.92 -19.92)"/><path class="cls-1" d="M116.57,106.31a16.61,16.61,0,0,1-3.62.38c-4.93,0-6.14-2.39-6.14-7.84S108,91,113,91a16.74,16.74,0,0,1,3.62.37l-.2,1.67a18.12,18.12,0,0,0-2.8-.24c-4.37,0-4.6,2.32-4.6,6s.26,6,4.6,6a18.47,18.47,0,0,0,2.81-.24Z" transform="translate(-19.92 -19.92)"/><path class="cls-1" d="M118.86,98.85c0-5.56,1.32-7.83,5.93-7.83s5.92,2.27,5.92,7.83-1.3,7.84-5.92,7.84S118.86,104.42,118.86,98.85Zm9.7,0c0-3.57-.13-6.06-3.77-6.06S121,95.28,121,98.85s.12,6.07,3.77,6.07S128.56,102.42,128.56,98.85Z" transform="translate(-19.92 -19.92)"/><path class="cls-1" d="M133.74,98.85c0-5.56,1.31-7.83,5.93-7.83s5.92,2.27,5.92,7.83-1.31,7.84-5.92,7.84S133.74,104.42,133.74,98.85Zm9.7,0c0-3.57-.13-6.06-3.77-6.06s-3.77,2.49-3.77,6.06.12,6.07,3.77,6.07S143.44,102.42,143.44,98.85Z" transform="translate(-19.92 -19.92)"/><path class="cls-1" d="M151.11,106.53H149V91.4a28.73,28.73,0,0,1,4.72-.38c3.29,0,6,.66,6,4.7s-2.39,4.79-5.78,4.79c-.8,0-2.06-.05-2.78-.09Zm0-7.84a22.19,22.19,0,0,0,2.6.12c2.47,0,3.85-.62,3.85-3.09,0-2.15-1-3-3.77-3a21.66,21.66,0,0,0-2.68.17Z" transform="translate(-19.92 -19.92)"/><path class="cls-1" d="M171.29,92.89h-3.92c-2.47,0-2.89.47-2.89,2.67v2.3H171v1.71h-6.51v2.58c0,2.21.42,2.67,2.89,2.67h3.92v1.66c-1.16,0-2.74.09-3.85.09-2.63,0-5.07-.14-5.07-3.5V94.64c0-3.36,2.44-3.51,5.07-3.51,1,0,2.67.05,3.85.1Z" transform="translate(-19.92 -19.92)"/><path class="cls-1" d="M174.53,106.53V91.4a28.73,28.73,0,0,1,4.72-.38c3.26,0,6,.63,6,4.64,0,2.9-1.36,4.11-3.46,4.53l3.63,6.34h-2.47l-3.37-6.14h-.11c-.8,0-2.06-.06-2.78-.1v6.24Zm2.12-8a22.19,22.19,0,0,0,2.6.12c2.44,0,3.85-.62,3.85-3,0-2.12-1-3-3.77-3a20,20,0,0,0-2.68.19Z" transform="translate(-19.92 -19.92)"/><path class="cls-1" d="M187.21,106.53l4.94-14a1.79,1.79,0,0,1,3.53,0l4.86,14h-2.25l-1.43-4.25H190.8l-1.42,4.25Zm9.1-5.92-2.49-7.4-2.47,7.4Z" transform="translate(-19.92 -19.92)"/><path class="cls-1" d="M211.87,92.91h-4v13.62h-2.13V92.91h-4V91.17h10.14Z" transform="translate(-19.92 -19.92)"/><path class="cls-1" d="M214.32,91.17h2.12v15.36h-2.12Z" transform="translate(-19.92 -19.92)"/><path class="cls-1" d="M226.93,105.22c-.35,1-.87,1.47-1.66,1.47s-1.31-.43-1.66-1.47l-4.68-14h2.25l4.12,13,4.16-13h2.16Z" transform="translate(-19.92 -19.92)"/><path class="cls-1" d="M232.85,106.53l5-14a1.79,1.79,0,0,1,3.52,0l4.87,14h-2.25l-1.43-4.25h-6.06L235,106.53Zm9.11-5.92-2.49-7.4-2.47,7.4Z" transform="translate(-19.92 -19.92)"/><path class="cls-1" d="M253.52,106.53l5-14a1.79,1.79,0,0,1,3.52,0l4.87,14h-2.25l-1.43-4.25h-6.06l-1.42,4.25Zm9.11-5.92-2.49-7.4-2.47,7.4Z" transform="translate(-19.92 -19.92)"/><path class="cls-1" d="M269.38,91.17h2.12v15.36h-2.12Z" transform="translate(-19.92 -19.92)"/><path class="cls-1" d="M283.89,106.49c-1.17.05-2.57.08-3.59.08-2.62,0-5.07-.14-5.07-3.5V91.17h2.12v11c0,2.19.41,2.67,2.89,2.67h3.65Z" transform="translate(-19.92 -19.92)"/><path class="cls-1" d="M285.72,98.85c0-5.56,1.31-7.83,5.93-7.83s5.92,2.27,5.92,7.83-1.3,7.84-5.92,7.84S285.72,104.42,285.72,98.85Zm9.7,0c0-3.57-.13-6.06-3.77-6.06s-3.77,2.49-3.77,6.06.12,6.07,3.77,6.07S295.42,102.42,295.42,98.85Z" transform="translate(-19.92 -19.92)"/><path class="cls-1" d="M302.35,94.91c0,1.93,1,2.22,3.27,2.86,2.6.73,4.18,1.76,4.18,4.51,0,3.23-2,4.41-5.46,4.41a18.84,18.84,0,0,1-4-.39l.2-1.73a28.7,28.7,0,0,0,3.77.3c2,0,3.33-.43,3.33-2.51,0-1.82-1.33-2.24-3.09-2.78-2.71-.82-4.29-1.57-4.29-4.38,0-3.15,1.88-4.18,5.25-4.18a21.17,21.17,0,0,1,4,.39l-.2,1.68a21.52,21.52,0,0,0-3.11-.28C304.39,92.81,302.35,93,302.35,94.91Z" transform="translate(-19.92 -19.92)"/></svg>