<svg id="Camada_1" data-name="Camada 1" xmlns="http://www.w3.org/2000/svg" xmlns:xlink="http://www.w3.org/1999/xlink" viewBox="0 0 602.64 87.4"><defs><style>.cls-1{fill:#fff;}.cls-2{fill:url(#linear-gradient);}.cls-3{fill:url(#linear-gradient-2);}.cls-4{fill:#876b26;}.cls-5{fill:url(#linear-gradient-3);}.cls-6{fill:#007d88;}.cls-7{fill:#027042;}.cls-8{fill:url(#linear-gradient-4);}.cls-9{fill:url(#linear-gradient-5);}.cls-10{fill:#926b17;}.cls-11{fill:url(#linear-gradient-6);}.cls-12{fill:#007e8b;}.cls-13{fill:#00713c;}</style><linearGradient id="linear-gradient" x1="582.69" y1="410.11" x2="638.78" y2="410.11" gradientUnits="userSpaceOnUse"><stop offset="0" stop-color="#0ea7cc"/><stop offset="0.41" stop-color="#0da5c9"/><stop offset="0.66" stop-color="#0a9dc1"/><stop offset="0.86" stop-color="#068fb3"/><stop offset="1" stop-color="#0181a4"/></linearGradient><linearGradient id="linear-gradient-2" x1="591.1" y1="370.6" x2="641.05" y2="370.6" gradientUnits="userSpaceOnUse"><stop offset="0" stop-color="#fda101"/><stop offset="0.35" stop-color="#faa001"/><stop offset="0.56" stop-color="#f29c01"/><stop offset="0.73" stop-color="#e49401"/><stop offset="0.89" stop-color="#d08a01"/><stop offset="1" stop-color="#bb8001"/></linearGradient><linearGradient id="linear-gradient-3" x1="562.03" y1="385.27" x2="591.1" y2="385.27" gradientUnits="userSpaceOnUse"><stop offset="0" stop-color="#09af41"/><stop offset="0.39" stop-color="#09ac40"/><stop offset="0.62" stop-color="#08a43f"/><stop offset="0.82" stop-color="#07963c"/><stop offset="0.99" stop-color="#068237"/><stop offset="1" stop-color="#068037"/></linearGradient><linearGradient id="linear-gradient-4" x1="213.87" y1="410.05" x2="269.9" y2="410.05" gradientUnits="userSpaceOnUse"><stop offset="0" stop-color="#00aad0"/><stop offset="0.41" stop-color="#00a8cd"/><stop offset="0.66" stop-color="#009fc5"/><stop offset="0.86" stop-color="#0091b7"/><stop offset="1" stop-color="#0083a8"/></linearGradient><linearGradient id="linear-gradient-5" x1="222.27" y1="370.58" x2="272.17" y2="370.58" gradientUnits="userSpaceOnUse"><stop offset="0" stop-color="#ffa400"/><stop offset="0.39" stop-color="#fca200"/><stop offset="0.62" stop-color="#f49c00"/><stop offset="0.82" stop-color="#e69100"/><stop offset="0.99" stop-color="#d28100"/><stop offset="1" stop-color="#d08000"/></linearGradient><linearGradient id="linear-gradient-6" x1="193.23" y1="385.24" x2="222.27" y2="385.24" gradientUnits="userSpaceOnUse"><stop offset="0" stop-color="#00b231"/><stop offset="0.39" stop-color="#00af31"/><stop offset="0.62" stop-color="#00a730"/><stop offset="0.81" stop-color="#00992f"/><stop offset="0.98" stop-color="#00852d"/><stop offset="1" stop-color="#00822d"/></linearGradient></defs><path class="cls-1" d="M650,421.8c0,1,.54,1.16,1.73,1.5,1.38.38,2.22.92,2.22,2.36,0,1.69-1,2.31-2.9,2.31a10.19,10.19,0,0,1-2.14-.21l.11-.9a15.24,15.24,0,0,0,2,.16c1,0,1.77-.23,1.77-1.32s-.71-1.17-1.64-1.46c-1.44-.43-2.28-.82-2.28-2.29,0-1.65,1-2.19,2.79-2.19a10.93,10.93,0,0,1,2.12.21l-.1.87a12.23,12.23,0,0,0-1.66-.14C651.1,420.7,650,420.79,650,421.8Z" transform="translate(-193.23 -348.79)"/><path class="cls-1" d="M655.57,419.84h1.13v8.05h-1.13Z" transform="translate(-193.23 -348.79)"/><path class="cls-1" d="M659.41,421.8c0,1,.54,1.16,1.73,1.5,1.38.38,2.22.92,2.22,2.36,0,1.69-1,2.31-2.9,2.31a10.19,10.19,0,0,1-2.14-.21l.11-.9a15.24,15.24,0,0,0,2,.16c1,0,1.77-.23,1.77-1.32s-.71-1.17-1.64-1.46c-1.44-.43-2.28-.82-2.28-2.29,0-1.65,1-2.19,2.79-2.19a10.93,10.93,0,0,1,2.12.21l-.1.87a12.23,12.23,0,0,0-1.66-.14C660.49,420.7,659.41,420.79,659.41,421.8Z" transform="translate(-193.23 -348.79)"/><path class="cls-1" d="M669.91,420.75h-2.13v7.14h-1.13v-7.14h-2.13v-.91h5.39Z" transform="translate(-193.23 -348.79)"/><path class="cls-1" d="M676,420.74h-2.08c-1.31,0-1.54.25-1.54,1.4v1.2h3.46v.9H672.4v1.35c0,1.16.23,1.4,1.54,1.4H676v.87c-.62,0-1.45.05-2,.05-1.4,0-2.7-.08-2.7-1.84v-4.41c0-1.76,1.3-1.84,2.7-1.84.53,0,1.41,0,2,.06Z" transform="translate(-193.23 -348.79)"/><path class="cls-1" d="M681.68,425.39l2.13-4.92c.21-.47.52-.71.85-.71.49,0,.71.25.74.8l.38,7.33h-1.1l-.32-6.48-2,4.88a.66.66,0,0,1-1.28,0l-2-4.87-.33,6.47h-1l.39-7.34c0-.55.25-.79.73-.79.33,0,.63.21.84.7Z" transform="translate(-193.23 -348.79)"/><path class="cls-1" d="M687.2,427.89l2.62-7.36a1,1,0,0,1,.94-.77,1,1,0,0,1,.93.77l2.59,7.36h-1.19l-.76-2.23h-3.22l-.76,2.23Zm4.83-3.1-1.32-3.88-1.31,3.88Z" transform="translate(-193.23 -348.79)"/><path class="cls-1" d="M698.82,420a16.75,16.75,0,0,1,2.5-.19c3,0,3.51,1.37,3.51,4.11s-.53,4.1-3.51,4.1a15.44,15.44,0,0,1-2.5-.2Zm1.12.82V427a8.25,8.25,0,0,0,1.15.09c2.59,0,2.61-1.38,2.61-3.18s0-3.19-2.61-3.19A8.25,8.25,0,0,0,699.94,420.77Z" transform="translate(-193.23 -348.79)"/><path class="cls-1" d="M711.35,420.74h-2.08c-1.32,0-1.54.25-1.54,1.4v1.2h3.46v.9h-3.46v1.35c0,1.16.22,1.4,1.54,1.4h2.08v.87c-.62,0-1.46.05-2.05.05-1.39,0-2.69-.08-2.69-1.84v-4.41c0-1.76,1.3-1.84,2.69-1.84.54,0,1.42,0,2.05.06Z" transform="translate(-193.23 -348.79)"/><path class="cls-1" d="M721.22,427.77a9.2,9.2,0,0,1-1.92.2c-2.62,0-3.26-1.25-3.26-4.1s.64-4.11,3.26-4.11a8.64,8.64,0,0,1,1.92.2l-.1.87a10.32,10.32,0,0,0-1.49-.13c-2.32,0-2.44,1.22-2.44,3.17s.14,3.16,2.44,3.16a9.07,9.07,0,0,0,1.49-.13Z" transform="translate(-193.23 -348.79)"/><path class="cls-1" d="M722.34,423.87c0-2.92.7-4.11,3.15-4.11s3.15,1.19,3.15,4.11-.7,4.1-3.15,4.1S722.34,426.78,722.34,423.87Zm5.15,0c0-1.88-.06-3.18-2-3.18s-2,1.3-2,3.18.06,3.17,2,3.17S727.49,425.73,727.49,423.87Z" transform="translate(-193.23 -348.79)"/><path class="cls-1" d="M730.25,423.87c0-2.92.7-4.11,3.15-4.11s3.15,1.19,3.15,4.11-.7,4.1-3.15,4.1S730.25,426.78,730.25,423.87Zm5.16,0c0-1.88-.07-3.18-2-3.18s-2,1.3-2,3.18.06,3.17,2,3.17S735.41,425.73,735.41,423.87Z" transform="translate(-193.23 -348.79)"/><path class="cls-1" d="M739.49,427.89h-1.12V420a15.48,15.48,0,0,1,2.51-.2c1.74,0,3.16.35,3.16,2.46s-1.27,2.52-3.07,2.52c-.42,0-1.09,0-1.48-.05Zm0-4.11a11.49,11.49,0,0,0,1.39.06c1.3,0,2-.32,2-1.62,0-1.12-.52-1.57-2-1.57a10.54,10.54,0,0,0-1.43.1Z" transform="translate(-193.23 -348.79)"/><path class="cls-1" d="M750.31,420.74h-2.08c-1.32,0-1.54.25-1.54,1.4v1.2h3.46v.9h-3.46v1.35c0,1.16.22,1.4,1.54,1.4h2.08v.87c-.62,0-1.46.05-2,.05-1.39,0-2.69-.08-2.69-1.84v-4.41c0-1.76,1.3-1.84,2.69-1.84.54,0,1.42,0,2,.06Z" transform="translate(-193.23 -348.79)"/><path class="cls-1" d="M752,427.89V420a15.57,15.57,0,0,1,2.51-.2c1.72,0,3.16.33,3.16,2.43a2.11,2.11,0,0,1-1.84,2.38l1.93,3.32h-1.31l-1.79-3.22h-.06c-.43,0-1.09,0-1.48-.05v3.27Zm1.12-4.18a11.49,11.49,0,0,0,1.39.06c1.29,0,2-.32,2-1.58s-.53-1.55-2-1.55a10.65,10.65,0,0,0-1.43.1Z" transform="translate(-193.23 -348.79)"/><path class="cls-1" d="M759,427.89l2.62-7.36a1,1,0,0,1,.94-.77,1,1,0,0,1,.93.77l2.59,7.36h-1.19l-.76-2.23h-3.22l-.76,2.23Zm4.83-3.1-1.32-3.88-1.31,3.88Z" transform="translate(-193.23 -348.79)"/><path class="cls-1" d="M771.25,420.75h-2.12v7.14H768v-7.14h-2.13v-.91h5.38Z" transform="translate(-193.23 -348.79)"/><path class="cls-1" d="M772.7,419.84h1.13v8.05H772.7Z" transform="translate(-193.23 -348.79)"/><path class="cls-1" d="M779.52,427.2c-.18.54-.46.77-.88.77s-.69-.23-.88-.77l-2.49-7.36h1.2l2.19,6.79,2.21-6.79H782Z" transform="translate(-193.23 -348.79)"/><path class="cls-1" d="M781.69,427.89l2.62-7.36a1,1,0,0,1,1.87,0l2.59,7.36h-1.2l-.76-2.23h-3.22l-.75,2.23Zm4.83-3.1-1.32-3.88-1.31,3.88Z" transform="translate(-193.23 -348.79)"/><path class="cls-1" d="M790.89,421.8c0,1,.54,1.16,1.73,1.5,1.38.38,2.22.92,2.22,2.36,0,1.69-1,2.31-2.9,2.31a10.19,10.19,0,0,1-2.14-.21l.11-.9a15.24,15.24,0,0,0,2,.16c1,0,1.77-.23,1.77-1.32s-.71-1.17-1.64-1.46c-1.44-.43-2.28-.82-2.28-2.29,0-1.65,1-2.19,2.79-2.19a10.93,10.93,0,0,1,2.12.21l-.1.87a12.23,12.23,0,0,0-1.66-.14C792,420.7,790.89,420.79,790.89,421.8Z" transform="translate(-193.23 -348.79)"/><path class="cls-1" d="M649,408.06l11.74-34.37c1.32-3.87,3.45-5.51,6.49-5.51s5.16,1.75,6.43,5.51l11.54,34.37h-8.5l-3-9.78H660.2l-2.94,9.78Zm22.8-15.93-4.91-15.95-4.83,15.95Z" transform="translate(-193.23 -348.79)"/><path class="cls-1" d="M689.72,368.59h8v39.47h-8Z" transform="translate(-193.23 -348.79)"/><path class="cls-1" d="M729.42,407.89c-2.8.12-7.62.27-10.1.27-7.13,0-13.7-.39-13.7-9.64V368.59h8v27.69c0,4.39.79,5.37,5.52,5.37h10.25Z" transform="translate(-193.23 -348.79)"/><path class="cls-1" d="M733,388.32c0-14.29,3.5-20.14,15.78-20.14s15.77,5.85,15.77,20.14-3.5,20.14-15.77,20.14S733,402.62,733,388.32Zm23.42,0c0-8-.17-13.55-7.64-13.55s-7.65,5.51-7.65,13.55.17,13.54,7.65,13.54S756.39,396.37,756.39,388.32Z" transform="translate(-193.23 -348.79)"/><path class="cls-1" d="M777.81,378.78c0,4,2.71,4.51,7.25,5.73,7.56,2.05,10.81,5,10.81,12.11,0,8.71-5.3,11.84-14.65,11.84a52.92,52.92,0,0,1-11.4-1.22l.78-6.32a81.44,81.44,0,0,0,10.33.89c4.15,0,6.69-.94,6.69-4.9,0-3.68-2.9-4.51-6.55-5.62-7.08-2.17-11.25-4.36-11.25-11.81,0-8.55,5-11.3,14.13-11.3a56.61,56.61,0,0,1,11.29,1.24l-.72,6.15a57.06,57.06,0,0,0-8.69-.87C782.64,374.7,777.81,374.84,777.81,378.78Z" transform="translate(-193.23 -348.79)"/><path class="cls-1" d="M621.11,393l-7.62-18.68c-.76-1.73-1.32-3-2.46-3s-1.71,1.31-2.4,3L604,385.12l-4.59-10.77c-.69-1.66-1.24-3-2.4-3s-1.7,1.24-2.46,3l-7.63,18.68a3.6,3.6,0,0,0,3.54,5.17h3.35l0,4.26a2.78,2.78,0,0,0,2.77,2.77h1a2.78,2.78,0,0,0,2.77-2.77v-2.09a1.7,1.7,0,0,0,0-.22v-1.95h7.41v1.95a1.7,1.7,0,0,0,0,.22v2.09a2.78,2.78,0,0,0,2.77,2.77h1a2.78,2.78,0,0,0,2.77-2.77l0-4.26h3.35a3.6,3.6,0,0,0,3.53-5.19Zm-20.33,3.12h-2.54v6.33a.7.7,0,0,1-.7.7h-1a.7.7,0,0,1-.7-.7l0-2.53v-3.8h-5.42a1.56,1.56,0,0,1-1.62-2.33l7.61-18.65c.1-.23.33-.75.54-1.18.14.3.32.68.52,1.16l5.36,12.62-2.05,5.28A4,4,0,0,0,600.78,396.15Zm4.5-.69a1.65,1.65,0,0,1-1.26.67,1.69,1.69,0,0,1-1.27-.67,1.84,1.84,0,0,1,0-1.66l1.26-3.23,1.29,3.24A1.82,1.82,0,0,1,605.28,395.46Zm13.87,0a1.82,1.82,0,0,1-1.57.65h-5.42l0,6.33a.7.7,0,0,1-.7.7h-1a.7.7,0,0,1-.7-.7v-6.33h-2.54a4,4,0,0,0,0-3.1l-2.12-5.28,5.44-12.62c.19-.48.36-.86.51-1.16.21.43.43.94.53,1.16l7.61,18.65A1.82,1.82,0,0,1,619.15,395.5Z" transform="translate(-193.23 -348.79)"/><path class="cls-2" d="M625.2,407.27a28.89,28.89,0,0,1-21.2,9.24c-.89,0-1.76-.05-2.63-.12a31.34,31.34,0,0,1-18.68-.81,31.29,31.29,0,0,0,55.82-23.17A31.34,31.34,0,0,1,625.2,407.27Z" transform="translate(-193.23 -348.79)"/><path class="cls-3" d="M608.87,359A29,29,0,0,1,630,374.8a31.14,31.14,0,0,1,8.51,17.61A31.29,31.29,0,0,0,591.1,355c.73,0,1.47-.08,2.22-.08A31.14,31.14,0,0,1,608.87,359Z" transform="translate(-193.23 -348.79)"/><path class="cls-4" d="M633,387.56a28.85,28.85,0,0,1-7.76,19.71,31.34,31.34,0,0,0,13.31-14.86A31.14,31.14,0,0,0,630,374.8,28.88,28.88,0,0,1,633,387.56Z" transform="translate(-193.23 -348.79)"/><path class="cls-5" d="M576.22,395.75a29,29,0,0,1,3.27-23.61A31.31,31.31,0,0,1,591.1,355a31.28,31.28,0,0,0-8.41,60.62,31.12,31.12,0,0,1-6.48-19.05C576.21,396.27,576.21,396,576.22,395.75Z" transform="translate(-193.23 -348.79)"/><path class="cls-6" d="M601.37,416.39a29,29,0,0,1-25.15-20.64c0,.26,0,.52,0,.78a31.12,31.12,0,0,0,6.48,19.05,31.34,31.34,0,0,0,18.68.81Z" transform="translate(-193.23 -348.79)"/><path class="cls-7" d="M579.49,372.14A29,29,0,0,1,608.87,359a31.14,31.14,0,0,0-15.55-4.14c-.75,0-1.49,0-2.22.08A31.31,31.31,0,0,0,579.49,372.14Z" transform="translate(-193.23 -348.79)"/><path class="cls-1" d="M252.25,393l-7.62-18.67c-.75-1.73-1.31-3-2.45-3s-1.7,1.32-2.39,3l-4.64,10.78-4.58-10.77c-.7-1.65-1.24-3-2.4-3s-1.7,1.24-2.47,3L218.09,393a3.6,3.6,0,0,0,3.53,5.17H225l0,4.25a2.77,2.77,0,0,0,2.76,2.77h1a2.77,2.77,0,0,0,2.76-2.77v-4.25h7.39v1.95c0,.07,0,.15,0,.22v2.08a2.78,2.78,0,0,0,2.77,2.77h1a2.77,2.77,0,0,0,2.77-2.77v-4.25h3.36a3.59,3.59,0,0,0,3.52-5.18ZM232,396.1h-2.54v6.32a.7.7,0,0,1-.7.7h-1a.7.7,0,0,1-.7-.7V396.1h-5.42a1.83,1.83,0,0,1-1.57-.65,1.78,1.78,0,0,1,0-1.68l7.6-18.62c.1-.24.33-.75.54-1.18.14.29.31.68.51,1.15L234,387.73,232,393A3.93,3.93,0,0,0,232,396.1Zm4.49-.69a1.65,1.65,0,0,1-1.26.67,1.69,1.69,0,0,1-1.27-.67,1.86,1.86,0,0,1,0-1.65l1.26-3.23,1.29,3.23A1.85,1.85,0,0,1,236.44,395.41Zm13.86,0a1.83,1.83,0,0,1-1.57.65h-5.42l0,6.32a.7.7,0,0,1-.7.7h-1a.7.7,0,0,1-.7-.7V396.1h-2.53a4,4,0,0,0,0-3.1l-2.12-5.27,5.43-12.61c.2-.47.37-.86.51-1.15.21.43.43.93.53,1.15l7.6,18.63A1.82,1.82,0,0,1,250.3,395.45Z" transform="translate(-193.23 -348.79)"/><path class="cls-8" d="M256.34,407.21a28.84,28.84,0,0,1-21.18,9.23c-.89,0-1.76-.05-2.62-.12a31.44,31.44,0,0,1-8,1,31.11,31.11,0,0,1-10.62-1.85,31.25,31.25,0,0,0,55.76-23.14A31.35,31.35,0,0,1,256.34,407.21Z" transform="translate(-193.23 -348.79)"/><path class="cls-9" d="M240,359a29,29,0,0,1,21.1,15.77,31.11,31.11,0,0,1,8.5,17.59A31.25,31.25,0,0,0,222.27,355c.73,0,1.47-.08,2.22-.08A31.12,31.12,0,0,1,240,359Z" transform="translate(-193.23 -348.79)"/><path class="cls-10" d="M264.09,387.52a28.82,28.82,0,0,1-7.75,19.69,31.35,31.35,0,0,0,13.29-14.84,31.11,31.11,0,0,0-8.5-17.59A28.76,28.76,0,0,1,264.09,387.52Z" transform="translate(-193.23 -348.79)"/><path class="cls-11" d="M207.41,395.7a29,29,0,0,1,3.26-23.59A31.27,31.27,0,0,1,222.27,355a31.24,31.24,0,0,0-8.4,60.55,31.07,31.07,0,0,1-6.47-19C207.4,396.22,207.4,396,207.41,395.7Z" transform="translate(-193.23 -348.79)"/><path class="cls-12" d="M232.54,416.32a29,29,0,0,1-25.13-20.62c0,.26,0,.52,0,.78a31.07,31.07,0,0,0,6.47,19,31.11,31.11,0,0,0,10.62,1.85A31.44,31.44,0,0,0,232.54,416.32Z" transform="translate(-193.23 -348.79)"/><path class="cls-13" d="M210.67,372.11A29,29,0,0,1,240,359a31.12,31.12,0,0,0-15.54-4.13c-.75,0-1.49,0-2.22.08A31.27,31.27,0,0,0,210.67,372.11Z" transform="translate(-193.23 -348.79)"/><path class="cls-1" d="M306.7,407.84A41.33,41.33,0,0,1,296.4,409c-13.1,0-16.33-6.12-16.33-20.12s3.25-20.12,16.33-20.12A40.64,40.64,0,0,1,306.7,370l-.71,6.17a50.73,50.73,0,0,0-8.12-.68c-9.48,0-9.65,5.67-9.65,13.42s.14,13.42,9.65,13.42a50.3,50.3,0,0,0,8.1-.67Z" transform="translate(-193.23 -348.79)"/><path class="cls-1" d="M312.31,369.19h8v39.43h-8Z" transform="translate(-193.23 -348.79)"/><path class="cls-1" d="M348.3,403.69c-1.24,3.81-3.2,5.33-6.08,5.33s-4.81-1.4-6.09-5.33l-11.31-34.5h8.53l8.94,30.43,9-30.43h8.23Z" transform="translate(-193.23 -348.79)"/><path class="cls-1" d="M364,369.19h8v39.43h-8Z" transform="translate(-193.23 -348.79)"/><path class="cls-1" d="M376.57,408.62l11.73-34.34c1.32-3.85,3.45-5.5,6.48-5.5s5.16,1.75,6.43,5.5l11.52,34.34h-8.49l-3-9.77H387.77l-2.94,9.77Zm22.78-15.91-4.91-15.94-4.82,15.94Z" transform="translate(-193.23 -348.79)"/><path class="cls-1" d="M289.79,435.8a16.55,16.55,0,0,1-3.62.39c-4.93,0-6.14-2.39-6.14-7.84s1.21-7.84,6.14-7.84a16.68,16.68,0,0,1,3.62.38l-.2,1.66a19.45,19.45,0,0,0-2.8-.24c-4.38,0-4.6,2.32-4.6,6s.26,6,4.6,6a17.27,17.27,0,0,0,2.81-.25Z" transform="translate(-193.23 -348.79)"/><path class="cls-1" d="M292.08,428.35c0-5.56,1.31-7.84,5.93-7.84s5.92,2.28,5.92,7.84-1.31,7.84-5.92,7.84S292.08,433.91,292.08,428.35Zm9.7,0c0-3.57-.13-6.07-3.77-6.07s-3.77,2.5-3.77,6.07.12,6.06,3.77,6.06S301.78,431.92,301.78,428.35Z" transform="translate(-193.23 -348.79)"/><path class="cls-1" d="M307,428.35c0-5.56,1.31-7.84,5.93-7.84s5.92,2.28,5.92,7.84-1.31,7.84-5.92,7.84S307,433.91,307,428.35Zm9.7,0c0-3.57-.13-6.07-3.77-6.07s-3.77,2.5-3.77,6.07.11,6.06,3.77,6.06S316.66,431.92,316.66,428.35Z" transform="translate(-193.23 -348.79)"/><path class="cls-1" d="M324.33,436h-2.12V420.89a29.87,29.87,0,0,1,4.72-.38c3.29,0,6,.67,6,4.7s-2.39,4.8-5.78,4.8c-.8,0-2.06-.05-2.78-.09Zm0-7.85a20.25,20.25,0,0,0,2.6.13c2.47,0,3.85-.62,3.85-3.1,0-2.14-1-3-3.77-3a19.87,19.87,0,0,0-2.68.18Z" transform="translate(-193.23 -348.79)"/><path class="cls-1" d="M344.51,422.38h-3.92c-2.47,0-2.89.48-2.89,2.68v2.29h6.51v1.71H337.7v2.58c0,2.21.42,2.67,2.89,2.67h3.92V436c-1.16,0-2.74.09-3.85.09-2.63,0-5.07-.14-5.07-3.5v-8.43c0-3.37,2.44-3.51,5.07-3.51,1,0,2.67.05,3.85.1Z" transform="translate(-193.23 -348.79)"/><path class="cls-1" d="M347.75,436V420.89a29.87,29.87,0,0,1,4.72-.38c3.26,0,5.95.63,5.95,4.64,0,2.91-1.35,4.11-3.45,4.54L358.6,436h-2.47l-3.37-6.15h-.11c-.8,0-2.06-.05-2.78-.09V436Zm2.12-8a22.19,22.19,0,0,0,2.6.12c2.44,0,3.85-.61,3.85-3,0-2.13-1-2.95-3.77-2.95a21.65,21.65,0,0,0-2.68.18Z" transform="translate(-193.23 -348.79)"/><path class="cls-1" d="M360.42,436l4.94-14a1.79,1.79,0,0,1,3.53,0l4.87,14h-2.25l-1.43-4.26H364L362.6,436Zm9.1-5.92L367,422.7l-2.47,7.41Z" transform="translate(-193.23 -348.79)"/><path class="cls-1" d="M385.09,422.4h-4V436H379V422.4h-4v-1.73h10.14Z" transform="translate(-193.23 -348.79)"/><path class="cls-1" d="M387.54,420.67h2.12V436h-2.12Z" transform="translate(-193.23 -348.79)"/><path class="cls-1" d="M400.15,434.71c-.35,1-.87,1.48-1.66,1.48s-1.31-.43-1.66-1.48l-4.68-14h2.25l4.12,13,4.16-13h2.15Z" transform="translate(-193.23 -348.79)"/><path class="cls-1" d="M406.07,436,411,422a1.79,1.79,0,0,1,3.53,0l4.87,14h-2.25l-1.43-4.26h-6.06L408.25,436Zm9.1-5.92-2.48-7.41-2.47,7.41Z" transform="translate(-193.23 -348.79)"/><path class="cls-1" d="M426.74,436l4.94-14a1.79,1.79,0,0,1,3.53,0l4.87,14h-2.25l-1.43-4.26h-6.06L428.92,436Zm9.1-5.92-2.48-7.41-2.47,7.41Z" transform="translate(-193.23 -348.79)"/><path class="cls-1" d="M442.6,420.67h2.12V436H442.6Z" transform="translate(-193.23 -348.79)"/><path class="cls-1" d="M457.11,436c-1.17.05-2.57.08-3.59.08-2.62,0-5.07-.14-5.07-3.5v-11.9h2.12v11c0,2.2.41,2.67,2.89,2.67h3.65Z" transform="translate(-193.23 -348.79)"/><path class="cls-1" d="M458.94,428.35c0-5.56,1.31-7.84,5.93-7.84s5.92,2.28,5.92,7.84-1.31,7.84-5.92,7.84S458.94,433.91,458.94,428.35Zm9.7,0c0-3.57-.13-6.07-3.77-6.07s-3.77,2.5-3.77,6.07.12,6.06,3.77,6.06S468.64,431.92,468.64,428.35Z" transform="translate(-193.23 -348.79)"/><path class="cls-1" d="M475.57,424.41c0,1.93,1,2.21,3.27,2.85,2.6.73,4.18,1.76,4.18,4.52,0,3.23-2,4.41-5.46,4.41a19,19,0,0,1-4-.4l.21-1.73a27,27,0,0,0,3.77.31c1.95,0,3.32-.44,3.32-2.51,0-1.82-1.32-2.25-3.08-2.79-2.71-.82-4.29-1.56-4.29-4.37,0-3.16,1.88-4.19,5.25-4.19a22,22,0,0,1,4,.39l-.2,1.68a21.65,21.65,0,0,0-3.11-.28C477.61,422.3,475.57,422.48,475.57,424.41Z" transform="translate(-193.23 -348.79)"/></svg>