<svg id="Camada_1" data-name="Camada 1" xmlns="http://www.w3.org/2000/svg" xmlns:xlink="http://www.w3.org/1999/xlink" viewBox="0 0 726.42 86.77"><defs><style>.cls-1{fill:#fff;}.cls-2{fill:url(#linear-gradient);}.cls-3{fill:url(#linear-gradient-2);}.cls-4{fill:#876b26;}.cls-5{fill:url(#linear-gradient-3);}.cls-6{fill:#007d88;}.cls-7{fill:#027042;}.cls-8{fill:url(#linear-gradient-4);}.cls-9{fill:url(#linear-gradient-5);}.cls-10{fill:#926b17;}.cls-11{fill:url(#linear-gradient-6);}.cls-12{fill:#007e8b;}.cls-13{fill:#00713c;}</style><linearGradient id="linear-gradient" x1="582.69" y1="246.7" x2="638.78" y2="246.7" gradientUnits="userSpaceOnUse"><stop offset="0" stop-color="#0ea7cc"/><stop offset="0.41" stop-color="#0da5c9"/><stop offset="0.66" stop-color="#0a9dc1"/><stop offset="0.86" stop-color="#068fb3"/><stop offset="1" stop-color="#0181a4"/></linearGradient><linearGradient id="linear-gradient-2" x1="591.1" y1="207.2" x2="641.05" y2="207.2" gradientUnits="userSpaceOnUse"><stop offset="0" stop-color="#fda101"/><stop offset="0.35" stop-color="#faa001"/><stop offset="0.56" stop-color="#f29c01"/><stop offset="0.73" stop-color="#e49401"/><stop offset="0.89" stop-color="#d08a01"/><stop offset="1" stop-color="#bb8001"/></linearGradient><linearGradient id="linear-gradient-3" x1="562.03" y1="221.87" x2="591.1" y2="221.87" gradientUnits="userSpaceOnUse"><stop offset="0" stop-color="#09af41"/><stop offset="0.39" stop-color="#09ac40"/><stop offset="0.62" stop-color="#08a43f"/><stop offset="0.82" stop-color="#07963c"/><stop offset="0.99" stop-color="#068237"/><stop offset="1" stop-color="#068037"/></linearGradient><linearGradient id="linear-gradient-4" x1="90.08" y1="246.64" x2="146.12" y2="246.64" gradientUnits="userSpaceOnUse"><stop offset="0" stop-color="#00aad0"/><stop offset="0.41" stop-color="#00a8cd"/><stop offset="0.66" stop-color="#009fc5"/><stop offset="0.86" stop-color="#0091b7"/><stop offset="1" stop-color="#0083a8"/></linearGradient><linearGradient id="linear-gradient-5" x1="98.48" y1="207.17" x2="148.38" y2="207.17" gradientUnits="userSpaceOnUse"><stop offset="0" stop-color="#ffa400"/><stop offset="0.39" stop-color="#fca200"/><stop offset="0.62" stop-color="#f49c00"/><stop offset="0.82" stop-color="#e69100"/><stop offset="0.99" stop-color="#d28100"/><stop offset="1" stop-color="#d08000"/></linearGradient><linearGradient id="linear-gradient-6" x1="69.45" y1="221.83" x2="98.48" y2="221.83" gradientUnits="userSpaceOnUse"><stop offset="0" stop-color="#00b231"/><stop offset="0.39" stop-color="#00af31"/><stop offset="0.62" stop-color="#00a730"/><stop offset="0.81" stop-color="#00992f"/><stop offset="0.98" stop-color="#00852d"/><stop offset="1" stop-color="#00822d"/></linearGradient></defs><path class="cls-1" d="M650,258.4c0,1,.54,1.16,1.73,1.49,1.38.38,2.22.92,2.22,2.37,0,1.69-1,2.31-2.9,2.31a10.19,10.19,0,0,1-2.14-.21l.11-.91a15.24,15.24,0,0,0,2,.16c1,0,1.77-.23,1.77-1.31s-.71-1.18-1.64-1.46c-1.44-.43-2.28-.82-2.28-2.29,0-1.65,1-2.19,2.79-2.19a11.84,11.84,0,0,1,2.12.2l-.1.88a12.23,12.23,0,0,0-1.66-.14C651.1,257.3,650,257.39,650,258.4Z" transform="translate(-69.45 -185.38)"/><path class="cls-1" d="M655.57,256.44h1.13v8h-1.13Z" transform="translate(-69.45 -185.38)"/><path class="cls-1" d="M659.41,258.4c0,1,.54,1.16,1.73,1.49,1.38.38,2.22.92,2.22,2.37,0,1.69-1,2.31-2.9,2.31a10.19,10.19,0,0,1-2.14-.21l.11-.91a15.24,15.24,0,0,0,2,.16c1,0,1.77-.23,1.77-1.31s-.71-1.18-1.64-1.46c-1.44-.43-2.28-.82-2.28-2.29,0-1.65,1-2.19,2.79-2.19a11.84,11.84,0,0,1,2.12.2l-.1.88a12.23,12.23,0,0,0-1.66-.14C660.49,257.3,659.41,257.39,659.41,258.4Z" transform="translate(-69.45 -185.38)"/><path class="cls-1" d="M669.91,257.35h-2.13v7.13h-1.13v-7.13h-2.13v-.91h5.39Z" transform="translate(-69.45 -185.38)"/><path class="cls-1" d="M676,257.34h-2.08c-1.31,0-1.54.25-1.54,1.4v1.2h3.46v.89H672.4v1.36c0,1.15.23,1.4,1.54,1.4H676v.86c-.62,0-1.45.05-2,.05-1.4,0-2.7-.07-2.7-1.83v-4.42c0-1.76,1.3-1.83,2.7-1.83.53,0,1.41,0,2,.05Z" transform="translate(-69.45 -185.38)"/><path class="cls-1" d="M681.68,262l2.13-4.92c.21-.48.52-.71.85-.71.49,0,.71.24.74.79l.38,7.33h-1.1l-.32-6.47-2,4.88a.68.68,0,0,1-.64.5.67.67,0,0,1-.64-.5L679,258l-.33,6.46h-1l.39-7.33c0-.55.25-.79.73-.79.33,0,.63.21.84.69Z" transform="translate(-69.45 -185.38)"/><path class="cls-1" d="M687.2,264.48l2.62-7.35a1,1,0,0,1,.94-.77,1,1,0,0,1,.93.77l2.59,7.35h-1.19l-.76-2.23h-3.22l-.76,2.23Zm4.83-3.1-1.32-3.88-1.31,3.88Z" transform="translate(-69.45 -185.38)"/><path class="cls-1" d="M698.82,256.55a16.75,16.75,0,0,1,2.5-.19c3,0,3.51,1.37,3.51,4.1s-.53,4.11-3.51,4.11a16.66,16.66,0,0,1-2.5-.2Zm1.12.81v6.2a10.21,10.21,0,0,0,1.15.08c2.59,0,2.61-1.37,2.61-3.18s0-3.18-2.61-3.18A10.21,10.21,0,0,0,699.94,257.36Z" transform="translate(-69.45 -185.38)"/><path class="cls-1" d="M711.35,257.34h-2.08c-1.32,0-1.54.25-1.54,1.4v1.2h3.46v.89h-3.46v1.36c0,1.15.22,1.4,1.54,1.4h2.08v.86c-.62,0-1.46.05-2.05.05-1.39,0-2.69-.07-2.69-1.83v-4.42c0-1.76,1.3-1.83,2.69-1.83.54,0,1.42,0,2.05.05Z" transform="translate(-69.45 -185.38)"/><path class="cls-1" d="M721.22,264.37a9.2,9.2,0,0,1-1.92.2c-2.62,0-3.26-1.25-3.26-4.11s.64-4.1,3.26-4.1a9.35,9.35,0,0,1,1.92.19l-.1.88a9.07,9.07,0,0,0-1.49-.13c-2.32,0-2.44,1.21-2.44,3.16s.14,3.16,2.44,3.16a10.33,10.33,0,0,0,1.49-.12Z" transform="translate(-69.45 -185.38)"/><path class="cls-1" d="M722.34,260.46c0-2.91.7-4.1,3.15-4.1s3.15,1.19,3.15,4.1-.7,4.11-3.15,4.11S722.34,263.37,722.34,260.46Zm5.15,0c0-1.87-.06-3.17-2-3.17s-2,1.3-2,3.17.06,3.18,2,3.18S727.49,262.33,727.49,260.46Z" transform="translate(-69.45 -185.38)"/><path class="cls-1" d="M730.25,260.46c0-2.91.7-4.1,3.15-4.1s3.15,1.19,3.15,4.1-.7,4.11-3.15,4.11S730.25,263.37,730.25,260.46Zm5.16,0c0-1.87-.07-3.17-2-3.17s-2,1.3-2,3.17.06,3.18,2,3.18S735.41,262.33,735.41,260.46Z" transform="translate(-69.45 -185.38)"/><path class="cls-1" d="M739.49,264.48h-1.12v-7.92a15.48,15.48,0,0,1,2.51-.2c1.74,0,3.16.35,3.16,2.46s-1.27,2.51-3.07,2.51c-.42,0-1.09,0-1.48-.05Zm0-4.1c.53.05,1,.06,1.39.06,1.3,0,2-.32,2-1.62,0-1.12-.52-1.57-2-1.57a10.45,10.45,0,0,0-1.43.09Z" transform="translate(-69.45 -185.38)"/><path class="cls-1" d="M750.31,257.34h-2.08c-1.32,0-1.54.25-1.54,1.4v1.2h3.46v.89h-3.46v1.36c0,1.15.22,1.4,1.54,1.4h2.08v.86c-.62,0-1.46.05-2,.05-1.39,0-2.69-.07-2.69-1.83v-4.42c0-1.76,1.3-1.83,2.69-1.83.54,0,1.42,0,2,.05Z" transform="translate(-69.45 -185.38)"/><path class="cls-1" d="M752,264.48v-7.92a15.57,15.57,0,0,1,2.51-.2c1.72,0,3.16.33,3.16,2.43a2.09,2.09,0,0,1-1.84,2.37l1.93,3.32h-1.31l-1.79-3.22h-.06c-.43,0-1.09,0-1.48-.05v3.27Zm1.12-4.18a11.64,11.64,0,0,0,1.39.07c1.29,0,2-.32,2-1.59,0-1.11-.53-1.54-2-1.54a10.65,10.65,0,0,0-1.43.1Z" transform="translate(-69.45 -185.38)"/><path class="cls-1" d="M759,264.48l2.62-7.35a1,1,0,0,1,.94-.77,1,1,0,0,1,.93.77l2.59,7.35h-1.19l-.76-2.23h-3.22l-.76,2.23Zm4.83-3.1-1.32-3.88-1.31,3.88Z" transform="translate(-69.45 -185.38)"/><path class="cls-1" d="M771.25,257.35h-2.12v7.13H768v-7.13h-2.13v-.91h5.38Z" transform="translate(-69.45 -185.38)"/><path class="cls-1" d="M772.7,256.44h1.13v8H772.7Z" transform="translate(-69.45 -185.38)"/><path class="cls-1" d="M779.52,263.79c-.18.55-.46.78-.88.78s-.69-.23-.88-.78l-2.49-7.35h1.2l2.19,6.79,2.21-6.79H782Z" transform="translate(-69.45 -185.38)"/><path class="cls-1" d="M781.69,264.48l2.62-7.35a1,1,0,0,1,1.87,0l2.59,7.35h-1.2l-.76-2.23h-3.22l-.75,2.23Zm4.83-3.1-1.32-3.88-1.31,3.88Z" transform="translate(-69.45 -185.38)"/><path class="cls-1" d="M790.89,258.4c0,1,.54,1.16,1.73,1.49,1.38.38,2.22.92,2.22,2.37,0,1.69-1,2.31-2.9,2.31a10.19,10.19,0,0,1-2.14-.21l.11-.91a15.24,15.24,0,0,0,2,.16c1,0,1.77-.23,1.77-1.31s-.71-1.18-1.64-1.46c-1.44-.43-2.28-.82-2.28-2.29,0-1.65,1-2.19,2.79-2.19a11.84,11.84,0,0,1,2.12.2l-.1.88a12.23,12.23,0,0,0-1.66-.14C792,257.3,790.89,257.39,790.89,258.4Z" transform="translate(-69.45 -185.38)"/><path class="cls-1" d="M649,244.65l11.74-34.37c1.32-3.86,3.45-5.5,6.49-5.5s5.16,1.74,6.43,5.5l11.54,34.37h-8.5l-3-9.77H660.2l-2.94,9.77Zm22.8-15.92-4.91-16-4.83,16Z" transform="translate(-69.45 -185.38)"/><path class="cls-1" d="M689.72,205.18h8v39.47h-8Z" transform="translate(-69.45 -185.38)"/><path class="cls-1" d="M729.42,244.48c-2.8.12-7.62.27-10.1.27-7.13,0-13.7-.39-13.7-9.64V205.18h8v27.7c0,4.39.79,5.37,5.52,5.37h10.25Z" transform="translate(-69.45 -185.38)"/><path class="cls-1" d="M733,224.92c0-14.3,3.5-20.14,15.78-20.14s15.77,5.84,15.77,20.14-3.5,20.14-15.77,20.14S733,239.21,733,224.92Zm23.42,0c0-8-.17-13.55-7.64-13.55s-7.65,5.5-7.65,13.55.17,13.53,7.65,13.53S756.39,233,756.39,224.92Z" transform="translate(-69.45 -185.38)"/><path class="cls-1" d="M777.81,215.38c0,4,2.71,4.51,7.25,5.73,7.56,2,10.81,5,10.81,12.11,0,8.7-5.3,11.84-14.65,11.84a53.56,53.56,0,0,1-11.4-1.22l.78-6.32a83.33,83.33,0,0,0,10.33.88c4.15,0,6.69-.93,6.69-4.89,0-3.68-2.9-4.51-6.55-5.63-7.08-2.17-11.25-4.35-11.25-11.81,0-8.55,5-11.29,14.13-11.29A56.69,56.69,0,0,1,795.24,206l-.72,6.15a58.4,58.4,0,0,0-8.69-.86C782.64,211.3,777.81,211.43,777.81,215.38Z" transform="translate(-69.45 -185.38)"/><path class="cls-1" d="M621.11,229.63l-7.62-18.69c-.76-1.73-1.32-3-2.46-3s-1.71,1.32-2.4,3L604,221.72l-4.59-10.78c-.69-1.65-1.24-3-2.4-3s-1.7,1.24-2.46,3l-7.63,18.67a3.61,3.61,0,0,0,3.54,5.18h3.35l0,4.25a2.77,2.77,0,0,0,2.77,2.77h1a2.77,2.77,0,0,0,2.77-2.77V237a1.62,1.62,0,0,0,0-.22v-2h3.38l.33,0,.32,0h3.38v2a1.62,1.62,0,0,0,0,.22v2.08a2.77,2.77,0,0,0,2.77,2.77h1a2.77,2.77,0,0,0,2.77-2.77l0-4.25h3.35a3.6,3.6,0,0,0,3.53-5.19Zm-20.33,3.12h-2.54v6.32a.7.7,0,0,1-.7.7h-1a.7.7,0,0,1-.7-.7l0-2.52v-3.8h-5.42a1.56,1.56,0,0,1-1.62-2.34l7.61-18.64c.1-.24.33-.75.54-1.18.14.29.32.68.52,1.16l5.36,12.62-2.05,5.27A4,4,0,0,0,600.78,232.75Zm4.5-.69a1.54,1.54,0,0,1-2.53,0,1.82,1.82,0,0,1,0-1.65l1.26-3.23,1.29,3.23A1.84,1.84,0,0,1,605.28,232.06Zm13.87,0a1.8,1.8,0,0,1-1.57.66h-5.42l0,6.32a.7.7,0,0,1-.7.7h-1a.7.7,0,0,1-.7-.7v-6.32h-2.54a4,4,0,0,0,0-3.11l-2.12-5.28,5.44-12.62c.19-.47.36-.86.51-1.15.21.43.43.94.53,1.16l7.61,18.65A1.8,1.8,0,0,1,619.15,232.09Z" transform="translate(-69.45 -185.38)"/><path class="cls-2" d="M625.2,243.87A28.88,28.88,0,0,1,604,253.1c-.89,0-1.76,0-2.63-.12a31.43,31.43,0,0,1-18.68-.8A31.29,31.29,0,0,0,638.51,229,31.44,31.44,0,0,1,625.2,243.87Z" transform="translate(-69.45 -185.38)"/><path class="cls-3" d="M608.87,195.62A29,29,0,0,1,630,211.4,31.14,31.14,0,0,1,638.51,229a31.28,31.28,0,0,0-47.41-37.45c.73-.05,1.47-.08,2.22-.08A31,31,0,0,1,608.87,195.62Z" transform="translate(-69.45 -185.38)"/><path class="cls-4" d="M633,224.15a28.86,28.86,0,0,1-7.76,19.72A31.44,31.44,0,0,0,638.51,229,31.14,31.14,0,0,0,630,211.4,28.87,28.87,0,0,1,633,224.15Z" transform="translate(-69.45 -185.38)"/><path class="cls-5" d="M576.22,232.34a29,29,0,0,1,3.27-23.61,31.28,31.28,0,0,1,11.61-17.17,31.28,31.28,0,0,0-8.41,60.62,31.15,31.15,0,0,1-6.48-19.06C576.21,232.86,576.21,232.6,576.22,232.34Z" transform="translate(-69.45 -185.38)"/><path class="cls-6" d="M601.37,253a29,29,0,0,1-25.15-20.64c0,.26,0,.52,0,.78a31.15,31.15,0,0,0,6.48,19.06,31.43,31.43,0,0,0,18.68.8Z" transform="translate(-69.45 -185.38)"/><path class="cls-7" d="M579.49,208.73a29,29,0,0,1,29.38-13.11,31,31,0,0,0-15.55-4.14c-.75,0-1.49,0-2.22.08A31.28,31.28,0,0,0,579.49,208.73Z" transform="translate(-69.45 -185.38)"/><path class="cls-1" d="M128.47,229.58l-7.62-18.66c-.75-1.73-1.31-3-2.45-3s-1.71,1.31-2.4,3l-4.64,10.77-4.58-10.76c-.69-1.66-1.24-3-2.4-3s-1.7,1.24-2.46,3L94.3,229.6a3.6,3.6,0,0,0,3.53,5.17h3.36V239a2.77,2.77,0,0,0,2.77,2.76h1A2.77,2.77,0,0,0,107.7,239v-2.08a1.85,1.85,0,0,0,0-.23v-1.94h3.37l.33,0,.32,0h3.38v1.94a1.85,1.85,0,0,0,0,.23V239a2.77,2.77,0,0,0,2.77,2.76h1a2.77,2.77,0,0,0,2.77-2.76v-4.25h3.35a3.6,3.6,0,0,0,3.53-5.19Zm-20.31,3.12h-2.54V239a.7.7,0,0,1-.7.7h-1a.7.7,0,0,1-.7-.7l0-2.53V232.7H97.83a1.81,1.81,0,0,1-1.56-.65,1.78,1.78,0,0,1,0-1.68l7.6-18.63c.11-.23.33-.75.54-1.18.15.3.32.68.52,1.16l5.36,12.61-2,5.27A4,4,0,0,0,108.16,232.7Zm4.49-.69a1.61,1.61,0,0,1-1.26.66,1.59,1.59,0,0,1-1.26-.67,1.82,1.82,0,0,1,0-1.65l1.26-3.23,1.3,3.23A1.87,1.87,0,0,1,112.65,232Zm13.86,0a1.83,1.83,0,0,1-1.57.65h-5.42V239a.71.71,0,0,1-.7.7h-1a.7.7,0,0,1-.7-.7V232.7h-2.53a4,4,0,0,0,0-3.1l-2.12-5.28,5.43-12.6c.2-.48.37-.86.51-1.16.22.43.44.94.53,1.16l7.61,18.63A1.82,1.82,0,0,1,126.51,232.05Z" transform="translate(-69.45 -185.38)"/><path class="cls-8" d="M132.55,243.81A28.85,28.85,0,0,1,111.37,253c-.88,0-1.76,0-2.62-.12a31.4,31.4,0,0,1-18.67-.8A31.26,31.26,0,0,0,145.85,229,31.39,31.39,0,0,1,132.55,243.81Z" transform="translate(-69.45 -185.38)"/><path class="cls-9" d="M116.24,195.61a29,29,0,0,1,21.11,15.76,31.14,31.14,0,0,1,8.5,17.59,31.26,31.26,0,0,0-47.37-37.41c.74-.05,1.47-.08,2.22-.08A31.07,31.07,0,0,1,116.24,195.61Z" transform="translate(-69.45 -185.38)"/><path class="cls-10" d="M140.3,224.11a28.82,28.82,0,0,1-7.75,19.7A31.39,31.39,0,0,0,145.85,229a31.14,31.14,0,0,0-8.5-17.59A28.82,28.82,0,0,1,140.3,224.11Z" transform="translate(-69.45 -185.38)"/><path class="cls-11" d="M83.62,232.3a29.11,29.11,0,0,1-1.17-8.19,28.8,28.8,0,0,1,4.44-15.4,31.31,31.31,0,0,1,11.59-17.16,31.25,31.25,0,0,0-8.4,60.56,31.14,31.14,0,0,1-6.47-19C83.61,232.81,83.62,232.55,83.62,232.3Z" transform="translate(-69.45 -185.38)"/><path class="cls-12" d="M108.75,252.91A29,29,0,0,1,83.62,232.3c0,.25,0,.51,0,.77a31.14,31.14,0,0,0,6.47,19,31.4,31.4,0,0,0,18.67.8Z" transform="translate(-69.45 -185.38)"/><path class="cls-13" d="M86.89,208.71a28.86,28.86,0,0,1,29.35-13.1,31.07,31.07,0,0,0-15.54-4.14c-.75,0-1.48,0-2.22.08A31.31,31.31,0,0,0,86.89,208.71Z" transform="translate(-69.45 -185.38)"/><path class="cls-1" d="M156.32,244.59,168,210.26c1.32-3.86,3.46-5.5,6.48-5.5s5.17,1.74,6.44,5.5l11.52,34.33H184l-3-9.76H167.52l-3,9.76Zm22.77-15.91-4.9-15.94-4.83,15.94Z" transform="translate(-69.45 -185.38)"/><path class="cls-1" d="M222.52,243.81a40.81,40.81,0,0,1-10.3,1.19c-13.1,0-16.33-6.13-16.33-20.12s3.25-20.12,16.33-20.12a40.63,40.63,0,0,1,10.3,1.2l-.71,6.17a50.74,50.74,0,0,0-8.12-.67c-9.48,0-9.65,5.67-9.65,13.42s.14,13.42,9.65,13.42a50.28,50.28,0,0,0,8.1-.68Z" transform="translate(-69.45 -185.38)"/><path class="cls-1" d="M236.19,244.59h-8V205.84A74.74,74.74,0,0,1,241,204.76c8.71,0,15.84,1.72,15.84,12.38,0,7-2.93,10.26-7.57,11.66l9,15.79h-9.2L241,229.72c-1.61,0-3.44-.09-4.82-.17Zm0-21.41a41.57,41.57,0,0,0,4.87.21c5,0,7.89-1.27,7.89-6.28,0-4.37-2-6.11-7.72-6.11a39.39,39.39,0,0,0-5,.34Z" transform="translate(-69.45 -185.38)"/><path class="cls-1" d="M288.13,211.56H277.25c-4.72,0-5.54,1-5.54,5.33v4.47h15.67v6.36H271.71v5.11c0,4.37.82,5.36,5.54,5.36h10.88v6.2c-2.78.13-8.07.3-10.71.3-7.13,0-13.69-.39-13.69-9.63V214.67c0-9.24,6.56-9.61,13.69-9.61,2.86,0,8,.15,10.71.29Z" transform="translate(-69.45 -185.38)"/><path class="cls-1" d="M295.45,205.87a73.26,73.26,0,0,1,12.84-1.11c14.77,0,17.4,6.71,17.4,20.12S323.06,245,308.29,245a74.23,74.23,0,0,1-12.84-1.09Zm8,5.71v26.6a25.55,25.55,0,0,0,3.74.28c10.39,0,10.47-5.88,10.47-13.58s-.08-13.58-10.47-13.58A27,27,0,0,0,303.45,211.58Z" transform="translate(-69.45 -185.38)"/><path class="cls-1" d="M332.56,205.16h8v39.43h-8Z" transform="translate(-69.45 -185.38)"/><path class="cls-1" d="M374,243.81A40.89,40.89,0,0,1,363.69,245c-13.1,0-16.33-6.13-16.33-20.12s3.25-20.12,16.33-20.12A40.72,40.72,0,0,1,374,206l-.71,6.17a50.87,50.87,0,0,0-8.13-.67c-9.47,0-9.64,5.67-9.64,13.42s.13,13.42,9.64,13.42a50.4,50.4,0,0,0,8.11-.68Z" transform="translate(-69.45 -185.38)"/><path class="cls-1" d="M378.57,224.88c0-14.29,3.51-20.12,15.78-20.12s15.75,5.83,15.75,20.12S406.6,245,394.35,245,378.57,239.16,378.57,224.88Zm23.41,0c0-8-.17-13.54-7.63-13.54s-7.65,5.5-7.65,13.54.17,13.52,7.65,13.52S402,232.91,402,224.88Z" transform="translate(-69.45 -185.38)"/><path class="cls-1" d="M415.91,224.88c0-14.29,3.5-20.12,15.77-20.12s15.76,5.83,15.76,20.12S443.93,245,431.68,245,415.91,239.16,415.91,224.88Zm23.4,0c0-8-.16-13.54-7.63-13.54s-7.65,5.5-7.65,13.54.17,13.52,7.65,13.52S439.31,232.91,439.31,224.88Z" transform="translate(-69.45 -185.38)"/><path class="cls-1" d="M462.34,244.59h-8V205.84a74.74,74.74,0,0,1,12.83-1.08c8.78,0,15.84,1.74,15.84,12.52,0,10.47-6.37,12.74-15.42,12.74-1.73,0-3.74-.08-5.26-.19Zm0-21.08a39.51,39.51,0,0,0,4.87.22c5,0,7.87-1.31,7.87-6.45,0-4.49-1.88-6.26-7.7-6.26a39.15,39.15,0,0,0-5,.34Z" transform="translate(-69.45 -185.38)"/><path class="cls-1" d="M166.1,271.78a17.25,17.25,0,0,1-3.62.38c-4.93,0-6.14-2.39-6.14-7.84s1.22-7.84,6.14-7.84a16.68,16.68,0,0,1,3.62.38l-.2,1.67a18.11,18.11,0,0,0-2.8-.25c-4.37,0-4.6,2.32-4.6,6s.26,6,4.6,6a18.47,18.47,0,0,0,2.81-.24Z" transform="translate(-69.45 -185.38)"/><path class="cls-1" d="M168.39,264.32c0-5.56,1.32-7.84,5.93-7.84s5.92,2.28,5.92,7.84-1.3,7.84-5.92,7.84S168.39,269.88,168.39,264.32Zm9.7,0c0-3.57-.13-6.06-3.77-6.06s-3.77,2.49-3.77,6.06.12,6.07,3.77,6.07S178.09,267.89,178.09,264.32Z" transform="translate(-69.45 -185.38)"/><path class="cls-1" d="M183.27,264.32c0-5.56,1.31-7.84,5.93-7.84s5.92,2.28,5.92,7.84-1.31,7.84-5.92,7.84S183.27,269.88,183.27,264.32Zm9.7,0c0-3.57-.13-6.06-3.77-6.06s-3.77,2.49-3.77,6.06.12,6.07,3.77,6.07S193,267.89,193,264.32Z" transform="translate(-69.45 -185.38)"/><path class="cls-1" d="M200.64,272h-2.12V256.87a28.66,28.66,0,0,1,4.72-.39c3.29,0,6,.67,6,4.7s-2.39,4.8-5.78,4.8c-.8,0-2.06-.05-2.78-.09Zm0-7.84a22.09,22.09,0,0,0,2.6.12c2.47,0,3.85-.62,3.85-3.1,0-2.14-1-3-3.77-3a21.78,21.78,0,0,0-2.68.18Z" transform="translate(-69.45 -185.38)"/><path class="cls-1" d="M220.82,258.36H216.9c-2.47,0-2.89.47-2.89,2.67v2.3h6.51V265H214v2.59c0,2.21.42,2.67,2.89,2.67h3.92V272c-1.16.05-2.74.09-3.85.09-2.63,0-5.07-.14-5.07-3.5v-8.43c0-3.36,2.44-3.51,5.07-3.51,1,0,2.67,0,3.85.1Z" transform="translate(-69.45 -185.38)"/><path class="cls-1" d="M224.06,272V256.87a28.66,28.66,0,0,1,4.72-.39c3.26,0,6,.64,6,4.64,0,2.91-1.36,4.12-3.46,4.54l3.63,6.34h-2.47l-3.37-6.14H229c-.8,0-2.06-.06-2.78-.1V272Zm2.12-8a20.2,20.2,0,0,0,2.6.12c2.44,0,3.85-.61,3.85-3,0-2.12-1-2.95-3.77-2.95a20,20,0,0,0-2.68.19Z" transform="translate(-69.45 -185.38)"/><path class="cls-1" d="M236.74,272,241.68,258a1.79,1.79,0,0,1,3.53,0L250.07,272h-2.25l-1.43-4.26h-6.06L238.91,272Zm9.1-5.92-2.49-7.41-2.47,7.41Z" transform="translate(-69.45 -185.38)"/><path class="cls-1" d="M261.4,258.38h-4V272h-2.13V258.38h-4v-1.74H261.4Z" transform="translate(-69.45 -185.38)"/><path class="cls-1" d="M263.85,256.64H266V272h-2.12Z" transform="translate(-69.45 -185.38)"/><path class="cls-1" d="M276.46,270.68c-.35,1-.87,1.48-1.66,1.48s-1.31-.43-1.66-1.48l-4.68-14h2.25l4.12,13,4.16-13h2.16Z" transform="translate(-69.45 -185.38)"/><path class="cls-1" d="M282.38,272,287.33,258a1.79,1.79,0,0,1,3.52,0L295.72,272h-2.25L292,267.74H286L284.56,272Zm9.11-5.92L289,258.67l-2.47,7.41Z" transform="translate(-69.45 -185.38)"/><path class="cls-1" d="M303.05,272,308,258a1.79,1.79,0,0,1,3.52,0L316.39,272h-2.25l-1.43-4.26h-6.06L305.23,272Zm9.11-5.92-2.49-7.41-2.47,7.41Z" transform="translate(-69.45 -185.38)"/><path class="cls-1" d="M318.91,256.64H321V272h-2.12Z" transform="translate(-69.45 -185.38)"/><path class="cls-1" d="M333.42,272c-1.17.05-2.57.08-3.59.08-2.62,0-5.07-.14-5.07-3.5v-11.9h2.12v11c0,2.19.41,2.67,2.89,2.67h3.65Z" transform="translate(-69.45 -185.38)"/><path class="cls-1" d="M335.25,264.32c0-5.56,1.31-7.84,5.93-7.84s5.92,2.28,5.92,7.84-1.31,7.84-5.92,7.84S335.25,269.88,335.25,264.32Zm9.7,0c0-3.57-.13-6.06-3.77-6.06s-3.77,2.49-3.77,6.06.12,6.07,3.77,6.07S345,267.89,345,264.32Z" transform="translate(-69.45 -185.38)"/><path class="cls-1" d="M351.88,260.38c0,1.93,1,2.21,3.27,2.85,2.6.74,4.18,1.76,4.18,4.52,0,3.23-2,4.41-5.46,4.41a18.79,18.79,0,0,1-4-.4L350,270a28.7,28.7,0,0,0,3.77.3c1.95,0,3.33-.43,3.33-2.51,0-1.82-1.33-2.24-3.09-2.78-2.71-.83-4.29-1.57-4.29-4.38,0-3.16,1.88-4.19,5.25-4.19a22,22,0,0,1,4,.39l-.2,1.68a23.09,23.09,0,0,0-3.11-.27C353.92,258.28,351.88,258.46,351.88,260.38Z" transform="translate(-69.45 -185.38)"/></svg>