<svg width="48" height="48" viewBox="0 0 48 48" fill="none" xmlns="http://www.w3.org/2000/svg">
<circle cx="24" cy="24" r="24" fill="#F4F4F4"/>
<path d="M12 24C12.0032 20.8184 13.2685 17.7681 15.5182 15.5183C17.768 13.2686 20.8183 12.0033 24 12.0001C25.6272 11.9941 27.2384 12.3222 28.7338 12.9639C30.2292 13.6057 31.5771 14.5472 32.6939 15.7307C32.7641 15.8043 32.819 15.8912 32.8555 15.9862C32.892 16.0812 32.9092 16.1825 32.9063 16.2841C32.9011 16.4888 32.8147 16.683 32.6663 16.8241C32.5221 16.9606 32.3309 17.0367 32.1323 17.0365C32.0274 17.0369 31.9235 17.0157 31.827 16.9744C31.7306 16.9331 31.6435 16.8727 31.5713 16.7965C30.5985 15.7659 29.4246 14.9457 28.1222 14.3869C26.8198 13.828 25.4166 13.5424 23.9994 13.5475C21.2281 13.5502 18.5711 14.6523 16.6117 16.612C14.6522 18.5717 13.5504 21.2288 13.548 24C13.5507 26.7712 14.6528 29.4281 16.6123 31.3875C18.5719 33.347 21.2288 34.4488 24 34.4514C26.77 34.4471 29.4252 33.3444 31.3833 31.3852C33.3415 29.4259 34.4427 26.77 34.4454 24C34.4473 22.8149 34.2472 21.6381 33.8537 20.5202C33.7857 20.3264 33.7973 20.1136 33.8859 19.9284C33.9746 19.7431 34.133 19.6006 34.3266 19.532C34.4087 19.5039 34.4948 19.4894 34.5815 19.4892C34.7419 19.4888 34.8984 19.5381 35.0295 19.6304C35.1607 19.7227 35.2598 19.8534 35.3135 20.0045C35.7647 21.2874 35.9946 22.6378 35.9933 23.9977C35.9908 27.1786 34.7267 30.2285 32.4783 32.4785C30.2299 34.7286 27.1808 35.9951 24 36C20.8183 35.9968 17.768 34.7315 15.5182 32.4818C13.2685 30.232 12.0032 27.1817 12 24ZM23.1534 28.2601L18.0162 23.1229C17.8714 22.9781 17.7901 22.7816 17.7901 22.5768C17.7901 22.372 17.8714 22.1755 18.0162 22.0307C18.0877 21.9587 18.1728 21.9017 18.2665 21.8628C18.3602 21.824 18.4607 21.8042 18.5622 21.8045C18.6636 21.8043 18.7641 21.8243 18.8578 21.8631C18.9515 21.902 19.0366 21.9588 19.1082 22.0307L23.6994 26.6221L34.6793 15.642C34.7508 15.57 34.8359 15.5132 34.9296 15.4744C35.0234 15.4356 35.1239 15.4155 35.2253 15.4158C35.3267 15.4154 35.4272 15.4351 35.5209 15.4738C35.6146 15.5125 35.6998 15.5695 35.7713 15.6414C35.9155 15.7865 35.9965 15.9829 35.9965 16.1875C35.9965 16.3921 35.9155 16.5884 35.7713 16.7336L24.2417 28.2624C24.1703 28.3345 24.0853 28.3917 23.9915 28.4306C23.8978 28.4695 23.7973 28.4895 23.6958 28.4892C23.5949 28.4891 23.4951 28.4691 23.402 28.4303C23.3089 28.3915 23.2244 28.3346 23.1534 28.263V28.2601Z" fill="#00B140"/>
</svg>
